<svg xmlns="http://www.w3.org/2000/svg" width="19.4" height="19.4" viewBox="0 0 19.4 19.4"><defs><style>.a{fill:none;stroke:#4e2c90;stroke-width:1.4px;}</style></defs><path class="a" d="M14920.712,10506.607h0a1.9,1.9,0,0,1,1.9-1.895v-10.424a1.894,1.894,0,0,1-1.9-1.892h0a1.9,1.9,0,1,1,1.9,1.892v10.424a1.9,1.9,0,1,1-1.9,1.895Zm-14.21,0a1.894,1.894,0,0,1,1.892-1.895v-10.424a1.893,1.893,0,1,1,1.895-1.892,1.893,1.893,0,0,1-1.895,1.892v10.424a1.9,1.9,0,1,1-1.892,1.895Z" transform="translate(-14905.802 -10489.803)"/></svg>