<svg xmlns="http://www.w3.org/2000/svg" width="18.859" height="18.686" viewBox="0 0 18.859 18.686"><defs><style>.a{fill:#e0e0e3;stroke:#e0e0e3;stroke-width:0.1px;}</style></defs><g transform="translate(-108.136 -0.211)"><path class="a" d="M125.193,1.1a2.85,2.85,0,0,0-4.031,0l-11.3,11.3a.633.633,0,0,0-.163.279l-1.486,5.365a.633.633,0,0,0,.779.78l5.365-1.486a.633.633,0,0,0,.279-.163l11.3-11.3a2.853,2.853,0,0,0,0-4.031ZM111.242,12.807l9.248-9.248,2.983,2.983-9.248,9.248Zm-.6,1.2,2.383,2.383-3.3.913ZM125.04,4.974l-.672.672-2.983-2.983.672-.672a1.583,1.583,0,0,1,2.239,0l.743.743A1.586,1.586,0,0,1,125.04,4.974Zm0,0" transform="translate(0 0)"/></g></svg>