<svg xmlns="http://www.w3.org/2000/svg" width="9.249" height="12.834" viewBox="0 0 9.249 12.834"><defs><style>.a,.b{fill:#4e2c90;}.a{stroke:#fff;stroke-width:0.1px;}</style></defs><g transform="translate(0.05 0.076)"><path class="a" d="M46.98,1.4C46.687.97,46.428.573,46.186.21a.525.525,0,0,0-.138-.138.45.45,0,0,0-.621.138c-.224.363-.483.742-.794,1.191-1.364,2-3.4,5.023-3.4,6.75a4.554,4.554,0,0,0,1.346,3.228,4.612,4.612,0,0,0,3.228,1.329,4.6,4.6,0,0,0,4.575-4.575C50.381,6.407,48.344,3.4,46.98,1.4Zm1.433,9.339a3.651,3.651,0,0,1-2.607,1.07A3.724,3.724,0,0,1,43.2,10.74a3.651,3.651,0,0,1-1.07-2.607c0-1.45,1.951-4.333,3.245-6.249.155-.224.293-.449.432-.639.138.19.276.414.432.639,1.295,1.933,3.245,4.8,3.245,6.249A3.724,3.724,0,0,1,48.413,10.74Z" transform="translate(-41.232 0)"/><path class="b" d="M168.642,181.241a.363.363,0,0,0-.382.34,1.823,1.823,0,0,1-.269.864,1.721,1.721,0,0,1-.651.623.374.374,0,0,0,.368.651,2.453,2.453,0,0,0,.906-.878,2.409,2.409,0,0,0,.368-1.218A.363.363,0,0,0,168.642,181.241Z" transform="translate(-161.877 -173.315)"/></g></svg>