<svg xmlns="http://www.w3.org/2000/svg" width="17" height="19.881" viewBox="0 0 17 19.881"><defs><style>.a{fill:#e0e0e3;stroke:#e0e0e3;stroke-width:0.3px;}</style></defs><g transform="translate(-0.85 -0.85)"><g transform="translate(6.28 1.928)"><path class="a" d="M7.464,13.133A.464.464,0,0,1,7,12.669V3.856a1.856,1.856,0,0,1,3.711,0v7.886a.464.464,0,1,1-.928,0V3.856a.928.928,0,0,0-1.856,0v8.814A.464.464,0,0,1,7.464,13.133Z" transform="translate(-7 -2)"/></g><g transform="translate(9.104 1)"><path class="a" d="M13.261,12.133a.464.464,0,0,1-.464-.464V2.856a.929.929,0,0,0-.928-.928c-.511,0-.745.422-.745.934V3.79a.464.464,0,1,1-.928,0V2.862A1.715,1.715,0,0,1,11.87,1a1.857,1.857,0,0,1,1.856,1.856v8.814A.464.464,0,0,1,13.261,12.133Z" transform="translate(-10.197 -1)"/></g><g transform="translate(11.949 2.856)"><path class="a" d="M16.274,12.278a.464.464,0,0,1-.464-.464V4.856a.928.928,0,1,0-1.856,0,.464.464,0,0,1-.464.464c-.256,0,0-.582,0-.838,0-1.023.368-1.481,1.392-1.481a1.857,1.857,0,0,1,1.856,1.856v6.958A.464.464,0,0,1,16.274,12.278Z" transform="translate(-13.377 -3)"/></g><g transform="translate(1 5.048)"><path class="a" d="M13.906,20.9H8.755a3.989,3.989,0,0,1-3.393-1.867L1.283,12.561l-.005-.009A1.717,1.717,0,0,1,1,11.6a1.777,1.777,0,0,1,1.78-1.77,1.742,1.742,0,0,1,.909.249l.02.012,3.14,2.427A.441.441,0,0,1,7,13.129a.447.447,0,0,1-.612.145l-3.12-2.416-.028-.017a.85.85,0,0,0-.455-.125.888.888,0,0,0-.89.885.864.864,0,0,0,.123.451l.012.019,4.091,6.487a3.1,3.1,0,0,0,2.639,1.452h5.151a2.929,2.929,0,0,0,2.9-3.09l-.04-9.779c0-.489-.189-.893-.679-.893a.889.889,0,0,0-.89.885.444.444,0,0,1-.445.443c-.246,0-.246-.19-.246-.434a1.587,1.587,0,1,1,3.15,0l.04,9.779A3.816,3.816,0,0,1,13.906,20.9Z" transform="translate(-1 -5.363)"/></g></g></svg>