<svg xmlns="http://www.w3.org/2000/svg" width="27.187" height="19.691" viewBox="0 0 27.187 19.691"><defs><style>.a{fill:#fff;}</style></defs><path class="a" d="M412.819,70.821a.8.8,0,0,0-1.126,1.126,12.007,12.007,0,0,1,0,16.971.8.8,0,0,0,1.126,1.126,13.6,13.6,0,0,0,0-19.224Z" transform="translate(-389.611 -70.587)"/><path class="a" d="M367.4,116.241a.8.8,0,0,0-1.126,1.126,8.594,8.594,0,0,1,0,12.148.8.8,0,0,0,1.126,1.126,10.187,10.187,0,0,0,0-14.4Z" transform="translate(-346.603 -113.595)"/><path class="a" d="M321.946,161.693a.8.8,0,1,0-1.126,1.126,5.179,5.179,0,0,1,0,7.321.8.8,0,1,0,1.126,1.126,6.772,6.772,0,0,0,0-9.574Z" transform="translate(-303.563 -156.634)"/><path class="a" d="M1.593,80.433a11.921,11.921,0,0,1,3.512-8.486.8.8,0,1,0-1.126-1.126,13.6,13.6,0,0,0,0,19.224.8.8,0,1,0,1.126-1.126A11.921,11.921,0,0,1,1.593,80.433Z" transform="translate(0 -70.588)"/><path class="a" d="M65.812,123.441a8.532,8.532,0,0,1,2.514-6.074A.8.8,0,0,0,67.2,116.24a10.187,10.187,0,0,0,0,14.4.8.8,0,1,0,1.126-1.126A8.533,8.533,0,0,1,65.812,123.441Z" transform="translate(-60.809 -113.595)"/><path class="a" d="M131.6,161.693a.8.8,0,0,0-1.126,0,6.772,6.772,0,0,0,0,9.574.8.8,0,0,0,1.126-1.126,5.179,5.179,0,0,1,0-7.321A.8.8,0,0,0,131.6,161.693Z" transform="translate(-121.665 -156.634)"/><path class="a" d="M196.156,192.8a3.356,3.356,0,1,0,3.356,3.356A3.36,3.36,0,0,0,196.156,192.8Zm0,5.119a1.763,1.763,0,1,1,1.763-1.763A1.765,1.765,0,0,1,196.156,197.919Z" transform="translate(-182.562 -186.31)"/></svg>