<svg xmlns="http://www.w3.org/2000/svg" width="7.184" height="16.687" viewBox="0 0 7.184 16.687"><defs><style>.a{fill:#4e2c90;stroke:#fff;stroke-width:0.25px;}</style></defs><g transform="translate(0.125 0.125)"><path class="a" d="M25.554,10.2V2.087a2.087,2.087,0,1,0-4.173,0V10.2a3.467,3.467,0,1,0,4.173,0Zm-2.087,5.273a2.5,2.5,0,0,1-1.346-4.616.482.482,0,0,0,.222-.406V2.087a1.124,1.124,0,1,1,2.247,0v8.365a.481.481,0,0,0,.222.406,2.5,2.5,0,0,1-1.346,4.616Z" transform="translate(-20)"/><path class="a" d="M84.926,60V50.482a.482.482,0,0,0-.963,0V60a1.445,1.445,0,1,0,.963,0Zm-.482,1.843a.482.482,0,1,1,.482-.482A.482.482,0,0,1,84.445,61.846Z" transform="translate(-80.978 -48.395)"/></g></svg>