<svg xmlns="http://www.w3.org/2000/svg" width="18.399" height="16" viewBox="0 0 18.399 16"><defs><style>.a{fill:#e0e0e3;}</style></defs><g transform="translate(0 -33.39)"><g transform="translate(0 33.39)"><g transform="translate(0 0)"><path class="a" d="M18.4,41.39a8,8,0,0,0-15.992-.324L1.366,40.024A.8.8,0,0,0,.235,41.155l2.4,2.4a.8.8,0,0,0,1.131,0l2.4-2.4a.8.8,0,0,0-1.131-1.131L4.009,41.049a6.4,6.4,0,0,1,12.791.34c0,.017,0,.034,0,.05s0,.034,0,.052A6.4,6.4,0,0,1,16.62,42.9a.8.8,0,0,0,1.556.374,8.051,8.051,0,0,0,.222-1.758c0-.02,0-.039,0-.059S18.4,41.413,18.4,41.39Z" transform="translate(0 -33.39)"/><path class="a" d="M393.423,360.233a.8.8,0,0,0-1.125.118,6.4,6.4,0,0,1-1.011,1,.8.8,0,0,0,.99,1.258,8.018,8.018,0,0,0,1.264-1.245A.8.8,0,0,0,393.423,360.233Z" transform="translate(-376.932 -348.315)"/><path class="a" d="M269.341,429.233a6.453,6.453,0,0,1-1.411.156.8.8,0,1,0,0,1.6,8.027,8.027,0,0,0,1.762-.2.8.8,0,0,0-.351-1.561Z" transform="translate(-257.53 -414.99)"/></g></g></g></svg>