<svg xmlns="http://www.w3.org/2000/svg" width="10.67" height="14.55" viewBox="0 0 10.67 14.55"><defs><style>.a{fill:#4e2c90;stroke-width:0.6px;}.a,.b{stroke:#4e2c90;}.b{fill:none;stroke-linecap:round;stroke-width:1.4px;}</style></defs><g transform="translate(-249.418 -97.175)"><path class="a" d="M8.811,200.391H1.259A1.26,1.26,0,0,1,0,199.133v-5.874A1.26,1.26,0,0,1,1.259,192H8.811a1.26,1.26,0,0,1,1.259,1.259v5.874A1.26,1.26,0,0,1,8.811,200.391Zm-7.552-7.552a.42.42,0,0,0-.42.42v5.874a.42.42,0,0,0,.42.42H8.811a.42.42,0,0,0,.42-.42v-5.874a.42.42,0,0,0-.42-.42Zm0,0" transform="translate(249.718 -88.966)"/><path class="b" d="M251.812,103.345h0v-2.67a2.627,2.627,0,0,1,2.059-2.682,2.863,2.863,0,0,1,3.188,1.423"/></g></svg>