<svg xmlns="http://www.w3.org/2000/svg" width="114.375" height="22.102" viewBox="0 0 114.375 22.102">
  <g id="Group_116196" data-name="Group 116196" transform="translate(-22.853 -22.898)">
    <g id="Layer_1-2" data-name="Layer 1-2" transform="translate(377.236 343.973)">
      <path id="Path_182480" data-name="Path 182480" d="M68.692-295.194h2.579v1.263a2.961,2.961,0,0,1,2.807-1.358,2.925,2.925,0,0,1,2.628,1.683,3.563,3.563,0,0,1,1.311-1.294,3.337,3.337,0,0,1,4.454,1.179,4.14,4.14,0,0,1,.445,1.937c.013,1.609,0,3.217,0,4.826a.854.854,0,0,1-.01.148H80.341v-4.6a1.584,1.584,0,0,0-2.362-1.474,1.653,1.653,0,0,0-.876,1.654v4.424H74.508v-4.56a1.584,1.584,0,0,0-.536-1.336,1.7,1.7,0,0,0-1.742-.209,1.441,1.441,0,0,0-.937,1.3,4.154,4.154,0,0,0-.025.488v4.316H68.692Z" transform="translate(-360.143 -21.79)" fill="#fff"/>
      <path id="Path_182481" data-name="Path 182481" d="M-179.659-306.594h-2.632c-.07,0-.162-.113-.2-.193a2.576,2.576,0,0,0-3.45-1.1,2.375,2.375,0,0,0-1.14,1.357,4.007,4.007,0,0,0,0,2.806,2.256,2.256,0,0,0,2.055,1.6,2.459,2.459,0,0,0,2.532-1.361.318.318,0,0,1,.334-.2h2.5a4.991,4.991,0,0,1-1.02,2.2,4.713,4.713,0,0,1-3.172,1.706,6.042,6.042,0,0,1-2.761-.227,4.6,4.6,0,0,1-2.969-2.951,6.228,6.228,0,0,1,.2-4.838,4.634,4.634,0,0,1,3.892-2.718,5.8,5.8,0,0,1,2.938.352A4.768,4.768,0,0,1-179.659-306.594Z" transform="translate(-139.872 -8.783)" fill="#fff"/>
      <path id="Path_182482" data-name="Path 182482" d="M-107.518-293.909v-1.416h2.564v8.373h-2.567v-1.364a6.617,6.617,0,0,1-.629.754,3.371,3.371,0,0,1-4.323-.1,3.83,3.83,0,0,1-1.2-2.089,5.6,5.6,0,0,1,.3-3.664,3.443,3.443,0,0,1,4.542-1.753l.012.005A2.894,2.894,0,0,1-107.518-293.909Zm.012,2.773c-.021-.178-.028-.358-.064-.533a1.7,1.7,0,0,0-1.226-1.419,1.779,1.779,0,0,0-1.911.474,2.167,2.167,0,0,0-.484,1.716,1.8,1.8,0,0,0,2.478,1.686A1.913,1.913,0,0,0-107.506-291.136Z" transform="translate(-204.706 -21.654)" fill="#fff"/>
      <path id="Path_182483" data-name="Path 182483" d="M181.731-286.972h-2.551v-1.372c-.036,0-.058,0-.062.013a2.83,2.83,0,0,1-2.93,1.453,3.248,3.248,0,0,1-2.892-2.1,5.332,5.332,0,0,1,.092-4.574,3.414,3.414,0,0,1,4.136-1.77,2.626,2.626,0,0,1,1.5,1.156c.037.059.071.12.14.235v-1.416h2.571Zm-2.544-4.188c-.025-.2-.036-.405-.076-.6a1.771,1.771,0,0,0-1.664-1.44,1.709,1.709,0,0,0-1.842,1.256,3.153,3.153,0,0,0-.1.943,1.8,1.8,0,0,0,2.475,1.765A1.9,1.9,0,0,0,179.187-291.16Z" transform="translate(-448.818 -21.626)" fill="#fff"/>
      <path id="Path_182484" data-name="Path 182484" d="M3.09-286.91v-1.345c-.037.012-.056.013-.062.022a2.833,2.833,0,0,1-2.9,1.425,3.4,3.4,0,0,1-3.118-2.684,5.351,5.351,0,0,1,.457-4.264,3.432,3.432,0,0,1,4.454-1.309,3.04,3.04,0,0,1,1.17,1.165v-1.384H5.656v8.373Zm-3.674-4.157c0,.08.012.227.027.373a1.745,1.745,0,0,0,1.492,1.611,1.74,1.74,0,0,0,2.006-1.154,3.361,3.361,0,0,0,.123-1.238A1.66,1.66,0,0,0,1.941-293a1.786,1.786,0,0,0-1.906.312,2.01,2.01,0,0,0-.619,1.626Z" transform="translate(-298.898 -21.694)" fill="#fff"/>
      <path id="Path_182485" data-name="Path 182485" d="M292.124-293.907v-1.336h2.568v8.388h-2.558v-1.336c-.047.015-.068.015-.073.024a2.837,2.837,0,0,1-2.905,1.416,3.253,3.253,0,0,1-2.916-2.141,5.312,5.312,0,0,1,.128-4.574,3.415,3.415,0,0,1,4.247-1.686,2.546,2.546,0,0,1,1.336,1.063c.043.065.085.131.126.2Zm-1.841,4.891a1.75,1.75,0,0,0,1.781-1.389,2.73,2.73,0,0,0-.009-1.336,1.759,1.759,0,0,0-1.737-1.348,1.687,1.687,0,0,0-1.764,1.324,3.632,3.632,0,0,0-.067,1.09A1.706,1.706,0,0,0,290.284-289.016Z" transform="translate(-545.009 -21.745)" fill="#fff"/>
      <path id="Path_182486" data-name="Path 182486" d="M366.348-286.763h-2.6V-291.3a2.622,2.622,0,0,0-.071-.655,1.5,1.5,0,0,0-1.633-1.158,1.539,1.539,0,0,0-1.541,1.253,2.873,2.873,0,0,0-.061.607v4.477h-2.585v-8.365h2.568v1.355l.083.059a.414.414,0,0,1,.028-.114,2.98,2.98,0,0,1,2.957-1.392,2.989,2.989,0,0,1,2.794,2.849,8.164,8.164,0,0,1,.051.953v4.385Z" transform="translate(-606.386 -21.839)" fill="#fff"/>
      <path id="Path_182487" data-name="Path 182487" d="M-46.3-304.212v-2.176h1.107v-2.05H-42.6v2.031h1.673v2.193h-1.658v3.085c0,.7.215.913.929.913h.742v2.227c-.255,0-.514.012-.77,0a9.665,9.665,0,0,1-1.412-.119,2.369,2.369,0,0,1-2.041-2.354c-.059-1.14-.035-2.285-.049-3.428v-.322Z" transform="translate(-262.224 -10.602)" fill="#fff"/>
      <path id="Path_182488" data-name="Path 182488" d="M250.4-292.489c-.339,0-.673-.007-1.005,0a2.692,2.692,0,0,0-.511.064,1.6,1.6,0,0,0-1.36,1.741v3.9h-2.568v-8.379h2.555v1.449a3.658,3.658,0,0,1,2.886-1.551Z" transform="translate(-510.238 -21.817)" fill="#fff"/>
      <path id="Path_182489" data-name="Path 182489" d="M148.758-219.508h.891l-1.815,6.775h-.842c-.039,0-.064-.071-.082-.116q-.966-2.466-1.93-4.932l-.111-.273-1.425,5.309h-.891l1.816-6.774h.816c.043,0,.08.055.1.1q.626,1.6,1.247,3.193l.8,2.043Z" transform="translate(-423.039 -86.321)" fill="#fff"/>
      <path id="Path_182490" data-name="Path 182490" d="M294.418-216.082h-2.642l.177-.659h3.391a4.306,4.306,0,0,1-.949,2.1,4.164,4.164,0,0,1-3.117,1.587,2.878,2.878,0,0,1-1.633-.358,2.127,2.127,0,0,1-1.039-1.765,4.446,4.446,0,0,1,.769-2.746,4.326,4.326,0,0,1,3.738-2.046,2.369,2.369,0,0,1,2.012.923,2.169,2.169,0,0,1,.359,1.269H294.6c-.03,0-.058-.045-.064-.077a1.662,1.662,0,0,0-2.013-1.275,3.188,3.188,0,0,0-2.55,1.81,3.041,3.041,0,0,0-.312,2.442,1.711,1.711,0,0,0,1.844,1.039,3.269,3.269,0,0,0,2.9-2.182A.28.28,0,0,0,294.418-216.082Z" transform="translate(-547.4 -85.935)" fill="#fff"/>
      <path id="Path_182491" data-name="Path 182491" d="M338.692-206.972c-.3,1.009.122,1.643.891,1.774a2.078,2.078,0,0,0,2.215-1.14h.947c-.086.148-.159.3-.254.445a3.2,3.2,0,0,1-2.363,1.422,2.572,2.572,0,0,1-1.391-.166,1.775,1.775,0,0,1-.966-2.078,3.762,3.762,0,0,1,.594-1.587,3.3,3.3,0,0,1,2.524-1.554,2.387,2.387,0,0,1,1.485.263,1.916,1.916,0,0,1,.569,2.524c-.015.037-.082.076-.129.1a.274.274,0,0,1-.11,0Zm3.456-.436a1.415,1.415,0,0,0,.019-1.136,1.649,1.649,0,0,0-2.3-.3,2.4,2.4,0,0,0-1.067,1.427Z" transform="translate(-589.249 -94.534)" fill="#fff"/>
      <path id="Path_182492" data-name="Path 182492" d="M193.764-206.344h.931a3.18,3.18,0,0,1-1.211,1.388c-1.106.713-2.914.742-3.53-.312a2.114,2.114,0,0,1-.227-1.446,3.888,3.888,0,0,1,.772-1.845,3.266,3.266,0,0,1,2.346-1.3,2.343,2.343,0,0,1,1.485.264,1.787,1.787,0,0,1,.682,2.193c-.037.135-.089.27-.141.425h-4.222a1.233,1.233,0,0,0,.808,1.759A2.089,2.089,0,0,0,193.764-206.344Zm-3.008-1.066h3.355c.3-.793.068-1.6-.906-1.724a2.289,2.289,0,0,0-2.451,1.724Z" transform="translate(-463.174 -94.536)" fill="#fff"/>
      <path id="Path_182493" data-name="Path 182493" d="M377.032-204.612h-.87l1.412-5.27h.873l-.3,1.115c.027-.01.042-.012.046-.019a2.6,2.6,0,0,1,2.446-1.177,1.417,1.417,0,0,1,1.256,1.93c-.19.839-.435,1.68-.655,2.524-.079.3-.159.594-.242.9h-.88l.047-.175c.239-.891.484-1.781.714-2.68a3.26,3.26,0,0,0,.116-.727.96.96,0,0,0-1.026-1.027,2.137,2.137,0,0,0-2.163,1.718c-.246.9-.485,1.807-.727,2.711Z" transform="translate(-621.968 -94.446)" fill="#fff"/>
      <path id="Path_182494" data-name="Path 182494" d="M228.941-204.146H228c-.049,0-.093-.067-.114-.116-.242-.572-.478-1.146-.716-1.719-.022-.052-.046-.1-.074-.165-.053.058-.1.1-.138.148-.515.582-1.039,1.162-1.542,1.747a.264.264,0,0,1-.23.11h-.852l2.466-2.727-1.058-2.559h.962c.045,0,.08.067.1.113q.351.833.693,1.669c.021.05.045.1.071.163.528-.594,1.05-1.168,1.559-1.753a.468.468,0,0,1,.425-.2c.23.016.469,0,.742,0-.053.061-.088.1-.125.148q-1.1,1.2-2.2,2.389c-.082.089-.107.148-.067.246.325.763.641,1.532.959,2.3C228.885-204.3,228.909-204.235,228.941-204.146Z" transform="translate(-492.678 -94.904)" fill="#fff"/>
      <path id="Path_182495" data-name="Path 182495" d="M265.8-216.134h-.782l.2-.765H266l.35-1.309h.891l-.35,1.3h1.367l-.2.765H266.7c-.018.046-.028.071-.036.1q-.383,1.44-.767,2.882a.321.321,0,0,1-.015.062c-.088.493.033.667.518.7.212.016.435,0,.661,0l-.211.784h-.414a6.112,6.112,0,0,1-.707-.046.874.874,0,0,1-.794-1.085,3.061,3.061,0,0,1,.088-.468c.239-.909.485-1.817.729-2.726Z" transform="translate(-527.245 -87.437)" fill="#fff"/>
    </g>
    <g id="Group_116195" data-name="Group 116195" transform="translate(377.236 343.973)">
      <rect id="Rectangle_21836" data-name="Rectangle 21836" width="16.775" height="19.15" transform="translate(-350.51 -319.225)" fill="#f5333f"/>
      <path id="Path_182475" data-name="Path 182475" d="M-291.949-301.978c-.653-.624,4.736.757,8.492,6.458a30.754,30.754,0,0,1,4.468,11.624.623.623,0,0,1,.015.223l-.1-.089a10.9,10.9,0,0,0-5.211-1.752,7.349,7.349,0,0,0-4.691,1.039,16.868,16.868,0,0,0,.846-8.076C-288.668-297.7-290.747-300.806-291.949-301.978Z" transform="translate(-52.994 -15.984)" fill="#fff"/>
      <path id="Path_182476" data-name="Path 182476" d="M-291.638-301.188c4.854,5.582,4.424,14.459,2.969,17.443" transform="translate(-53.305 -16.775)" fill="none" stroke="#231f20" stroke-linecap="round" stroke-width="0.3"/>
      <path id="Path_182477" data-name="Path 182477" d="M-351.817-320.788c.683.282,6.68,3.266,6.977,3.5s.252.045.341.386c.193.713,3.043,14.563,2.3,16.552-.208.579.059.594-.49.5s-2.895-.727-5.315-1.158-5.552-.876-6-.876c-.4,0-.223-.1.015-.445a19.014,19.014,0,0,0,3.385-10.674A27.521,27.521,0,0,0-351.817-320.788Z" transform="translate(0 -0.086)" fill="#fff"/>
      <path id="Path_182478" data-name="Path 182478" d="M-289.883-295.988c1.455,6.22,1.455,6.087,1.737,8.076.223,1.574.935,7.037.831,7.749s-.267,1.633-.342,1.381C-290.017-286.5-290.269-294.845-289.883-295.988Z" transform="translate(-54.674 -21.203)" fill="#b1b3b5"/>
      <path id="Path_182479" data-name="Path 182479" d="M-351.552-320.888c3.162,10.5-.4,15.736-2.286,18.72" transform="translate(-0.339)" fill="none" stroke="#231f20" stroke-linecap="round" stroke-width="0.3"/>
    </g>
  </g>
</svg>
