<svg xmlns="http://www.w3.org/2000/svg" width="18.95" height="30.2" viewBox="0 0 18.95 30.2">
  <g id="phone" transform="translate(-2.9 0.1)">
    <path id="Path_182929" data-name="Path 182929" d="M18,1.875A1.875,1.875,0,0,1,19.875,3.75v22.5A1.875,1.875,0,0,1,18,28.125H6.75A1.875,1.875,0,0,1,4.875,26.25V3.75A1.875,1.875,0,0,1,6.75,1.875ZM6.75,0A3.75,3.75,0,0,0,3,3.75v22.5A3.75,3.75,0,0,0,6.75,30H18a3.75,3.75,0,0,0,3.75-3.75V3.75A3.75,3.75,0,0,0,18,0Z" transform="translate(0)" fill="#383a65"/>
    <path id="Path_182929_-_Outline" data-name="Path 182929 - Outline" d="M6.75-.1H18a3.854,3.854,0,0,1,3.85,3.85v22.5A3.854,3.854,0,0,1,18,30.1H6.75A3.854,3.854,0,0,1,2.9,26.25V3.75A3.854,3.854,0,0,1,6.75-.1ZM18,29.9a3.654,3.654,0,0,0,3.65-3.65V3.75A3.654,3.654,0,0,0,18,.1H6.75A3.654,3.654,0,0,0,3.1,3.75v22.5A3.654,3.654,0,0,0,6.75,29.9ZM6.75,1.775H18A1.977,1.977,0,0,1,19.975,3.75v22.5A1.977,1.977,0,0,1,18,28.225H6.75A1.977,1.977,0,0,1,4.775,26.25V3.75A1.977,1.977,0,0,1,6.75,1.775ZM18,28.025a1.777,1.777,0,0,0,1.775-1.775V3.75A1.777,1.777,0,0,0,18,1.975H6.75A1.777,1.777,0,0,0,4.975,3.75v22.5A1.777,1.777,0,0,0,6.75,28.025Z" transform="translate(0)" fill="#383a65"/>
    <path id="Path_182930" data-name="Path 182930" d="M8.875,15.75A1.875,1.875,0,1,0,7,13.875,1.875,1.875,0,0,0,8.875,15.75Z" transform="translate(3.5 10.5)" fill="#383a65"/>
    <path id="Path_182930_-_Outline" data-name="Path 182930 - Outline" d="M8.875,15.85a1.975,1.975,0,1,1,1.975-1.975A1.977,1.977,0,0,1,8.875,15.85Zm0-3.75a1.775,1.775,0,1,0,1.775,1.775A1.777,1.777,0,0,0,8.875,12.1Z" transform="translate(3.5 10.5)" fill="#383a65"/>
  </g>
</svg>
