<svg xmlns="http://www.w3.org/2000/svg" width="27" height="27" viewBox="0 0 27 27">
  <g id="Group_117311" data-name="Group 117311" transform="translate(-336 -3630)">
    <g id="Group_117276" data-name="Group 117276" transform="translate(17 108)">
      <g id="Group_117268" data-name="Group 117268" transform="translate(5 204)">
        <g id="Group_117161" data-name="Group 117161" transform="translate(-8 179)">
          <circle id="Ellipse_40727" data-name="Ellipse 40727" cx="13.5" cy="13.5" r="13.5" transform="translate(322 3139)" fill="#f3f5f8"/>
        </g>
      </g>
    </g>
    <g id="Group_117310" data-name="Group 117310" transform="translate(22.501 -11)">
      <path id="Subtraction_27" data-name="Subtraction 27" d="M-11622.5,2510a.5.5,0,0,1-.5-.5V2508a3.484,3.484,0,0,1,1.027-2.477,3.477,3.477,0,0,1,2.474-1.024h5v1h-5a2.482,2.482,0,0,0-1.768.732A2.48,2.48,0,0,0-11622,2508v1.5A.5.5,0,0,1-11622.5,2510Z" transform="translate(11941.5 1151)" fill="#383a65"/>
      <path id="Path_183537" data-name="Path 183537" d="M12.75,7.5a3,3,0,1,1-3-3A3,3,0,0,1,12.75,7.5Z" transform="translate(314.875 3642.5)" fill="none" stroke="#383a65" stroke-linecap="round" stroke-linejoin="round" stroke-width="1"/>
      <g id="Group_117308" data-name="Group 117308" transform="translate(11 251.087)">
        <g id="noun_inventory_3377617" transform="translate(317 3402.853)">
          <path id="Path_183366" data-name="Path 183366" d="M33.523,46H31.21a.209.209,0,0,0-.21.208v6.45a.209.209,0,0,0,.21.208h6.517a.209.209,0,0,0,.21-.208v-6.45a.209.209,0,0,0-.21-.208Zm.21.416H35.2v2.8l-.607-.467a.212.212,0,0,0-.259,0l-.607.467Zm3.784,6.034h-6.1V46.416h1.892v3.225a.208.208,0,0,0,.118.187.212.212,0,0,0,.222-.023l.817-.624.817.624a.212.212,0,0,0,.129.044.222.222,0,0,0,.092-.021.208.208,0,0,0,.118-.187V46.416h1.892Z" transform="translate(-31 -46)" fill="#383a65"/>
          <path id="Path_183366_-_Outline" data-name="Path 183366 - Outline" d="M31.21,45.8h6.517a.41.41,0,0,1,.41.408v6.45a.41.41,0,0,1-.41.408H31.21a.41.41,0,0,1-.41-.408v-6.45A.41.41,0,0,1,31.21,45.8Zm6.517,6.866a.009.009,0,0,0,.01-.008v-6.45a.009.009,0,0,0-.01-.008H31.21a.009.009,0,0,0-.01.008v6.45a.009.009,0,0,0,.01.008Zm-6.507-6.45h2.292v3.425a.008.008,0,0,0,.005.007.011.011,0,0,0,.012,0l.939-.718.938.717a.014.014,0,0,0,.016,0,.009.009,0,0,0,0-.006V46.216h2.292V52.65h-6.5Zm1.892.4H31.62V52.25h5.7V46.616H35.825v3.025a.41.41,0,0,1-.23.367.42.42,0,0,1-.431-.044l-.695-.531-.7.531a.421.421,0,0,1-.43.044.41.41,0,0,1-.231-.368Zm.42-.4H35.4v3.406l-.929-.715a.012.012,0,0,0-.014,0l-.929.715Zm1.472.4H33.933v2.193l.284-.219a.412.412,0,0,1,.5,0l.284.219Z" transform="translate(-31 -46)" fill="#383a65"/>
        </g>
      </g>
    </g>
  </g>
</svg>
