<svg xmlns="http://www.w3.org/2000/svg" width="15.714" height="17.734" viewBox="0 0 15.714 17.734">
  <g id="supply-chain" transform="translate(-45.071 -18.3)">
    <path id="Path_183780" data-name="Path 183780" d="M145.756,118.56l-6.532-3.771a1.328,1.328,0,0,0-1.325,0l-6.532,3.771a1.326,1.326,0,0,0-.662,1.147v7.543a1.331,1.331,0,0,0,.662,1.147l6.532,3.771a1.33,1.33,0,0,0,1.325,0l6.532-3.771a1.328,1.328,0,0,0,.662-1.147v-4.087a.47.47,0,1,0-.941,0v4.087a.385.385,0,0,1-.192.333l-6.254,3.611v-7.464a1.323,1.323,0,0,0,.194-.091l1.638-.946v2.337a.694.694,0,0,0,1.04.6l1.5-.867a.9.9,0,0,0,.447-.774v-3.022l1.626-.939V123a.47.47,0,1,0,.941,0v-3.292a1.328,1.328,0,0,0-.662-1.147Zm-4.421,2.774-6.438-3.726,1.106-.639,6.438,3.726Zm-3.438,2.3a1.55,1.55,0,0,0,.194.092v7.463l-6.254-3.611a.385.385,0,0,1-.192-.333v-7.221Zm.858-.815a.39.39,0,0,1-.388,0l-6.252-3.61,1.842-1.063,6.438,3.726Zm4.156-1.313v2.452l-1.107.639v-2.452l1.087-.627Zm.47-1.358-6.438-3.726,1.426-.823a.385.385,0,0,1,.384,0l6.254,3.611Z" transform="translate(-85.633 -96.312)" fill="#fff"/>
  </g>
</svg>
