<svg xmlns="http://www.w3.org/2000/svg" width="27" height="27" viewBox="0 0 27 27">
  <g id="Group_117338" data-name="Group 117338" transform="translate(-318 -3524)">
    <g id="Group_117334" data-name="Group 117334">
      <g id="Group_117259" data-name="Group 117259" transform="translate(-1 132)">
        <g id="Group_117161" data-name="Group 117161" transform="translate(-3 253)">
          <circle id="Ellipse_40727" data-name="Ellipse 40727" cx="13.5" cy="13.5" r="13.5" transform="translate(322 3139)" fill="#f3f5f8"/>
        </g>
      </g>
      <g id="Group_117333" data-name="Group 117333">
        <g id="noun-recycle-426051" transform="translate(247.739 3500.523)">
          <path id="Path_183553" data-name="Path 183553" d="M102.819,37.588c.011-.187.018-.375.018-.561a9.753,9.753,0,0,0-8.6-9.684l-.291,2.45a7.285,7.285,0,0,1,6.419,7.235v0l-1.821-.415,2.368,3.767,3.768-2.367Zm-9.738,6.728a7.242,7.242,0,0,1-3.642-.976l1.268-1.359-4.447.155.154,4.447,1.31-1.4a9.754,9.754,0,0,0,13.166-2.3L98.916,41.4a7.235,7.235,0,0,1-5.835,2.92Zm-7.289-7.289a7.325,7.325,0,0,1,3.642-6.307l.542,1.776,2.089-3.928-3.927-2.09.561,1.836a9.8,9.8,0,0,0-5.374,8.714,9.693,9.693,0,0,0,.786,3.84l2.267-.972a7.241,7.241,0,0,1-.586-2.868Z" transform="translate(-10.064)" fill="#383a65" stroke="#f3f5f8" stroke-width="1"/>
        </g>
        <path id="Path_183554" data-name="Path 183554" d="M262.135,187.28l.258-.142h0a.415.415,0,0,0,.161-.581l-.712-1.181a.456.456,0,0,0-.608-.155l-.26.142a.474.474,0,0,1-.507-.04,3.809,3.809,0,0,0-.831-.462.437.437,0,0,1-.29-.4v-.285a.436.436,0,0,0-.446-.425h-1.427a.435.435,0,0,0-.445.425v.285a.437.437,0,0,1-.29.4,3.8,3.8,0,0,0-.832.462.473.473,0,0,1-.507.04l-.261-.144a.456.456,0,0,0-.608.155l-.714,1.181a.415.415,0,0,0,.163.581l.258.142h0a.412.412,0,0,1,.219.414,3.4,3.4,0,0,0,0,.974.411.411,0,0,1-.219.414l-.258.142h0a.415.415,0,0,0-.163.581l.714,1.182a.456.456,0,0,0,.608.155L255.4,191a.473.473,0,0,1,.507.04,3.81,3.81,0,0,0,.831.462.437.437,0,0,1,.29.4v.285a.435.435,0,0,0,.446.425H258.9a.436.436,0,0,0,.445-.425V191.9a.437.437,0,0,1,.29-.4,3.8,3.8,0,0,0,.832-.462.474.474,0,0,1,.507-.04l.26.144a.456.456,0,0,0,.608-.156l.713-1.181a.415.415,0,0,0-.161-.581l-.258-.142h0a.412.412,0,0,1-.219-.414,3.4,3.4,0,0,0,0-.974A.412.412,0,0,1,262.135,187.28Zm-3.949,2.713a1.812,1.812,0,1,1,1.281-.531A1.813,1.813,0,0,1,258.186,189.993Z" transform="translate(72.643 3349.449)" fill="#383a65"/>
      </g>
    </g>
  </g>
</svg>
