<svg xmlns="http://www.w3.org/2000/svg" width="28.391" height="26.266" viewBox="0 0 28.391 26.266">
  <g id="noun_Key_4387464" transform="translate(-1.834 -1.9)">
    <g id="Layer_2" data-name="Layer 2" transform="translate(1.999 2)">
      <path id="Path_183124" data-name="Path 183124" d="M22.007,2a8,8,0,0,0-8,8,7.893,7.893,0,0,0,.13,1.451L2.29,23.3a1,1,0,0,0,0,1.41l3,3a1,1,0,0,0,1.41,0l1.8-1.791,1.791,1.791a1,1,0,0,0,1.41,0l3-3a1,1,0,0,0,0-1.41l-1.791-1.791,4.772-4.772A8,8,0,1,0,22.007,2Zm0,14a6,6,0,0,1-3.781-1.35,1,1,0,0,0-1.34.06L10.8,20.8a1,1,0,0,0,0,1.41l1.791,1.8L11,25.6,9.213,23.8a1,1,0,0,0-1.41,0L6,25.6,4.411,24.008,15.945,12.484a1,1,0,0,0,.26-1A5.832,5.832,0,0,1,16,10a6,6,0,1,1,6,6Z" transform="translate(-1.999 -2)" fill="#383a65" stroke="#383a65" stroke-width="0.2"/>
      <path id="Path_183125" data-name="Path 183125" d="M22,6a4,4,0,1,0,4,4A4,4,0,0,0,22,6Zm0,6a2,2,0,1,1,2-2A2,2,0,0,1,22,12Z" transform="translate(-1.989 -1.998)" fill="#383a65" stroke="#383a65" stroke-width="0.2"/>
    </g>
  </g>
</svg>
