<svg id="Layer_1" data-name="Layer 1" xmlns="http://www.w3.org/2000/svg" viewBox="0 0 250.01 248.75"><defs><style>.cls-1{fill:#4b494b;}</style></defs><path class="cls-1" d="M290.82,308.65q-34.72,0-69.45,0,0-82.92,0-165.83H284q-19.47,46.49-39,93c-.75,1.89-1.83,3.75-1.83,5.82a43.26,43.26,0,0,0,.3,4.55,17.43,17.43,0,0,1,6.38-1.26,17.63,17.63,0,0,1,7.34,1.58h70.73A17.38,17.38,0,0,1,340.71,245a12.77,12.77,0,0,0-.44-6.29q-21-50.15-42.06-100.29c-.81-1.83-1.38-4-3.28-5.11-1.66-1-3.73-.8-5.6-.84q-34,0-67.95,0c0-3.77,0-7.53,0-11.3a16.23,16.23,0,0,0,10.19-10.31,15.19,15.19,0,0,0-5.43-16.37A17.58,17.58,0,0,0,216.49,91h-.82A16.91,16.91,0,0,0,203,97.14a14.9,14.9,0,0,0-1.22,17,16.75,16.75,0,0,0,8.7,7c0,3.77,0,7.53,0,11.3-23.49,0-47,0-70.46,0a5.56,5.56,0,0,0-5.34,3.53Q113.14,187.34,91.62,238.7c-.9,2-.59,4.24-.45,6.36,0,.29.06.58.09.87a25.66,25.66,0,0,1,4.38-.39,27.54,27.54,0,0,1,7.11.93h74.77c0,.19-.07.38-.1.57a17.4,17.4,0,0,1,6.05-1.13,18.07,18.07,0,0,1,4.93.7,40.73,40.73,0,0,0,.24-6,23.15,23.15,0,0,0-1.75-4.86q-19.5-46.49-39-93h62.61q0,82.92,0,165.83-35,0-70,0c-3-.22-5.9,1.94-6,4.83-.33,3.17,2.84,5.83,6.08,5.53q75.13,0,150.28,0c1.7,0,3.56-.23,4.82-1.43a5,5,0,0,0,.38-7.14C294.8,309,292.72,308.6,290.82,308.65ZM292,151.59q17.73,42.25,35.44,84.5H256.59Q274.29,193.83,292,151.59ZM175.3,236.09H104.41q17.7-42.22,35.41-84.44C151.73,179.76,163.47,207.94,175.3,236.09Zm40.19-124.45a5.07,5.07,0,0,1-1.9-9.71c3-1.5,7.12.42,7.61,3.64C222,108.76,218.9,112.06,215.49,111.64Z" transform="translate(-91 -91)"/><path class="cls-1" d="M112.79,333.94c.27-2.95,3.42-4.85,6.36-4.57q97,0,194.08,0c3-.2,5.94,2.13,5.9,5.07.16,2.78-2.38,5.1-5.2,5.29H118C115,339.61,112.3,336.9,112.79,333.94Z" transform="translate(-91 -91)"/><rect class="cls-1" x="113.39" y="51.82" width="23.23" height="196.92"/><rect class="cls-1" x="42.43" y="215.56" width="163.91" height="24.95" rx="6.62"/><rect class="cls-1" x="0.03" y="150.28" width="97.97" height="20.82"/><rect class="cls-1" x="152.04" y="150.28" width="97.97" height="20.82"/></svg>