<svg xmlns="http://www.w3.org/2000/svg" width="27" height="27" viewBox="0 0 27 27">
  <g id="Cycle_Count_383a65_" data-name="Cycle_Count_383a65 " transform="translate(-1184 -534)">
    <circle id="Ellipse_40727" data-name="Ellipse 40727" cx="13.5" cy="13.5" r="13.5" transform="translate(1184 534)" fill="#f3f5f8"/>
    <g id="noun_Image_1570203" transform="translate(1183.901 525.003)">
      <g id="Group_117046" data-name="Group 117046" transform="translate(5 16)">
        <path id="Path_183095" data-name="Path 183095" d="M6.147,968.362A1.153,1.153,0,0,0,5,969.509v10.7a1.153,1.153,0,0,0,1.147,1.147h14.9A1.153,1.153,0,0,0,22.2,980.21v-10.7a1.153,1.153,0,0,0-1.147-1.146Zm0,.764h14.9a.373.373,0,0,1,.382.382v9.136l-3.35-3.667a.388.388,0,0,0-.561,0l-2.735,2.9-3.959-4.425a.38.38,0,0,0-.567-.006l-4.5,4.831v-8.772a.373.373,0,0,1,.382-.382Zm8.79,1.911a1.529,1.529,0,1,0,1.529,1.529A1.535,1.535,0,0,0,14.937,971.037Zm0,.764a.764.764,0,1,1-.764.764A.759.759,0,0,1,14.937,971.8Zm-4.4,2.478,5.649,6.312H6.147a.373.373,0,0,1-.382-.382V979.4ZM17.8,975.8l3.637,3.977v.43a.373.373,0,0,1-.382.382h-3.84L15.3,978.454Z" transform="translate(-5 -968.362)" fill="#383a65" stroke="#383a65" stroke-width="0.3"/>
      </g>
    </g>
  </g>
</svg>
