<svg id="Layer_1" data-name="Layer 1" xmlns="http://www.w3.org/2000/svg" viewBox="0 0 250 242.53"><defs><style>.cls-1{fill:#4b494b;}.cls-2{fill:#cb2026;}</style></defs><path class="cls-1" d="M327.41,115A92.23,92.23,0,0,1,285,126.3c-16.5.24-32.81-4.71-47.06-12.89-13.23-7.55-27.89-12.83-43.1-14.4a99.55,99.55,0,0,0-40.1,4.1V246.72a87.49,87.49,0,0,1,32.51-5.34c15.12.42,29.91,5.14,43,12.57s27.45,12.81,42.43,14.54a99.42,99.42,0,0,0,44.63-5.08A129.14,129.14,0,0,0,341,252.18q0-72.46,0-144.92C336.46,109.83,332,112.49,327.41,115Z" transform="translate(-91 -98.47)"/><rect class="cls-2" y="3.52" width="56.01" height="239.01"/></svg>