<svg xmlns="http://www.w3.org/2000/svg" width="14.561" height="19.414" viewBox="0 0 14.561 19.414">
  <g id="file-text" transform="translate(-2)">
    <path id="Path_30950" data-name="Path 30950" d="M5.107,4a.607.607,0,0,0,0,1.213h7.28a.607.607,0,0,0,0-1.213ZM4.5,7.033a.607.607,0,0,1,.607-.607h7.28a.607.607,0,0,1,0,1.213H5.107A.607.607,0,0,1,4.5,7.033Zm.607,1.82a.607.607,0,0,0,0,1.213h7.28a.607.607,0,0,0,0-1.213Zm0,2.427a.607.607,0,0,0,0,1.213h3.64a.607.607,0,0,0,0-1.213Z" transform="translate(0.533 0.854)" fill="#fff"/>
    <path id="Path_30951" data-name="Path 30951" d="M2,2.427A2.427,2.427,0,0,1,4.427,0h9.707a2.427,2.427,0,0,1,2.427,2.427V16.987a2.427,2.427,0,0,1-2.427,2.427H4.427A2.427,2.427,0,0,1,2,16.987ZM14.134,1.213H4.427A1.213,1.213,0,0,0,3.213,2.427V16.987A1.213,1.213,0,0,0,4.427,18.2h9.707a1.213,1.213,0,0,0,1.213-1.213V2.427A1.213,1.213,0,0,0,14.134,1.213Z" fill="#fff"/>
  </g>
</svg>
