<svg xmlns="http://www.w3.org/2000/svg" width="19" height="20.417" viewBox="0 0 19 20.417">
  <g id="Group_117101" data-name="Group 117101" transform="translate(-36 -1700.65)">
    <rect id="Rectangle_22836" data-name="Rectangle 22836" width="19" height="19" transform="translate(36 1702.067)" fill="#c1c1c1" opacity="0"/>
    <g id="noun_manager_1649726" transform="translate(37.911 1701)">
      <g id="Group_117098" data-name="Group 117098">
        <path id="Path_183129" data-name="Path 183129" d="M153.608,11.259c2.209,0,3.808-3.095,3.808-5.178a3.817,3.817,0,1,0-7.616,0C149.8,8.164,151.4,11.259,153.608,11.259Zm0-8.681a3.377,3.377,0,0,1,3.231,3.5c0,2.03-1.52,4.6-3.231,4.6s-3.231-2.575-3.231-4.6A3.377,3.377,0,0,1,153.608,2.577Z" transform="translate(-145.86 -2)" fill="#fff" stroke="#fff" stroke-width="0.7"/>
        <path id="Path_183130" data-name="Path 183130" d="M54.519,247.734c-.065-.09-.133-.179-.2-.262a4.754,4.754,0,0,0-2.413-1.6l-.939-.262c-.036-.011-.075-.018-.111-.029l-.308-.079-2.08,4.68-.194-3h.269V246.6H46.806v.577h.269l-.194,3L44.8,245.5l-.308.079c-.036.007-.075.018-.111.029l-.939.262a4.732,4.732,0,0,0-2.413,1.6c-.068.086-.136.172-.2.262a5.31,5.31,0,0,0-.843,3.808l.5,3.442H54.86l.5-3.442A5.291,5.291,0,0,0,54.519,247.734Zm-6.863-.556h.036l.269,4.138-.287.642-.287-.642Zm7.132,4.281-.427,2.944H52.586v-2.313h-.577V254.4h-8.67v-2.313h-.577V254.4H40.986l-.427-2.944a4.716,4.716,0,0,1,.742-3.392c.057-.079.115-.158.179-.233a4.186,4.186,0,0,1,2.119-1.409l.875-.244,3.2,7.2,3.2-7.2.875.244a4.171,4.171,0,0,1,2.119,1.409c.061.075.122.154.179.233h0A4.706,4.706,0,0,1,54.788,251.46Z" transform="translate(-39.926 -235.813)" fill="#fff" stroke="#fff" stroke-width="0.7"/>
        <rect id="Rectangle_22834" data-name="Rectangle 22834" width="2.89" height="0.577" transform="translate(10.638 13.968)" fill="#fff" stroke="#fff" stroke-width="0.7"/>
      </g>
    </g>
  </g>
</svg>
