<svg xmlns="http://www.w3.org/2000/svg" width="27" height="27" viewBox="0 0 27 27">
  <g id="Group_116644" data-name="Group 116644" transform="translate(-314 -450)">
    <g id="Group_484" data-name="Group 484" transform="translate(314 450)">
      <g id="Group_476" data-name="Group 476">
        <circle id="Ellipse_92" data-name="Ellipse 92" cx="13.5" cy="13.5" r="13.5" fill="#f3f5f8"/>
      </g>
    </g>
    <g id="provider_" transform="translate(318 454.109)">
      <g id="Group_116611" data-name="Group 116611" transform="translate(2 1.891)">
        <path id="Path_182951" data-name="Path 182951" d="M47.776,44H44.755a.755.755,0,0,0-.755.755v2.014a.755.755,0,0,0,.755.755h.7l-.17.7a.252.252,0,0,0,.245.312H47a.252.252,0,0,0,.245-.312l-.17-.7h.7a.755.755,0,0,0,.755-.755V44.755A.755.755,0,0,0,47.776,44Zm-3.021.5h3.021a.252.252,0,0,1,.252.252v1.259H44.5V44.755A.252.252,0,0,1,44.755,44.5Zm1.923,3.524h-.825l.123-.5h.579Zm1.1-1.007H44.755a.252.252,0,0,1-.252-.252v-.252h3.524v.252A.252.252,0,0,1,47.776,47.021Z" transform="translate(-33.427 -33.4)" fill="#383a65"/>
        <path id="Path_182952" data-name="Path 182952" d="M26.776,44H23.755a.755.755,0,0,0-.755.755v2.014a.755.755,0,0,0,.755.755h.7l-.17.7a.252.252,0,0,0,.245.312H26a.252.252,0,0,0,.245-.312l-.17-.7h.7a.755.755,0,0,0,.755-.755V44.755A.755.755,0,0,0,26.776,44Zm-3.021.5h3.021a.252.252,0,0,1,.252.252v1.259H23.5V44.755A.252.252,0,0,1,23.755,44.5Zm1.923,3.524h-.825l.123-.5h.579Zm1.1-1.007H23.755a.252.252,0,0,1-.252-.252v-.252h3.524v.252A.252.252,0,0,1,26.776,47.021Z" transform="translate(-17.713 -33.4)" fill="#383a65"/>
        <path id="Path_182953" data-name="Path 182953" d="M5.776,44H2.755A.755.755,0,0,0,2,44.755v2.014a.755.755,0,0,0,.755.755h.7l-.17.7a.252.252,0,0,0,.245.312H5a.252.252,0,0,0,.245-.312l-.17-.7h.7a.755.755,0,0,0,.755-.755V44.755A.755.755,0,0,0,5.776,44Zm-3.021.5H5.776a.252.252,0,0,1,.252.252v1.259H2.5V44.755A.252.252,0,0,1,2.755,44.5Zm1.923,3.524H3.853l.123-.5h.579Zm1.1-1.007H2.755a.252.252,0,0,1-.252-.252v-.252H6.028v.252A.252.252,0,0,1,5.776,47.021Z" transform="translate(-2 -33.4)" fill="#383a65"/>
        <path id="Path_182954" data-name="Path 182954" d="M17.007,6.7h6.042a1.007,1.007,0,0,0,.1-2.009,2.014,2.014,0,1,0-3.746-1.476,1.507,1.507,0,0,0-2.4,1.219,1.473,1.473,0,0,0,.021.252h-.021a1.007,1.007,0,0,0,0,2.014Zm0-1.51h.358a.252.252,0,0,0,.231-.352,1,1,0,0,1-.085-.4,1,1,0,0,1,1.825-.583.252.252,0,0,0,.455-.115A1.51,1.51,0,1,1,22.525,4.8a.252.252,0,0,0,.206.395h.317a.5.5,0,1,1,0,1.007H17.007a.5.5,0,0,1,0-1.007Z" transform="translate(-12.476 -1.891)" fill="#383a65"/>
        <path id="Path_182956" data-name="Path 182956" d="M9.5,25.517h4.578a.755.755,0,0,0,.457.457v1.808h.5V25.975a.755.755,0,0,0,.457-.457h4.578v2.266h.5V25.266a.252.252,0,0,0-.252-.252H15.5a.755.755,0,0,0-.457-.457V23h-.5v1.557a.755.755,0,0,0-.457.457H9.252A.252.252,0,0,0,9,25.266v2.517h.5Zm5.287-.5a.252.252,0,1,1-.252.252A.252.252,0,0,1,14.79,25.014Z" transform="translate(-7.238 -17.686)" fill="#383a65"/>
      </g>
    </g>
  </g>
</svg>
