<svg xmlns="http://www.w3.org/2000/svg" width="27" height="27" viewBox="0 0 27 27">
  <g id="Group_117066" data-name="Group 117066" transform="translate(-320 -1565)">
    <g id="Cycle_Count_383a65_" data-name="Cycle_Count_383a65 " transform="translate(-864 1031)">
      <circle id="Ellipse_40727" data-name="Ellipse 40727" cx="13.5" cy="13.5" r="13.5" transform="translate(1184 534)" fill="#f3f5f8"/>
    </g>
    <g id="report" transform="translate(314.75 1547.75)">
      <g id="Group_117065" data-name="Group 117065" transform="translate(12.25 23.25)">
        <path id="Path_183113" data-name="Path 183113" d="M24.055,12.7,21.023,9.669a1.421,1.421,0,0,0-1.011-.419H13.68a1.432,1.432,0,0,0-1.43,1.43V23.164a1.432,1.432,0,0,0,1.43,1.43h9.363a1.432,1.432,0,0,0,1.43-1.43V13.712A1.421,1.421,0,0,0,24.055,12.7Zm-3.222-2.119,2.309,2.309H21.483a.651.651,0,0,1-.65-.65Zm2.861,12.583a.651.651,0,0,1-.65.65H13.68a.651.651,0,0,1-.65-.65V10.68a.651.651,0,0,1,.65-.65h6.331c.014,0,.027.007.041.008v2.2a1.432,1.432,0,0,0,1.43,1.43h2.2c0,.014.008.027.008.041v9.452Z" transform="translate(-12.25 -9.25)" fill="#383a65"/>
        <path id="Path_183114" data-name="Path 183114" d="M21.241,23.25a2.991,2.991,0,1,0,1.507,5.57c.01,0,.021-.007.031-.013s.011-.012.018-.017a2.988,2.988,0,0,0-1.556-5.54Zm2.171,2.6H21.631V24.07A2.209,2.209,0,0,1,23.412,25.851Zm-4.382.39a2.21,2.21,0,0,1,1.821-2.171v2.171a.4.4,0,0,0,.055.2L22.021,28.3a2.189,2.189,0,0,1-.78.149A2.213,2.213,0,0,1,19.03,26.241ZM22.689,27.9l-.759-1.267h1.483A2.2,2.2,0,0,1,22.689,27.9Z" transform="translate(-15.129 -15.968)" fill="#383a65"/>
        <path id="Path_183115" data-name="Path 183115" d="M16.64,14.03h3.641a.39.39,0,1,0,0-.78H16.64a.39.39,0,0,0,0,.78Z" transform="translate(-14.169 -11.169)" fill="#383a65"/>
        <path id="Path_183116" data-name="Path 183116" d="M16.64,17.03h3.641a.39.39,0,1,0,0-.78H16.64a.39.39,0,0,0,0,.78Z" transform="translate(-14.169 -12.609)" fill="#383a65"/>
        <path id="Path_183117" data-name="Path 183117" d="M19.111,19.64a.39.39,0,0,0-.39-.39H16.64a.39.39,0,1,0,0,.78h2.081A.39.39,0,0,0,19.111,19.64Z" transform="translate(-14.169 -14.048)" fill="#383a65"/>
      </g>
    </g>
  </g>
</svg>
