<svg xmlns="http://www.w3.org/2000/svg" width="26.5" height="26.5" viewBox="0 0 26.5 26.5">
  <g id="noun_Stairs_451973" transform="translate(-4.75 -4.75)">
    <g id="Group_117070" data-name="Group 117070" transform="translate(5 5)">
      <path id="Path_183118" data-name="Path 183118" d="M23.976,957.362a.9.9,0,0,0-.776.867v5.2H18a.9.9,0,0,0-.867.867v5.2h-5.2a.9.9,0,0,0-.867.867v5.2h-5.2a.9.9,0,0,0-.867.867V982.5a.9.9,0,0,0,.867.867H30.133A.9.9,0,0,0,31,982.5V958.229a.9.9,0,0,0-.867-.867Zm.957,1.733h4.333v22.533H6.733V977.3h5.2a.9.9,0,0,0,.867-.867v-5.2H18a.9.9,0,0,0,.867-.867v-5.2h5.2a.9.9,0,0,0,.867-.867Z" transform="translate(-5 -957.362)" fill="#383a65" stroke="#383a65" stroke-width="0.5"/>
    </g>
  </g>
</svg>
