<svg xmlns="http://www.w3.org/2000/svg" width="23.204" height="28.95" viewBox="0 0 23.204 28.95">
  <g id="report" transform="translate(-11.9 -22.9)">
    <g id="Group_117065" data-name="Group 117065" transform="translate(12.25 23.25)">
      <path id="Path_183113" data-name="Path 183113" d="M33.983,15.6,28.4,10.022A2.616,2.616,0,0,0,26.54,9.25H14.883a2.636,2.636,0,0,0-2.633,2.633V34.867A2.636,2.636,0,0,0,14.883,37.5H32.121a2.636,2.636,0,0,0,2.633-2.633v-17.4A2.616,2.616,0,0,0,33.983,15.6Zm-5.932-3.9L32.3,15.953H29.248a1.2,1.2,0,0,1-1.2-1.2Zm5.267,23.165a1.2,1.2,0,0,1-1.2,1.2H14.883a1.2,1.2,0,0,1-1.2-1.2V11.883a1.2,1.2,0,0,1,1.2-1.2H26.54c.026,0,.049.013.075.015v4.055a2.636,2.636,0,0,0,2.633,2.633H33.3c0,.026.015.049.015.075v17.4Z" transform="translate(-12.25 -9.25)" fill="#383a65" stroke="#383a65" stroke-width="0.7"/>
      <path id="Path_183114" data-name="Path 183114" d="M23.756,23.25A5.506,5.506,0,1,0,26.531,33.5c.019-.009.038-.013.056-.024s.021-.022.034-.031a5.5,5.5,0,0,0-2.865-10.2Zm4,4.788H24.475V24.759A4.067,4.067,0,0,1,27.754,28.038Zm-8.067.718a4.069,4.069,0,0,1,3.352-4v4a.73.73,0,0,0,.1.369l2.052,3.426a4.03,4.03,0,0,1-1.436.275A4.074,4.074,0,0,1,19.686,28.756Zm6.735,3.051-1.4-2.333h2.729A4.046,4.046,0,0,1,26.422,31.807Z" transform="translate(-12.504 -9.843)" fill="#383a65" stroke="#383a65" stroke-width="0.7"/>
      <path id="Path_183115" data-name="Path 183115" d="M16.968,14.686h6.7a.718.718,0,0,0,0-1.436h-6.7a.718.718,0,0,0,0,1.436Z" transform="translate(-12.419 -9.419)" fill="#383a65" stroke="#383a65" stroke-width="0.7"/>
      <path id="Path_183116" data-name="Path 183116" d="M16.968,17.686h6.7a.718.718,0,0,0,0-1.436h-6.7a.718.718,0,1,0,0,1.436Z" transform="translate(-12.419 -9.547)" fill="#383a65" stroke="#383a65" stroke-width="0.7"/>
      <path id="Path_183117" data-name="Path 183117" d="M21.517,19.968a.718.718,0,0,0-.718-.718H16.968a.718.718,0,1,0,0,1.436H20.8A.718.718,0,0,0,21.517,19.968Z" transform="translate(-12.419 -9.674)" fill="#383a65" stroke="#383a65" stroke-width="0.7"/>
    </g>
  </g>
</svg>
