<svg xmlns="http://www.w3.org/2000/svg" width="27" height="27" viewBox="0 0 27 27">
  <g id="Group_117206" data-name="Group 117206" transform="translate(-311 -3260)">
    <g id="Group_117161" data-name="Group 117161" transform="translate(-11 121)">
      <circle id="Ellipse_40727" data-name="Ellipse 40727" cx="13.5" cy="13.5" r="13.5" transform="translate(322 3139)" fill="#f3f5f8"/>
    </g>
    <g id="Group_117162" data-name="Group 117162" transform="translate(-22.556 2.44)">
      <path id="Subtraction_16" data-name="Subtraction 16" d="M-11609.608,2517.74h-12a1.393,1.393,0,0,1-1.392-1.391v-10.956a1.393,1.393,0,0,1,1.392-1.392h12a1.393,1.393,0,0,1,1.391,1.392v10.956A1.393,1.393,0,0,1-11609.608,2517.74Zm-12.348-10.74v9.349a.347.347,0,0,0,.347.347h12a.347.347,0,0,0,.347-.347V2507Zm.347-1.957a.349.349,0,0,0-.347.35v.563h12.694v-.563a.349.349,0,0,0-.347-.35Z" transform="translate(11962.557 760.559)" fill="#383a65"/>
      <path id="Path" d="M33.313,37.7a3.757,3.757,0,0,0-3.078,1.687l-.435.661,2.5.417.174-1.026-.748-.122a2.5,2.5,0,0,1,1.583-.574A2.646,2.646,0,0,1,35.9,41.352h1.043A3.7,3.7,0,0,0,33.313,37.7Z" transform="translate(313.635 3230.589)" fill="#383a65"/>
      <path id="Path-2" data-name="Path" d="M33.57,60.213l.748.122a2.5,2.5,0,0,1-1.583.574A2.646,2.646,0,0,1,30.143,58.3H29.1a3.7,3.7,0,0,0,3.635,3.652,3.757,3.757,0,0,0,3.078-1.687l.435-.661-2.5-.417Z" transform="translate(314.213 3213.572)" fill="#383a65"/>
    </g>
  </g>
</svg>
