<svg xmlns="http://www.w3.org/2000/svg" width="27" height="27" viewBox="0 0 27 27">
  <g id="Locations_383a65_" data-name="Locations_383a65 " transform="translate(-1184 -684)">
    <circle id="Ellipse_40727" data-name="Ellipse 40727" cx="13.5" cy="13.5" r="13.5" transform="translate(1184 684)" fill="#f3f5f8"/>
    <g id="geo-alt_2_" data-name="geo-alt (2)" transform="translate(1192.033 690.557)">
      <path id="Path_183019" data-name="Path 183019" d="M11.263,8.146a17.519,17.519,0,0,1-1.786,2.8,28.7,28.7,0,0,1-2.01,2.342,28.686,28.686,0,0,1-2.01-2.342,17.518,17.518,0,0,1-1.786-2.8,6.3,6.3,0,0,1-.76-2.679,4.556,4.556,0,0,1,9.112,0,6.318,6.318,0,0,1-.76,2.679Zm-3.8,6.433S12.934,9.4,12.934,5.467A5.467,5.467,0,1,0,2,5.467C2,9.4,7.467,14.579,7.467,14.579Z" transform="translate(-2)" fill="#383a65"/>
      <path id="Path_183020" data-name="Path 183020" d="M7.734,7.556A1.822,1.822,0,1,1,9.556,5.734,1.822,1.822,0,0,1,7.734,7.556Zm0,.911A2.734,2.734,0,1,0,5,5.734,2.734,2.734,0,0,0,7.734,8.467Z" transform="translate(-2.266 -0.266)" fill="#383a65"/>
    </g>
  </g>
</svg>
