<svg xmlns="http://www.w3.org/2000/svg" width="27" height="27" viewBox="0 0 27 27">
  <g id="Facilities_Labs_Building_383a65_" data-name="Facilities_Labs_Building_383a65 " transform="translate(-80 -1404)">
    <circle id="Ellipse_40727" data-name="Ellipse 40727" cx="13.5" cy="13.5" r="13.5" transform="translate(80 1404)" fill="#f3f5f8"/>
    <g id="noun_Factory_1122001" transform="translate(75.357 1399.359)">
      <path id="Path_183133" data-name="Path 183133" d="M21.589,11a.366.366,0,0,0-.332.366v6.508l-4.579-2.616a.366.366,0,0,0-.549.321v2.3l-4.579-2.616a.366.366,0,0,0-.549.321v9.341a.366.366,0,0,0,.366.366H24.92a.366.366,0,0,0,.366-.366V11.365A.366.366,0,0,0,24.92,11H21.589Zm.4.733h2.564V24.552H11.733v-8.34l4.579,2.616a.366.366,0,0,0,.549-.321v-2.3l4.579,2.616a.366.366,0,0,0,.549-.321ZM13.9,19.973a.366.366,0,0,0-.332.366V22.9a.366.366,0,0,0,.366.366h2.564a.366.366,0,0,0,.366-.366V20.339a.366.366,0,0,0-.366-.366H13.9Zm5.129,0a.366.366,0,0,0-.332.366V22.9a.366.366,0,0,0,.366.366h2.564a.366.366,0,0,0,.366-.366V20.339a.366.366,0,0,0-.366-.366h-2.6Zm-4.728.733h1.832v1.832H14.3Zm5.129,0h1.832v1.832H19.425Z" transform="translate(0 0)" fill="#383a65" stroke="#383a65" stroke-width="0.3"/>
    </g>
  </g>
</svg>
