<svg xmlns="http://www.w3.org/2000/svg" width="20" height="20" viewBox="0 0 20 20">
  <g id="Group_117064" data-name="Group 117064" transform="translate(-50 -1387)">
    <rect id="Rectangle_22824" data-name="Rectangle 22824" width="20" height="20" transform="translate(50 1387)" fill="#c1c1c1" opacity="0"/>
    <g id="Group_117063" data-name="Group 117063" transform="translate(51 1388)">
      <path id="Path_183104" data-name="Path 183104" d="M9.564,18.628a9.064,9.064,0,1,1,9.064-9.064A9.053,9.053,0,0,1,9.564,18.628Zm0-17.356a8.292,8.292,0,1,0,8.292,8.292A8.28,8.28,0,0,0,9.564,1.271Z" transform="translate(-0.5 -0.5)" fill="#fff" stroke="#fff" stroke-width="0.5"/>
      <path id="Path_183105" data-name="Path 183105" d="M18.415,31.671H2.486a.386.386,0,1,1,0-.771H18.415a.386.386,0,1,1,0,.771Z" transform="translate(-1.483 -19.175)" fill="#fff" stroke="#fff" stroke-width="0.5"/>
      <path id="Path_183106" data-name="Path 183106" d="M21.935,28.477h-4.05a.364.364,0,0,1-.386-.386,2.391,2.391,0,1,1,4.783,0A.336.336,0,0,1,21.935,28.477Zm-3.587-.771h3.163a1.654,1.654,0,0,0-1.581-1.234A1.62,1.62,0,0,0,18.349,27.706Z" transform="translate(-10.943 -15.98)" fill="#fff" stroke="#fff" stroke-width="0.5"/>
      <path id="Path_183107" data-name="Path 183107" d="M23.386,6.228A.364.364,0,0,1,23,5.843V4.686a.386.386,0,1,1,.771,0V5.843A.364.364,0,0,1,23.386,6.228Z" transform="translate(-14.322 -2.834)" fill="#fff" stroke="#fff" stroke-width="0.5"/>
      <g id="Group_117059" data-name="Group 117059" transform="translate(1.466 8.678)">
        <path id="Path_183108" data-name="Path 183108" d="M40.243,23.771H39.086a.386.386,0,1,1,0-.771h1.157a.386.386,0,1,1,0,.771Z" transform="translate(-25.432 -23)" fill="#fff" stroke="#fff" stroke-width="0.5"/>
        <path id="Path_183109" data-name="Path 183109" d="M5.843,23.771H4.686a.386.386,0,1,1,0-.771H5.843a.386.386,0,1,1,0,.771Z" transform="translate(-4.3 -23)" fill="#fff" stroke="#fff" stroke-width="0.5"/>
      </g>
      <path id="Path_183110" data-name="Path 183110" d="M34.486,11.381a.35.35,0,0,1-.27-.116.373.373,0,0,1,0-.54l.81-.81a.382.382,0,0,1,.54.54l-.81.81A.417.417,0,0,1,34.486,11.381Z" transform="translate(-21.141 -6.213)" fill="#fff" stroke="#fff" stroke-width="0.5"/>
      <path id="Path_183111" data-name="Path 183111" d="M11,11.381a.35.35,0,0,1-.27-.116l-.81-.81a.382.382,0,0,1,.54-.54l.81.81a.373.373,0,0,1,0,.54A.35.35,0,0,1,11,11.381Z" transform="translate(-6.213 -6.213)" fill="#fff" stroke="#fff" stroke-width="0.5"/>
      <path id="Path_183112" data-name="Path 183112" d="M23.209,17.341a.142.142,0,0,1-.116-.039.4.4,0,0,1-.231-.5l1.967-5.708a.39.39,0,1,1,.733.27l-2.006,5.708A.37.37,0,0,1,23.209,17.341Z" transform="translate(-14.222 -6.85)" fill="#fff" stroke="#fff" stroke-width="0.5"/>
    </g>
  </g>
</svg>
