<svg xmlns="http://www.w3.org/2000/svg" width="20.001" height="20" viewBox="0 0 20.001 20">
  <g id="Group_117089" data-name="Group 117089" transform="translate(-43 -1448)">
    <rect id="Rectangle_22831" data-name="Rectangle 22831" width="20" height="20" transform="translate(43 1448)" fill="#c1c1c1" opacity="0"/>
    <g id="noun_Key_4387464" transform="translate(41 1447)">
      <g id="Layer_2" data-name="Layer 2" transform="translate(1.999 2)">
        <path id="Path_183124" data-name="Path 183124" d="M16.282,2a5.713,5.713,0,0,0-5.713,5.713,5.635,5.635,0,0,0,.093,1.035L2.207,17.2a.714.714,0,0,0,0,1.007l2.142,2.142a.714.714,0,0,0,1.007,0l1.285-1.278L7.92,20.353a.714.714,0,0,0,1.007,0l2.142-2.142a.714.714,0,0,0,0-1.007L9.791,15.925,13.2,12.519A5.713,5.713,0,1,0,16.282,2Zm0,10a4.285,4.285,0,0,1-2.7-.964.714.714,0,0,0-.957.043L8.284,15.418a.714.714,0,0,0,0,1.007l1.278,1.285L8.427,18.846,7.149,17.561a.714.714,0,0,0-1.007,0L4.856,18.846,3.721,17.711l8.234-8.227a.714.714,0,0,0,.186-.714A4.163,4.163,0,0,1,12,7.713,4.285,4.285,0,1,1,16.282,12Z" transform="translate(-1.999 -2)" fill="#fff"/>
        <path id="Path_183125" data-name="Path 183125" d="M20.855,6a2.855,2.855,0,1,0,2.855,2.855A2.855,2.855,0,0,0,20.855,6Zm0,4.283a1.428,1.428,0,1,1,1.428-1.428A1.428,1.428,0,0,1,20.855,10.283Z" transform="translate(-6.57 -3.143)" fill="#fff"/>
      </g>
    </g>
  </g>
</svg>
