<svg xmlns="http://www.w3.org/2000/svg" width="20" height="20" viewBox="0 0 20 20">
  <g id="Group_117031" data-name="Group 117031" transform="translate(-24 -2711)">
    <g id="Group_117030" data-name="Group 117030" transform="translate(-6 -53)">
      <rect id="Rectangle_22814" data-name="Rectangle 22814" width="20" height="20" transform="translate(30 2764)" fill="#c1c1c1" opacity="0"/>
    </g>
    <g id="noun_packet_3624953" transform="translate(25.075 2712.101)">
      <g id="Packet" transform="translate(-0.15 -0.17)">
        <path id="Path_182956" data-name="Path 182956" d="M10.323,9.217V4.1L6.162,1.864,2,4.1V9.217l4.162,2.241Zm-3.864,1.4V6.542l3.27-1.761V8.86ZM9.4,4.282,6.162,6.026,2.924,4.282,6.162,2.539Zm-6.8.5,3.27,1.762v4.08L2.595,8.86Z" transform="translate(-1.902 -1.753)" fill="#fff" stroke="#fff" stroke-width="0.3"/>
        <path id="Path_182956_-_Outline" data-name="Path 182956 - Outline" d="M6.109,11.51,1.85,9.216V3.986L6.109,1.694l4.259,2.293v5.23ZM2.046,9.1l4.064,2.188L10.173,9.1v-5L6.109,1.916,2.046,4.1Zm4.263,1.627v-4.3L9.774,4.558v4.3Zm.2-4.186V10.4L9.579,8.743V4.886ZM5.91,10.727,2.445,8.86v-4.3L5.91,6.424ZM2.64,8.743,5.714,10.4V6.541L2.64,4.885ZM6.109,6.078,2.666,4.223,6.109,2.369,9.553,4.223ZM3.079,4.223,6.109,5.855,9.14,4.223,6.109,2.591Z" transform="translate(-1.85 -1.694)" fill="#fff" stroke="#fff" stroke-width="0.3"/>
        <path id="Path_182957" data-name="Path 182957" d="M38.162,29.864,34,32.1v5.113l4.162,2.241,4.162-2.241V32.1ZM41.4,32.282l-3.237,1.743-3.237-1.743,3.237-1.743Zm-6.8.5,3.27,1.762v4.08l-3.27-1.762Zm3.864,5.842v-4.08l3.27-1.761V36.86Z" transform="translate(-24.39 -21.43)" fill="#fff" stroke="#fff" stroke-width="0.3"/>
        <path id="Path_182957_-_Outline" data-name="Path 182957 - Outline" d="M38.109,29.694l4.259,2.293v5.23L38.109,39.51,33.85,37.216v-5.23Zm4.064,2.41-4.064-2.187L34.046,32.1v5l4.064,2.188L42.173,37.1Zm-4.064-1.734,3.444,1.854-3.444,1.854-3.444-1.854Zm3.031,1.854-3.031-1.632-3.031,1.632,3.031,1.632Zm-6.7.334,3.466,1.867v4.3L34.445,36.86Zm3.27,1.984L34.64,32.885v3.858L37.714,38.4Zm4.06-1.983v4.3l-3.466,1.867v-4.3Zm-.2,4.185V32.886L38.5,34.541V38.4Z" transform="translate(-24.338 -21.371)" fill="#fff" stroke="#fff" stroke-width="0.3"/>
        <path id="Path_182958" data-name="Path 182958" d="M40.242,11.081v2.552l-.333-.333-.42.42,1.051,1.051L41.59,13.72l-.42-.42-.333.333V11.081A2.083,2.083,0,0,0,38.756,9H34v.595h4.756A1.488,1.488,0,0,1,40.242,11.081Z" transform="translate(-24.39 -6.768)" fill="#fff" stroke="#fff" stroke-width="0.3"/>
        <path id="Path_182958_-_Outline" data-name="Path 182958 - Outline" d="M33.85,8.85H38.7a2.185,2.185,0,0,1,2.179,2.179v2.316l.235-.235.559.559-1.189,1.19L39.3,13.668l.559-.559.235.235V11.029A1.392,1.392,0,0,0,38.7,9.64H33.85Zm6.837,4.967V11.029A1.988,1.988,0,0,0,38.7,9.046H34.046v.4H38.7a1.589,1.589,0,0,1,1.584,1.584v2.788l-.431-.431-.282.282.912.913.912-.913-.282-.282Z" transform="translate(-24.338 -6.716)" fill="#fff" stroke="#fff" stroke-width="0.3"/>
        <path id="Path_182959" data-name="Path 182959" d="M5.813,39.275V36.723l.333.333.42-.42L5.516,35.585,4.465,36.636l.42.42.333-.333v2.552A2.083,2.083,0,0,0,7.3,41.356h4.756v-.595H7.3a1.488,1.488,0,0,1-1.486-1.486Z" transform="translate(-3.634 -25.45)" fill="#fff" stroke="#fff" stroke-width="0.3"/>
        <path id="Path_182959_-_Outline" data-name="Path 182959 - Outline" d="M7.226,41.38h0A2.185,2.185,0,0,1,5.047,39.2V36.886l-.235.235-.559-.559,1.189-1.19,1.189,1.19-.559.559-.235-.235V39.2A1.392,1.392,0,0,0,7.226,40.59H12.08v.79ZM5.243,36.413V39.2a1.988,1.988,0,0,0,1.983,1.983h4.658v-.4H7.226A1.589,1.589,0,0,1,5.641,39.2V36.413l.431.431.282-.282-.912-.913-.912.913.282.282Z" transform="translate(-3.561 -25.376)" fill="#fff" stroke="#fff" stroke-width="0.3"/>
        <path id="Path_182960" data-name="Path 182960" d="M30.784,29.892a.892.892,0,1,0-.892.892A.892.892,0,0,0,30.784,29.892Zm-.892.3a.3.3,0,1,1,.3-.3A.3.3,0,0,1,29.892,30.189Z" transform="translate(-20.876 -20.823)" fill="#fff" stroke="#fff" stroke-width="0.3"/>
        <path id="Path_182960_-_Outline" data-name="Path 182960 - Outline" d="M29.84,30.829a.99.99,0,1,1,.99-.99A.991.991,0,0,1,29.84,30.829Zm0-1.784a.794.794,0,1,0,.794.794A.795.795,0,0,0,29.84,29.046Zm0,1.189a.4.4,0,1,1,.4-.4A.4.4,0,0,1,29.84,30.235Zm0-.595a.2.2,0,1,0,.2.2A.2.2,0,0,0,29.84,29.64Z" transform="translate(-20.824 -20.77)" fill="#fff" stroke="#fff" stroke-width="0.3"/>
      </g>
    </g>
  </g>
</svg>
