<svg xmlns="http://www.w3.org/2000/svg" width="20" height="20" viewBox="0 0 20 20">
  <g id="home" transform="translate(-18 -78)">
    <rect id="Rectangle_22800" data-name="Rectangle 22800" width="20" height="20" transform="translate(18 78)" fill="#fff" opacity="0"/>
    <g id="Group_20970" data-name="Group 20970" transform="translate(-311.367 -379.162)">
      <path id="home-2" data-name="home" d="M17.755,7.713h0L10.52.478a1.632,1.632,0,0,0-2.309,0L.981,7.708l-.007.007A1.632,1.632,0,0,0,2.06,10.5l.05,0H2.4v5.323a1.913,1.913,0,0,0,1.911,1.911h2.83a.52.52,0,0,0,.52-.52V13.04a.873.873,0,0,1,.872-.872H10.2a.873.873,0,0,1,.872.872v4.174a.52.52,0,0,0,.52.52h2.83a1.913,1.913,0,0,0,1.911-1.911V10.5H16.6a1.633,1.633,0,0,0,1.155-2.786Zm-.736,1.573a.59.59,0,0,1-.42.174h-.787a.52.52,0,0,0-.52.52v5.843a.873.873,0,0,1-.872.872H12.111V13.04A1.913,1.913,0,0,0,10.2,11.13H8.531A1.913,1.913,0,0,0,6.62,13.04v3.654H4.309a.873.873,0,0,1-.872-.872V9.98a.52.52,0,0,0-.52-.52h-.8a.593.593,0,0,1-.409-1.012h0L8.946,1.213a.593.593,0,0,1,.839,0l7.232,7.232,0,0A.6.6,0,0,1,17.019,9.287Zm0,0" transform="translate(330.002 457.928)" fill="#fff" stroke="#fff" stroke-width="0.5"/>
    </g>
  </g>
</svg>
