<svg xmlns="http://www.w3.org/2000/svg" width="20.5" height="20.5" viewBox="0 0 20.5 20.5">
  <g id="Group_117115" data-name="Group 117115" transform="translate(-34.75 -2348.75)">
    <rect id="Rectangle_22850" data-name="Rectangle 22850" width="20" height="20" transform="translate(35 2349)" fill="#fff" opacity="0"/>
    <g id="noun_Calendar_3036747" transform="translate(26 2340)">
      <g id="Layer_27" data-name="Layer 27" transform="translate(9 9)">
        <path id="Path_183141" data-name="Path 183141" d="M26.949,10.538H24.128V9.513a.513.513,0,1,0-1.026,0v1.026h-3.59V9.513a.513.513,0,1,0-1.026,0v1.026H14.9V9.513a.513.513,0,0,0-1.026,0v1.026H11.051A2.051,2.051,0,0,0,9,12.59V26.949A2.051,2.051,0,0,0,11.051,29h15.9A2.051,2.051,0,0,0,29,26.949V12.59A2.051,2.051,0,0,0,26.949,10.538ZM10.026,12.59a1.026,1.026,0,0,1,1.026-1.026h2.821V12.59a.513.513,0,0,0,1.026,0V11.564h3.59V12.59a.513.513,0,1,0,1.026,0V11.564H23.1V12.59a.513.513,0,1,0,1.026,0V11.564h2.821a1.026,1.026,0,0,1,1.026,1.026v2.564H10.026ZM27.974,26.949a1.026,1.026,0,0,1-1.026,1.026h-15.9a1.026,1.026,0,0,1-1.026-1.026V16.179H27.974Z" transform="translate(-9 -9)" fill="#fff" stroke="#fff" stroke-width="0.5"/>
        <rect id="Rectangle_22839" data-name="Rectangle 22839" width="1.608" height="1.608" transform="translate(9.025 9.02)" fill="#fff"/>
        <rect id="Rectangle_22840" data-name="Rectangle 22840" width="1.608" height="1.608" transform="translate(12.24 9.02)" fill="#fff"/>
        <rect id="Rectangle_22841" data-name="Rectangle 22841" width="0.804" height="1.608" transform="translate(15.455 9.02)" fill="#fff"/>
        <rect id="Rectangle_22842" data-name="Rectangle 22842" width="1.608" height="1.608" transform="translate(3.398 12.235)" fill="#fff"/>
        <rect id="Rectangle_22843" data-name="Rectangle 22843" width="1.608" height="1.608" transform="translate(5.809 12.235)" fill="#fff"/>
        <rect id="Rectangle_22844" data-name="Rectangle 22844" width="1.608" height="1.608" transform="translate(9.025 12.235)" fill="#fff"/>
        <rect id="Rectangle_22845" data-name="Rectangle 22845" width="1.608" height="1.608" transform="translate(12.24 12.235)" fill="#fff"/>
        <rect id="Rectangle_22846" data-name="Rectangle 22846" width="0.804" height="1.608" transform="translate(15.455 12.235)" fill="#fff"/>
        <rect id="Rectangle_22847" data-name="Rectangle 22847" width="1.608" height="0.804" transform="translate(3.398 15.45)" fill="#fff"/>
        <rect id="Rectangle_22848" data-name="Rectangle 22848" width="1.608" height="0.804" transform="translate(5.809 15.45)" fill="#fff"/>
        <rect id="Rectangle_22849" data-name="Rectangle 22849" width="1.608" height="0.804" transform="translate(9.025 15.45)" fill="#fff"/>
      </g>
    </g>
  </g>
</svg>
