<svg xmlns="http://www.w3.org/2000/svg" width="20" height="20.207" viewBox="0 0 20 20.207">
  <g id="oraganisations" transform="translate(-20 -166.894)">
    <rect id="Rectangle_22802" data-name="Rectangle 22802" width="20" height="20" transform="translate(20 167)" fill="#fff" opacity="0"/>
    <g id="building" transform="translate(20.5 167)">
      <path id="Path_182931" data-name="Path 182931" d="M18.454.094a.625.625,0,0,1,.3.531v18.75a.625.625,0,0,1-.625.625h-3.75a.625.625,0,0,1-.625-.625V17.5H12.5v1.875a.625.625,0,0,1-.625.625H.625A.625.625,0,0,1,0,19.375V12.5a.625.625,0,0,1,.428-.593L7.5,9.55V5.625a.625.625,0,0,1,.345-.559l10-5a.625.625,0,0,1,.609.027ZM7.5,10.868,1.25,12.95v5.8H7.5ZM8.75,18.75h2.5V16.875a.625.625,0,0,1,.625-.625h2.5a.625.625,0,0,1,.625.625V18.75h2.5V1.636L8.75,6.011Z" transform="translate(0 0)" fill="#fff" stroke="#fff" stroke-width="0.2"/>
      <path id="Path_182932" data-name="Path 182932" d="M2,13.909H3.341v1.364H2Zm2.682,0H6.023v1.364H4.682ZM2,16.636H3.341V18H2Zm2.682,0H6.023V18H4.682Zm5.364-5.455h1.341v1.364H10.046Zm2.682,0h1.341v1.364H12.727Zm-2.682,2.727h1.341v1.364H10.046Zm2.682,0h1.341v1.364H12.727Zm2.682-2.727H16.75v1.364H15.409Zm0,2.727H16.75v1.364H15.409ZM10.046,8.455h1.341V9.818H10.046Zm2.682,0h1.341V9.818H12.727Zm2.682,0H16.75V9.818H15.409ZM10.046,5.727h1.341V7.091H10.046Zm2.682,0h1.341V7.091H12.727Zm2.682,0H16.75V7.091H15.409Zm0-2.727H16.75V4.364H15.409Z" fill="#fff" stroke="#fff" stroke-width="0.2"/>
    </g>
  </g>
</svg>
