<svg xmlns="http://www.w3.org/2000/svg" width="27" height="27" viewBox="0 0 27 27">
  <g id="Group_117322" data-name="Group 117322" transform="translate(-319 -3452)">
    <g id="Group_117259" data-name="Group 117259" transform="translate(0 60)">
      <g id="Group_117161" data-name="Group 117161" transform="translate(-3 253)">
        <circle id="Ellipse_40727" data-name="Ellipse 40727" cx="13.5" cy="13.5" r="13.5" transform="translate(322 3139)" fill="#f3f5f8"/>
      </g>
    </g>
    <g id="Group_117258" data-name="Group 117258" transform="translate(180.292 254.769)">
      <g id="Group_117257" data-name="Group 117257">
        <path id="Path_183468" data-name="Path 183468" d="M119.146,26.925h0a7.6,7.6,0,0,1-6.239-3.258.609.609,0,1,1,1-.7,6.388,6.388,0,0,0,5.245,2.74,6.516,6.516,0,1,0,0-13.032,6.754,6.754,0,0,0-4.714,2.041l2.228,0h.013a.609.609,0,0,1,.006,1.218h-3.437a.922.922,0,0,1-.132.01.579.579,0,0,1-.424-.162.6.6,0,0,1-.121-.173h-.017l.011-.014a.615.615,0,0,1-.023-.426l.075-3.39a.61.61,0,0,1,.187-.43.6.6,0,0,1,.438-.168.61.61,0,0,1,.593.609l.043,1.753a7.731,7.731,0,1,1,5.294,13.38Z" transform="translate(34.185 3192.048)" fill="#383a65"/>
        <path id="Path_183469" data-name="Path 183469" d="M53.807,28.791H51.286V24.467a.636.636,0,0,0-1.273,0v4.96a.637.637,0,0,0,.636.636h3.157a.636.636,0,0,0,0-1.272Z" transform="translate(102.633 3182.788)" fill="#383a65"/>
        <path id="Line_2129" data-name="Line 2129" d="M6.357.6H-.165C-.405.6-.6.331-.6,0s.195-.6.435-.6H6.357c.24,0,.435.269.435.6S6.6.6,6.357.6Z" transform="translate(143.308 3209.5)" fill="#383a65"/>
        <path id="Line_2130" data-name="Line 2130" d="M5.227.6H-.14A.544.544,0,0,1-.6,0,.544.544,0,0,1-.14-.6H5.227a.544.544,0,0,1,.46.6A.544.544,0,0,1,5.227.6Z" transform="translate(144.413 3211.5)" fill="#383a65"/>
        <path id="Line_2131" data-name="Line 2131" d="M3.027.6H-.127A.548.548,0,0,1-.6,0,.548.548,0,0,1-.127-.6H3.027A.548.548,0,0,1,3.5,0,.548.548,0,0,1,3.027.6Z" transform="translate(146.6 3213.5)" fill="#383a65"/>
      </g>
    </g>
  </g>
</svg>
