<svg xmlns="http://www.w3.org/2000/svg" width="19.645" height="26.567" viewBox="0 0 19.645 26.567">
  <path id="Subtraction_30" data-name="Subtraction 30" d="M-11624.335,2537.366a.632.632,0,0,1-.255-.053.693.693,0,0,1-.407-.641v-22.988a2.882,2.882,0,0,1,.772-1.99,2.647,2.647,0,0,1,1.076-.694h15.9a2.637,2.637,0,0,1,.978.659,2.9,2.9,0,0,1,.721,1.413v23.909a.7.7,0,0,1-.31.291l-.263.07h-.026a.652.652,0,0,1-.44-.176l-2.514-2.5-2.619,2.5a.63.63,0,0,1-.444.185.646.646,0,0,1-.448-.185l-2.615-2.5-2.616,2.5a.638.638,0,0,1-.446.185.644.644,0,0,1-.448-.185l-2.582-2.5-2.55,2.5A.642.642,0,0,1-11624.335,2537.366Zm9.119-4.327a.641.641,0,0,1,.448.183l2.615,2.5,2.614-2.5a.652.652,0,0,1,.448-.185.649.649,0,0,1,.449.185l1.853,1.832v-21.4a1.467,1.467,0,0,0-.388-1,1.278,1.278,0,0,0-.937-.411h-14.24a1.294,1.294,0,0,0-.936.411,1.474,1.474,0,0,0-.386,1v21.4l1.886-1.832a.647.647,0,0,1,.446-.185.64.64,0,0,1,.446.185l2.619,2.5,2.614-2.5A.636.636,0,0,1-11615.216,2533.039Zm4.725-5.2h-8.214a.683.683,0,0,1-.66-.7.684.684,0,0,1,.66-.7h8.214a.686.686,0,0,1,.661.7A.685.685,0,0,1-11610.491,2527.836Zm0-4.575h-8.214a.684.684,0,0,1-.66-.706.683.683,0,0,1,.66-.7h8.214a.685.685,0,0,1,.661.7A.686.686,0,0,1-11610.491,2523.261Zm-3.974-4.577h-4.24a.684.684,0,0,1-.66-.7.683.683,0,0,1,.66-.7h4.24a.686.686,0,0,1,.662.7A.686.686,0,0,1-11614.465,2518.684Z" transform="translate(11625.097 -2510.899)" fill="#383a65" stroke="#383a65" stroke-width="0.2"/>
</svg>
