<svg xmlns="http://www.w3.org/2000/svg" width="27" height="27" viewBox="0 0 27 27">
  <g id="Group_117051" data-name="Group 117051" transform="translate(-329 -1983)">
    <g id="Putaway_383a65_" data-name="Putaway_383a65 " transform="translate(-300 1449)">
      <circle id="Ellipse_40727" data-name="Ellipse 40727" cx="13.5" cy="13.5" r="13.5" transform="translate(629 534)" fill="#f3f5f8"/>
    </g>
    <g id="shipment" transform="translate(332.4 1970.3)">
      <g id="Group_117049" data-name="Group 117049" transform="translate(2.6 21.7)">
        <path id="Path_183100" data-name="Path 183100" d="M24.14,25.54l-.751-1.719A1.7,1.7,0,0,0,21.837,22.8H20.651v-.451A.652.652,0,0,0,20,21.7H11.119a.431.431,0,0,0-.434.434v1.319h-.651a.431.431,0,0,0-.434.434.442.442,0,0,0,.434.434h1.085a.431.431,0,0,0,.434-.434V22.568h8.2v3.205a.723.723,0,0,0,.718.718h2.9v2.02a.15.15,0,0,1-.15.15h-.568a1.6,1.6,0,0,0-2.771,0H15.426a1.6,1.6,0,0,0-2.771,0h-1.1V27.343a.431.431,0,0,0-.434-.434H10.034a.431.431,0,0,0-.434.434.442.442,0,0,0,.434.434h.634V29.1a.431.431,0,0,0,.434.434h1.319a1.6,1.6,0,0,0,3.205,0h4.057a1.6,1.6,0,0,0,3.205,0h.351a1.04,1.04,0,0,0,1.035-1.035V26.157A1.794,1.794,0,0,0,24.14,25.54Zm-10.1,4.708a.735.735,0,1,1,.735-.735A.741.741,0,0,1,14.041,30.247Zm7.245,0a.735.735,0,1,1,.735-.735A.741.741,0,0,1,21.286,30.247Zm-.634-6.561h1.185a.822.822,0,0,1,.751.484l.634,1.486H20.651Z" transform="translate(-8.431 -21.7)" fill="#383a65"/>
        <path id="Path_183101" data-name="Path 183101" d="M10.313,37.613a.443.443,0,0,0,0,.618.443.443,0,0,0,.634,0l1.319-1.319a.443.443,0,0,0,0-.618l-1.319-1.319a.437.437,0,0,0-.618.618l.551.551H3.034a.431.431,0,0,0-.434.434.458.458,0,0,0,.417.467h7.846Z" transform="translate(-2.6 -32.655)" fill="#383a65"/>
      </g>
    </g>
  </g>
</svg>
