<svg xmlns="http://www.w3.org/2000/svg" width="20" height="20" viewBox="0 0 20 20">
  <g id="Group_117145" data-name="Group 117145" transform="translate(-30 -1862)">
    <rect id="Rectangle_22856" data-name="Rectangle 22856" width="20" height="20" transform="translate(30 1862)" fill="#fff" opacity="0"/>
    <g id="choose_product" data-name="choose product" transform="translate(28.5 1860.5)">
      <g id="Group_117143" data-name="Group 117143" transform="translate(1.5 1.5)">
        <g id="Group_117142" data-name="Group 117142">
          <path id="Path_183150" data-name="Path 183150" d="M10.357,33.125H6.282a.491.491,0,0,0,0,.983h4.075a.491.491,0,0,0,0-.983Z" transform="translate(-4.385 -22.765)" fill="#fff"/>
          <path id="Path_183151" data-name="Path 183151" d="M8.32,37.25H6.282a.491.491,0,1,0,0,.983H8.32a.491.491,0,1,0,0-.983Z" transform="translate(-4.385 -25.539)" fill="#fff"/>
          <path id="Path_183152" data-name="Path 183152" d="M20.187,13.232a1.207,1.207,0,0,0-.5.109,1.3,1.3,0,0,0-1.144-.742,1.216,1.216,0,0,0-.648.194,1.265,1.265,0,0,0-.994-.507,1.187,1.187,0,0,0-.33.051V11.09A1.388,1.388,0,0,0,15.41,9.677V1.991a.491.491,0,0,0-.491-.491H1.991a.491.491,0,0,0-.491.491V15.37a.491.491,0,0,0,.491.491h9.565a21.1,21.1,0,0,1,1.721,3.231,2.558,2.558,0,0,0,2.571,2.391h3.188A2.465,2.465,0,0,0,21.5,19.02V14.662A1.377,1.377,0,0,0,20.187,13.232Zm-5.76-9.4h-4.21V2.483h4.21Zm-5.193,2.5H7.963V2.483H9.234ZM6.981,2.483v1.35h-4.5V2.483Zm-4.5,2.332h4.5V6.823a.491.491,0,0,0,.491.491H9.726a.491.491,0,0,0,.491-.491V4.815h4.21V9.993a1.472,1.472,0,0,0-.48,1.1V14.66l-.351-.477a1.493,1.493,0,0,0-.877-.58,1.242,1.242,0,0,0-1.53,1.128,1.39,1.39,0,0,0,0,.148H2.483ZM19.038,20.5H15.849a1.578,1.578,0,0,1-1.59-1.48.5.5,0,0,0-.016-.124,21.717,21.717,0,0,0-1.95-3.709l-.02-.029a.52.52,0,0,1-.106-.344.262.262,0,0,1,.34-.251.518.518,0,0,1,.3.2l1.238,1.681a.486.486,0,0,0,.549.164.505.505,0,0,0,.338-.478V11.089c0-.242.151-.447.33-.447s.33.2.33.447v3.565a.491.491,0,1,0,.983,0v-.94c0-.242.151-.447.33-.447s.33.2.33.447v1.43a.491.491,0,1,0,.983,0V14.028c0-.242.151-.447.33-.447s.33.2.33.447v1.43a.491.491,0,1,0,.983,0v-.8c0-.242.151-.447.33-.447s.33.2.33.447V19.02A1.482,1.482,0,0,1,19.038,20.5Z" transform="translate(-1.5 -1.5)" fill="#fff"/>
        </g>
      </g>
    </g>
  </g>
</svg>
