<svg xmlns="http://www.w3.org/2000/svg" width="20" height="20" viewBox="0 0 20 20">
  <g id="Group_117220" data-name="Group 117220" transform="translate(-36 -3054)">
    <rect id="Rectangle_22885" data-name="Rectangle 22885" width="20" height="20" transform="translate(36 3054)" fill="#de2222" opacity="0"/>
    <g id="Group_117213" data-name="Group 117213" transform="translate(-180.703 -5.148)">
      <path id="Subtraction_20" data-name="Subtraction 20" d="M10,18.375h0a.693.693,0,0,1-.5-.216l-7.68-7.417a6.387,6.387,0,0,1-.024-8.9A6.16,6.16,0,0,1,6.148,0,6.111,6.111,0,0,1,10,1.818a6.757,6.757,0,0,1,4.282-1.6h.025a5.569,5.569,0,0,1,3.9,1.625A6.39,6.39,0,0,1,20,6.293,6.255,6.255,0,0,1,18.2,10.718l-7.7,7.441A.725.725,0,0,1,10,18.375ZM2.894,9.786,10,16.651l7.177-6.938a4.938,4.938,0,0,0,0-6.867,4.044,4.044,0,0,0-2.87-1.2h-.025A5.472,5.472,0,0,0,10.5,3.3a.7.7,0,0,1-1,0,5.354,5.354,0,0,0-3.35-1.867A4.671,4.671,0,0,0,2.822,2.847a4.981,4.981,0,0,0-.932,5.5H4.616l1.435-2.2a.69.69,0,0,1,.579-.314q.033,0,.067,0a.673.673,0,0,1,.6.382l2.033,3.9,2.178-3.588a.712.712,0,0,1,.525-.336q.039,0,.078,0a.789.789,0,0,1,.521.2L14.617,8.3a.721.721,0,0,1,.217.514.718.718,0,0,1-1.222.514l-1.34-1.292-2.392,3.9a.691.691,0,0,1-.6.358H9.258a.789.789,0,0,1-.623-.382L6.578,7.967,5.6,9.45A.7.7,0,0,1,5,9.786Z" transform="translate(216.704 3060.148)" fill="#fbfbfb"/>
    </g>
  </g>
</svg>
