<svg xmlns="http://www.w3.org/2000/svg" width="27" height="27" viewBox="0 0 27 27">
  <g id="Group_117318" data-name="Group 117318" transform="translate(-322 -3799)">
    <g id="Group_117276" data-name="Group 117276" transform="translate(3 277)">
      <g id="Group_117268" data-name="Group 117268" transform="translate(5 204)">
        <g id="Group_117161" data-name="Group 117161" transform="translate(-8 179)">
          <circle id="Ellipse_40727" data-name="Ellipse 40727" cx="13.5" cy="13.5" r="13.5" transform="translate(322 3139)" fill="#f3f5f8"/>
        </g>
      </g>
    </g>
    <path id="Subtraction_30" data-name="Subtraction 30" d="M-11624.609,2526.366a.378.378,0,0,1-.149-.031.4.4,0,0,1-.24-.374v-13.4a1.672,1.672,0,0,1,.455-1.16,1.554,1.554,0,0,1,.634-.4h9.357a1.557,1.557,0,0,1,.575.384,1.675,1.675,0,0,1,.424.824v13.934a.407.407,0,0,1-.182.17l-.155.041h-.016a.38.38,0,0,1-.258-.1l-1.48-1.457-1.541,1.457a.374.374,0,0,1-.262.108.38.38,0,0,1-.264-.108l-1.539-1.457-1.541,1.457a.376.376,0,0,1-.262.108.384.384,0,0,1-.265-.108l-1.52-1.457-1.5,1.457A.378.378,0,0,1-11624.609,2526.366Zm5.368-2.522a.378.378,0,0,1,.264.106l1.539,1.457,1.539-1.457a.386.386,0,0,1,.264-.108.381.381,0,0,1,.264.108l1.091,1.068v-12.474a.847.847,0,0,0-.229-.58.753.753,0,0,0-.551-.24h-8.381a.764.764,0,0,0-.551.24.851.851,0,0,0-.228.58v12.474l1.11-1.068a.38.38,0,0,1,.262-.108.381.381,0,0,1,.264.108l1.541,1.457,1.539-1.457A.375.375,0,0,1-11619.241,2523.844Zm2.78-3.032h-4.834a.4.4,0,0,1-.389-.41.4.4,0,0,1,.389-.41h4.834a.4.4,0,0,1,.39.41A.4.4,0,0,1-11616.461,2520.812Zm0-2.666h-4.834a.4.4,0,0,1-.389-.411.4.4,0,0,1,.389-.41h4.834a.4.4,0,0,1,.39.41A.4.4,0,0,1-11616.461,2518.146Zm-2.339-2.668h-2.5a.4.4,0,0,1-.389-.411.4.4,0,0,1,.389-.41h2.5a.4.4,0,0,1,.39.41A.4.4,0,0,1-11618.8,2515.478Z" transform="translate(11955 1294)" fill="#383a65" stroke="#383a65" stroke-width="0.2"/>
  </g>
</svg>
