<svg xmlns="http://www.w3.org/2000/svg" width="37.882" height="34.404" viewBox="0 0 37.882 34.404">
  <g id="Group_117231" data-name="Group 117231" transform="translate(-326.9 -3337.88)">
    <g id="Group_117230" data-name="Group 117230" transform="translate(327 3337.98)">
      <path id="Subtraction_25" data-name="Subtraction 25" d="M12.847,20.555A2.566,2.566,0,0,1,10.5,19.011H9.534a8.29,8.29,0,0,1-.81-1.029h1.557a2.57,2.57,0,0,1,2.052-2.514V14.9H7.554l-.13-.087a7.479,7.479,0,0,1-.119-.848c-.014-.16-.025-.316-.028-.488l.589.394h2.378L8.4,8.961a8.6,8.6,0,0,1,.705-1.042l2.2,5.863v.089h1.029V5.393a8.628,8.628,0,0,1,1.029-.384V6.164h6.169v6.169h1.023v1.023H13.361v2.112a2.569,2.569,0,0,1-.514,5.087Zm0-4.111a1.541,1.541,0,1,0,1.546,1.538A1.541,1.541,0,0,0,12.847,16.444Zm.514-9.251v5.14H18.5V7.193H16.45V8.737H15.419V7.193ZM2.06,20.555A2.061,2.061,0,0,1,0,18.5V12.848a1.031,1.031,0,0,1,1.029-1.029h.514V4.62H2.574l5.157.515c-.216.219-.434.453-.655.721-.064.075-.127.151-.188.227L2.574,5.655v6.163H4.488c-.039.329-.066.675-.077,1.029H1.029v3.88A2.036,2.036,0,0,1,4.04,17.982H5.461A11,11,0,0,0,6,19.011H4.04A2.055,2.055,0,0,1,2.06,20.555Zm0-3.082A1.026,1.026,0,1,0,3.089,18.5,1.028,1.028,0,0,0,2.06,17.473ZM12.333,2.32V0h1.029V2.045c-.34.074-.683.166-1.026.274Z" transform="translate(0 0)" fill="#383a65" stroke="#383a65" stroke-width="0.2"/>
      <g id="Group_117229" data-name="Group 117229" transform="translate(4.335 3.556) rotate(-5)">
        <g id="noun_inspection_3780461" transform="translate(0 0)">
          <g id="Group_117036" data-name="Group 117036" transform="translate(0 0)">
            <g id="Path_183094" data-name="Path 183094" fill="#383a65">
              <path d="M 27.36414527893066 30.68905067443848 C 26.71936416625977 30.68905067443848 26.11322402954102 30.43791961669922 25.65739440917969 29.98192024230957 L 17.16644477844238 21.52811050415039 C 16.87893486022949 21.24057006835938 16.87893486022949 20.77308082580566 17.16618537902832 20.48576927185059 L 17.4751148223877 20.17687034606934 L 16.72644424438477 19.42819976806641 C 14.91841983795166 20.68352890014648 12.80444526672363 21.34638023376465 10.60446453094482 21.34638023376465 C 7.431454658508301 21.34638023376465 4.437774658203125 19.9582405090332 2.391034603118896 17.53787994384766 C 0.6457245349884033 15.47395992279053 -0.2533554434776306 12.85006999969482 -0.1405954360961914 10.14955043792725 C -0.02782543748617172 7.44903039932251 1.086874604225159 4.90923023223877 2.998174667358398 2.998020172119141 C 5.028294563293457 0.9679901599884033 7.728234767913818 -0.1499998271465302 10.60061454772949 -0.1499998271465302 C 13.13687419891357 -0.1499998271465302 15.60086441040039 0.7523801922798157 17.5386848449707 2.390920162200928 C 19.60269546508789 4.136160373687744 20.92529487609863 6.574190139770508 21.26284408569336 9.255900382995605 C 21.59510040283203 11.8955545425415 20.94414520263672 14.54305553436279 19.42910003662109 16.72566604614258 L 20.17782020568848 17.47429847717285 L 20.48673439025879 17.1653995513916 C 20.62592506408691 17.02622985839844 20.81097412109375 16.94960021972656 21.00780487060547 16.94960021972656 C 21.20462417602539 16.94960021972656 21.38968467712402 17.02622985839844 21.52886390686035 17.16539001464844 L 29.76324462890625 25.36523246765137 L 29.76324462890625 25.3642692565918 L 30.01928520202637 25.62008094787598 C 30.47530364990234 26.07590103149414 30.72644424438477 26.68201065063477 30.72645378112793 27.32675933837891 C 30.72645378112793 27.97150993347168 30.47531509399414 28.5776195526123 30.0193042755127 29.03343963623047 L 29.07087516784668 29.9819507598877 C 28.61504364013672 30.43791961669922 28.00891494750977 30.68905067443848 27.36414527893066 30.68905067443848 Z M 20.74929237365723 23.10961723327637 L 26.69846534729004 28.93888092041016 C 26.87763404846191 29.10944938659668 27.11459541320801 29.20421028137207 27.36413383483887 29.20421028137207 C 27.61367416381836 29.20421028137207 27.85062408447266 29.10944938659668 28.03134536743164 28.9373893737793 L 28.977294921875 27.99142074584961 C 29.15505409240723 27.81367111206055 29.2528247833252 27.57767105102539 29.2528247833252 27.32664108276367 C 29.2528247833252 27.07559967041016 29.15505409240723 26.839599609375 28.97752380371094 26.66209983825684 L 23.02764892578125 20.83137130737305 L 20.74929237365723 23.10961723327637 Z M 18.72579383850098 21.01041412353516 L 19.7097339630127 22.06497573852539 L 21.98793411254883 19.78688621520996 L 21.0040340423584 18.73227310180664 L 20.69885444641113 19.03742980957031 L 19.03830528259277 20.69791030883789 L 18.72579383850098 21.01041412353516 Z M 10.63163471221924 1.24029016494751 L 10.63159465789795 1.390290141105652 C 8.163344383239746 1.390290141105652 5.842714786529541 2.351550102233887 4.097184658050537 4.09699010848999 C 2.351644515991211 5.842440128326416 1.390334606170654 8.162980079650879 1.390344619750977 10.63113975524902 C 1.39618456363678 15.72068977355957 5.541924476623535 19.86623954772949 10.63188457489014 19.87207984924316 C 13.09998416900635 19.87207984924316 15.42062473297119 18.91082000732422 17.16616439819336 17.16538047790527 C 18.91171455383301 15.41993045806885 19.87302398681641 13.09938049316406 19.87301445007324 10.6312198638916 C 19.87298393249512 5.535769939422607 15.72731494903564 1.390310168266296 10.63163471221924 1.390290141105652 L 10.63163471221924 1.24029016494751 Z M 17.88114929199219 18.49868965148926 L 18.51726531982422 19.13477516174316 L 19.13567924499512 18.51639938354492 L 18.49955177307129 17.88030242919922 C 18.30225563049316 18.09420776367188 18.09506034851074 18.30139541625977 17.88114929199219 18.49868965148926 Z" stroke="none"/>
              <path d="M 27.36414527893066 30.5390453338623 C 27.94349670410156 30.5390453338623 28.52284049987793 30.31799507141113 28.96480369567871 29.87589073181152 L 29.91326522827148 28.9273509979248 C 30.79751396179199 28.04347038269043 30.79751396179199 26.61005020141602 29.91324424743652 25.72616958618164 L 29.91324424743652 25.72628974914551 L 21.42281532287598 17.27147102355957 C 21.1936092376709 17.04231452941895 20.82201957702637 17.04229927062988 20.59279441833496 17.27147102355957 L 20.17782402038574 17.68642044067383 L 19.2338752746582 16.74258041381836 C 22.42892456054688 12.25273990631104 21.6498851776123 6.063610076904297 17.44183540344238 2.505460262298584 C 13.23377227783203 -1.052680253982544 7.000944137573242 -0.7924395799636841 3.104234457015991 3.104090213775635 C -0.7924754619598389 7.000620365142822 -1.052725434303284 13.2331600189209 2.505574464797974 17.44102096557617 C 6.063884258270264 21.64887809753418 12.25331401824951 22.42787170410156 16.74335479736328 19.23296928405762 L 17.68725395202637 20.17687034606934 L 17.27226448059082 20.59182929992676 C 17.04309463500977 20.82104110717773 17.04309463500977 21.19260025024414 17.27227401733398 21.42181015014648 L 25.76347541809082 29.87586975097656 C 26.20543479919434 30.31798553466797 26.78479385375977 30.5390453338623 27.36414527893066 30.5390453338623 M 23.02658462524414 20.62030982971191 L 29.08358383178711 26.5560302734375 C 29.50923538208008 26.98160934448242 29.50923538208008 27.67167091369629 29.08359527587891 28.09724044799805 L 29.08335494995117 28.09749031066895 L 28.13477516174316 29.0460205078125 C 27.70319366455078 29.45693969726562 27.02507400512695 29.45693969726562 26.59348487854004 29.0460205078125 L 20.53607368469238 23.1107006072998 L 23.02658462524414 20.62030982971191 M 21.00778388977051 18.51639938354492 L 22.19645500183105 19.79050064086914 L 19.70599365234375 22.28083992004395 L 18.51727485656738 21.00679969787598 L 21.00778388977051 18.51639938354492 M 10.6315975189209 1.24029016494751 C 10.63191413879395 1.24029016494751 10.63131809234619 1.24029016494751 10.63163471221924 1.24029016494751 C 15.81833457946777 1.240310192108154 20.02298545837402 5.444780349731445 20.02301406860352 10.6312198638916 C 20.02303504943848 15.81735324859619 15.81798648834229 20.02207946777344 10.63173294067383 20.02207946777344 C 10.63141632080078 20.02207946777344 10.63203144073486 20.02207946777344 10.63171482086182 20.02207946777344 C 5.447484493255615 20.0161304473877 1.246294617652893 15.81513977050781 1.240344524383545 10.6311502456665 C 1.24032461643219 5.445016860961914 5.445353984832764 1.24029016494751 10.6315975189209 1.24029016494751 M 18.49436378479004 17.66299057006836 L 19.34781455993652 18.51639938354492 L 18.51726531982422 19.34690093994141 L 17.6638240814209 18.49349975585938 C 17.95574378967285 18.2321605682373 18.2330150604248 17.95490074157715 18.49436378479004 17.66299057006836 M 27.36414527893066 30.83905029296875 C 26.67928504943848 30.83905029296875 26.03547477722168 30.57230949401855 25.55130386352539 30.08795928955078 L 17.06060409545898 21.6344108581543 C 16.71439361572266 21.28813934326172 16.71438407897949 20.72550964355469 17.06011390686035 20.37972068786621 L 17.26298713684082 20.1768627166748 L 16.70852279663086 19.62239837646484 C 14.89826107025146 20.84930229187012 12.79343414306641 21.49637985229492 10.60446453094482 21.49637985229492 C 7.387214660644531 21.49637985229492 4.351794719696045 20.08885955810547 2.276504516601562 17.63472938537598 C 0.5068345665931702 15.54201030731201 -0.404805451631546 12.88150024414062 -0.2904654443264008 10.14329051971436 C -0.1761254370212555 7.405080318450928 0.9541345834732056 4.829840183258057 2.892104625701904 2.891950130462646 C 4.950554370880127 0.8335901498794556 7.688164710998535 -0.2999998331069946 10.60061454772949 -0.2999998331069946 C 13.17228412628174 -0.2999998331069946 15.67066478729248 0.6149701476097107 17.63553428649902 2.276380062103271 C 19.72835540771484 4.04596996307373 21.06940460205078 6.518030166625977 21.41166496276855 9.237170219421387 C 21.74334335327148 11.87217617034912 21.1088924407959 14.51467704772949 19.62329292297363 16.70771789550781 L 20.17781257629395 17.26217269897461 L 20.38066482543945 17.05932998657227 C 20.54821395874023 16.89183044433594 20.77092361450195 16.79960060119629 21.00780487060547 16.79960060119629 C 21.24469375610352 16.79960060119629 21.46741485595703 16.8918399810791 21.63492393493652 17.0593204498291 L 29.61324501037598 25.0041675567627 L 29.61324501037598 25.00225067138672 L 30.12533378601074 25.51399040222168 C 30.60969543457031 25.99814033508301 30.87644386291504 26.64192962646484 30.87645530700684 27.32675933837891 C 30.87645530700684 28.0115909576416 30.60970497131348 28.65537071228027 30.1253547668457 29.13953018188477 L 29.17694473266602 30.08801078796387 C 28.69280433654785 30.57232093811035 28.04899406433105 30.83905029296875 27.36414527893066 30.83905029296875 Z M 20.96251678466797 23.10853958129883 L 26.80344390869141 28.83173942565918 C 26.95305442810059 28.97414016723633 27.15328407287598 29.0542106628418 27.36413383483887 29.0542106628418 C 27.57383918762207 29.0542106628418 27.77303886413574 28.97499656677246 27.92542266845703 28.83110237121582 L 28.87148475646973 27.88508987426758 C 29.02066421508789 27.73592948913574 29.10282516479492 27.53759956359863 29.10282516479492 27.32664108276367 C 29.10282516479492 27.11568069458008 29.02065467834473 26.91733932495117 28.87147521972656 26.76818084716797 L 23.02871322631836 21.04244041442871 L 20.96251678466797 23.10853958129883 Z M 18.9343204498291 21.01402473449707 L 19.71347427368164 21.84910202026367 L 21.7794132232666 19.78326225280762 L 21.00028800964355 18.94814109802246 L 18.9343204498291 21.01402473449707 Z M 10.63163471221924 1.540290117263794 C 8.203434944152832 1.540290117263794 5.920454502105713 2.485950231552124 4.203254699707031 4.203060150146484 C 2.486044645309448 5.920180320739746 1.540334582328796 8.20305061340332 1.540344595909119 10.6311502456665 C 1.546094536781311 15.63800048828125 5.624614715576172 19.71632957458496 10.63205432891846 19.72208023071289 C 13.06001472473145 19.72196388244629 15.34299945831299 18.77631568908691 17.06009483337402 17.05931091308594 C 18.77731513977051 15.34218978881836 19.72302436828613 13.0593204498291 19.72301483154297 10.6312198638916 C 19.72298431396484 5.618480205535889 15.64460468292236 1.540310144424438 10.63163471221924 1.540290117263794 Z M 18.09686851501465 18.50226402282715 L 18.51726531982422 18.92264175415039 L 18.92353248596191 18.51639938354492 L 18.50312995910645 18.09601593017578 C 18.37138938903809 18.23480796813965 18.23566627502441 18.37052917480469 18.09686851501465 18.50226402282715 Z" stroke="none" fill="#383a65"/>
            </g>
          </g>
        </g>
      </g>
    </g>
  </g>
</svg>
