<svg xmlns="http://www.w3.org/2000/svg" width="27" height="27" viewBox="0 0 27 27">
  <g id="Warehouse_383a65_" data-name="Warehouse_383a65 " transform="translate(-997 -257)">
    <circle id="Ellipse_40727" data-name="Ellipse 40727" cx="13.5" cy="13.5" r="13.5" transform="translate(997 257)" fill="#f3f5f8"/>
    <g id="_702455" data-name="702455" transform="translate(1003.572 263.267)">
      <g id="Group_116259" data-name="Group 116259" transform="translate(0 0)">
        <g id="Group_116258" data-name="Group 116258">
          <path id="Path_182915" data-name="Path 182915" d="M13.536,3.9,6.939.033a.227.227,0,0,0-.225,0L.118,3.67a.227.227,0,0,0-.118.2v9.554a.227.227,0,0,0,.227.227H1.365a.227.227,0,0,0,.227-.227V5.461H12.056v7.962a.227.227,0,0,0,.227.227h1.137a.227.227,0,0,0,.227-.227V4.1A.227.227,0,0,0,13.536,3.9Zm-.343,9.3h-.682V5.234a.227.227,0,0,0-.227-.227H1.365a.228.228,0,0,0-.227.227V13.2H.455V4L6.821.491l6.373,3.736V13.2Z" transform="translate(0.104 0.102)" fill="#383a65"/>
          <path id="Path_182915_-_Outline" data-name="Path 182915 - Outline" d="M6.778-.148A.333.333,0,0,1,6.946-.1l6.6,3.867a.332.332,0,0,1,.164.286v9.326a.332.332,0,0,1-.331.331H12.237a.332.332,0,0,1-.331-.331V5.519H1.65v7.858a.332.332,0,0,1-.331.331H.181a.332.332,0,0,1-.331-.331V3.823a.331.331,0,0,1,.172-.29l6.6-3.639A.331.331,0,0,1,6.778-.148Zm6.6,13.648a.124.124,0,0,0,.124-.124V4.05a.124.124,0,0,0-.061-.106L6.841.077a.126.126,0,0,0-.122,0l-6.6,3.64a.123.123,0,0,0-.064.108v9.554a.124.124,0,0,0,.124.124H1.319a.124.124,0,0,0,.124-.124V5.311H12.114v8.065a.124.124,0,0,0,.124.124ZM6.776.325l6.475,3.8v9.132h-.89V5.188a.124.124,0,0,0-.124-.124H1.319a.124.124,0,0,0-.124.124v8.065H.3V3.9ZM13.044,4.24,6.773.564.513,4.018v9.027H.987V5.188a.332.332,0,0,1,.331-.331H12.237a.332.332,0,0,1,.331.331v7.858h.475Z" transform="translate(0.15 0.148)" fill="#383a65"/>
        </g>
      </g>
      <g id="Group_116261" data-name="Group 116261" transform="translate(8.417 10.464)">
        <g id="Group_116260" data-name="Group 116260" transform="translate(0 0)">
          <path id="Path_182916" data-name="Path 182916" d="M318.691,392.531h-2.73a.227.227,0,0,0-.227.227v2.73a.227.227,0,0,0,.227.227h2.73a.227.227,0,0,0,.228-.227v-2.73A.227.227,0,0,0,318.691,392.531Zm-.227,2.73h-2.275v-2.275h2.275Z" transform="translate(-315.63 -392.427)" fill="#383a65"/>
          <path id="Path_182916_-_Outline" data-name="Path 182916 - Outline" d="M315.915,392.381h2.73a.332.332,0,0,1,.331.331v2.73a.332.332,0,0,1-.331.331h-2.73a.332.332,0,0,1-.331-.331v-2.73A.332.332,0,0,1,315.915,392.381Zm2.73,3.185a.124.124,0,0,0,.124-.124v-2.73a.124.124,0,0,0-.124-.124h-2.73a.124.124,0,0,0-.124.124v2.73a.124.124,0,0,0,.124.124Zm-2.606-2.73h2.482v2.482h-2.482Zm2.275.208h-2.067v2.067h2.067Z" transform="translate(-315.584 -392.381)" fill="#383a65"/>
        </g>
      </g>
      <g id="Group_116263" data-name="Group 116263" transform="translate(9.326 10.691)">
        <g id="Group_116262" data-name="Group 116262" transform="translate(0 0)">
          <path id="Path_182917" data-name="Path 182917" d="M350.776,401.064v.682h-.455v-.682h-.455v.91a.227.227,0,0,0,.227.227H351a.227.227,0,0,0,.227-.227v-.91Z" transform="translate(-349.762 -400.96)" fill="#383a65"/>
          <path id="Path_182917_-_Outline" data-name="Path 182917 - Outline" d="M349.716,400.914h.663v.682h.247v-.682h.663v1.014a.332.332,0,0,1-.331.331h-.91a.332.332,0,0,1-.331-.331Zm.455.208h-.247v.806a.124.124,0,0,0,.124.124h.91a.124.124,0,0,0,.124-.124v-.806h-.247v.682h-.663Z" transform="translate(-349.716 -400.914)" fill="#383a65"/>
        </g>
      </g>
      <g id="Group_116265" data-name="Group 116265" transform="translate(5.687 10.464)">
        <g id="Group_116264" data-name="Group 116264" transform="translate(0 0)">
          <path id="Path_182918" data-name="Path 182918" d="M216.291,392.531h-2.73a.227.227,0,0,0-.227.227v2.73a.227.227,0,0,0,.227.227h2.73a.227.227,0,0,0,.227-.227v-2.73A.227.227,0,0,0,216.291,392.531Zm-.228,2.73h-2.275v-2.275h2.275Z" transform="translate(-213.23 -392.427)" fill="#383a65"/>
          <path id="Path_182918_-_Outline" data-name="Path 182918 - Outline" d="M213.515,392.381h2.73a.332.332,0,0,1,.331.331v2.73a.332.332,0,0,1-.331.331h-2.73a.332.332,0,0,1-.331-.331v-2.73A.332.332,0,0,1,213.515,392.381Zm2.73,3.185a.124.124,0,0,0,.124-.124v-2.73a.124.124,0,0,0-.124-.124h-2.73a.124.124,0,0,0-.124.124v2.73a.124.124,0,0,0,.124.124Zm-2.606-2.73h2.482v2.482h-2.482Zm2.275.208h-2.067v2.067h2.067Z" transform="translate(-213.184 -392.381)" fill="#383a65"/>
        </g>
      </g>
      <g id="Group_116267" data-name="Group 116267" transform="translate(6.597 10.691)">
        <g id="Group_116266" data-name="Group 116266" transform="translate(0 0)">
          <path id="Path_182919" data-name="Path 182919" d="M248.376,401.064v.682h-.455v-.682h-.455v.91a.227.227,0,0,0,.227.227h.91a.227.227,0,0,0,.227-.227v-.91Z" transform="translate(-247.362 -400.96)" fill="#383a65"/>
          <path id="Path_182919_-_Outline" data-name="Path 182919 - Outline" d="M247.316,400.914h.663v.682h.247v-.682h.663v1.014a.332.332,0,0,1-.331.331h-.91a.332.332,0,0,1-.331-.331Zm.455.208h-.247v.806a.124.124,0,0,0,.124.124h.91a.124.124,0,0,0,.124-.124v-.806h-.247v.682h-.663Z" transform="translate(-247.316 -400.914)" fill="#383a65"/>
        </g>
      </g>
      <g id="Group_116269" data-name="Group 116269" transform="translate(8.417 7.734)">
        <g id="Group_116268" data-name="Group 116268" transform="translate(0 0)">
          <path id="Path_182920" data-name="Path 182920" d="M318.691,290.131h-2.73a.227.227,0,0,0-.227.227v2.73a.227.227,0,0,0,.227.227h2.73a.227.227,0,0,0,.228-.227v-2.73A.227.227,0,0,0,318.691,290.131Zm-.227,2.73h-2.275v-2.275h2.275Z" transform="translate(-315.63 -290.027)" fill="#383a65"/>
          <path id="Path_182920_-_Outline" data-name="Path 182920 - Outline" d="M315.915,289.981h2.73a.332.332,0,0,1,.331.331v2.73a.332.332,0,0,1-.331.331h-2.73a.332.332,0,0,1-.331-.331v-2.73A.332.332,0,0,1,315.915,289.981Zm2.73,3.185a.124.124,0,0,0,.124-.124v-2.73a.124.124,0,0,0-.124-.124h-2.73a.124.124,0,0,0-.124.124v2.73a.124.124,0,0,0,.124.124Zm-2.606-2.73h2.482v2.482h-2.482Zm2.275.208h-2.067v2.067h2.067Z" transform="translate(-315.584 -289.981)" fill="#383a65"/>
        </g>
      </g>
      <g id="Group_116271" data-name="Group 116271" transform="translate(9.326 7.962)">
        <g id="Group_116270" data-name="Group 116270" transform="translate(0 0)">
          <path id="Path_182921" data-name="Path 182921" d="M350.776,298.664v.682h-.455v-.682h-.455v.91a.227.227,0,0,0,.227.228H351a.227.227,0,0,0,.227-.228v-.91Z" transform="translate(-349.762 -298.56)" fill="#383a65"/>
          <path id="Path_182921_-_Outline" data-name="Path 182921 - Outline" d="M349.716,298.514h.663v.682h.247v-.682h.663v1.014a.332.332,0,0,1-.331.331h-.91a.332.332,0,0,1-.331-.331Zm.455.208h-.247v.806a.124.124,0,0,0,.124.124h.91a.124.124,0,0,0,.124-.124v-.806h-.247v.682h-.663Z" transform="translate(-349.716 -298.514)" fill="#383a65"/>
        </g>
      </g>
      <g id="Group_116273" data-name="Group 116273" transform="translate(1.365 6.824)">
        <g id="Group_116272" data-name="Group 116272" transform="translate(0 0)">
          <rect id="Rectangle_22289" data-name="Rectangle 22289" width="10.919" height="0.455" transform="translate(0.104 0.104)" fill="#383a65"/>
          <path id="Rectangle_22289_-_Outline" data-name="Rectangle 22289 - Outline" d="M-.15-.15H10.976V.513H-.15ZM10.769.058H.058V.3H10.769Z" transform="translate(0.15 0.15)" fill="#383a65"/>
        </g>
      </g>
      <g id="Group_116275" data-name="Group 116275" transform="translate(1.365 5.914)">
        <g id="Group_116274" data-name="Group 116274" transform="translate(0 0)">
          <rect id="Rectangle_22290" data-name="Rectangle 22290" width="10.919" height="0.455" transform="translate(0.104 0.104)" fill="#383a65"/>
          <path id="Rectangle_22290_-_Outline" data-name="Rectangle 22290 - Outline" d="M-.15-.15H10.976V.513H-.15ZM10.769.058H.058V.3H10.769Z" transform="translate(0.15 0.15)" fill="#383a65"/>
        </g>
      </g>
      <g id="Group_116277" data-name="Group 116277" transform="translate(5.459 3.185)">
        <g id="Group_116276" data-name="Group 116276" transform="translate(0 0)">
          <path id="Path_182922" data-name="Path 182922" d="M207.3,119.464h-2.275a.228.228,0,0,0-.227.227v.91a.228.228,0,0,0,.227.227H207.3a.227.227,0,0,0,.227-.227v-.91A.227.227,0,0,0,207.3,119.464Zm-.227.91h-1.82v-.455h1.82Z" transform="translate(-204.697 -119.36)" fill="#383a65"/>
          <path id="Path_182922_-_Outline" data-name="Path 182922 - Outline" d="M204.982,119.314h2.275a.332.332,0,0,1,.331.331v.91a.332.332,0,0,1-.331.331h-2.275a.332.332,0,0,1-.331-.331v-.91A.332.332,0,0,1,204.982,119.314Zm2.275,1.365a.124.124,0,0,0,.124-.124v-.91a.124.124,0,0,0-.124-.124h-2.275a.124.124,0,0,0-.124.124v.91a.124.124,0,0,0,.124.124Zm-2.151-.91h2.027v.663h-2.027Zm1.82.208h-1.612v.247h1.612Z" transform="translate(-204.651 -119.314)" fill="#383a65"/>
        </g>
      </g>
    </g>
  </g>
</svg>
