<svg xmlns="http://www.w3.org/2000/svg" width="27.388" height="29.2" viewBox="0 0 27.388 29.2">
  <g id="building" transform="translate(0.1 0.1)">
    <path id="Path_182931" data-name="Path 182931" d="M26.758.136a.906.906,0,0,1,.43.77V28.094a.906.906,0,0,1-.906.906H20.844a.906.906,0,0,1-.906-.906V25.375H18.125v2.719a.906.906,0,0,1-.906.906H.906A.906.906,0,0,1,0,28.094V18.125a.906.906,0,0,1,.62-.859l10.255-3.418V8.156a.906.906,0,0,1,.5-.81L25.875.1a.906.906,0,0,1,.883.04ZM10.875,15.758l-9.063,3.02v8.41h9.063Zm1.813,11.43h3.625V24.469a.906.906,0,0,1,.906-.906h3.625a.906.906,0,0,1,.906.906v2.719h3.625V2.372L12.688,8.716Z" fill="#383a65"/>
    <path id="Path_182931_-_Outline" data-name="Path 182931 - Outline" d="M26.281-.1A1.007,1.007,0,0,1,27.288.906V28.094A1.007,1.007,0,0,1,26.281,29.1H20.844a1.007,1.007,0,0,1-1.006-1.006V25.475H18.225v2.619A1.007,1.007,0,0,1,17.219,29.1H.906A1.007,1.007,0,0,1-.1,28.094V18.125a1,1,0,0,1,.688-.954l10.187-3.4V8.156a1,1,0,0,1,.555-.9l14.5-7.25A1.011,1.011,0,0,1,26.281-.1Zm0,29a.807.807,0,0,0,.806-.806V.906A.807.807,0,0,0,26.281.1a.81.81,0,0,0-.361.085l-14.5,7.25a.8.8,0,0,0-.445.721V13.92L.652,17.361a.805.805,0,0,0-.552.764v9.969a.807.807,0,0,0,.806.806H17.219a.807.807,0,0,0,.806-.806V25.275h2.013v2.819a.807.807,0,0,0,.806.806ZM25.475,2.211V27.288H21.65V24.469a.807.807,0,0,0-.806-.806H17.219a.807.807,0,0,0-.806.806v2.819H12.588V8.654Zm-.2,24.877V2.534L12.788,8.778v18.31h3.425V24.469a1.007,1.007,0,0,1,1.006-1.006h3.625a1.007,1.007,0,0,1,1.006,1.006v2.619Zm-14.3-11.468V27.288H1.713V18.705Zm-.2,11.468V15.9L1.913,18.85v8.238Z" fill="#383a65"/>
    <path id="Path_182932" data-name="Path 182932" d="M2,17.5H3.813v1.813H2Zm3.625,0H7.438v1.813H5.625ZM2,21.125H3.813v1.813H2Zm3.625,0H7.438v1.813H5.625Zm7.25-7.25h1.813v1.813H12.875Zm3.625,0h1.813v1.813H16.5ZM12.875,17.5h1.813v1.813H12.875Zm3.625,0h1.813v1.813H16.5Zm3.625-3.625h1.813v1.813H20.125Zm0,3.625h1.813v1.813H20.125Zm-7.25-7.25h1.813v1.813H12.875Zm3.625,0h1.813v1.813H16.5Zm3.625,0h1.813v1.813H20.125Zm-7.25-3.625h1.813V8.438H12.875Zm3.625,0h1.813V8.438H16.5Zm3.625,0h1.813V8.438H20.125Zm0-3.625h1.813V4.813H20.125Z" transform="translate(1.625 2.437)" fill="#383a65"/>
    <path id="Path_182932_-_Outline" data-name="Path 182932 - Outline" d="M7.538,23.038H5.525V21.025H7.538Zm-1.813-.2H7.338V21.225H5.725Zm-1.813.2H1.9V21.025H3.913Zm-1.813-.2H3.713V21.225H2.1Zm19.938-3.425H20.025V17.4h2.013Zm-1.813-.2h1.613V17.6H20.225Zm-1.813.2H16.4V17.4h2.013Zm-1.813-.2h1.613V17.6H16.6Zm-1.813.2H12.775V17.4h2.013Zm-1.813-.2h1.613V17.6H12.975Zm-5.438.2H5.525V17.4H7.538Zm-1.813-.2H7.338V17.6H5.725Zm-1.813.2H1.9V17.4H3.913Zm-1.813-.2H3.713V17.6H2.1Zm19.938-3.425H20.025V13.775h2.013Zm-1.813-.2h1.613V13.975H20.225Zm-1.813.2H16.4V13.775h2.013Zm-1.813-.2h1.613V13.975H16.6Zm-1.813.2H12.775V13.775h2.013Zm-1.813-.2h1.613V13.975H12.975Zm9.063-3.425H20.025V10.15h2.013Zm-1.813-.2h1.613V10.35H20.225Zm-1.813.2H16.4V10.15h2.013Zm-1.813-.2h1.613V10.35H16.6Zm-1.813.2H12.775V10.15h2.013Zm-1.813-.2h1.613V10.35H12.975Zm9.063-3.425H20.025V6.525h2.013Zm-1.813-.2h1.613V6.725H20.225Zm-1.813.2H16.4V6.525h2.013Zm-1.813-.2h1.613V6.725H16.6Zm-1.813.2H12.775V6.525h2.013Zm-1.813-.2h1.613V6.725H12.975Zm9.063-3.425H20.025V2.9h2.013Zm-1.813-.2h1.613V3.1H20.225Z" transform="translate(1.625 2.437)" fill="#383a65"/>
  </g>
</svg>
