<svg xmlns="http://www.w3.org/2000/svg" width="20.4" height="20" viewBox="0 0 20.4 20">
  <g id="Group_117058" data-name="Group 117058" transform="translate(-29.8 -1911)">
    <g id="Rectangle_22822" data-name="Rectangle 22822" transform="translate(30 1911)" fill="#141977" stroke="#fff" stroke-width="0.4" opacity="0">
      <rect width="20" height="20" stroke="none"/>
      <rect x="0.2" y="0.2" width="19.6" height="19.6" fill="none"/>
    </g>
    <g id="noun_Forklift_2216632" transform="translate(30 1912)">
      <g id="Group_116281" data-name="Group 116281" transform="translate(0 0)">
        <path id="Path_182942" data-name="Path 182942" d="M5.027,292.5v5.715h7.857V292.5Zm.714.715H12.17V297.5H5.741Z" transform="translate(7.116 -284.644)" fill="#fff" stroke="#fff" stroke-width="0.4"/>
        <path id="Path_182943" data-name="Path 182943" d="M2.672,289.592a2.143,2.143,0,0,0-2.143,2.143v11.428a2.143,2.143,0,0,0,1.433,2.023,1.429,1.429,0,1,0,2.853.12H6.958a1.429,1.429,0,1,0,2.82-.325,2.994,2.994,0,0,0,1.043-2.752,44.332,44.332,0,0,0-3.336-11.366,2.142,2.142,0,0,0-1.956-1.271Zm0,.714H5.529a1.428,1.428,0,0,1,1.3.847,43.617,43.617,0,0,1,3.281,11.183,2.279,2.279,0,0,1,0,.679h0a26.914,26.914,0,0,0-8.873-7.173v-4.107a1.429,1.429,0,0,1,1.429-1.429Zm-1.427,6.338a26.2,26.2,0,0,1,8.594,7.172,2.276,2.276,0,0,1-.406.517,1.428,1.428,0,0,0-2.282.259H4.625A1.429,1.429,0,0,0,2.2,304.51a1.429,1.429,0,0,1-.956-1.348Zm2.125,7.945a.716.716,0,1,1-.7.717A.715.715,0,0,1,3.37,304.589Zm5,0a.714.714,0,1,1-.693.714.713.713,0,0,1,.693-.714Z" transform="translate(-0.529 -289.592)" fill="#fff" stroke="#fff" stroke-width="0.4"/>
        <path id="Path_182945" data-name="Path 182945" d="M5.212,303.877h5.357a.357.357,0,0,1,0,.715H4.5v-15h.714Z" transform="translate(6.216 -289.591)" fill="#fff" stroke="#fff" stroke-width="0.4"/>
      </g>
    </g>
  </g>
</svg>
