<svg xmlns="http://www.w3.org/2000/svg" width="20.4" height="20" viewBox="0 0 20.4 20">
  <g id="Group_117050" data-name="Group 117050" transform="translate(-31.8 -2224)">
    <g id="Rectangle_22817" data-name="Rectangle 22817" transform="translate(32 2224)" fill="#fff" stroke="#fff" stroke-width="0.4" opacity="0">
      <rect width="20" height="20" stroke="none"/>
      <rect x="0.2" y="0.2" width="19.6" height="19.6" fill="none"/>
    </g>
    <g id="noun_Image_1570203" transform="translate(27 2210)">
      <g id="Group_117046" data-name="Group 117046" transform="translate(5 16)">
        <path id="Path_183095" data-name="Path 183095" d="M6.333,968.362A1.34,1.34,0,0,0,5,969.7V982.14a1.34,1.34,0,0,0,1.333,1.333H23.667A1.34,1.34,0,0,0,25,982.14V969.7a1.34,1.34,0,0,0-1.333-1.333Zm0,.889H23.667a.434.434,0,0,1,.444.444V980.32l-3.9-4.264a.451.451,0,0,0-.653,0l-3.181,3.375-4.6-5.146a.442.442,0,0,0-.66-.007L5.889,979.9V969.7a.434.434,0,0,1,.444-.444Zm10.222,2.222a1.778,1.778,0,1,0,1.778,1.778A1.785,1.785,0,0,0,16.556,971.473Zm0,.889a.889.889,0,1,1-.889.889A.882.882,0,0,1,16.556,972.362Zm-5.118,2.882,6.569,7.34H6.333a.434.434,0,0,1-.444-.444V981.2Zm8.444,1.771,4.229,4.625v.5a.434.434,0,0,1-.444.444H19.2L16.979,980.1Z" transform="translate(-5 -968.362)" fill="#fff" stroke="#fff" stroke-width="0.4"/>
      </g>
    </g>
  </g>
</svg>
