<svg xmlns="http://www.w3.org/2000/svg" width="27" height="27" viewBox="0 0 27 27">
  <g id="Group_116639" data-name="Group 116639" transform="translate(-314 -194)">
    <g id="Group_484" data-name="Group 484" transform="translate(314 194)">
      <g id="Group_476" data-name="Group 476">
        <circle id="Ellipse_92" data-name="Ellipse 92" cx="13.5" cy="13.5" r="13.5" fill="#f3f5f8"/>
      </g>
    </g>
    <path id="Bin_383a65" d="M0,1.781A.781.781,0,0,1,.781,1H11.714a.781.781,0,0,1,.781.781V3.343a.781.781,0,0,1-.781.781V9.981a1.952,1.952,0,0,1-1.952,1.952H2.733A1.952,1.952,0,0,1,.781,9.981V4.124A.781.781,0,0,1,0,3.343ZM1.562,4.124V9.981a1.171,1.171,0,0,0,1.171,1.171H9.761a1.171,1.171,0,0,0,1.171-1.171V4.124ZM11.714,1.781H.781V3.343H11.714ZM3.9,6.076a.39.39,0,0,1,.39-.39H8.2a.39.39,0,1,1,0,.781H4.3A.39.39,0,0,1,3.9,6.076Z" transform="translate(321 201)" fill="#383a65"/>
  </g>
</svg>
