<svg xmlns="http://www.w3.org/2000/svg" width="31.133" height="26.125" viewBox="0 0 31.133 26.125">
  <g id="Group_117260" data-name="Group 117260" transform="translate(-143.893 -3203.231)">
    <g id="Group_117257" data-name="Group 117257" transform="translate(139.9 3203.231)">
      <path id="Path_183468" data-name="Path 183468" d="M123.524,37.309h-.006A12.616,12.616,0,0,1,113.163,31.9a1.011,1.011,0,1,1,1.654-1.162,10.6,10.6,0,0,0,8.7,4.548,10.969,10.969,0,0,0,10.817-10.814,10.969,10.969,0,0,0-10.814-10.814,11.21,11.21,0,0,0-7.824,3.387l3.7.006h.022a1.011,1.011,0,0,1,.01,2.022h-5.7a1.531,1.531,0,0,1-.22.017.961.961,0,0,1-.7-.269,1,1,0,0,1-.2-.287h-.029l.018-.024a1.021,1.021,0,0,1-.038-.707l.124-5.627a1.011,1.011,0,0,1,2.022.018l.071,2.91a12.831,12.831,0,1,1,8.786,22.205Z" transform="translate(-101.235 -11.183)" fill="#383a65"/>
      <path id="Path_183469" data-name="Path 183469" d="M56.309,32.062H52.125V24.887a1.056,1.056,0,0,0-2.112,0v8.231a1.056,1.056,0,0,0,1.056,1.056h5.24a1.056,1.056,0,0,0,0-2.112Z" transform="translate(-28.86 -18.209)" fill="#383a65"/>
      <path id="Line_2129" data-name="Line 2129" d="M11.574,1.392H.161A.9.9,0,0,1-.6.4a.9.9,0,0,1,.761-1H11.574a.9.9,0,0,1,.761,1A.9.9,0,0,1,11.574,1.392Z" transform="translate(4.593 10.008)" fill="#383a65"/>
      <path id="Line_2130" data-name="Line 2130" d="M9.072,1.392H.164A.9.9,0,0,1-.6.4a.9.9,0,0,1,.764-1H9.072a.9.9,0,0,1,.764,1A.9.9,0,0,1,9.072,1.392Z" transform="translate(7.092 13.327)" fill="#383a65"/>
      <path id="Line_2131" data-name="Line 2131" d="M5.678,1.392H.219A.92.92,0,0,1-.6.4a.92.92,0,0,1,.819-1H5.678A.92.92,0,0,1,6.5.4.92.92,0,0,1,5.678,1.392Z" transform="translate(10.431 16.646)" fill="#383a65"/>
    </g>
  </g>
</svg>
