<svg id="Layer_1" data-name="Layer 1" xmlns="http://www.w3.org/2000/svg" viewBox="0 0 250 250.38"><defs><style>.cls-1{fill:#cb2026;}</style></defs><path class="cls-1" d="M190.19,91h2.26a21.69,21.69,0,0,1,16.22,9.67A22.7,22.7,0,0,1,210.06,123a71.78,71.78,0,0,1,38.61,27.56,74.49,74.49,0,0,1,13.68,42.64q0,23.22,0,46.42c.08,4.14-.35,8.38.83,12.41A21.75,21.75,0,0,0,278,267.16c4.2,1.31,8.64.74,13,.87q0,22,0,44c-21.66,0-43.32,0-65,0a37.09,37.09,0,0,1-14.09,22.36,35.92,35.92,0,0,1-19.19,6.95h-3.35A35.85,35.85,0,0,1,169.57,334a36.94,36.94,0,0,1-13.58-22c-21.66-.05-43.32,0-65,0V268c4.79-.11,9.76.49,14.35-1.29a22.11,22.11,0,0,0,14.19-20.22c.06-17.94,0-35.87,0-53.8a74.33,74.33,0,0,1,15.33-44.39,71.59,71.59,0,0,1,37-25.31,22.65,22.65,0,0,1,1.19-22A21.53,21.53,0,0,1,190.19,91Zm-.56,14.81a7.4,7.4,0,0,0-5.74,8.22c.49,4,4.62,7.09,8.49,6.15a7.38,7.38,0,0,0,5.49-8.94A7.18,7.18,0,0,0,189.63,105.81ZM151.8,151a59.23,59.23,0,0,0-17.45,34.86c-.68,4.86-.48,9.78-.51,14.67q0,22.74,0,45.49a37.66,37.66,0,0,1-7.14,22q64.26,0,128.54,0a37.77,37.77,0,0,1-7.15-22.95V202.5c0-6.52.28-13.12-1-19.55a58.94,58.94,0,0,0-25-38.4,55.69,55.69,0,0,0-35.5-9.36A56.29,56.29,0,0,0,151.8,151ZM105.28,282.71v14.66H276.64V282.71Zm65.49,29.34a22.09,22.09,0,0,0,10,12,20.87,20.87,0,0,0,17.8,1.21,22,22,0,0,0,12.56-13.21Z" transform="translate(-91 -91)"/><rect class="cls-1" x="10.46" y="188.19" width="179.05" height="21.24"/><rect class="cls-1" x="90.4" y="10.47" width="19.95" height="18.88"/><path class="cls-1" d="M294.58,220s37.31,16.06,24.35,62.69h-4.66s17.54-37.82-23.35-62.69Z" transform="translate(-91 -91)"/><path class="cls-1" d="M313.92,213s37.3,16.06,24.35,62.69H333.6s17.54-37.82-23.35-62.69Z" transform="translate(-91 -91)"/></svg>