<svg xmlns="http://www.w3.org/2000/svg" width="27" height="27" viewBox="0 0 27 27">
  <g id="Group_116642" data-name="Group 116642" transform="translate(-314 -345)">
    <g id="Group_484" data-name="Group 484" transform="translate(314 345)">
      <g id="Group_476" data-name="Group 476">
        <circle id="Ellipse_92" data-name="Ellipse 92" cx="13.5" cy="13.5" r="13.5" fill="#f3f5f8"/>
      </g>
    </g>
    <g id="Outline" transform="translate(318.032 347.021)">
      <path id="Path_182925" data-name="Path 182925" d="M30.011,34.878a1.9,1.9,0,0,0-1.335,0,.236.236,0,1,0,.165.442,1.423,1.423,0,0,1,1,0,.236.236,0,1,0,.165-.442Z" transform="translate(-20.284 -22.747)" fill="#383a65"/>
      <path id="Path_182926" data-name="Path 182926" d="M28.849,31.08a2.679,2.679,0,0,0-2.466,0,.236.236,0,0,0,.217.419,2.211,2.211,0,0,1,2.032,0,.236.236,0,0,0,.217-.419Z" transform="translate(-18.557 -19.709)" fill="#383a65"/>
      <path id="Path_182927" data-name="Path 182927" d="M24.358,27.681a2.94,2.94,0,0,1,3.06,0,.236.236,0,1,0,.245-.4,3.412,3.412,0,0,0-3.55,0,.236.236,0,1,0,.245.4Z" transform="translate(-16.83 -16.653)" fill="#383a65"/>
      <path id="Path_182928" data-name="Path 182928" d="M3.392,12.775a1.406,1.406,0,0,0,.493-.09l1.458,2.526a1.417,1.417,0,1,0,2.277,1.341H10.5a1.417,1.417,0,1,0,2.277-1.343l1.458-2.525a1.417,1.417,0,1,0,0-2.653L12.774,7.506A1.417,1.417,0,1,0,10.5,6.165H7.621A1.417,1.417,0,1,0,5.343,7.507L3.885,10.034a1.417,1.417,0,1,0-.493,2.742Zm.9-.326a1.418,1.418,0,0,0,.493-.855H6.236a2.806,2.806,0,0,0,1.207,2.089l-.749,1.3a1.39,1.39,0,0,0-.938,0Zm2.4-1.091a2.361,2.361,0,1,1,.633,1.609A2.361,2.361,0,0,1,6.7,11.359Zm-.472,5.9a.944.944,0,1,1,.944-.944A.944.944,0,0,1,6.225,17.261Zm4.271-1.18H7.621a1.417,1.417,0,0,0-.513-.87l.746-1.292a2.79,2.79,0,0,0,2.41,0l.746,1.292A1.417,1.417,0,0,0,10.5,16.081Zm2.34.236a.944.944,0,1,1-.944-.944A.944.944,0,0,1,12.836,16.317Zm-.475-1.335a1.39,1.39,0,0,0-.938,0l-.749-1.3a2.806,2.806,0,0,0,1.207-2.089h1.449a1.418,1.418,0,0,0,.493.855Zm2.364-4.567a.944.944,0,1,1-.944.944A.944.944,0,0,1,14.725,10.414Zm-.9-.147a1.418,1.418,0,0,0-.493.855H11.881a2.806,2.806,0,0,0-1.207-2.089l.749-1.3a1.39,1.39,0,0,0,.938,0ZM11.892,5.456a.944.944,0,1,1-.944.944A.944.944,0,0,1,11.892,5.456ZM7.621,6.637H10.5a1.417,1.417,0,0,0,.513.87L10.263,8.8a2.79,2.79,0,0,0-2.41,0L7.106,7.507A1.417,1.417,0,0,0,7.621,6.637ZM5.281,6.4a.944.944,0,1,1,.944.944A.944.944,0,0,1,5.281,6.4Zm.475,1.335a1.39,1.39,0,0,0,.938,0l.749,1.3a2.806,2.806,0,0,0-1.207,2.089H4.788a1.418,1.418,0,0,0-.493-.855ZM3.392,10.414a.944.944,0,1,1-.944.944.944.944,0,0,1,.944-.944Z" transform="translate(0 0)" fill="#383a65" stroke="#383a65" stroke-width="0.3"/>
    </g>
  </g>
</svg>
