<svg xmlns="http://www.w3.org/2000/svg" width="27" height="27" viewBox="0 0 27 27">
  <g id="Group_117144" data-name="Group 117144" transform="translate(-311 -1863)">
    <circle id="Ellipse_40727" data-name="Ellipse 40727" cx="13.5" cy="13.5" r="13.5" transform="translate(311 1863)" fill="#f3f5f8"/>
    <g id="choose_product" data-name="choose product" transform="translate(315.857 1867.864)">
      <g id="Group_117143" data-name="Group 117143" transform="translate(1.5 1.5)">
        <g id="Group_117142" data-name="Group 117142">
          <path id="Path_183150" data-name="Path 183150" d="M9.176,33.125H6.155a.364.364,0,0,0,0,.728H9.176a.364.364,0,0,0,0-.728Z" transform="translate(-4.749 -25.446)" fill="#383a65"/>
          <path id="Path_183151" data-name="Path 183151" d="M7.666,37.25H6.155a.364.364,0,0,0,0,.728h1.51a.364.364,0,0,0,0-.728Z" transform="translate(-4.749 -28.569)" fill="#383a65"/>
          <path id="Path_183152" data-name="Path 183152" d="M15.352,10.2a.9.9,0,0,0-.37.081.962.962,0,0,0-.848-.55.9.9,0,0,0-.481.144.937.937,0,0,0-.737-.376.88.88,0,0,0-.245.038V8.608a1.029,1.029,0,0,0-.862-1.047v-5.7a.364.364,0,0,0-.364-.364H1.864a.364.364,0,0,0-.364.364v9.917a.364.364,0,0,0,.364.364h7.09A15.642,15.642,0,0,1,10.23,14.54a1.9,1.9,0,0,0,1.906,1.772H14.5a1.827,1.827,0,0,0,1.825-1.825V11.256A1.02,1.02,0,0,0,15.352,10.2Zm-4.27-6.967H7.962v-1h3.121ZM7.233,5.082H6.291V2.228h.942ZM5.563,2.228v1H2.228v-1ZM2.228,3.957H5.563V5.446a.364.364,0,0,0,.364.364H7.6a.364.364,0,0,0,.364-.364V3.957h3.121V7.8a1.091,1.091,0,0,0-.356.813v2.647l-.26-.353a1.107,1.107,0,0,0-.65-.43.921.921,0,0,0-1.134.836,1.031,1.031,0,0,0,0,.11H2.228ZM14.5,15.584H12.136a1.17,1.17,0,0,1-1.178-1.1.37.37,0,0,0-.012-.092A16.1,16.1,0,0,0,9.5,11.645l-.015-.022a.385.385,0,0,1-.078-.255.194.194,0,0,1,.252-.186.384.384,0,0,1,.22.151l.918,1.246a.36.36,0,0,0,.407.122.375.375,0,0,0,.251-.354V8.608c0-.179.112-.331.245-.331s.245.152.245.331v2.643a.364.364,0,1,0,.728,0v-.7c0-.18.112-.331.245-.331s.245.152.245.331v1.06a.364.364,0,0,0,.728,0v-.828c0-.18.112-.331.245-.331s.245.152.245.331v1.06a.364.364,0,1,0,.728,0v-.591c0-.18.112-.331.245-.331s.245.152.245.331v3.231A1.1,1.1,0,0,1,14.5,15.584Z" transform="translate(-1.5 -1.5)" fill="#383a65"/>
        </g>
      </g>
    </g>
  </g>
</svg>
