<svg xmlns="http://www.w3.org/2000/svg" width="36.14" height="21.446" viewBox="0 0 36.14 21.446">
  <g id="Group_117052" data-name="Group 117052" transform="translate(-334.9 -1991.9)">
    <g id="shipment" transform="translate(335 1992)">
      <g id="Group_117049" data-name="Group 117049" transform="translate(0 0)">
        <path id="Path_183100" data-name="Path 183100" d="M42.586,30.41l-1.7-3.9A3.854,3.854,0,0,0,37.36,24.2H34.671V23.177A1.479,1.479,0,0,0,33.194,21.7H13.046a.978.978,0,0,0-.985.985v2.992H10.585a.978.978,0,0,0-.985.985,1,1,0,0,0,.985.985h2.462a.978.978,0,0,0,.985-.985V23.669H32.626v7.271a1.641,1.641,0,0,0,1.628,1.628h6.59v4.582a.339.339,0,0,1-.341.341H39.215a3.627,3.627,0,0,0-6.287,0H22.817a3.627,3.627,0,0,0-6.287,0h-2.5V34.5a.978.978,0,0,0-.985-.985H10.585A.978.978,0,0,0,9.6,34.5a1,1,0,0,0,.985.985h1.439v2.992a.978.978,0,0,0,.985.985H16a3.639,3.639,0,0,0,7.271,0h9.2a3.639,3.639,0,0,0,7.271,0h.8a2.36,2.36,0,0,0,2.348-2.348v-5.3A4.069,4.069,0,0,0,42.586,30.41ZM19.674,41.09a1.666,1.666,0,1,1,1.666-1.666A1.681,1.681,0,0,1,19.674,41.09Zm16.436,0a1.666,1.666,0,1,1,1.666-1.666A1.681,1.681,0,0,1,36.11,41.09ZM34.671,26.207H37.36a1.865,1.865,0,0,1,1.7,1.1L40.5,30.676H34.671Z" transform="translate(-6.949 -21.7)" fill="#383a65" stroke="#383a65" stroke-width="0.2"/>
        <path id="Path_183101" data-name="Path 183101" d="M20.1,41.118a1.006,1.006,0,0,0,0,1.4,1.006,1.006,0,0,0,1.439,0l2.992-2.992a1.006,1.006,0,0,0,0-1.4l-2.992-2.992a.991.991,0,0,0-1.4,1.4l1.25,1.25H3.585a.978.978,0,0,0-.985.985,1.04,1.04,0,0,0,.947,1.06h17.8Z" transform="translate(-2.6 -29.87)" fill="#383a65" stroke="#383a65" stroke-width="0.2"/>
      </g>
    </g>
  </g>
</svg>
