<svg xmlns="http://www.w3.org/2000/svg" width="20.001" height="20.001" viewBox="0 0 20.001 20.001">
  <g id="Group_117029" data-name="Group 117029" transform="translate(-29.999 -2764)">
    <rect id="Rectangle_22814" data-name="Rectangle 22814" width="20" height="20" transform="translate(30 2764)" fill="#c1c1c1" opacity="0"/>
    <g id="_702455" data-name="702455" transform="translate(30.199 2764.199)">
      <g id="Group_116259" data-name="Group 116259" transform="translate(-0.2 -0.2)">
        <g id="Group_116258" data-name="Group 116258">
          <path id="Path_182915" data-name="Path 182915" d="M19.266,5.55,9.877.046a.324.324,0,0,0-.32,0L.167,5.222A.323.323,0,0,0,0,5.506V19.1a.324.324,0,0,0,.324.324H1.943a.324.324,0,0,0,.324-.324V7.772H17.159V19.1a.323.323,0,0,0,.324.324H19.1a.323.323,0,0,0,.324-.324V5.83A.323.323,0,0,0,19.266,5.55Zm-.488,13.23h-.971V7.448a.324.324,0,0,0-.324-.324H1.943a.324.324,0,0,0-.324.324V18.78H.648V5.7l9.06-5,9.07,5.317V18.78Z" transform="translate(0.288 0.286)" fill="#fff"/>
          <path id="Path_182915_-_Outline" data-name="Path 182915 - Outline" d="M9.652-.2a.458.458,0,0,1,.235.064l9.389,5.5a.464.464,0,0,1,.229.4V19.044a.464.464,0,0,1-.463.463H17.423a.464.464,0,0,1-.463-.463V7.852H2.346V19.043a.464.464,0,0,1-.463.463H.263A.464.464,0,0,1-.2,19.043V5.445A.463.463,0,0,1,.04,5.04L9.429-.14A.463.463,0,0,1,9.652-.2Zm9.389,19.426a.184.184,0,0,0,.184-.184V5.769a.184.184,0,0,0-.091-.158L9.746.107A.188.188,0,0,0,9.652.081.183.183,0,0,0,9.564.1L.175,5.285a.183.183,0,0,0-.1.161v13.6a.184.184,0,0,0,.184.184H1.882a.184.184,0,0,0,.184-.184V7.572H17.239V19.044a.184.184,0,0,0,.184.184ZM9.65.477l9.208,5.4V18.859H17.607V7.388a.184.184,0,0,0-.184-.184H1.882a.184.184,0,0,0-.184.184V18.859H.448V5.554Zm8.928,5.558L9.646.8.727,5.719V18.58h.692V7.388a.464.464,0,0,1,.463-.463H17.423a.464.464,0,0,1,.463.463V18.58h.692Z" transform="translate(0.348 0.346)" fill="#fff"/>
          <path id="Path_182915_-_Outline-2" data-name="Path 182915 - Outline" d="M9.71-.148a.474.474,0,0,1,.239.065l9.389,5.5a.472.472,0,0,1,.233.407V19.1a.472.472,0,0,1-.472.472H17.481a.472.472,0,0,1-.472-.472V7.918H2.412V19.1a.472.472,0,0,1-.472.472H.322A.472.472,0,0,1-.15,19.1V5.5a.471.471,0,0,1,.244-.413L9.483-.089A.471.471,0,0,1,9.71-.148ZM19.1,19.278a.176.176,0,0,0,.176-.176V5.827a.176.176,0,0,0-.087-.152L9.8.172a.179.179,0,0,0-.174,0L.237,5.35A.175.175,0,0,0,.146,5.5V19.1a.176.176,0,0,0,.176.176H1.94a.176.176,0,0,0,.176-.176V7.622H17.305V19.1a.176.176,0,0,0,.176.176ZM9.708.526l9.216,5.4v13H17.657V7.446a.176.176,0,0,0-.176-.176H1.94a.176.176,0,0,0-.176.176v11.48H.5V5.607ZM18.628,6.1,9.7.866.793,5.782V18.63h.676V7.446a.472.472,0,0,1,.472-.472H17.481a.472.472,0,0,1,.472.472V18.63h.676Z" transform="translate(0.29 0.288)" fill="#fff"/>
          <path id="Path_182915_-_Outline_-_Outline" data-name="Path 182915 - Outline - Outline" d="M9.65-.348a.614.614,0,0,1,.309.084l9.39,5.5a.613.613,0,0,1,.3.527V19.041a.612.612,0,0,1-.611.611H17.421a.612.612,0,0,1-.611-.611V8H2.491V19.041a.612.612,0,0,1-.611.611H.261a.612.612,0,0,1-.611-.611V5.443a.61.61,0,0,1,.317-.535L9.355-.272A.611.611,0,0,1,9.65-.348ZM19.04,19.373a.332.332,0,0,0,.332-.332V5.767a.332.332,0,0,0-.164-.286l-9.39-5.5a.337.337,0,0,0-.328,0L.1,5.153a.331.331,0,0,0-.172.291v13.6a.332.332,0,0,0,.332.332H1.88a.332.332,0,0,0,.332-.332V7.718H17.089V19.041a.332.332,0,0,0,.332.332ZM9.65-.052a.317.317,0,0,1,.16.043l9.39,5.5a.316.316,0,0,1,.156.272V19.041a.316.316,0,0,1-.316.316H17.421a.316.316,0,0,1-.316-.316V7.7H2.2v11.34a.316.316,0,0,1-.316.316H.261a.316.316,0,0,1-.316-.316V5.443a.315.315,0,0,1,.164-.276L9.5-.013A.315.315,0,0,1,9.65-.052Zm9.389,19.13a.036.036,0,0,0,.036-.036V5.767a.036.036,0,0,0-.018-.031L9.669.232a.041.041,0,0,0-.036,0L.244,5.412a.036.036,0,0,0-.019.032v13.6a.036.036,0,0,0,.036.036H1.88a.036.036,0,0,0,.036-.036V7.422H17.384V19.041a.036.036,0,0,0,.036.036ZM9.65.3,19,5.788V19.005H17.457V7.386a.036.036,0,0,0-.036-.036H1.88a.036.036,0,0,0-.036.036V19.005H.3V5.465Zm9.074,5.643L9.646.626l-9.069,5v13.1h.987V7.386A.316.316,0,0,1,1.88,7.07H17.421a.316.316,0,0,1,.316.316v11.34h.987ZM9.645.645l9.062,5.312V18.709h-.955V7.386a.332.332,0,0,0-.332-.332H1.88a.332.332,0,0,0-.332.332V18.709H.593V5.639Zm8.783,5.473L9.641.966.873,5.8V18.43h.4V7.386a.612.612,0,0,1,.611-.611H17.421a.612.612,0,0,1,.611.611V18.43h.4Z" transform="translate(0.35 0.348)" fill="#fff"/>
        </g>
      </g>
      <g id="Group_116261" data-name="Group 116261" transform="translate(11.081 14.693)">
        <g id="Group_116260" data-name="Group 116260" transform="translate(0 0)">
          <path id="Path_182916" data-name="Path 182916" d="M319.943,392.531h-3.885a.323.323,0,0,0-.324.324v3.885a.323.323,0,0,0,.324.324h3.885a.323.323,0,0,0,.324-.324v-3.885A.323.323,0,0,0,319.943,392.531Zm-.324,3.885h-3.238v-3.238h3.238Z" transform="translate(-315.446 -392.243)" fill="#fff"/>
          <path id="Path_182916_-_Outline" data-name="Path 182916 - Outline" d="M316,392.331h3.885a.464.464,0,0,1,.464.463v3.885a.464.464,0,0,1-.464.464H316a.464.464,0,0,1-.463-.464v-3.885A.464.464,0,0,1,316,392.331Zm3.885,4.533a.184.184,0,0,0,.184-.184v-3.885a.184.184,0,0,0-.184-.184H316a.184.184,0,0,0-.184.184v3.885a.184.184,0,0,0,.184.184Zm-3.7-3.885H319.7V396.5h-3.517Zm3.238.279h-2.958v2.958h2.958Z" transform="translate(-315.386 -392.183)" fill="#fff"/>
          <path id="Path_182916_-_Outline-2" data-name="Path 182916 - Outline" d="M316.056,392.381h3.885a.472.472,0,0,1,.472.471v3.885a.472.472,0,0,1-.472.472h-3.885a.472.472,0,0,1-.471-.472v-3.885A.472.472,0,0,1,316.056,392.381Zm3.885,4.533a.176.176,0,0,0,.176-.176v-3.885a.176.176,0,0,0-.176-.176h-3.885a.176.176,0,0,0-.176.176v3.885a.176.176,0,0,0,.176.176Zm-3.709-3.885h3.533v3.533h-3.533Zm3.238.3h-2.942v2.942h2.942Z" transform="translate(-315.444 -392.241)" fill="#fff"/>
          <path id="Path_182916_-_Outline_-_Outline" data-name="Path 182916 - Outline - Outline" d="M316,392.181h3.885a.612.612,0,0,1,.611.611v3.885a.612.612,0,0,1-.611.611H316a.612.612,0,0,1-.611-.611v-3.885A.612.612,0,0,1,316,392.181Zm3.885,4.828a.332.332,0,0,0,.332-.332v-3.885a.332.332,0,0,0-.332-.332H316a.332.332,0,0,0-.332.332v3.885a.332.332,0,0,0,.332.332ZM316,392.477h3.885a.316.316,0,0,1,.316.316v3.885a.316.316,0,0,1-.316.316H316a.316.316,0,0,1-.316-.316v-3.885A.316.316,0,0,1,316,392.477Zm3.885,4.237a.036.036,0,0,0,.036-.036v-3.885a.036.036,0,0,0-.036-.036H316a.036.036,0,0,0-.036.036v3.885a.036.036,0,0,0,.036.036Zm-3.849-3.885h3.813v3.813h-3.813Zm3.533.28h-3.254v3.254h3.254Zm-3.238.016h3.221v3.222h-3.221Zm2.942.279h-2.663v2.663h2.663Z" transform="translate(-315.384 -392.181)" fill="#fff"/>
        </g>
      </g>
      <g id="Group_116263" data-name="Group 116263" transform="translate(13.214 15.156)">
        <g id="Group_116262" data-name="Group 116262" transform="translate(0 0)">
          <path id="Path_182917" data-name="Path 182917" d="M351.161,401.064v.971h-.648v-.971h-.647v1.3a.324.324,0,0,0,.324.324h1.3a.324.324,0,0,0,.324-.324v-1.3Z" transform="translate(-349.718 -400.916)" fill="#fff"/>
          <path id="Path_182917_-_Outline" data-name="Path 182917 - Outline" d="M349.666,400.864h.927v.971h.368v-.971h.927V402.3a.464.464,0,0,1-.464.463h-1.295a.464.464,0,0,1-.463-.463Zm.647.279h-.368V402.3a.184.184,0,0,0,.184.184h1.295a.184.184,0,0,0,.184-.184v-1.155h-.368v.971h-.927Z" transform="translate(-349.658 -400.856)" fill="#fff"/>
          <path id="Path_182917_-_Outline-2" data-name="Path 182917 - Outline" d="M349.716,400.914h.943v.971h.352v-.971h.943v1.443a.472.472,0,0,1-.472.471h-1.295a.472.472,0,0,1-.472-.471Zm.648.3h-.352v1.147a.176.176,0,0,0,.176.176h1.295a.176.176,0,0,0,.176-.176V401.21h-.352v.971h-.943Z" transform="translate(-349.716 -400.914)" fill="#fff"/>
        </g>
      </g>
      <g id="Group_116265" data-name="Group 116265" transform="translate(7.195 14.693)">
        <g id="Group_116264" data-name="Group 116264" transform="translate(0 0)">
          <path id="Path_182918" data-name="Path 182918" d="M217.543,392.531h-3.885a.324.324,0,0,0-.324.324v3.885a.324.324,0,0,0,.324.324h3.885a.323.323,0,0,0,.324-.324v-3.885A.323.323,0,0,0,217.543,392.531Zm-.324,3.885h-3.238v-3.238h3.238Z" transform="translate(-213.046 -392.243)" fill="#fff"/>
          <path id="Path_182918_-_Outline" data-name="Path 182918 - Outline" d="M213.6,392.331h3.885a.464.464,0,0,1,.463.463v3.885a.464.464,0,0,1-.463.464H213.6a.464.464,0,0,1-.464-.464v-3.885A.464.464,0,0,1,213.6,392.331Zm3.885,4.533a.184.184,0,0,0,.184-.184v-3.885a.184.184,0,0,0-.184-.184H213.6a.184.184,0,0,0-.184.184v3.885a.184.184,0,0,0,.184.184Zm-3.7-3.885H217.3V396.5h-3.517Zm3.238.279h-2.958v2.958h2.958Z" transform="translate(-212.986 -392.183)" fill="#fff"/>
          <path id="Path_182918_-_Outline-2" data-name="Path 182918 - Outline" d="M213.656,392.381h3.885a.472.472,0,0,1,.472.471v3.885a.472.472,0,0,1-.472.472h-3.885a.472.472,0,0,1-.472-.472v-3.885A.472.472,0,0,1,213.656,392.381Zm3.885,4.533a.176.176,0,0,0,.176-.176v-3.885a.176.176,0,0,0-.176-.176h-3.885a.176.176,0,0,0-.176.176v3.885a.176.176,0,0,0,.176.176Zm-3.709-3.885h3.533v3.533h-3.533Zm3.238.3h-2.942v2.942h2.942Z" transform="translate(-213.044 -392.241)" fill="#fff"/>
          <path id="Path_182918_-_Outline_-_Outline" data-name="Path 182918 - Outline - Outline" d="M213.6,392.181h3.885a.612.612,0,0,1,.611.611v3.885a.612.612,0,0,1-.611.611H213.6a.612.612,0,0,1-.611-.611v-3.885A.612.612,0,0,1,213.6,392.181Zm3.885,4.828a.332.332,0,0,0,.332-.332v-3.885a.332.332,0,0,0-.332-.332H213.6a.332.332,0,0,0-.332.332v3.885a.332.332,0,0,0,.332.332Zm-3.885-4.533h3.885a.316.316,0,0,1,.316.316v3.885a.316.316,0,0,1-.316.316H213.6a.316.316,0,0,1-.316-.316v-3.885A.316.316,0,0,1,213.6,392.477Zm3.885,4.237a.036.036,0,0,0,.036-.036v-3.885a.036.036,0,0,0-.036-.036H213.6a.037.037,0,0,0-.036.036v3.885a.036.036,0,0,0,.036.036Zm-3.849-3.885h3.813v3.813h-3.813Zm3.533.28h-3.254v3.254h3.254Zm-3.238.016h3.221v3.222h-3.221Zm2.942.279h-2.663v2.663h2.663Z" transform="translate(-212.984 -392.181)" fill="#fff"/>
        </g>
      </g>
      <g id="Group_116267" data-name="Group 116267" transform="translate(9.329 15.156)">
        <g id="Group_116266" data-name="Group 116266" transform="translate(0 0)">
          <path id="Path_182919" data-name="Path 182919" d="M248.761,401.064v.971h-.648v-.971h-.648v1.3a.324.324,0,0,0,.324.324h1.3a.324.324,0,0,0,.324-.324v-1.3Z" transform="translate(-247.318 -400.916)" fill="#fff"/>
          <path id="Path_182919_-_Outline" data-name="Path 182919 - Outline" d="M247.266,400.864h.927v.971h.368v-.971h.927V402.3a.464.464,0,0,1-.463.463h-1.3a.464.464,0,0,1-.463-.463Zm.648.279h-.368V402.3a.184.184,0,0,0,.184.184h1.3a.184.184,0,0,0,.184-.184v-1.155h-.368v.971h-.927Z" transform="translate(-247.258 -400.856)" fill="#fff"/>
          <path id="Path_182919_-_Outline-2" data-name="Path 182919 - Outline" d="M247.316,400.914h.943v.971h.352v-.971h.943v1.443a.472.472,0,0,1-.472.471h-1.3a.472.472,0,0,1-.472-.471Zm.648.3h-.352v1.147a.176.176,0,0,0,.176.176h1.3a.176.176,0,0,0,.176-.176V401.21h-.352v.971h-.943Z" transform="translate(-247.316 -400.914)" fill="#fff"/>
        </g>
      </g>
      <g id="Group_116269" data-name="Group 116269" transform="translate(11.081 10.808)">
        <g id="Group_116268" data-name="Group 116268" transform="translate(0 0)">
          <path id="Path_182920" data-name="Path 182920" d="M319.943,290.131h-3.885a.323.323,0,0,0-.324.324v3.885a.323.323,0,0,0,.324.324h3.885a.323.323,0,0,0,.324-.324v-3.885A.323.323,0,0,0,319.943,290.131Zm-.324,3.885h-3.238v-3.238h3.238Z" transform="translate(-315.446 -289.843)" fill="#fff"/>
          <path id="Path_182920_-_Outline" data-name="Path 182920 - Outline" d="M316,289.931h3.885a.464.464,0,0,1,.464.463v3.885a.464.464,0,0,1-.464.463H316a.464.464,0,0,1-.463-.463v-3.885A.464.464,0,0,1,316,289.931Zm3.885,4.533a.184.184,0,0,0,.184-.184v-3.885a.184.184,0,0,0-.184-.184H316a.184.184,0,0,0-.184.184v3.885a.184.184,0,0,0,.184.184Zm-3.7-3.885H319.7V294.1h-3.517Zm3.238.28h-2.958v2.958h2.958Z" transform="translate(-315.386 -289.783)" fill="#fff"/>
          <path id="Path_182920_-_Outline-2" data-name="Path 182920 - Outline" d="M316.056,289.981h3.885a.472.472,0,0,1,.472.472v3.885a.472.472,0,0,1-.472.472h-3.885a.472.472,0,0,1-.471-.472v-3.885A.472.472,0,0,1,316.056,289.981Zm3.885,4.533a.176.176,0,0,0,.176-.176v-3.885a.176.176,0,0,0-.176-.176h-3.885a.176.176,0,0,0-.176.176v3.885a.176.176,0,0,0,.176.176Zm-3.709-3.885h3.533v3.533h-3.533Zm3.238.3h-2.942v2.942h2.942Z" transform="translate(-315.444 -289.841)" fill="#fff"/>
          <path id="Path_182920_-_Outline_-_Outline" data-name="Path 182920 - Outline - Outline" d="M316,289.781h3.885a.612.612,0,0,1,.611.611v3.885a.612.612,0,0,1-.611.611H316a.612.612,0,0,1-.611-.611v-3.885A.612.612,0,0,1,316,289.781Zm3.885,4.828a.332.332,0,0,0,.332-.332v-3.885a.332.332,0,0,0-.332-.332H316a.332.332,0,0,0-.332.332v3.885a.332.332,0,0,0,.332.332ZM316,290.077h3.885a.316.316,0,0,1,.316.316v3.885a.316.316,0,0,1-.316.316H316a.316.316,0,0,1-.316-.316v-3.885A.316.316,0,0,1,316,290.077Zm3.885,4.237a.036.036,0,0,0,.036-.036v-3.885a.036.036,0,0,0-.036-.036H316a.036.036,0,0,0-.036.036v3.885a.036.036,0,0,0,.036.036Zm-3.849-3.885h3.813v3.813h-3.813Zm3.533.279h-3.254v3.254h3.254Zm-3.238.016h3.221v3.221h-3.221Zm2.942.279h-2.663v2.663h2.663Z" transform="translate(-315.384 -289.781)" fill="#fff"/>
        </g>
      </g>
      <g id="Group_116271" data-name="Group 116271" transform="translate(13.214 11.271)">
        <g id="Group_116270" data-name="Group 116270" transform="translate(0 0)">
          <path id="Path_182921" data-name="Path 182921" d="M351.161,298.664v.971h-.648v-.971h-.647v1.295a.323.323,0,0,0,.324.324h1.3a.323.323,0,0,0,.324-.324v-1.295Z" transform="translate(-349.718 -298.516)" fill="#fff"/>
          <path id="Path_182921_-_Outline" data-name="Path 182921 - Outline" d="M349.666,298.464h.927v.971h.368v-.971h.927V299.9a.464.464,0,0,1-.464.464h-1.295a.464.464,0,0,1-.463-.464Zm.647.279h-.368V299.9a.184.184,0,0,0,.184.184h1.295a.184.184,0,0,0,.184-.184v-1.155h-.368v.971h-.927Z" transform="translate(-349.658 -298.456)" fill="#fff"/>
          <path id="Path_182921_-_Outline-2" data-name="Path 182921 - Outline" d="M349.716,298.514h.943v.971h.352v-.971h.943v1.443a.472.472,0,0,1-.472.472h-1.295a.472.472,0,0,1-.472-.472Zm.648.3h-.352v1.147a.176.176,0,0,0,.176.176h1.295a.176.176,0,0,0,.176-.176V298.81h-.352v.971h-.943Z" transform="translate(-349.716 -298.514)" fill="#fff"/>
        </g>
      </g>
      <g id="Group_116273" data-name="Group 116273" transform="translate(1.743 8.814)">
        <g id="Group_116272" data-name="Group 116272" transform="translate(0 0)">
          <rect id="Rectangle_22289" data-name="Rectangle 22289" width="15.541" height="0.648" transform="translate(0.288 0.288)" fill="#fff"/>
          <path id="Rectangle_22289_-_Outline" data-name="Rectangle 22289 - Outline" d="M-.2-.2H15.62V.727H-.2ZM15.341.079H.079V.448H15.341Z" transform="translate(0.348 0.348)" fill="#fff"/>
          <path id="Rectangle_22289_-_Outline-2" data-name="Rectangle 22289 - Outline" d="M-.15-.15H15.686V.793H-.15Zm15.541.3H.146V.5H15.391Z" transform="translate(0.29 0.29)" fill="#fff"/>
          <path id="Rectangle_22289_-_Outline_-_Outline" data-name="Rectangle 22289 - Outline - Outline" d="M-.35-.35H15.766V.873H-.35Zm15.836.279H-.071V.593H15.486ZM-.054-.054H15.47V.577H-.054ZM15.191.225H.225V.3H15.191Z" transform="translate(0.35 0.35)" fill="#fff"/>
        </g>
      </g>
      <g id="Group_116277" data-name="Group 116277" transform="translate(7.71 3.774)">
        <g id="Group_116276" data-name="Group 116276" transform="translate(0 0)">
          <path id="Path_182922" data-name="Path 182922" d="M208.362,119.464h-3.238a.324.324,0,0,0-.324.324v1.3a.324.324,0,0,0,.324.324h3.238a.324.324,0,0,0,.324-.324v-1.3A.324.324,0,0,0,208.362,119.464Zm-.324,1.3h-2.59v-.648h2.59Z" transform="translate(-204.653 -119.316)" fill="#fff"/>
          <path id="Path_182922_-_Outline" data-name="Path 182922 - Outline" d="M205.064,119.264H208.3a.464.464,0,0,1,.463.463v1.3a.464.464,0,0,1-.463.463h-3.238a.464.464,0,0,1-.463-.463v-1.3A.464.464,0,0,1,205.064,119.264Zm3.238,1.943a.184.184,0,0,0,.184-.184v-1.3a.184.184,0,0,0-.184-.184h-3.238a.184.184,0,0,0-.184.184v1.3a.184.184,0,0,0,.184.184Zm-3.054-1.3h2.87v.927h-2.87Zm2.59.279h-2.311v.368h2.311Z" transform="translate(-204.593 -119.256)" fill="#fff"/>
          <path id="Path_182922_-_Outline-2" data-name="Path 182922 - Outline" d="M205.122,119.314h3.238a.472.472,0,0,1,.472.472v1.3a.472.472,0,0,1-.472.472h-3.238a.472.472,0,0,1-.472-.472v-1.3A.472.472,0,0,1,205.122,119.314Zm3.238,1.943a.176.176,0,0,0,.176-.176v-1.3a.176.176,0,0,0-.176-.176h-3.238a.176.176,0,0,0-.176.176v1.3a.176.176,0,0,0,.176.176Zm-3.062-1.295h2.886v.943H205.3Zm2.59.3h-2.295v.352h2.295Z" transform="translate(-204.651 -119.314)" fill="#fff"/>
        </g>
      </g>
    </g>
  </g>
</svg>
