<svg xmlns="http://www.w3.org/2000/svg" width="27" height="27" viewBox="0 0 27 27">
  <g id="Group_117204" data-name="Group 117204" transform="translate(-311 -3123)">
    <circle id="Ellipse_40727" data-name="Ellipse 40727" cx="13.5" cy="13.5" r="13.5" transform="translate(311 3123)" fill="#f3f5f8"/>
    <g id="Group_117172" data-name="Group 117172" transform="translate(49.001 -50)">
      <path id="Subtraction_19" data-name="Subtraction 19" d="M13.228,11.934H2.685A2.692,2.692,0,0,1,0,9.249V2.684A2.692,2.692,0,0,1,2.685,0H13.228a2.692,2.692,0,0,1,2.685,2.685V9.249A2.692,2.692,0,0,1,13.228,11.934ZM2.685.994a1.694,1.694,0,0,0-1.69,1.69V9.249a1.694,1.694,0,0,0,1.69,1.689H13.228a1.694,1.694,0,0,0,1.69-1.689V2.684a1.694,1.694,0,0,0-1.69-1.69Zm5.269,5.47A1.748,1.748,0,0,1,7,6.178L2.2,2.9a.5.5,0,1,1,.563-.82L7.549,5.351a.756.756,0,0,0,.825-.007l4.771-3.268a.491.491,0,0,1,.28-.087.5.5,0,0,1,.281.908L8.926,6.17A1.788,1.788,0,0,1,7.953,6.464Z" transform="translate(267.999 3181.001)" fill="#383a65"/>
    </g>
  </g>
</svg>
