<svg xmlns="http://www.w3.org/2000/svg" width="27" height="27" viewBox="0 0 27 27">
  <g id="Group_116647" data-name="Group 116647" transform="translate(-310 -594)">
    <g id="Group_116612" data-name="Group 116612" transform="translate(310 594)">
      <g id="Group_476" data-name="Group 476">
        <circle id="Ellipse_92" data-name="Ellipse 92" cx="13.5" cy="13.5" r="13.5" fill="#f3f5f8"/>
      </g>
    </g>
    <g id="User" transform="translate(317 517.667)">
      <g id="Group_116585" data-name="Group 116585" transform="translate(4.843 85.333)">
        <g id="Group_116584" data-name="Group 116584">
          <path id="Path_182944" data-name="Path 182944" d="M172.785,85.333a2.119,2.119,0,1,0,2.119,2.119A2.121,2.121,0,0,0,172.785,85.333Zm0,3.632a1.513,1.513,0,1,1,1.513-1.513A1.515,1.515,0,0,1,172.785,88.965Z" transform="translate(-170.666 -85.333)" fill="#383a65"/>
        </g>
      </g>
      <g id="Group_116587" data-name="Group 116587" transform="translate(9.685 87.754)">
        <g id="Group_116586" data-name="Group 116586">
          <path id="Path_182945" data-name="Path 182945" d="M342.847,170.667a1.513,1.513,0,1,0,1.513,1.513A1.515,1.515,0,0,0,342.847,170.667Zm0,2.421a.908.908,0,1,1,.908-.908A.909.909,0,0,1,342.847,173.088Z" transform="translate(-341.334 -170.667)" fill="#383a65"/>
        </g>
      </g>
      <g id="Group_116589" data-name="Group 116589" transform="translate(1.254 87.754)">
        <g id="Group_116588" data-name="Group 116588">
          <path id="Path_182946" data-name="Path 182946" d="M45.7,170.667a1.513,1.513,0,1,0,1.513,1.513A1.515,1.515,0,0,0,45.7,170.667Zm0,2.421a.908.908,0,1,1,.908-.908A.909.909,0,0,1,45.7,173.088Z" transform="translate(-44.182 -170.667)" fill="#383a65"/>
        </g>
      </g>
      <g id="Group_116591" data-name="Group 116591" transform="translate(3.027 90.176)">
        <g id="Group_116590" data-name="Group 116590" transform="translate(0 0)">
          <path id="Path_182947" data-name="Path 182947" d="M110.6,256a3.939,3.939,0,0,0-3.935,3.935.3.3,0,1,0,.605,0,3.329,3.329,0,1,1,6.659,0,.3.3,0,1,0,.605,0A3.939,3.939,0,0,0,110.6,256Z" transform="translate(-106.666 -256)" fill="#383a65"/>
        </g>
      </g>
      <g id="Group_116593" data-name="Group 116593" transform="translate(9.642 91.386)">
        <g id="Group_116592" data-name="Group 116592" transform="translate(0 0)">
          <path id="Path_182948" data-name="Path 182948" d="M341.37,298.667a2.724,2.724,0,0,0-1.411.393.3.3,0,0,0,.314.518,2.119,2.119,0,0,1,3.215,1.813.3.3,0,1,0,.605,0A2.727,2.727,0,0,0,341.37,298.667Z" transform="translate(-339.813 -298.667)" fill="#383a65"/>
        </g>
      </g>
      <g id="Group_116595" data-name="Group 116595" transform="translate(0 91.386)">
        <g id="Group_116594" data-name="Group 116594" transform="translate(0 0)">
          <path id="Path_182949" data-name="Path 182949" d="M4.134,299.06A2.725,2.725,0,0,0,0,301.391a.3.3,0,1,0,.605,0,2.119,2.119,0,0,1,3.215-1.814.3.3,0,1,0,.314-.518Z" transform="translate(0 -298.667)" fill="#383a65"/>
        </g>
      </g>
    </g>
  </g>
</svg>
