<svg xmlns="http://www.w3.org/2000/svg" width="27" height="27" viewBox="0 0 27 27">
  <g id="Group_117241" data-name="Group 117241" transform="translate(-314 -3318)">
    <g id="Group_117161" data-name="Group 117161" transform="translate(-8 179)">
      <circle id="Ellipse_40727" data-name="Ellipse 40727" cx="13.5" cy="13.5" r="13.5" transform="translate(322 3139)" fill="#f3f5f8"/>
    </g>
    <g id="noun_Forklift_3493358" transform="translate(317 3321)">
      <g id="Group_116652" data-name="Group 116652" transform="translate(4 4)">
        <path id="Path_183364" data-name="Path 183364" d="M17.064,12.251V8.126H12.939V4h-.688v9.283h-.688V13.22L9.4,7.461,5.719,7.094H5.031v4.813H4.688A.688.688,0,0,0,4,12.6v3.782a1.372,1.372,0,0,0,2.7.344h4.32a1.718,1.718,0,1,0,1.917-2.372v-1.41h4.813v-.688ZM5.719,7.784,8.91,8.1l1.942,5.18H9.261L7.2,11.907H5.719Zm-.344,9.281a.688.688,0,1,1,.688-.688A.688.688,0,0,1,5.375,17.064Zm5.5-1.031H6.7a1.359,1.359,0,0,0-2.014-.84V12.6h2.3L9.053,13.97h3.2v.379A1.722,1.722,0,0,0,10.876,16.033Zm2.75,0A1.031,1.031,0,1,1,12.6,15,1.033,1.033,0,0,1,13.626,16.033Zm-.688-3.782V8.813h1.375V9.845H15V8.813h1.375v3.438Z" transform="translate(-4 -4)" fill="#383a65" stroke="#383a65" stroke-width="0.3"/>
      </g>
    </g>
  </g>
</svg>
