<svg xmlns="http://www.w3.org/2000/svg" width="20" height="20" viewBox="0 0 20 20">
  <g id="Group_117217" data-name="Group 117217" transform="translate(-36 -2856)">
    <rect id="Rectangle_22885" data-name="Rectangle 22885" width="20" height="20" transform="translate(36 2856)" fill="#de2222" opacity="0"/>
    <g id="Group_117214" data-name="Group 117214" transform="translate(-173.783 21.366)">
      <path id="Subtraction_22" data-name="Subtraction 22" d="M17.592,19.268H6.754A2.411,2.411,0,0,1,4.345,16.86h1.2a1.205,1.205,0,0,0,1.2,1.2H17.592a1.206,1.206,0,0,0,1.2-1.2V6.624H13.979a.6.6,0,0,1-.6-.6V1.2H6.754a1.206,1.206,0,0,0-1.2,1.2v.6h-1.2v-.6A2.411,2.411,0,0,1,6.754,0h7.241a.605.605,0,0,1,.351.123.012.012,0,0,0,.006,0,.693.693,0,0,1,.054.048l5.408,5.409A.6.6,0,0,1,20,6.006V16.86A2.411,2.411,0,0,1,17.592,19.268ZM14.582,2.056V5.42h3.364ZM4.737,16.129a.6.6,0,0,1-.6-.6V12.91a4.693,4.693,0,0,1-2.749-1.348,4.738,4.738,0,1,1,6.7,0A4.692,4.692,0,0,1,5.34,12.91v2.616A.6.6,0,0,1,4.737,16.129Zm0-4.388a.579.579,0,0,1,.065,0,3.538,3.538,0,1,0-.129,0A.579.579,0,0,1,4.737,11.741ZM15.786,13.65H10.969v-1.2h4.817a.6.6,0,0,1,0,1.2Zm0-2.409H10.969v-1.2h4.817a.6.6,0,0,1,0,1.2Z" transform="translate(209.783 2835)" fill="#fff"/>
    </g>
  </g>
</svg>
