<svg xmlns="http://www.w3.org/2000/svg" width="20.5" height="19.844" viewBox="0 0 20.5 19.844">
  <g id="Group_117062" data-name="Group 117062" transform="translate(-52.75 -1948.898)">
    <rect id="Rectangle_22823" data-name="Rectangle 22823" width="18.852" height="19.844" transform="translate(53.327 1948.898)" fill="#8e1c1c" opacity="0"/>
    <g id="Group_117061" data-name="Group 117061" transform="translate(53 1953.089)">
      <path id="Subtraction_1" data-name="Subtraction 1" d="M14.815,11.786a1.9,1.9,0,0,1-1.9-1.838L12.909,9.8H7.419l0,.146a1.9,1.9,0,0,1-3.8,0L3.607,9.8H1.772A.4.4,0,0,1,1.367,9.4V7.538H.4A.415.415,0,0,1,0,7.133a.4.4,0,0,1,.4-.406H1.793a.4.4,0,0,1,.406.406V8.988H3.85l.042-.077a1.9,1.9,0,0,1,1.642-.957,1.916,1.916,0,0,1,1.644.96l.045.075h5.883l.044-.077a1.887,1.887,0,0,1,3.286,0l.044.075h.814a.345.345,0,0,0,.344-.346V5.88H13.767A.78.78,0,0,1,13,5.107V.814H2.2V2.67a.4.4,0,0,1-.406.409H.4A.416.416,0,0,1,0,2.67a.4.4,0,0,1,.4-.406h.989V.409A.4.4,0,0,1,1.793,0H13.169a.685.685,0,0,1,.68.689v.734h1.67a2.009,2.009,0,0,1,1.849,1.223l.961,2.216a2.188,2.188,0,0,1,.16.74V8.618A1.181,1.181,0,0,1,17.315,9.8h-.594l-.006.146A1.9,1.9,0,0,1,14.815,11.786Zm0-2.954a1.1,1.1,0,1,0,1.091,1.1A1.112,1.112,0,0,0,14.815,8.833Zm-9.28,0a1.1,1.1,0,1,0,1.094,1.1A1.112,1.112,0,0,0,5.535,8.833Zm8.315-6.575V5.11h3.675l-.906-2.136a1.2,1.2,0,0,0-1.1-.716Z" transform="translate(1.51)" fill="#fff" stroke="#fff" stroke-width="0.5"/>
      <path id="Subtraction_2" data-name="Subtraction 2" d="M10.213,4.23a.444.444,0,0,1-.3-.125.422.422,0,0,1,0-.582l.964-.994H.385A.44.44,0,0,1,0,2.079.4.4,0,0,1,.405,1.67h10.5L9.934.7A.414.414,0,0,1,9.817.409.414.414,0,0,1,9.934.116.407.407,0,0,1,10.222,0a.414.414,0,0,1,.293.116l1.7,1.7a.415.415,0,0,1,0,.582l-1.7,1.7A.443.443,0,0,1,10.213,4.23Z" transform="translate(0 2.834)" fill="#fff" stroke="#fff" stroke-width="0.5"/>
    </g>
  </g>
</svg>
