<svg xmlns="http://www.w3.org/2000/svg" width="27" height="27" viewBox="0 0 27 27">
  <g id="Group_117021" data-name="Group 117021" transform="translate(-310 -906)">
    <g id="Group_117017" data-name="Group 117017" transform="translate(0 64)">
      <g id="Group_116635" data-name="Group 116635" transform="translate(310 842)">
        <g id="Group_476" data-name="Group 476">
          <circle id="Ellipse_92" data-name="Ellipse 92" cx="13.5" cy="13.5" r="13.5" fill="#f3f5f8"/>
        </g>
      </g>
    </g>
    <g id="Group_117020" data-name="Group 117020" transform="translate(292.334 789.038)">
      <path id="bell" d="M64.966,11.842a2.312,2.312,0,0,1-.7-.957,11.07,11.07,0,0,1-.732-4.374c0-.006,0-.011,0-.017a4.222,4.222,0,0,0-2.485-3.829V1.658A1.658,1.658,0,0,0,59.39,0h-.137A1.658,1.658,0,0,0,57.6,1.658V2.665a4.222,4.222,0,0,0-2.486,3.846,11.07,11.07,0,0,1-.732,4.374,2.312,2.312,0,0,1-.7.957.424.424,0,0,0-.233.482.444.444,0,0,0,.437.341h3.2a2.245,2.245,0,0,0,4.489,0h3.2a.444.444,0,0,0,.437-.341A.424.424,0,0,0,64.966,11.842ZM58.47,1.658a.785.785,0,0,1,.783-.784h.137a.785.785,0,0,1,.783.784v.724a4.222,4.222,0,0,0-1.7,0V1.658Zm.852,12.349a1.376,1.376,0,0,1-1.372-1.342h2.745A1.376,1.376,0,0,1,59.321,14.007Zm1.755-2.216h-6.2a4.571,4.571,0,0,0,.228-.4,11.038,11.038,0,0,0,.881-4.879,3.337,3.337,0,1,1,6.674,0c0,.005,0,.011,0,.016a11.015,11.015,0,0,0,.881,4.862,4.57,4.57,0,0,0,.228.4Z" transform="translate(-28.156 123.021)" fill="#383a65" stroke="#383a65" stroke-width="0.25"/>
    </g>
  </g>
</svg>
