<svg xmlns="http://www.w3.org/2000/svg" width="25.464" height="25.464" viewBox="0 0 25.464 25.464">
  <g id="Group_117116" data-name="Group 117116" transform="translate(-319.6 -2359.6)">
    <g id="noun_Calendar_3036747" transform="translate(320 2360)">
      <g id="Layer_27" data-name="Layer 27" transform="translate(0 0)">
        <path id="Path_183141" data-name="Path 183141" d="M31.134,10.9H27.656V9.632a.632.632,0,0,0-1.265,0V10.9H21.964V9.632a.632.632,0,1,0-1.265,0V10.9H16.273V9.632a.632.632,0,1,0-1.265,0V10.9H11.53A2.53,2.53,0,0,0,9,13.427V31.134a2.53,2.53,0,0,0,2.53,2.53h19.6a2.53,2.53,0,0,0,2.53-2.53V13.427A2.53,2.53,0,0,0,31.134,10.9Zm-20.87,2.53a1.265,1.265,0,0,1,1.265-1.265h3.478v1.265a.632.632,0,1,0,1.265,0V12.162H20.7v1.265a.632.632,0,1,0,1.265,0V12.162h4.427v1.265a.632.632,0,1,0,1.265,0V12.162h3.478A1.265,1.265,0,0,1,32.4,13.427v3.162H10.265ZM32.4,31.134A1.265,1.265,0,0,1,31.134,32.4H11.53a1.265,1.265,0,0,1-1.265-1.265V17.854H32.4Z" transform="translate(-9 -9)" fill="#383a65" stroke="#383a65" stroke-width="0.8"/>
        <rect id="Rectangle_22839" data-name="Rectangle 22839" width="1.982" height="1.982" transform="translate(11.129 11.123)" fill="#383a65"/>
        <rect id="Rectangle_22840" data-name="Rectangle 22840" width="1.982" height="1.982" transform="translate(15.094 11.123)" fill="#383a65"/>
        <rect id="Rectangle_22841" data-name="Rectangle 22841" width="0.991" height="1.982" transform="translate(19.059 11.123)" fill="#383a65"/>
        <rect id="Rectangle_22842" data-name="Rectangle 22842" width="1.982" height="1.982" transform="translate(4.191 15.088)" fill="#383a65"/>
        <rect id="Rectangle_22843" data-name="Rectangle 22843" width="1.982" height="1.982" transform="translate(7.164 15.088)" fill="#383a65"/>
        <rect id="Rectangle_22844" data-name="Rectangle 22844" width="1.982" height="1.982" transform="translate(11.129 15.088)" fill="#383a65"/>
        <rect id="Rectangle_22845" data-name="Rectangle 22845" width="1.982" height="1.982" transform="translate(15.094 15.088)" fill="#383a65"/>
        <rect id="Rectangle_22846" data-name="Rectangle 22846" width="0.991" height="1.982" transform="translate(19.059 15.088)" fill="#383a65"/>
        <rect id="Rectangle_22847" data-name="Rectangle 22847" width="1.982" height="0.991" transform="translate(4.191 19.053)" fill="#383a65"/>
        <rect id="Rectangle_22848" data-name="Rectangle 22848" width="1.982" height="0.991" transform="translate(7.164 19.053)" fill="#383a65"/>
        <rect id="Rectangle_22849" data-name="Rectangle 22849" width="1.982" height="0.991" transform="translate(11.129 19.053)" fill="#383a65"/>
      </g>
    </g>
  </g>
</svg>
