<svg xmlns="http://www.w3.org/2000/svg" width="20" height="20" viewBox="0 0 20 20">
  <g id="Group_117026" data-name="Group 117026" transform="translate(-32 -1605)">
    <g id="Rectangle_22813" data-name="Rectangle 22813" transform="translate(32 1605)" fill="#c1c1c1" stroke="#fff" stroke-width="0.7" opacity="0">
      <rect width="20" height="20" stroke="none"/>
      <rect x="0.35" y="0.35" width="19.3" height="19.3" fill="none"/>
    </g>
    <g id="noun_counting_3443682" transform="translate(32.364 1605.365)">
      <g id="Group_116278" data-name="Group 116278" transform="translate(0 0)">
        <path id="Path_182937" data-name="Path 182937" d="M19.97,1a.3.3,0,0,0-.3.3v2.71H15.754V2.506a.6.6,0,0,0-.6-.6H13.346a.6.6,0,0,0-.6.6V4.011H10.937V2.506a.6.6,0,0,0-.6-.6H8.528a.6.6,0,0,0-.6.6V4.011H6.119V2.506a.6.6,0,0,0-.6-.6H3.71a.6.6,0,0,0-.6.6V4.011H1.6V1.3a.3.3,0,1,0-.6,0V19.97a.3.3,0,1,0,.6,0V17.26h8.732v1.506a.6.6,0,0,0,.6.6h1.807a.6.6,0,0,0,.6-.6V17.26h1.807v1.506a.6.6,0,0,0,.6.6h1.807a.6.6,0,0,0,.6-.6V17.26h1.506v2.71a.3.3,0,1,0,.6,0V1.3A.3.3,0,0,0,19.97,1ZM13.346,2.506h1.807V6.119H13.346Zm-4.818,0h1.807V6.119H8.528Zm-4.818,0H5.517V6.119H3.71Zm-.6,2.108V6.119a.6.6,0,0,0,.6.6H5.517a.6.6,0,0,0,.6-.6V4.613H7.926V6.119a.6.6,0,0,0,.6.6h1.807a.6.6,0,0,0,.6-.6V4.613h1.807V6.119a.6.6,0,0,0,.6.6h1.807a.6.6,0,0,0,.6-.6V4.613h3.914v5.721H12.141V8.829a.6.6,0,0,0-.6-.6H9.732a.6.6,0,0,0-.6.6v1.506H7.323V8.829a.6.6,0,0,0-.6-.6H4.914a.6.6,0,0,0-.6.6v1.506H1.6V4.613Zm8.431,4.216v3.613H9.732V8.829Zm-4.818,0v3.613H4.914V8.829Zm6.022,9.937H10.937V15.152h1.807Zm4.818,0H15.754V15.152h1.807Zm.6-2.108V15.152a.6.6,0,0,0-.6-.6H15.754a.6.6,0,0,0-.6.6v1.506H13.346V15.152a.6.6,0,0,0-.6-.6H10.937a.6.6,0,0,0-.6.6v1.506H1.6V10.937h2.71v1.506a.6.6,0,0,0,.6.6H6.721a.6.6,0,0,0,.6-.6V10.937H9.13v1.506a.6.6,0,0,0,.6.6h1.807a.6.6,0,0,0,.6-.6V10.937h7.528v5.721Z" transform="translate(-1 -1)" fill="#fff" stroke="#fff" stroke-width="0.7"/>
      </g>
    </g>
  </g>
</svg>
