<svg xmlns="http://www.w3.org/2000/svg" width="27" height="27" viewBox="0 0 27 27">
  <g id="Group_117038" data-name="Group 117038" transform="translate(-299 -2586)">
    <g id="Group_117032" data-name="Group 117032" transform="translate(2 117)">
      <circle id="Ellipse_40727" data-name="Ellipse 40727" cx="13.5" cy="13.5" r="13.5" transform="translate(297 2469)" fill="#f3f5f8"/>
    </g>
    <g id="Group_117039" data-name="Group 117039" transform="translate(135.636 -25.477)">
      <g id="noun_inspection_3780461" transform="translate(168.887 2617)">
        <g id="Group_117036" data-name="Group 117036" transform="translate(0 0)">
          <path id="Path_183094" data-name="Path 183094" d="M19.52,17.51l-5.256-5.256a.284.284,0,0,0-.4,0l-.2.2L13.2,12A5.134,5.134,0,1,0,12,13.2l.457.457-.2.2a.284.284,0,0,0,0,.4L17.51,19.52a1.1,1.1,0,0,0,1.551,0l.459-.46a1.1,1.1,0,0,0,0-1.551ZM4.488,9.037a4.549,4.549,0,1,1,4.549,4.549A4.549,4.549,0,0,1,4.488,9.037Zm7.956,3.809a5.156,5.156,0,0,0,.4-.4l.413.413-.4.4Zm.614,1.016.8-.8.2-.2.4.4-1.206,1.206-.4-.4Zm6.06,4.8-.46.46a.541.541,0,0,1-.747,0l-4.251-4.251,1.206-1.206,4.251,4.251a.528.528,0,0,1,0,.747Z" transform="translate(-3.887 -3.887)" fill="#383a65" stroke="#383a65" stroke-width="0.2"/>
        </g>
      </g>
      <g id="Icon_feather-eye" data-name="Icon feather-eye" transform="translate(170.446 2619.604)">
        <path id="Path_182969" data-name="Path 182969" d="M3.7,4.75a3.037,3.037,0,0,1,1.479.395,4.373,4.373,0,0,1,1.066.848,5.736,5.736,0,0,1,.878,1.223.243.243,0,0,1,0,.217,5.736,5.736,0,0,1-.878,1.223A4.373,4.373,0,0,1,5.177,9.5a2.969,2.969,0,0,1-2.958,0,4.373,4.373,0,0,1-1.066-.848A5.736,5.736,0,0,1,.276,7.433a.243.243,0,0,1,0-.217,5.736,5.736,0,0,1,.878-1.223A4.373,4.373,0,0,1,2.22,5.145,3.037,3.037,0,0,1,3.7,4.75ZM6.628,7.324a5.508,5.508,0,0,0-.747-1.009A3,3,0,0,0,3.7,5.236c-1.625,0-2.676,1.645-2.929,2.089a5.508,5.508,0,0,0,.747,1.009A3,3,0,0,0,3.7,9.413C5.323,9.413,6.374,7.767,6.628,7.324Z" transform="translate(-0.25 -4.75)" fill="#383a65" stroke="#383a65" stroke-linecap="round" stroke-width="0.2"/>
        <path id="Path_182970" data-name="Path 182970" d="M13.367,12.25a1.117,1.117,0,1,1-1.117,1.117A1.118,1.118,0,0,1,13.367,12.25Zm0,1.749a.631.631,0,1,0-.631-.631A.632.632,0,0,0,13.367,14Z" transform="translate(-9.919 -10.793)" fill="#383a65" stroke="#383a65" stroke-linecap="round" stroke-width="0.2"/>
      </g>
    </g>
  </g>
</svg>
