<svg xmlns="http://www.w3.org/2000/svg" width="24.395" height="29.45" viewBox="0 0 24.395 29.45">
  <g id="noun_manager_1649726" transform="translate(-39.314 -0.4)">
    <g id="Group_117098" data-name="Group 117098" transform="translate(39.926 1)">
      <path id="Path_183129" data-name="Path 183129" d="M155.495,15.846c3.3,0,5.695-4.628,5.695-7.743A5.708,5.708,0,1,0,149.8,8.1C149.8,11.218,152.192,15.846,155.495,15.846Zm0-12.982A5.05,5.05,0,0,1,160.326,8.1c0,3.035-2.274,6.88-4.832,6.88s-4.832-3.85-4.832-6.88A5.05,5.05,0,0,1,155.495,2.863Z" transform="translate(-143.908 -2)" fill="#383a65" stroke="#383a65" stroke-width="1.2"/>
      <path id="Path_183130" data-name="Path 183130" d="M61.749,248.841c-.1-.134-.2-.268-.3-.391a7.11,7.11,0,0,0-3.609-2.4l-1.4-.391c-.054-.016-.113-.027-.166-.043l-.461-.118-3.11,7-.29-4.488h.4v-.863h-2.6v.863h.4l-.29,4.488-3.11-7-.461.118c-.054.011-.113.027-.166.043l-1.4.391a7.076,7.076,0,0,0-3.609,2.4c-.1.129-.2.257-.3.391a7.94,7.94,0,0,0-1.26,5.695l.745,5.148h21.5L63,254.536A7.912,7.912,0,0,0,61.749,248.841Zm-10.264-.831h.054l.4,6.188-.429.96-.429-.96Zm10.666,6.4-.638,4.4H58.859v-3.459H58v3.459H45.029v-3.459h-.863v3.459H41.511l-.638-4.4a7.053,7.053,0,0,1,1.11-5.073c.086-.118.172-.236.268-.349a6.26,6.26,0,0,1,3.169-2.107l1.308-.365,4.783,10.773L56.3,246.524l1.308.365A6.238,6.238,0,0,1,60.779,249c.091.113.182.231.268.349h0A7.037,7.037,0,0,1,62.151,254.412Z" transform="translate(-39.926 -231.434)" fill="#383a65" stroke="#383a65" stroke-width="1.2"/>
      <rect id="Rectangle_22834" data-name="Rectangle 22834" width="4.322" height="0.863" transform="translate(15.909 20.469)" fill="#383a65"/>
    </g>
  </g>
</svg>
