<svg xmlns="http://www.w3.org/2000/svg" width="30.499" height="30.5" viewBox="0 0 30.499 30.5">
  <path id="Union_7" data-name="Union 7" d="M-11610.646,2532.3a13.339,13.339,0,0,1-9.513-8.133l-.091-.23,2.177-.881.093.233a11,11,0,0,0,7.6,6.619,3.035,3.035,0,0,1,2.64-1.529h.038a3.051,3.051,0,0,1,2.067.805,3.041,3.041,0,0,1,.98,1.992,3.073,3.073,0,0,1-2.564,3.287,3.366,3.366,0,0,1-.486.038A3.052,3.052,0,0,1-11610.646,2532.3Zm2.217-.861a.687.687,0,0,0,.686.688.69.69,0,0,0,.688-.688.689.689,0,0,0-.688-.686A.686.686,0,0,0-11608.43,2531.438Zm4.483-1.852.233-.093a11,11,0,0,0,6.618-7.6,3.061,3.061,0,0,1-1.283-1.45,3.06,3.06,0,0,1-.1-2.124,3.05,3.05,0,0,1,2.917-2.135,2.9,2.9,0,0,1,.475.035,3.07,3.07,0,0,1,1.855,1.038,3.057,3.057,0,0,1,.732,2,3.06,3.06,0,0,1-2.2,2.9,13.338,13.338,0,0,1-8.133,9.512l-.23.09Zm7.7-10.329a.689.689,0,0,0,.686.688.689.689,0,0,0,.688-.688.689.689,0,0,0-.687-.688A.689.689,0,0,0-11596.248,2519.256Zm-16.432,5.872V2523a4.923,4.923,0,0,1,1.934-3.915,3.974,3.974,0,0,1-.706-4.154,3.981,3.981,0,0,1,3.7-2.491,3.982,3.982,0,0,1,3.7,2.491,3.983,3.983,0,0,1-.706,4.154,4.925,4.925,0,0,1,1.943,3.915v2.124Zm2.386-2.374h5.1a2.564,2.564,0,0,0-2.549-2.31A2.565,2.565,0,0,0-11610.294,2522.754Zm.925-6.31a1.627,1.627,0,0,0,1.625,1.625,1.627,1.627,0,0,0,1.625-1.625,1.625,1.625,0,0,0-1.625-1.622A1.625,1.625,0,0,0-11609.369,2516.444Zm-10.918,5.866a3.055,3.055,0,0,1-2.707-2.87,3.054,3.054,0,0,1,2.211-3.115,13.337,13.337,0,0,1,8.13-9.483l.23-.091.881,2.179-.233.09a10.993,10.993,0,0,0-6.637,7.6,3.055,3.055,0,0,1,1.412,3.515,3.079,3.079,0,0,1-2.937,2.2A3.5,3.5,0,0,1-11620.287,2522.31Zm-.327-3.054a.69.69,0,0,0,.688.688.688.688,0,0,0,.686-.688.688.688,0,0,0-.686-.688A.69.69,0,0,0-11620.614,2519.256Zm23.105-4.049a11,11,0,0,0-7.593-6.619,3.085,3.085,0,0,1-2.654,1.534,3,3,0,0,1-.863-.125,3.051,3.051,0,0,1-2.177-3.285,3.054,3.054,0,0,1,2.868-2.707c.058,0,.116-.006.175-.006a3.049,3.049,0,0,1,2.94,2.217,13.333,13.333,0,0,1,9.483,8.13l.093.233-2.182.858Zm-10.921-8.133a.684.684,0,0,0,.686.686.683.683,0,0,0,.487-.2.684.684,0,0,0,.2-.484.69.69,0,0,0-.688-.688A.687.687,0,0,0-11608.43,2507.075Z" transform="translate(11622.999 -2504)" fill="#383a65"/>
</svg>
