<svg xmlns="http://www.w3.org/2000/svg" width="27" height="27" viewBox="0 0 27 27">
  <g id="Group_117205" data-name="Group 117205" transform="translate(-311 -3190)">
    <g id="Group_117201" data-name="Group 117201">
      <circle id="Ellipse_40727" data-name="Ellipse 40727" cx="13.5" cy="13.5" r="13.5" transform="translate(311 3190)" fill="#f3f5f8"/>
      <path id="Subtraction_13" data-name="Subtraction 13" d="M-11612.963,2520.244a8.081,8.081,0,0,1-5.746-2.38.641.641,0,0,1,0-.9.631.631,0,0,1,.451-.186.63.63,0,0,1,.45.186,6.806,6.806,0,0,0,4.845,2.007,6.8,6.8,0,0,0,4.843-2.007,6.856,6.856,0,0,0,0-9.684,6.8,6.8,0,0,0-4.844-2,6.8,6.8,0,0,0-4.844,2,6.844,6.844,0,0,0-1.975,4.259l.816-.756a.633.633,0,0,1,.433-.17.637.637,0,0,1,.466.2.641.641,0,0,1-.032.9l-1.986,1.844a.629.629,0,0,1-.432.169.627.627,0,0,1-.47-.2l-1.841-1.983a.634.634,0,0,1-.17-.457.635.635,0,0,1,.2-.444.637.637,0,0,1,.433-.168.643.643,0,0,1,.469.2l.828.89a8.1,8.1,0,0,1,2.357-5.186,8.068,8.068,0,0,1,5.745-2.376,8.069,8.069,0,0,1,5.745,2.376,8.134,8.134,0,0,1,0,11.487A8.068,8.068,0,0,1-11612.963,2520.244Zm2.836-6.98h-3.156a.638.638,0,0,1-.636-.639v-4.959a.637.637,0,0,1,.636-.636.637.637,0,0,1,.636.636v4.323l2.521,0a.638.638,0,0,1,.639.636A.638.638,0,0,1-11610.127,2513.263Z" transform="translate(11937.996 691)" fill="#383a65"/>
    </g>
  </g>
</svg>
