<svg xmlns="http://www.w3.org/2000/svg" width="27" height="27" viewBox="0 0 27 27">
  <g id="Group_117123" data-name="Group 117123" transform="translate(-326 -2222)">
    <g id="Group_117121" data-name="Group 117121" transform="translate(6 115)">
      <g id="Putaway_383a65_" data-name="Putaway_383a65 " transform="translate(-309 1573)">
        <circle id="Ellipse_40727" data-name="Ellipse 40727" cx="13.5" cy="13.5" r="13.5" transform="translate(629 534)" fill="#f3f5f8"/>
      </g>
    </g>
    <g id="noun_inspection_1951701" transform="translate(329.469 2221.529)">
      <path id="Path_183143" data-name="Path 183143" d="M16.146,12.644a6.083,6.083,0,1,0-2.271,4.731l3.916,3.406,1.294-1.488-3.893-3.386A6.026,6.026,0,0,0,16.146,12.644Zm2.218,6.7-.624.717L13.879,16.7l-.168.145a5.562,5.562,0,1,1,.934-1.04l-.131.188Z" transform="translate(-1.368)" fill="#383a65"/>
      <path id="Path_183143_-_Outline" data-name="Path 183143 - Outline" d="M10.073,6.571a6.073,6.073,0,1,0,3.8,10.8l3.916,3.406,1.294-1.488-3.893-3.386a6.069,6.069,0,0,0-5.119-9.336M17.741,20.06,13.879,16.7l-.168.145a5.562,5.562,0,1,1,.934-1.04l-.131.188,3.85,3.348-.624.717M10.073,6.471a6.169,6.169,0,0,1,5.249,9.417l3.9,3.4L17.8,20.922,13.872,17.5a6.172,6.172,0,1,1-3.8-11.034Zm8.15,12.882-3.842-3.341.182-.262a5.48,5.48,0,1,0-.918,1.021l.233-.2,3.852,3.35Z" transform="translate(-1.368)" fill="#383a65"/>
      <path id="Path_183144" data-name="Path 183144" d="M17.2,15.155a4.612,4.612,0,1,0,4.612,4.612A4.617,4.617,0,0,0,17.2,15.155Zm0,8.713a4.1,4.1,0,1,1,4.1-4.1A4.106,4.106,0,0,1,17.2,23.868Z" transform="translate(-8.491 -7.123)" fill="#383a65"/>
      <path id="Path_183144_-_Outline" data-name="Path 183144 - Outline" d="M17.2,15.155a4.612,4.612,0,1,0,4.612,4.612A4.617,4.617,0,0,0,17.2,15.155m0,8.713a4.1,4.1,0,1,1,4.1-4.1,4.106,4.106,0,0,1-4.1,4.1m0-8.813a4.712,4.712,0,1,1-4.712,4.712A4.717,4.717,0,0,1,17.2,15.055Zm0,8.713a4,4,0,1,0-4-4A4.006,4.006,0,0,0,17.2,23.768Z" transform="translate(-8.491 -7.123)" fill="#383a65"/>
      <path id="Path_183145" data-name="Path 183145" d="M39.677,23.051v.511a2.76,2.76,0,0,1,2.757,2.757h.511A3.271,3.271,0,0,0,39.677,23.051Z" transform="translate(-30.972 -13.675)" fill="#383a65"/>
      <path id="Path_183145_-_Outline" data-name="Path 183145 - Outline" d="M39.677,23.051v.511a2.76,2.76,0,0,1,2.757,2.757h.511a3.271,3.271,0,0,0-3.268-3.268m-.1-.1h.1a3.371,3.371,0,0,1,3.368,3.368v.1h-.711v-.1a2.66,2.66,0,0,0-2.657-2.657h-.1Z" transform="translate(-30.972 -13.675)" fill="#383a65"/>
    </g>
  </g>
</svg>
