<svg id="Layer_1" data-name="Layer 1" xmlns="http://www.w3.org/2000/svg" viewBox="0 0 250 250"><defs><style>.cls-1{fill:#cb2026;}</style></defs><path class="cls-1" d="M169.37,91.15a32.75,32.75,0,0,1,4.54-.14q43.69,0,87.39,0a6.1,6.1,0,0,1,4.62,2.06q36,35.94,71.9,71.89c1.66,1.5,3.3,3.38,3.16,5.79q0,43.92,0,87.87c0,1.95.25,4.1-.88,5.82a25.94,25.94,0,0,1-3.1,3.36l-69.23,69.24c-1.78,1.82-3.7,4.09-6.52,3.92q-45,0-90,0a6.25,6.25,0,0,1-4.9-1.84q-35.84-35.79-71.63-71.61a24,24,0,0,1-2.82-3.06c-1.15-1.73-.84-3.9-.89-5.87,0-29.31,0-58.63,0-87.94a6,6,0,0,1,2.07-4.6q35.7-35.67,71.39-71.38C165.92,93.29,167.27,91.52,169.37,91.15Zm-36.7,91.13a19.87,19.87,0,0,0,1.86,39.29c3.71.29,7.43,0,11.15.16a8.5,8.5,0,0,1,2.11,16.51c-2,.72-4.25.44-6.37.49-5.5,0-11-.06-16.49,0a5.67,5.67,0,1,0,.48,11.32c6.75,0,13.51,0,20.27,0a19.87,19.87,0,0,0,1.06-39.65c-3.71-.26-7.43.07-11.14-.16a8.5,8.5,0,0,1,.5-16.95c7.63-.08,15.27,0,22.9,0a5.65,5.65,0,0,0,.6-11.29c-6-.14-12.1,0-18.15-.06A51.54,51.54,0,0,0,132.67,182.28Zm38,4.42a5.67,5.67,0,0,0,5.43,6.54c3.84.09,7.68,0,11.52,0q0,25.46,0,50.91a5.67,5.67,0,1,0,11.33.11c0-17,0-34,0-51,3.73,0,7.46,0,11.18,0a5.67,5.67,0,0,0,3.63-10.17,6.35,6.35,0,0,0-4.16-1.18c-11,0-22,0-33,0A5.72,5.72,0,0,0,170.64,186.7Zm64.76-4.46a17.13,17.13,0,0,0-12.75,11.07c-1.31,3.5-.91,7.3-1,11,0,9.94-.07,19.87,0,29.81A17.07,17.07,0,0,0,237.8,250c4.64.05,9.3.14,13.94,0a17.09,17.09,0,0,0,15.36-16.42c.06-11.54,0-23.08,0-34.62A17.12,17.12,0,0,0,261,185.89a17.42,17.42,0,0,0-12-4C244.5,182.06,239.92,181.59,235.4,182.24Zm40.07.56a5.91,5.91,0,0,0-2.66,5.53c0,18.63,0,37.27,0,55.9a5.67,5.67,0,1,0,11.34,0c0-7.51,0-15,0-22.55,4.8,0,9.58,0,14.38,0a19.87,19.87,0,0,0,0-39.74c-6.21-.05-12.43,0-18.64,0C278.42,181.91,276.77,181.89,275.47,182.8Z" transform="translate(-91 -91)"/><path class="cls-1" d="M238.53,193.3c4,0,8-.07,11.95,0a5.66,5.66,0,0,1,5.27,5.68c0,11.17,0,22.35,0,33.52a5.94,5.94,0,0,1-2.54,5.24c-1.7,1.2-3.87,1-5.83,1-3.08-.06-6.16.09-9.23-.06a5.75,5.75,0,0,1-5.13-6.14c0-11.2,0-22.4,0-33.61A5.65,5.65,0,0,1,238.53,193.3Z" transform="translate(-91 -91)"/><path class="cls-1" d="M284.17,193.27c4.95,0,9.9-.07,14.86,0a8.5,8.5,0,0,1-.46,17c-4.8,0-9.6,0-14.4,0Z" transform="translate(-91 -91)"/></svg>