<svg xmlns="http://www.w3.org/2000/svg" width="20" height="20" viewBox="0 0 20 20">
  <g id="Group_117337" data-name="Group 117337" transform="translate(-26 -3516)">
    <rect id="Rectangle_22910" data-name="Rectangle 22910" width="20" height="20" transform="translate(26 3516)" fill="#2e35d9" opacity="0"/>
    <g id="Group_117336" data-name="Group 117336" transform="translate(26 3517)">
      <path id="Subtraction_33" data-name="Subtraction 33" d="M9.422,18.867a9.459,9.459,0,0,1-5.174-1.533l-.4-.258-.736.78-.089-2.593,2.623-.091-.852.9.614.353A8.043,8.043,0,0,0,8.2,17.4l-.09.092H9.422A8.051,8.051,0,0,0,15.5,14.745l1.117.828A9.436,9.436,0,0,1,9.422,18.867ZM.551,12.7h0A9.167,9.167,0,0,1,0,9.553,9.39,9.39,0,0,1,5.192,1.229l.423-.212L5.3,0,7.619,1.22,6.388,3.509,6.021,2.332,5.4,2.684A7.954,7.954,0,0,0,1.521,8.157l-.126-.15V9.553a7.774,7.774,0,0,0,.444,2.6L.552,12.7Zm17.073-.522h0L16.229,9.98l1.224.274v-.7a7.964,7.964,0,0,0-6.512-7.795L11.1.388a9.326,9.326,0,0,1,7.741,9.165c0,.188-.006.354-.017.535l-.027.473,1.046.235-2.224,1.379Z" fill="#fff"/>
      <path id="Path_183548" data-name="Path 183548" d="M262.349,187.37l.264-.146h0a.426.426,0,0,0,.165-.6l-.73-1.212a.468.468,0,0,0-.624-.159l-.267.146a.486.486,0,0,1-.52-.041,3.907,3.907,0,0,0-.852-.474.448.448,0,0,1-.3-.409v-.292a.447.447,0,0,0-.458-.436h-1.463a.447.447,0,0,0-.456.436v.292a.448.448,0,0,1-.3.409,3.9,3.9,0,0,0-.854.474.486.486,0,0,1-.52.041l-.267-.147a.468.468,0,0,0-.623.159l-.732,1.212a.426.426,0,0,0,.167.6l.264.146h0a.422.422,0,0,1,.225.425,3.485,3.485,0,0,0,0,1,.422.422,0,0,1-.225.425l-.264.146h0a.426.426,0,0,0-.167.6l.732,1.212a.468.468,0,0,0,.623.159l.267-.144a.486.486,0,0,1,.52.041,3.906,3.906,0,0,0,.852.474.448.448,0,0,1,.3.408v.292a.447.447,0,0,0,.458.436h1.463a.447.447,0,0,0,.456-.436v-.292a.448.448,0,0,1,.3-.408,3.9,3.9,0,0,0,.854-.474.486.486,0,0,1,.52-.041l.267.148a.468.468,0,0,0,.624-.159l.732-1.212a.425.425,0,0,0-.165-.6l-.264-.146h0a.422.422,0,0,1-.225-.425,3.488,3.488,0,0,0,0-1A.422.422,0,0,1,262.349,187.37Zm-4.05,2.782a1.858,1.858,0,1,1,1.314-.544A1.859,1.859,0,0,1,258.3,190.152Z" transform="translate(-249.034 -179.012)" fill="#fff"/>
    </g>
  </g>
</svg>
