<svg xmlns="http://www.w3.org/2000/svg" width="36.484" height="29.438" viewBox="0 0 36.484 29.438">
  <g id="Group_117195" data-name="Group 117195" transform="translate(-215.083 -2982.919)">
    <g id="Group_117194" data-name="Group 117194" transform="translate(-7.791 -269.956)">
      <path id="Subtraction_18" data-name="Subtraction 18" d="M13.858,24.769H1.1A2.658,2.658,0,0,1-1.56,22.114V1.2A2.658,2.658,0,0,1,1.1-1.452H24A2.658,2.658,0,0,1,26.652,1.2V17.132H24.661V5.2H.431V22.114a.665.665,0,0,0,.664.663H13.858v1.991ZM1.1.54A.665.665,0,0,0,.431,1.2V3.21h24.23V1.2A.665.665,0,0,0,24,.54Z" transform="translate(224.434 3254.327)" fill="#383a65"/>
      <g id="Group_117165" data-name="Group 117165" transform="translate(225.667 3252.059)">
        <path id="Path_183158" data-name="Path 183158" d="M-11605.574,2513.681h-15.493a1.938,1.938,0,0,1-1.931-1.938v-5.81a1.935,1.935,0,0,1,1.931-1.933h15.493a1.933,1.933,0,0,1,1.931,1.933v5.81A1.936,1.936,0,0,1-11605.574,2513.681Zm-8.626-7.506a2.83,2.83,0,0,0-1.406.362,2.648,2.648,0,0,0-1.013,1,2.863,2.863,0,0,0-.372,1.451,2.8,2.8,0,0,0,.372,1.445,2.715,2.715,0,0,0,1.013,1.005,2.894,2.894,0,0,0,1.406.356,2.821,2.821,0,0,0,1.406-.356,2.624,2.624,0,0,0,1.014-1.005,2.855,2.855,0,0,0,.374-1.445,2.95,2.95,0,0,0-.365-1.451,2.622,2.622,0,0,0-1.011-1A2.781,2.781,0,0,0-11614.2,2506.175Zm6.067.04a2.88,2.88,0,0,0-1.458.35,2.557,2.557,0,0,0-.956.982,3.1,3.1,0,0,0-.335,1.447,3.089,3.089,0,0,0,.335,1.445,2.465,2.465,0,0,0,.967.988,2.942,2.942,0,0,0,1.467.356,2.677,2.677,0,0,0,1.631-.486,2.916,2.916,0,0,0,.938-1.164v-1.513h-2.782v1.084h1.524a1.322,1.322,0,0,1-.468.553,1.312,1.312,0,0,1-.682.18,1.338,1.338,0,0,1-1.033-.367,1.493,1.493,0,0,1-.354-1.078,1.475,1.475,0,0,1,.327-1.006,1.124,1.124,0,0,1,.888-.373,1.183,1.183,0,0,1,.564.13.942.942,0,0,1,.366.355h1.6a2.1,2.1,0,0,0-.813-1.377A2.817,2.817,0,0,0-11608.133,2506.215Zm-12.512.047v5.481h3.23v-1.152h-1.706v-4.329Zm6.444,4.116a1.144,1.144,0,0,1-.906-.379,1.482,1.482,0,0,1-.333-1.01,1.492,1.492,0,0,1,.333-1.028,1.159,1.159,0,0,1,.906-.378,1.148,1.148,0,0,1,.912.378,1.5,1.5,0,0,1,.333,1.028,1.492,1.492,0,0,1-.333,1.01A1.144,1.144,0,0,1-11614.2,2510.377Z" transform="translate(11637.335 -2483.426)" fill="#383a65"/>
      </g>
    </g>
    <path id="Icon_material-error-outline" data-name="Icon material-error-outline" d="M8.16,10.453H9.307V11.6H8.16Zm0-4.587H9.307v3.44H8.16ZM8.728,3a5.733,5.733,0,1,0,5.739,5.733A5.731,5.731,0,0,0,8.728,3Zm.006,10.32A4.587,4.587,0,1,1,13.32,8.733,4.586,4.586,0,0,1,8.733,13.32Z" transform="translate(220 2988.81)" fill="#383a65" stroke="#383a65" stroke-width="0.4"/>
  </g>
</svg>
