<svg xmlns="http://www.w3.org/2000/svg" width="27" height="27" viewBox="0 0 27 27">
  <g id="Group_116638" data-name="Group 116638" transform="translate(-314 -149)">
    <g id="Group_484" data-name="Group 484" transform="translate(314 149)">
      <g id="Group_476" data-name="Group 476">
        <circle id="Ellipse_92" data-name="Ellipse 92" cx="13.5" cy="13.5" r="13.5" fill="#f3f5f8"/>
      </g>
    </g>
    <g id="building" transform="translate(322 156)">
      <path id="Path_182931" data-name="Path 182931" d="M11.439.058a.387.387,0,0,1,.184.329V12.01a.387.387,0,0,1-.387.387H8.911a.387.387,0,0,1-.387-.387V10.848H7.749V12.01a.387.387,0,0,1-.387.387H.387A.387.387,0,0,1,0,12.01V7.749a.387.387,0,0,1,.265-.367L4.649,5.92V3.487a.387.387,0,0,1,.214-.346l6.2-3.1a.387.387,0,0,1,.377.017ZM4.649,6.737.775,8.028v3.6H4.649Zm.775,4.886h1.55V10.461a.387.387,0,0,1,.387-.387h1.55a.387.387,0,0,1,.387.387v1.162h1.55V1.014L5.424,3.726Z" transform="translate(0 0)" fill="#383a65" stroke="#383a65" stroke-width="0.2"/>
      <path id="Path_182932" data-name="Path 182932" d="M2,9.2h.775v.775H2Zm1.55,0h.775v.775H3.55ZM2,10.749h.775v.775H2Zm1.55,0h.775v.775H3.55Zm3.1-3.1h.775v.775H6.649Zm1.55,0h.775v.775H8.2ZM6.649,9.2h.775v.775H6.649Zm1.55,0h.775v.775H8.2Zm1.55-1.55h.775v.775H9.749Zm0,1.55h.775v.775H9.749Zm-3.1-3.1h.775v.775H6.649Zm1.55,0h.775v.775H8.2Zm1.55,0h.775v.775H9.749Zm-3.1-1.55h.775v.775H6.649Zm1.55,0h.775v.775H8.2Zm1.55,0h.775v.775H9.749Zm0-1.55h.775v.775H9.749Z" transform="translate(-0.45 -0.675)" fill="#383a65" stroke="#383a65" stroke-width="0.2"/>
    </g>
  </g>
</svg>
