<svg xmlns="http://www.w3.org/2000/svg" width="20.202" height="20.217" viewBox="0 0 20.202 20.217">
  <g id="Roles" transform="translate(-187.898 -230.898)">
    <rect id="Rectangle_22805" data-name="Rectangle 22805" width="20" height="20" transform="translate(188 231)" fill="#f9dede" opacity="0"/>
    <g id="users-roles" transform="translate(187.043 230.043)">
      <path id="Path_182942" data-name="Path 182942" d="M12.779,2.408a1.874,1.874,0,1,0-.144,1.249,7.5,7.5,0,0,1,5.3,4.542l1.143-.45A8.746,8.746,0,0,0,12.779,2.408ZM10.961,3.464a.625.625,0,1,1,.442-.183A.625.625,0,0,1,10.961,3.464Zm-2.749.519L7.75,2.839a8.746,8.746,0,0,0-5.342,6.3,1.874,1.874,0,1,0,1.249.144A7.5,7.5,0,0,1,8.212,3.983Zm-5.373,7.6a.625.625,0,1,1,.625-.625A.625.625,0,0,1,2.839,11.586Zm8.122,5.623a1.874,1.874,0,0,0-1.674,1.043,7.5,7.5,0,0,1-5.3-4.542l-1.143.462a8.746,8.746,0,0,0,6.322,5.342,1.874,1.874,0,1,0,1.8-2.305Zm0,2.5a.625.625,0,1,1,.625-.625A.625.625,0,0,1,10.961,19.707Zm10-8.746a1.874,1.874,0,1,0-2.705,1.674,7.5,7.5,0,0,1-4.542,5.3l.462,1.143a8.746,8.746,0,0,0,5.342-6.322A1.874,1.874,0,0,0,20.957,10.961Zm-1.874.625a.625.625,0,1,1,.625-.625A.625.625,0,0,1,19.083,11.586Z" fill="#fff" stroke="#fff" stroke-width="0.2"/>
      <path id="Path_182943" data-name="Path 182943" d="M16.5,13.982a2.5,2.5,0,1,0-3.492,0,3.124,3.124,0,0,0-1.374,2.586v1.249h6.247V16.569A3.124,3.124,0,0,0,16.5,13.982ZM13.511,12.2a1.249,1.249,0,1,1,1.249,1.249A1.249,1.249,0,0,1,13.511,12.2Zm-.625,4.373a1.874,1.874,0,1,1,3.748,0Z" transform="translate(-3.799 -3.109)" fill="#fff" stroke="#4f5da2" stroke-width="0.2"/>
    </g>
  </g>
</svg>
