<svg xmlns="http://www.w3.org/2000/svg" width="38.446" height="25.247" viewBox="0 0 38.446 25.247">
  <g id="User" transform="translate(0.25 -85.083)">
    <g id="Group_116585" data-name="Group 116585" transform="translate(13.198 85.333)">
      <g id="Group_116584" data-name="Group 116584">
        <path id="Path_182944" data-name="Path 182944" d="M176.44,85.333a5.774,5.774,0,1,0,5.774,5.774A5.781,5.781,0,0,0,176.44,85.333Zm0,9.9a4.124,4.124,0,1,1,4.125-4.124A4.13,4.13,0,0,1,176.44,95.232Z" transform="translate(-170.666 -85.333)" fill="#383a65"/>
        <path id="Path_182944_-_Outline" data-name="Path 182944 - Outline" d="M176.44,85.083a6.024,6.024,0,1,1-6.024,6.024A6.031,6.031,0,0,1,176.44,85.083Zm0,11.549a5.524,5.524,0,1,0-5.524-5.524A5.531,5.531,0,0,0,176.44,96.632Zm0-9.9a4.374,4.374,0,1,1-4.374,4.375A4.379,4.379,0,0,1,176.44,86.733Zm0,8.249a3.874,3.874,0,1,0-3.874-3.874A3.879,3.879,0,0,0,176.44,94.982Z" transform="translate(-170.666 -85.333)" fill="#383a65"/>
      </g>
    </g>
    <g id="Group_116587" data-name="Group 116587" transform="translate(26.397 91.932)">
      <g id="Group_116586" data-name="Group 116586">
        <path id="Path_182945" data-name="Path 182945" d="M345.458,170.667a4.125,4.125,0,1,0,4.125,4.124A4.13,4.13,0,0,0,345.458,170.667Zm0,6.6a2.475,2.475,0,1,1,2.475-2.475A2.478,2.478,0,0,1,345.458,177.266Z" transform="translate(-341.334 -170.667)" fill="#383a65"/>
        <path id="Path_182945_-_Outline" data-name="Path 182945 - Outline" d="M345.458,170.417a4.375,4.375,0,1,1-4.374,4.374A4.379,4.379,0,0,1,345.458,170.417Zm0,8.249a3.875,3.875,0,1,0-3.874-3.875A3.879,3.879,0,0,0,345.458,178.666Zm0-6.6a2.725,2.725,0,1,1-2.725,2.725A2.728,2.728,0,0,1,345.458,172.067Zm0,4.949a2.225,2.225,0,1,0-2.225-2.225A2.227,2.227,0,0,0,345.458,177.016Z" transform="translate(-341.334 -170.667)" fill="#383a65"/>
      </g>
    </g>
    <g id="Group_116589" data-name="Group 116589" transform="translate(3.417 91.932)">
      <g id="Group_116588" data-name="Group 116588">
        <path id="Path_182946" data-name="Path 182946" d="M48.307,170.667a4.125,4.125,0,1,0,4.124,4.124A4.129,4.129,0,0,0,48.307,170.667Zm0,6.6a2.475,2.475,0,1,1,2.475-2.475A2.478,2.478,0,0,1,48.307,177.266Z" transform="translate(-44.182 -170.667)" fill="#383a65"/>
        <path id="Path_182946_-_Outline" data-name="Path 182946 - Outline" d="M48.307,170.417a4.375,4.375,0,1,1-4.375,4.374A4.379,4.379,0,0,1,48.307,170.417Zm0,8.249a3.875,3.875,0,1,0-3.875-3.875A3.879,3.879,0,0,0,48.307,178.666Zm0-6.6a2.725,2.725,0,1,1-2.725,2.725A2.728,2.728,0,0,1,48.307,172.067Zm0,4.949a2.225,2.225,0,1,0-2.225-2.225A2.227,2.227,0,0,0,48.307,177.016Z" transform="translate(-44.182 -170.667)" fill="#383a65"/>
      </g>
    </g>
    <g id="Group_116591" data-name="Group 116591" transform="translate(8.249 98.532)">
      <g id="Group_116590" data-name="Group 116590" transform="translate(0 0)">
        <path id="Path_182947" data-name="Path 182947" d="M117.39,256a10.736,10.736,0,0,0-10.724,10.724.825.825,0,0,0,1.65,0,9.074,9.074,0,1,1,18.148,0,.825.825,0,0,0,1.65,0A10.736,10.736,0,0,0,117.39,256Z" transform="translate(-106.666 -256)" fill="#383a65"/>
        <path id="Path_182947_-_Outline" data-name="Path 182947 - Outline" d="M117.39,255.75a10.986,10.986,0,0,1,10.974,10.974,1.075,1.075,0,0,1-2.15,0,8.824,8.824,0,1,0-17.648,0,1.075,1.075,0,0,1-2.15,0A10.986,10.986,0,0,1,117.39,255.75Zm9.9,11.549a.576.576,0,0,0,.575-.575,10.474,10.474,0,0,0-20.948,0,.575.575,0,0,0,1.15,0,9.324,9.324,0,1,1,18.648,0A.576.576,0,0,0,127.289,267.3Z" transform="translate(-106.666 -256)" fill="#383a65"/>
      </g>
    </g>
    <g id="Group_116593" data-name="Group 116593" transform="translate(26.279 101.831)">
      <g id="Group_116592" data-name="Group 116592" transform="translate(0 0)">
        <path id="Path_182948" data-name="Path 182948" d="M344.055,298.667a7.425,7.425,0,0,0-3.846,1.072.825.825,0,0,0,.856,1.411,5.775,5.775,0,0,1,8.764,4.941.825.825,0,0,0,1.65,0A7.433,7.433,0,0,0,344.055,298.667Z" transform="translate(-339.813 -298.667)" fill="#383a65"/>
        <path id="Path_182948_-_Outline" data-name="Path 182948 - Outline" d="M344.055,298.417a7.683,7.683,0,0,1,7.674,7.674,1.075,1.075,0,0,1-2.15,0,5.525,5.525,0,0,0-8.384-4.727,1.075,1.075,0,0,1-1.117-1.837A7.676,7.676,0,0,1,344.055,298.417Zm6.6,8.249a.576.576,0,0,0,.575-.575,7.176,7.176,0,0,0-10.891-6.138.575.575,0,0,0,.6.983,6.025,6.025,0,0,1,9.143,5.155A.576.576,0,0,0,350.654,306.666Z" transform="translate(-339.813 -298.667)" fill="#383a65"/>
      </g>
    </g>
    <g id="Group_116595" data-name="Group 116595" transform="translate(0 101.831)">
      <g id="Group_116594" data-name="Group 116594" transform="translate(0 0)">
        <path id="Path_182949" data-name="Path 182949" d="M11.268,299.738A7.427,7.427,0,0,0,0,306.091a.825.825,0,0,0,1.65,0,5.776,5.776,0,0,1,8.762-4.943.825.825,0,0,0,.856-1.411Z" transform="translate(0 -298.667)" fill="#383a65"/>
        <path id="Path_182949_-_Outline" data-name="Path 182949 - Outline" d="M7.424,298.417a7.677,7.677,0,0,1,3.973,1.107,1.075,1.075,0,1,1-1.116,1.838A5.528,5.528,0,0,0,1.9,306.091a1.075,1.075,0,0,1-2.15,0A7.683,7.683,0,0,1,7.424,298.417Zm3.414,2.6a.575.575,0,0,0,.3-1.067A7.177,7.177,0,0,0,.25,306.091a.575.575,0,0,0,1.15,0,6.026,6.026,0,0,1,9.142-5.157A.57.57,0,0,0,10.838,301.018Z" transform="translate(0 -298.667)" fill="#383a65"/>
      </g>
    </g>
  </g>
</svg>
