<svg id="noun_Gauge_176201" xmlns="http://www.w3.org/2000/svg" width="28" height="28" viewBox="0 0 28 28">
  <g id="Group_117060" data-name="Group 117060" transform="translate(0.5 0.5)">
    <path id="Path_183104" data-name="Path 183104" d="M14,27.5A13.5,13.5,0,1,1,27.5,14,13.484,13.484,0,0,1,14,27.5ZM14,1.649A12.351,12.351,0,1,0,26.351,14,12.332,12.332,0,0,0,14,1.649Z" transform="translate(-0.5 -0.5)" fill="#383a65" stroke="#383a65" stroke-width="1"/>
    <path id="Path_183105" data-name="Path 183105" d="M26.4,32.049H2.674a.574.574,0,0,1,0-1.149H26.4a.574.574,0,0,1,0,1.149Z" transform="translate(-1.181 -13.436)" fill="#383a65" stroke="#383a65" stroke-width="1"/>
    <path id="Path_183106" data-name="Path 183106" d="M24.106,29.836H18.074a.543.543,0,0,1-.574-.574,3.562,3.562,0,1,1,7.123,0A.5.5,0,0,1,24.106,29.836Zm-5.343-1.149h4.711a2.464,2.464,0,0,0-2.355-1.838A2.413,2.413,0,0,0,18.764,28.687Z" transform="translate(-7.734 -11.223)" fill="#383a65" stroke="#383a65" stroke-width="0.9"/>
    <path id="Path_183107" data-name="Path 183107" d="M23.574,7.172A.543.543,0,0,1,23,6.6V4.874a.574.574,0,0,1,1.149,0V6.6A.543.543,0,0,1,23.574,7.172Z" transform="translate(-10.074 -2.117)" fill="#383a65" stroke="#383a65" stroke-width="0.5"/>
    <g id="Group_117059" data-name="Group 117059" transform="translate(2.183 12.926)">
      <path id="Path_183108" data-name="Path 183108" d="M41,24.149H39.274a.574.574,0,0,1,0-1.149H41a.574.574,0,1,1,0,1.149Z" transform="translate(-18.938 -23)" fill="#383a65" stroke="#383a65" stroke-width="0.5"/>
      <path id="Path_183109" data-name="Path 183109" d="M6.6,24.149H4.874a.574.574,0,0,1,0-1.149H6.6a.574.574,0,0,1,0,1.149Z" transform="translate(-4.3 -23)" fill="#383a65" stroke="#383a65" stroke-width="0.5"/>
    </g>
    <path id="Path_183110" data-name="Path 183110" d="M34.674,12.155a.522.522,0,0,1-.4-.172.555.555,0,0,1,0-.8l1.206-1.206a.569.569,0,1,1,.8.8l-1.206,1.206A.621.621,0,0,1,34.674,12.155Z" transform="translate(-14.798 -4.457)" fill="#383a65" stroke="#383a65" stroke-width="0.5"/>
    <path id="Path_183111" data-name="Path 183111" d="M11.581,12.155a.522.522,0,0,1-.4-.172L9.972,10.777a.569.569,0,1,1,.8-.8l1.206,1.206a.555.555,0,0,1,0,.8A.522.522,0,0,1,11.581,12.155Z" transform="translate(-4.457 -4.457)" fill="#383a65" stroke="#383a65" stroke-width="0.5"/>
    <path id="Path_183112" data-name="Path 183112" d="M23.39,20.524a.211.211,0,0,1-.172-.057.6.6,0,0,1-.345-.747l2.93-8.5a.582.582,0,1,1,1.091.4l-2.987,8.5A.552.552,0,0,1,23.39,20.524Z" transform="translate(-10.005 -4.899)" fill="#383a65" stroke="#383a65" stroke-width="0.9"/>
  </g>
</svg>
