<svg id="Layer_1" data-name="Layer 1" xmlns="http://www.w3.org/2000/svg" viewBox="0 0 249.27 191.83"><defs><style>.cls-1{fill:#cb2026;}.cls-2{fill:#ffce07;}</style></defs><path class="cls-1" d="M98.24,120.23a18.05,18.05,0,0,1,2.44-.13q73.53,0,147,0c2.48,0,5.15-.28,7.41,1a8.13,8.13,0,0,1,4.2,7.49q0,47.54,0,95.06a8.15,8.15,0,0,1-4.61,7.6c-2,1-4.33.76-6.51.78q-74.31,0-148.61,0a8.07,8.07,0,0,1-8.15-8.3q0-47.83,0-95.67A7.92,7.92,0,0,1,98.24,120.23Z" transform="translate(-91.36 -120.09)"/><path class="cls-1" d="M275.32,160.1H293c4.39,0,8.55,1.63,12.41,3.55a91,91,0,0,1,25.2,20.24c3.66,4.29,7.24,8.83,9.21,14.17,1,2.42.77,5.06.78,7.61q0,33,0,66.11A8.09,8.09,0,0,1,333,280c-3.41.07-6.82,0-10.23,0a40.7,40.7,0,0,0-12.91-22.28,40,40,0,0,0-52.27-.66A40.6,40.6,0,0,0,243.89,280q-28.51,0-57,0a40.83,40.83,0,0,0-16.39-25,41.26,41.26,0,0,0-17.58-7c32.69,0,65.38,0,98.07,0a24.06,24.06,0,0,0,24.36-23.76C275.34,202.87,275.3,181.49,275.32,160.1Zm13.11,19.65q0,20.15,0,40.28h39.25c-.09-11.56-3.44-23.9-12.18-32C308.29,181.36,298,179.22,288.43,179.75Z" transform="translate(-91.36 -120.09)"/><path class="cls-1" d="M91.37,246.58c4.89,1.92,10.21,1.35,15.34,1.43,11.75,0,23.49,0,35.24,0a40.76,40.76,0,0,0-21.85,10.44A40.18,40.18,0,0,0,108,279.94c-3,.09-6,.08-9,0a8.06,8.06,0,0,1-7.63-7.63C91.33,263.75,91.38,255.16,91.37,246.58Z" transform="translate(-91.36 -120.09)"/><path class="cls-1" d="M143.59,264a24.13,24.13,0,1,1-19.91,19.28A24.15,24.15,0,0,1,143.59,264Z" transform="translate(-91.36 -120.09)"/><path class="cls-1" d="M280.62,263.8a24.12,24.12,0,1,1-20,15.55A24.21,24.21,0,0,1,280.62,263.8Z" transform="translate(-91.36 -120.09)"/><path class="cls-2" d="M114.77,138.31a14.33,14.33,0,0,1,2-.12H234.26c2,0,4.11-.22,5.92.84a6.86,6.86,0,0,1,3.35,6.28V225a6.88,6.88,0,0,1-3.68,6.37c-1.61.86-3.46.63-5.2.65H115.86c-3.56.17-6.71-3.24-6.51-7q0-40.09,0-80.2A6.53,6.53,0,0,1,114.77,138.31Z" transform="translate(-91.36 -120.09)"/></svg>