<svg xmlns="http://www.w3.org/2000/svg" width="23.001" height="30.5" viewBox="0 0 23.001 30.5">
  <path id="Union_6" data-name="Union 6" d="M-11619,2534.5a4.006,4.006,0,0,1-4-4V2508a4,4,0,0,1,4-4h15a4,4,0,0,1,4,4v22.5a4.006,4.006,0,0,1-4,4Zm-1.625-26.5v22.5a1.627,1.627,0,0,0,1.625,1.625h15a1.626,1.626,0,0,0,1.624-1.625V2508a1.626,1.626,0,0,0-1.624-1.625h-15A1.627,1.627,0,0,0-11620.626,2508Zm3.5,17.126a1.191,1.191,0,0,1-1.187-1.187,1.191,1.191,0,0,1,1.188-1.19h5.627a1.191,1.191,0,0,1,1.188,1.19,1.191,1.191,0,0,1-1.187,1.187Zm0-3.751a1.191,1.191,0,0,1-1.187-1.187,1.189,1.189,0,0,1,1.188-1.187h11.251a1.187,1.187,0,0,1,1.188,1.187,1.189,1.189,0,0,1-1.187,1.187Zm0-3.751a1.189,1.189,0,0,1-1.187-1.187,1.19,1.19,0,0,1,1.188-1.187h11.251a1.188,1.188,0,0,1,1.188,1.187,1.187,1.187,0,0,1-1.187,1.187Zm0-3.749a1.19,1.19,0,0,1-1.187-1.187,1.188,1.188,0,0,1,1.188-1.187h11.251a1.187,1.187,0,0,1,1.188,1.187,1.188,1.188,0,0,1-1.187,1.187Z" transform="translate(11623.001 -2504.001)" fill="#383a65"/>
</svg>
