<svg xmlns="http://www.w3.org/2000/svg" width="29.786" height="26.125" viewBox="0 0 29.786 26.125">
  <path id="Union_2" data-name="Union 2" d="M-11616.344,2530.126a4.831,4.831,0,0,1-4.825-4.828v-13.491a2.087,2.087,0,0,1-1.832-2.065v-3.661a2.083,2.083,0,0,1,2.08-2.08h25.626a2.083,2.083,0,0,1,2.08,2.08v3.661a2.084,2.084,0,0,1-1.829,2.065V2525.3a4.831,4.831,0,0,1-4.825,4.828Zm-2.494-4.828a2.5,2.5,0,0,0,2.494,2.5h16.475a2.5,2.5,0,0,0,2.494-2.5v-13.477h-21.463Zm-1.832-15.807h25.124v-3.162h-25.124Zm7.986,7.82a1.167,1.167,0,0,1-1.166-1.164,1.17,1.17,0,0,1,1.166-1.167h9.151a1.168,1.168,0,0,1,1.166,1.167,1.165,1.165,0,0,1-1.166,1.164Z" transform="translate(11623.001 -2504.001)" fill="#383a65"/>
</svg>
