<svg xmlns="http://www.w3.org/2000/svg" width="20" height="20" viewBox="0 0 20 20">
  <g id="Group_117132" data-name="Group 117132" transform="translate(-30 -1736)">
    <rect id="Rectangle_22855" data-name="Rectangle 22855" width="20" height="20" transform="translate(30 1736)" fill="#5d1010" opacity="0"/>
    <g id="monitoring" transform="translate(28 1734.626)">
      <g id="Layer_2" data-name="Layer 2" transform="translate(2 6)">
        <path id="Path_183146" data-name="Path 183146" d="M2.714,16.762a.743.743,0,0,0,.714-.769v-.769H4.857v.769A2.229,2.229,0,0,0,7,18.3h5.714v1.537H8.429a.771.771,0,0,0,0,1.537h10a.771.771,0,0,0,0-1.537H14.143V18.3h5.714A2.229,2.229,0,0,0,22,15.993V8.306A2.229,2.229,0,0,0,19.857,6H7A2.229,2.229,0,0,0,4.857,8.306v5.381H3.429v-.769a.743.743,0,0,0-.714-.769A.743.743,0,0,0,2,12.918v3.075A.743.743,0,0,0,2.714,16.762ZM6.286,8.306A.743.743,0,0,1,7,7.537H19.857a.743.743,0,0,1,.714.769v7.687a.743.743,0,0,1-.714.769H7a.743.743,0,0,1-.714-.769v-.769H7.714A.711.711,0,0,0,8.35,14.8l1.714-3.69,2.8,3.844a.693.693,0,0,0,.564.269h0a.7.7,0,0,0,.564-.338l1.429-2.306a.8.8,0,0,0-.218-1.03.682.682,0,0,0-.968.177l-.857,1.422L10.521,9.205a.69.69,0,0,0-.664-.284.718.718,0,0,0-.564.423L7.271,13.687H6.286Z" transform="translate(-2 -6)" fill="#fff"/>
      </g>
    </g>
  </g>
</svg>
