<svg xmlns="http://www.w3.org/2000/svg" width="24.604" height="24.604" viewBox="0 0 24.604 24.604">
  <g id="noun_counting_3443682" transform="translate(0.55 0.55)">
    <g id="Group_116278" data-name="Group 116278" transform="translate(0 0)">
      <path id="Path_182937" data-name="Path 182937" d="M24.137,1a.367.367,0,0,0-.367.367V4.672H19V2.836a.734.734,0,0,0-.734-.734h-2.2a.734.734,0,0,0-.734.734V4.672h-2.2V2.836a.734.734,0,0,0-.734-.734h-2.2a.734.734,0,0,0-.734.734V4.672h-2.2V2.836A.734.734,0,0,0,6.509,2.1h-2.2a.734.734,0,0,0-.734.734V4.672H1.734V1.367a.367.367,0,0,0-.734,0V24.137a.367.367,0,1,0,.734,0V20.831h10.65v1.836a.734.734,0,0,0,.734.734h2.2a.734.734,0,0,0,.734-.734V20.831h2.2v1.836A.734.734,0,0,0,19,23.4h2.2a.734.734,0,0,0,.734-.734V20.831h1.836v3.305a.367.367,0,1,0,.734,0V1.367A.367.367,0,0,0,24.137,1ZM16.057,2.836h2.2V7.243h-2.2Zm-5.876,0h2.2V7.243h-2.2Zm-5.876,0h2.2V7.243h-2.2ZM3.571,5.407V7.243a.734.734,0,0,0,.734.734h2.2a.734.734,0,0,0,.734-.734V5.407h2.2V7.243a.734.734,0,0,0,.734.734h2.2a.734.734,0,0,0,.734-.734V5.407h2.2V7.243a.734.734,0,0,0,.734.734h2.2A.734.734,0,0,0,19,7.243V5.407h4.774v6.978H14.588V10.548a.734.734,0,0,0-.734-.734h-2.2a.734.734,0,0,0-.734.734v1.836h-2.2V10.548a.734.734,0,0,0-.734-.734h-2.2a.734.734,0,0,0-.734.734v1.836H1.734V5.407Zm10.283,5.141v4.407h-2.2V10.548Zm-5.876,0v4.407h-2.2V10.548Zm7.345,12.119h-2.2V18.261h2.2Zm5.876,0H19V18.261h2.2Zm.734-2.571V18.261a.734.734,0,0,0-.734-.734H19a.734.734,0,0,0-.734.734V20.1h-2.2V18.261a.734.734,0,0,0-.734-.734h-2.2a.734.734,0,0,0-.734.734V20.1H1.734V13.119H5.04v1.836a.734.734,0,0,0,.734.734h2.2a.734.734,0,0,0,.734-.734V13.119h2.2v1.836a.734.734,0,0,0,.734.734h2.2a.734.734,0,0,0,.734-.734V13.119h9.181V20.1Z" transform="translate(-1 -1)" fill="#383a65" stroke="#383a65" stroke-width="1.1"/>
    </g>
  </g>
</svg>
