<svg xmlns="http://www.w3.org/2000/svg" width="28.295" height="30.5" viewBox="0 0 28.295 30.5">
  <g id="noun_Category_2680179" transform="translate(-18.825 -314.07)">
    <g id="Group_117117" data-name="Group 117117" transform="translate(19.075 316.32)">
      <path id="Path_183142" data-name="Path 183142" d="M304.5,314.32v8.005h-3.3l-.036,6.508h5.075v-3.465h8.005v8.005h-8.005v-3.125h-5.086l-.066,9.364h6.968v-3.3h8.005v8.005h-8.005v-3.3H299.66l.049-7.178h-3.445v3.295H288.26v-8.005h8.005v3.295h3.456l.064-10.1h-3.291V314.32Zm-9.65,16.23h-5.174v5.174h5.174Zm19.789,7.181h-5.174V342.9h5.174Zm-1.815-10.946H307.65v5.174h5.174Zm-9.74-11.048h-5.174v5.174h5.174Z" transform="translate(-288.26 -316.32)" fill="#383a65" stroke="#383a65" stroke-width="0.5"/>
    </g>
  </g>
</svg>
