<svg xmlns="http://www.w3.org/2000/svg" width="20" height="20" viewBox="0 0 20 20">
  <g id="Group_117222" data-name="Group 117222" transform="translate(-36 -3120)">
    <g id="Group_117221" data-name="Group 117221">
      <rect id="Rectangle_22885" data-name="Rectangle 22885" width="20" height="20" transform="translate(36 3120)" fill="#de2222" opacity="0"/>
      <g id="Group_117212" data-name="Group 117212" transform="translate(-231.999 -58)">
        <path id="Subtraction_19" data-name="Subtraction 19" d="M16.626,15H3.374A3.384,3.384,0,0,1,0,11.626V3.374A3.384,3.384,0,0,1,3.374,0H16.626A3.384,3.384,0,0,1,20,3.374v8.252A3.384,3.384,0,0,1,16.626,15ZM3.374,1.25A2.13,2.13,0,0,0,1.25,3.374v8.252a2.129,2.129,0,0,0,2.124,2.123H16.626a2.129,2.129,0,0,0,2.124-2.123V3.374A2.13,2.13,0,0,0,16.626,1.25ZM10,8.125a2.2,2.2,0,0,1-1.2-.36L2.771,3.64a.625.625,0,1,1,.707-1.03l6.01,4.116a.95.95,0,0,0,1.037-.009l6-4.107a.618.618,0,0,1,.352-.11.625.625,0,0,1,.354,1.141L11.219,7.756A2.247,2.247,0,0,1,10,8.125Z" transform="translate(267.999 3181)" fill="#fff"/>
      </g>
    </g>
  </g>
</svg>
