<svg xmlns="http://www.w3.org/2000/svg" width="28.629" height="28.628" viewBox="0 0 28.629 28.628">
  <g id="_702455" data-name="702455" transform="translate(0.2 0.2)">
    <g id="Group_116259" data-name="Group 116259" transform="translate(0 0)">
      <g id="Group_116258" data-name="Group 116258">
        <path id="Path_182915" data-name="Path 182915" d="M27.577,7.944,14.137.066A.463.463,0,0,0,13.679.06L.24,7.474A.463.463,0,0,0,0,7.88V27.344a.463.463,0,0,0,.463.463H2.781a.463.463,0,0,0,.463-.463V11.124H24.561v16.22a.463.463,0,0,0,.463.463h2.317a.463.463,0,0,0,.463-.463v-19A.462.462,0,0,0,27.577,7.944Zm-.7,18.936h-1.39V10.66a.463.463,0,0,0-.463-.463H2.781a.464.464,0,0,0-.463.463V26.88H.927V8.153L13.9,1,26.879,8.609V26.88Z" transform="translate(0.212 0.21)" fill="#383a65"/>
        <path id="Path_182915_-_Outline" data-name="Path 182915 - Outline" d="M13.9-.2a.655.655,0,0,1,.336.091l13.44,7.878a.665.665,0,0,1,.328.572v19a.664.664,0,0,1-.663.663H25.025a.664.664,0,0,1-.663-.663V11.324H3.444v16.02a.664.664,0,0,1-.663.663H.463A.664.664,0,0,1-.2,27.344V7.88A.662.662,0,0,1,.143,7.3L13.582-.116A.663.663,0,0,1,13.9-.2Zm13.44,27.805a.264.264,0,0,0,.263-.263v-19a.263.263,0,0,0-.13-.227L14.036.238A.269.269,0,0,0,13.9.2a.262.262,0,0,0-.126.033L.336,7.65A.262.262,0,0,0,.2,7.88V27.344a.264.264,0,0,0,.263.263H2.781a.264.264,0,0,0,.263-.263V10.924H24.761v16.42a.264.264,0,0,0,.263.263ZM13.9.768l13.18,7.726V27.08h-1.79V10.66a.264.264,0,0,0-.263-.263H2.781a.264.264,0,0,0-.263.263V27.08H.727V8.035Zm12.78,7.955-12.786-7.5L1.127,8.271V26.68h.99V10.66A.664.664,0,0,1,2.781,10H25.025a.664.664,0,0,1,.663.663V26.68h.99Z" transform="translate(0.212 0.21)" fill="#383a65"/>
        <path id="Path_182915_-_Outline-2" data-name="Path 182915 - Outline" d="M13.964-.148a.678.678,0,0,1,.342.093l13.44,7.878a.676.676,0,0,1,.333.582v19a.676.676,0,0,1-.675.675H25.086a.676.676,0,0,1-.675-.675V11.4H3.517V27.405a.676.676,0,0,1-.675.675H.525a.676.676,0,0,1-.675-.675V7.941A.674.674,0,0,1,.2,7.351L13.638-.064A.674.674,0,0,1,13.964-.148ZM27.4,27.657a.252.252,0,0,0,.252-.252V8.4a.252.252,0,0,0-.124-.217L14.092.31a.256.256,0,0,0-.249,0L.4,7.721a.251.251,0,0,0-.13.22V27.405a.252.252,0,0,0,.252.252H2.842a.252.252,0,0,0,.252-.252V10.974H24.835V27.405a.252.252,0,0,0,.252.252ZM13.961.816,27.152,8.549v18.6H25.338V10.722a.252.252,0,0,0-.252-.252H2.842a.252.252,0,0,0-.252.252V27.153H.777V8.09ZM26.729,8.792,13.954,1.3,1.2,8.34V26.73h.967V10.722a.676.676,0,0,1,.675-.675H25.086a.676.676,0,0,1,.675.675V26.73h.967Z" transform="translate(0.15 0.148)" fill="#383a65"/>
        <path id="Path_182915_-_Outline_-_Outline" data-name="Path 182915 - Outline - Outline" d="M13.964-.348a.879.879,0,0,1,.442.12L27.846,7.65a.877.877,0,0,1,.432.755v19a.876.876,0,0,1-.875.875H25.086a.876.876,0,0,1-.875-.875V11.6H3.717V27.405a.876.876,0,0,1-.875.875H.525a.876.876,0,0,1-.875-.875V7.941A.874.874,0,0,1,.1,7.175L13.542-.239A.874.874,0,0,1,13.964-.348ZM27.4,27.88a.476.476,0,0,0,.475-.475V8.4A.475.475,0,0,0,27.644,8L14.2.117a.483.483,0,0,0-.469-.006L.3,7.526a.474.474,0,0,0-.246.416V27.405a.476.476,0,0,0,.475.475H2.842a.476.476,0,0,0,.475-.475V11.2H24.611V27.405a.476.476,0,0,0,.475.475ZM13.964.076a.454.454,0,0,1,.229.061l13.44,7.879a.453.453,0,0,1,.223.389v19a.452.452,0,0,1-.452.452H25.086a.452.452,0,0,1-.452-.452V11.174H3.294V27.405a.452.452,0,0,1-.452.452H.525a.452.452,0,0,1-.452-.452V7.941a.451.451,0,0,1,.234-.4L13.746.131A.45.45,0,0,1,13.964.076ZM27.4,27.457a.052.052,0,0,0,.052-.052V8.4a.052.052,0,0,0-.025-.044L13.991.482a.059.059,0,0,0-.051,0L.5,7.9a.051.051,0,0,0-.027.045V27.405a.052.052,0,0,0,.052.052H2.842a.052.052,0,0,0,.052-.052V10.774H25.035V27.405a.052.052,0,0,0,.052.052ZM13.964.586,27.352,8.435V27.353H25.138V10.722a.052.052,0,0,0-.052-.052H2.842a.052.052,0,0,0-.052.052V27.353H.577V7.972ZM26.952,8.664,13.958,1.046.977,8.208V26.953H2.39V10.722a.452.452,0,0,1,.452-.452H25.086a.452.452,0,0,1,.452.452V26.953h1.413ZM13.957,1.073l12.971,7.6V26.93H25.561V10.722a.476.476,0,0,0-.475-.475H2.842a.476.476,0,0,0-.475.475V26.93H1V8.222ZM26.529,8.906,13.951,1.533,1.4,8.458V26.53h.567V10.722a.876.876,0,0,1,.875-.875H25.086a.876.876,0,0,1,.875.875V26.53h.567Z" transform="translate(0.15 0.148)" fill="#383a65"/>
      </g>
    </g>
    <g id="Group_116261" data-name="Group 116261" transform="translate(16.147 21.317)">
      <g id="Group_116260" data-name="Group 116260" transform="translate(0 0)">
        <path id="Path_182916" data-name="Path 182916" d="M321.758,392.531H316.2a.463.463,0,0,0-.463.463v5.561a.463.463,0,0,0,.463.463h5.561a.463.463,0,0,0,.463-.463v-5.561A.463.463,0,0,0,321.758,392.531Zm-.463,5.561h-4.634v-4.634H321.3Z" transform="translate(-315.522 -392.319)" fill="#383a65"/>
        <path id="Path_182916_-_Outline" data-name="Path 182916 - Outline" d="M316.2,392.331h5.561a.664.664,0,0,1,.663.663v5.561a.664.664,0,0,1-.663.663H316.2a.664.664,0,0,1-.663-.663v-5.561A.664.664,0,0,1,316.2,392.331Zm5.561,6.488a.264.264,0,0,0,.263-.263v-5.561a.264.264,0,0,0-.263-.263H316.2a.264.264,0,0,0-.263.263v5.561a.264.264,0,0,0,.263.263Zm-5.3-5.561H321.5v5.034h-5.034Zm4.634.4h-4.234v4.234H321.1Z" transform="translate(-315.522 -392.319)" fill="#383a65"/>
        <path id="Path_182916_-_Outline-2" data-name="Path 182916 - Outline" d="M316.259,392.381h5.561a.676.676,0,0,1,.675.675v5.561a.676.676,0,0,1-.675.675h-5.561a.676.676,0,0,1-.675-.675v-5.561A.676.676,0,0,1,316.259,392.381Zm5.561,6.488a.252.252,0,0,0,.252-.252v-5.561a.252.252,0,0,0-.252-.252h-5.561a.252.252,0,0,0-.252.252v5.561a.252.252,0,0,0,.252.252Zm-5.309-5.561h5.057v5.057h-5.057Zm4.634.423h-4.211v4.211h4.211Z" transform="translate(-315.584 -392.381)" fill="#383a65"/>
        <path id="Path_182916_-_Outline_-_Outline" data-name="Path 182916 - Outline - Outline" d="M316.259,392.181h5.561a.876.876,0,0,1,.875.875v5.561a.876.876,0,0,1-.875.875h-5.561a.876.876,0,0,1-.875-.875v-5.561A.876.876,0,0,1,316.259,392.181Zm5.561,6.911a.476.476,0,0,0,.475-.475v-5.561a.475.475,0,0,0-.475-.475h-5.561a.475.475,0,0,0-.475.475v5.561a.476.476,0,0,0,.475.475Zm-5.561-6.488h5.561a.452.452,0,0,1,.452.452v5.561a.452.452,0,0,1-.452.452h-5.561a.452.452,0,0,1-.452-.452v-5.561A.452.452,0,0,1,316.259,392.6Zm5.561,6.065a.052.052,0,0,0,.052-.052v-5.561a.052.052,0,0,0-.052-.052h-5.561a.052.052,0,0,0-.052.052v5.561a.052.052,0,0,0,.052.052Zm-5.509-5.561h5.457v5.457h-5.457Zm5.057.4h-4.657v4.657h4.657Zm-4.634.023h4.611v4.611h-4.611Zm4.211.4h-3.811v3.811h3.811Z" transform="translate(-315.584 -392.381)" fill="#383a65"/>
      </g>
    </g>
    <g id="Group_116263" data-name="Group 116263" transform="translate(19 21.781)">
      <g id="Group_116262" data-name="Group 116262" transform="translate(0 0)">
        <path id="Path_182917" data-name="Path 182917" d="M351.72,401.064v1.39h-.927v-1.39h-.927v1.854a.463.463,0,0,0,.463.463h1.854a.463.463,0,0,0,.463-.463v-1.854Z" transform="translate(-349.654 -400.852)" fill="#383a65"/>
        <path id="Path_182917_-_Outline" data-name="Path 182917 - Outline" d="M349.666,400.864h1.327v1.39h.527v-1.39h1.327v2.054a.664.664,0,0,1-.663.663h-1.854a.664.664,0,0,1-.663-.663Zm.927.4h-.527v1.654a.264.264,0,0,0,.263.263h1.854a.264.264,0,0,0,.263-.263v-1.654h-.527v1.39h-1.327Z" transform="translate(-349.654 -400.852)" fill="#383a65"/>
        <path id="Path_182917_-_Outline-2" data-name="Path 182917 - Outline" d="M349.716,400.914h1.35v1.39h.5v-1.39h1.35v2.065a.676.676,0,0,1-.675.675h-1.854a.676.676,0,0,1-.675-.675Zm.927.423h-.5v1.642a.252.252,0,0,0,.252.252h1.854a.252.252,0,0,0,.252-.252v-1.642h-.5v1.39h-1.35Z" transform="translate(-349.716 -400.914)" fill="#383a65"/>
      </g>
    </g>
    <g id="Group_116265" data-name="Group 116265" transform="translate(10.586 21.317)">
      <g id="Group_116264" data-name="Group 116264" transform="translate(0 0)">
        <path id="Path_182918" data-name="Path 182918" d="M219.359,392.531H213.8a.463.463,0,0,0-.463.463v5.561a.463.463,0,0,0,.463.463h5.561a.463.463,0,0,0,.463-.463v-5.561A.463.463,0,0,0,219.359,392.531Zm-.464,5.561h-4.634v-4.634H218.9Z" transform="translate(-213.122 -392.319)" fill="#383a65"/>
        <path id="Path_182918_-_Outline" data-name="Path 182918 - Outline" d="M213.8,392.331h5.561a.664.664,0,0,1,.663.663v5.561a.664.664,0,0,1-.663.663H213.8a.664.664,0,0,1-.663-.663v-5.561A.664.664,0,0,1,213.8,392.331Zm5.561,6.488a.264.264,0,0,0,.263-.263v-5.561a.264.264,0,0,0-.263-.263H213.8a.264.264,0,0,0-.263.263v5.561a.264.264,0,0,0,.263.263Zm-5.3-5.561H219.1v5.034h-5.034Zm4.634.4h-4.234v4.234H218.7Z" transform="translate(-213.122 -392.319)" fill="#383a65"/>
        <path id="Path_182918_-_Outline-2" data-name="Path 182918 - Outline" d="M213.859,392.381h5.561a.676.676,0,0,1,.675.675v5.561a.676.676,0,0,1-.675.675h-5.561a.676.676,0,0,1-.675-.675v-5.561A.676.676,0,0,1,213.859,392.381Zm5.561,6.488a.252.252,0,0,0,.252-.252v-5.561a.252.252,0,0,0-.252-.252h-5.561a.252.252,0,0,0-.252.252v5.561a.252.252,0,0,0,.252.252Zm-5.309-5.561h5.057v5.057h-5.057Zm4.634.423h-4.211v4.211h4.211Z" transform="translate(-213.184 -392.381)" fill="#383a65"/>
        <path id="Path_182918_-_Outline_-_Outline" data-name="Path 182918 - Outline - Outline" d="M213.859,392.181h5.561a.876.876,0,0,1,.875.875v5.561a.876.876,0,0,1-.875.875h-5.561a.876.876,0,0,1-.875-.875v-5.561A.876.876,0,0,1,213.859,392.181Zm5.561,6.911a.476.476,0,0,0,.475-.475v-5.561a.475.475,0,0,0-.475-.475h-5.561a.475.475,0,0,0-.475.475v5.561a.476.476,0,0,0,.475.475Zm-5.561-6.488h5.561a.452.452,0,0,1,.452.452v5.561a.452.452,0,0,1-.452.452h-5.561a.452.452,0,0,1-.452-.452v-5.561A.452.452,0,0,1,213.859,392.6Zm5.561,6.065a.052.052,0,0,0,.052-.052v-5.561a.052.052,0,0,0-.052-.052h-5.561a.053.053,0,0,0-.052.052v5.561a.052.052,0,0,0,.052.052Zm-5.509-5.561h5.457v5.457h-5.457Zm5.057.4h-4.657v4.657h4.657Zm-4.634.023h4.611v4.611h-4.611Zm4.211.4h-3.811v3.811h3.811Z" transform="translate(-213.184 -392.381)" fill="#383a65"/>
      </g>
    </g>
    <g id="Group_116267" data-name="Group 116267" transform="translate(13.439 21.781)">
      <g id="Group_116266" data-name="Group 116266" transform="translate(0 0)">
        <path id="Path_182919" data-name="Path 182919" d="M249.32,401.064v1.39h-.927v-1.39h-.927v1.854a.463.463,0,0,0,.463.463h1.854a.463.463,0,0,0,.463-.463v-1.854Z" transform="translate(-247.254 -400.852)" fill="#383a65"/>
        <path id="Path_182919_-_Outline" data-name="Path 182919 - Outline" d="M247.266,400.864h1.327v1.39h.527v-1.39h1.327v2.054a.664.664,0,0,1-.663.663h-1.854a.664.664,0,0,1-.663-.663Zm.927.4h-.527v1.654a.264.264,0,0,0,.263.263h1.854a.264.264,0,0,0,.263-.263v-1.654h-.527v1.39h-1.327Z" transform="translate(-247.254 -400.852)" fill="#383a65"/>
        <path id="Path_182919_-_Outline-2" data-name="Path 182919 - Outline" d="M247.316,400.914h1.35v1.39h.5v-1.39h1.35v2.065a.676.676,0,0,1-.675.675h-1.854a.676.676,0,0,1-.675-.675Zm.927.423h-.5v1.642a.252.252,0,0,0,.252.252h1.854a.252.252,0,0,0,.252-.252v-1.642h-.5v1.39h-1.35Z" transform="translate(-247.316 -400.914)" fill="#383a65"/>
      </g>
    </g>
    <g id="Group_116269" data-name="Group 116269" transform="translate(16.147 15.756)">
      <g id="Group_116268" data-name="Group 116268" transform="translate(0 0)">
        <path id="Path_182920" data-name="Path 182920" d="M321.758,290.131H316.2a.463.463,0,0,0-.463.463v5.561a.463.463,0,0,0,.463.463h5.561a.463.463,0,0,0,.463-.463v-5.561A.463.463,0,0,0,321.758,290.131Zm-.463,5.561h-4.634v-4.634H321.3Z" transform="translate(-315.522 -289.919)" fill="#383a65"/>
        <path id="Path_182920_-_Outline" data-name="Path 182920 - Outline" d="M316.2,289.931h5.561a.664.664,0,0,1,.663.663v5.561a.664.664,0,0,1-.663.663H316.2a.664.664,0,0,1-.663-.663v-5.561A.664.664,0,0,1,316.2,289.931Zm5.561,6.488a.264.264,0,0,0,.263-.263v-5.561a.264.264,0,0,0-.263-.263H316.2a.264.264,0,0,0-.263.263v5.561a.264.264,0,0,0,.263.263Zm-5.3-5.561H321.5v5.034h-5.034Zm4.634.4h-4.234v4.234H321.1Z" transform="translate(-315.522 -289.919)" fill="#383a65"/>
        <path id="Path_182920_-_Outline-2" data-name="Path 182920 - Outline" d="M316.259,289.981h5.561a.676.676,0,0,1,.675.675v5.561a.676.676,0,0,1-.675.675h-5.561a.676.676,0,0,1-.675-.675v-5.561A.676.676,0,0,1,316.259,289.981Zm5.561,6.488a.252.252,0,0,0,.252-.252v-5.561a.252.252,0,0,0-.252-.252h-5.561a.252.252,0,0,0-.252.252v5.561a.252.252,0,0,0,.252.252Zm-5.309-5.561h5.057v5.057h-5.057Zm4.634.423h-4.211v4.211h4.211Z" transform="translate(-315.584 -289.981)" fill="#383a65"/>
        <path id="Path_182920_-_Outline_-_Outline" data-name="Path 182920 - Outline - Outline" d="M316.259,289.781h5.561a.876.876,0,0,1,.875.875v5.561a.876.876,0,0,1-.875.875h-5.561a.876.876,0,0,1-.875-.875v-5.561A.876.876,0,0,1,316.259,289.781Zm5.561,6.911a.476.476,0,0,0,.475-.475v-5.561a.476.476,0,0,0-.475-.475h-5.561a.476.476,0,0,0-.475.475v5.561a.476.476,0,0,0,.475.475Zm-5.561-6.488h5.561a.452.452,0,0,1,.452.452v5.561a.452.452,0,0,1-.452.452h-5.561a.452.452,0,0,1-.452-.452v-5.561A.452.452,0,0,1,316.259,290.2Zm5.561,6.065a.052.052,0,0,0,.052-.052v-5.561a.052.052,0,0,0-.052-.052h-5.561a.052.052,0,0,0-.052.052v5.561a.052.052,0,0,0,.052.052Zm-5.509-5.561h5.457v5.457h-5.457Zm5.057.4h-4.657v4.657h4.657Zm-4.634.023h4.611v4.611h-4.611Zm4.211.4h-3.811v3.811h3.811Z" transform="translate(-315.584 -289.981)" fill="#383a65"/>
      </g>
    </g>
    <g id="Group_116271" data-name="Group 116271" transform="translate(19 16.22)">
      <g id="Group_116270" data-name="Group 116270" transform="translate(0 0)">
        <path id="Path_182921" data-name="Path 182921" d="M351.72,298.664v1.39h-.927v-1.39h-.927v1.854a.463.463,0,0,0,.463.463h1.854a.463.463,0,0,0,.463-.463v-1.854Z" transform="translate(-349.654 -298.452)" fill="#383a65"/>
        <path id="Path_182921_-_Outline" data-name="Path 182921 - Outline" d="M349.666,298.464h1.327v1.39h.527v-1.39h1.327v2.054a.664.664,0,0,1-.663.663h-1.854a.664.664,0,0,1-.663-.663Zm.927.4h-.527v1.654a.264.264,0,0,0,.263.263h1.854a.264.264,0,0,0,.263-.263v-1.654h-.527v1.39h-1.327Z" transform="translate(-349.654 -298.452)" fill="#383a65"/>
        <path id="Path_182921_-_Outline-2" data-name="Path 182921 - Outline" d="M349.716,298.514h1.35v1.39h.5v-1.39h1.35v2.065a.676.676,0,0,1-.675.675h-1.854a.676.676,0,0,1-.675-.675Zm.927.423h-.5v1.642a.252.252,0,0,0,.252.252h1.854a.252.252,0,0,0,.252-.252v-1.642h-.5v1.39h-1.35Z" transform="translate(-349.716 -298.514)" fill="#383a65"/>
      </g>
    </g>
    <g id="Group_116273" data-name="Group 116273" transform="translate(2.781 12.903)">
      <g id="Group_116272" data-name="Group 116272" transform="translate(0 0)">
        <rect id="Rectangle_22289" data-name="Rectangle 22289" width="22.244" height="0.927" transform="translate(0.212 0.212)" fill="#383a65"/>
        <path id="Rectangle_22289_-_Outline" data-name="Rectangle 22289 - Outline" d="M-.2-.2H22.444V1.127H-.2ZM22.044.2H.2V.727H22.044Z" transform="translate(0.212 0.212)" fill="#383a65"/>
        <path id="Rectangle_22289_-_Outline-2" data-name="Rectangle 22289 - Outline" d="M-.15-.15H22.517V1.2H-.15ZM22.094.273H.273v.5H22.094Z" transform="translate(0.15 0.15)" fill="#383a65"/>
        <path id="Rectangle_22289_-_Outline_-_Outline" data-name="Rectangle 22289 - Outline - Outline" d="M-.35-.35H22.717V1.4H-.35Zm22.667.4H.05V1H22.317ZM.073.073H22.294v.9H.073Zm21.821.4H.473v.1H21.894Z" transform="translate(0.15 0.15)" fill="#383a65"/>
      </g>
    </g>
    <g id="Group_116277" data-name="Group 116277" transform="translate(11.122 5.488)">
      <g id="Group_116276" data-name="Group 116276" transform="translate(0 0)">
        <path id="Path_182922" data-name="Path 182922" d="M209.9,119.464h-4.634a.464.464,0,0,0-.463.463v1.854a.464.464,0,0,0,.463.463H209.9a.463.463,0,0,0,.463-.463v-1.854A.463.463,0,0,0,209.9,119.464Zm-.463,1.854h-3.707v-.927h3.707Z" transform="translate(-204.589 -119.252)" fill="#383a65"/>
        <path id="Path_182922_-_Outline" data-name="Path 182922 - Outline" d="M205.264,119.264H209.9a.664.664,0,0,1,.663.663v1.854a.664.664,0,0,1-.663.663h-4.634a.664.664,0,0,1-.663-.663v-1.854A.664.664,0,0,1,205.264,119.264Zm4.634,2.78a.264.264,0,0,0,.263-.263v-1.854a.264.264,0,0,0-.263-.263h-4.634a.264.264,0,0,0-.263.263v1.854a.264.264,0,0,0,.263.263Zm-4.371-1.854h4.107v1.327h-4.107Zm3.707.4h-3.307v.527h3.307Z" transform="translate(-204.589 -119.252)" fill="#383a65"/>
        <path id="Path_182922_-_Outline-2" data-name="Path 182922 - Outline" d="M205.326,119.314h4.634a.676.676,0,0,1,.675.675v1.854a.676.676,0,0,1-.675.675h-4.634a.676.676,0,0,1-.675-.675v-1.854A.676.676,0,0,1,205.326,119.314Zm4.634,2.781a.252.252,0,0,0,.252-.252v-1.854a.252.252,0,0,0-.252-.252h-4.634a.252.252,0,0,0-.252.252v1.854a.252.252,0,0,0,.252.252Zm-4.382-1.854h4.13v1.35h-4.13Zm3.707.423H206v.5h3.284Z" transform="translate(-204.651 -119.314)" fill="#383a65"/>
      </g>
    </g>
  </g>
</svg>
