<svg xmlns="http://www.w3.org/2000/svg" width="27" height="27" viewBox="0 0 27 27">
  <g id="Putaway_383a65_" data-name="Putaway_383a65 " transform="translate(-629 -534)">
    <circle id="Ellipse_40727" data-name="Ellipse 40727" cx="13.5" cy="13.5" r="13.5" transform="translate(629 534)" fill="#f3f5f8"/>
    <g id="Picking_383a65_" data-name="Picking_383a65 " transform="translate(-183.03 -2.628)">
      <g id="noun_pick_4098873" transform="translate(816.958 542.85)">
        <path id="Path_182936" data-name="Path 182936" d="M18.123,12.14a.82.82,0,0,0-.337-.513,6.25,6.25,0,0,0-.418-1.393.58.58,0,0,0-.381-.329h0c-1.288-.35-2.6-.666-3.9-.94C11.4,8.33,9.677,7.739,7.959,7.2a.64.64,0,0,0-.245-.813L5.731,5.151a.646.646,0,0,0-.889.207L2.1,9.764a.646.646,0,0,0,.207.89l.86.535h0l1.123.7a.628.628,0,0,0,.847-.161,7.564,7.564,0,0,0,2.511,3.439c2.01,1.344,4.015,2.756,5.958,4.2a.211.211,0,0,0,.126.042.214.214,0,0,0,.1-.027,1.411,1.411,0,0,0,.542-1.918,1.452,1.452,0,0,0-.1-.148,7.014,7.014,0,0,0-2.1-1.892,1,1,0,0,1,.369-1.848,3.786,3.786,0,0,1,1.041,0,2.783,2.783,0,0,1,2.3,2.113l.119.51a2.551,2.551,0,0,0,1.87,1.9.474.474,0,0,0,.578-.566c-.041-.184-.086-.367-.128-.551a.481.481,0,0,0,.132.019.475.475,0,0,0,.467-.559C18.674,15.022,18.4,13.574,18.123,12.14ZM4.679,11.557a.226.226,0,0,1-.168-.028l-.943-.587.344-.553a.212.212,0,1,0-.359-.224l-.344.553-.68-.424a.222.222,0,0,1-.071-.306L5.2,5.582a.222.222,0,0,1,.138-.1.237.237,0,0,1,.051-.006.223.223,0,0,1,.117.033h0L7.49,6.746a.222.222,0,0,1,.071.306L4.818,11.458A.222.222,0,0,1,4.679,11.557Zm13.769,5.02a2.094,2.094,0,0,1-.232-.09c-.232-1.014-.464-2.029-.706-3.04a1.268,1.268,0,0,0-.479-.724c-.785-.579-1.6-1.128-2.434-1.631a.212.212,0,0,0-.22.362c.819.5,1.627,1.039,2.4,1.61a.846.846,0,0,1,.319.481c.325,1.359.641,2.72.948,4.106a.05.05,0,0,1-.062.038A2.127,2.127,0,0,1,16.424,16.1l-.119-.51a3.21,3.21,0,0,0-2.657-2.436,4.167,4.167,0,0,0-1.159,0,1.421,1.421,0,0,0-.526,2.633,6.591,6.591,0,0,1,1.975,1.779,1.035,1.035,0,0,1,.067.1.987.987,0,0,1-.268,1.269c-1.912-1.415-3.881-2.8-5.845-4.113a7.135,7.135,0,0,1-2.464-3.544L7.736,7.572c1.748.547,3.5,1.149,5.215,1.794.006,0,.011,0,.017,0s.009,0,.014.006c1.3.273,2.608.589,3.894.938h0a.16.16,0,0,1,.1.09,5.828,5.828,0,0,1,.3.9,13.633,13.633,0,0,0-1.593-.825.212.212,0,0,0-.17.388,13.2,13.2,0,0,1,2.023,1.1.393.393,0,0,1,.168.252c.279,1.432.55,2.878.806,4.321A.06.06,0,0,1,18.449,16.578Z" transform="translate(-1.897 -4.951)" fill="#383a65" stroke="#383a65" stroke-width="0.1"/>
        <path id="Path_182936_-_Outline" data-name="Path 182936 - Outline" d="M5.344,4.9a.745.745,0,0,1,.394.113L7.721,6.252a.745.745,0,0,1,.333.466.733.733,0,0,1-.01.369c1.722.543,3.411,1.125,5.022,1.732,1.308.276,2.62.593,3.9.94l.016,0a.682.682,0,0,1,.433.383,6.348,6.348,0,0,1,.418,1.375.926.926,0,0,1,.344.552c.279,1.435.551,2.883.808,4.305a.577.577,0,0,1-.567.68l.027.117c.023.1.045.193.067.29a.577.577,0,0,1-.7.688,2.653,2.653,0,0,1-1.946-1.981l-.119-.51a2.68,2.68,0,0,0-2.219-2.034,3.7,3.7,0,0,0-1.013,0,.9.9,0,0,0-.331,1.659,7.115,7.115,0,0,1,2.131,1.92,1.545,1.545,0,0,1,.1.159,1.514,1.514,0,0,1-.582,2.058.32.32,0,0,1-.341-.022c-1.937-1.437-3.94-2.848-5.954-4.194l-.006,0A7.7,7.7,0,0,1,5.048,11.87a.7.7,0,0,1-.3.152.745.745,0,0,1-.565-.094L2.2,10.694a.749.749,0,0,1-.24-1.031L4.707,5.256A.753.753,0,0,1,5.344,4.9ZM16.9,9.952c-1.274-.345-2.58-.66-3.882-.935l-.015,0C11.36,8.395,9.637,7.8,7.88,7.25L7.77,7.215l.048-.105a.538.538,0,0,0-.206-.684L5.629,5.191a.544.544,0,0,0-.748.174L2.137,9.771a.544.544,0,0,0,.174.749l1.983,1.234a.535.535,0,0,0,.284.083.545.545,0,0,0,.126-.014.534.534,0,0,0,.3-.2l.114-.149.064.176a7.5,7.5,0,0,0,2.474,3.391c2.015,1.347,4.02,2.76,5.959,4.2a.111.111,0,0,0,.119.007,1.309,1.309,0,0,0,.5-1.778,1.34,1.34,0,0,0-.089-.138,6.911,6.911,0,0,0-2.07-1.865,1.1,1.1,0,0,1,.407-2.038,3.907,3.907,0,0,1,1.07,0,2.886,2.886,0,0,1,2.39,2.191l.119.51a2.449,2.449,0,0,0,1.8,1.828.372.372,0,0,0,.453-.444c-.022-.1-.044-.192-.067-.288s-.041-.175-.061-.263l-.038-.169.166.047a.372.372,0,0,0,.47-.423c-.257-1.421-.528-2.868-.807-4.3a.719.719,0,0,0-.294-.448l-.035-.024-.008-.042a6.158,6.158,0,0,0-.411-1.37.478.478,0,0,0-.314-.271ZM5.343,5.327a.324.324,0,0,1,.144.034h0L5.5,5.37l.01.006.049.031L7.5,6.611a.325.325,0,0,1,.1.447L4.857,11.465a.324.324,0,0,1-.2.145.344.344,0,0,1-.073.008.324.324,0,0,1-.172-.049l-1.03-.641.4-.64a.11.11,0,0,0-.035-.151.108.108,0,0,0-.057-.016.109.109,0,0,0-.093.052l-.4.64-.767-.478a.325.325,0,0,1-.1-.447L5.067,5.48a.324.324,0,0,1,.2-.144A.343.343,0,0,1,5.343,5.327Zm.015.206a.124.124,0,0,0-.043,0,.119.119,0,0,0-.073.053L2.5,10a.12.12,0,0,0,.038.164l.594.37.29-.466a.314.314,0,1,1,.533.333l-.29.466.856.533a.124.124,0,0,0,.092.015.119.119,0,0,0,.073-.053L7.427,6.95a.12.12,0,0,0-.038-.164L5.43,5.566H5.357ZM7.644,7.4l.076.024c1.77.554,3.524,1.157,5.211,1.793l.018,0,.018.007c1.286.271,2.591.585,3.879.934h0l.01,0a.262.262,0,0,1,.172.149,5.854,5.854,0,0,1,.3.915l.062.242-.214-.129a13.558,13.558,0,0,0-1.581-.819.106.106,0,0,0-.043-.009.11.11,0,0,0-.1.066.109.109,0,0,0,.056.143,13.3,13.3,0,0,1,2.039,1.112.5.5,0,0,1,.212.318c.3,1.544.564,2.958.806,4.323l0,.023-.006.023a.162.162,0,0,1-.154.11.142.142,0,0,1-.033,0h-.005a2.09,2.09,0,0,1-.234-.09l-.057-.025-.017-.074c-.226-.989-.46-2.013-.7-3.016a1.166,1.166,0,0,0-.44-.665c-.786-.579-1.6-1.126-2.426-1.626a.109.109,0,0,0-.113.187c.82.5,1.631,1.041,2.41,1.615a.949.949,0,0,1,.358.54c.346,1.448.657,2.792.948,4.108l.005.024-.006.024a.154.154,0,0,1-.148.117.152.152,0,0,1-.041-.006,2.229,2.229,0,0,1-1.634-1.665l-.119-.51a3.107,3.107,0,0,0-2.572-2.358,4.083,4.083,0,0,0-1.13,0,1.318,1.318,0,0,0-.489,2.443,6.693,6.693,0,0,1,2.005,1.806,1.142,1.142,0,0,1,.074.115,1.092,1.092,0,0,1-.3,1.4l-.061.046-.061-.045c-1.914-1.417-3.88-2.8-5.841-4.111l-.006,0a7.243,7.243,0,0,1-2.5-3.595l-.014-.045Zm5.247,2.018a.127.127,0,0,1-.024-.007C11.2,8.788,9.478,8.193,7.734,7.646l-2.241,3.6A7.037,7.037,0,0,0,7.9,14.693c1.941,1.3,3.886,2.665,5.782,4.067a.887.887,0,0,0,.181-1.089.933.933,0,0,0-.061-.094,6.489,6.489,0,0,0-1.944-1.751A1.523,1.523,0,0,1,12.428,13a4.289,4.289,0,0,1,1.187,0,3.314,3.314,0,0,1,2.742,2.514l.119.51a2.024,2.024,0,0,0,1.4,1.489c-.284-1.281-.587-2.589-.924-4a.743.743,0,0,0-.28-.423c-.774-.571-1.58-1.11-2.395-1.6a.314.314,0,0,1,.326-.538c.83.5,1.651,1.054,2.442,1.637a1.371,1.371,0,0,1,.518.782c.238,1,.47,2.009.694,2.991l.087.036c-.236-1.33-.493-2.708-.786-4.209a.29.29,0,0,0-.124-.186,13.1,13.1,0,0,0-2.007-1.1.314.314,0,0,1,.127-.6h0a.31.31,0,0,1,.125.026,13.758,13.758,0,0,1,1.387.7,5.139,5.139,0,0,0-.227-.641.057.057,0,0,0-.033-.031l-.007,0c-1.289-.349-2.6-.664-3.886-.936Z" transform="translate(-1.85 -4.903)" fill="#383a65" stroke="#383a65" stroke-width="0.1"/>
      </g>
    </g>
  </g>
</svg>
