<svg xmlns="http://www.w3.org/2000/svg" width="20.3" height="20.3" viewBox="0 0 20.3 20.3">
  <g id="Group_117236" data-name="Group 117236" transform="translate(-36.85 -3308.85)">
    <rect id="Rectangle_22886" data-name="Rectangle 22886" width="20" height="20" transform="translate(37 3309)" fill="#fff" opacity="0"/>
    <g id="noun_Forklift_3493358" transform="translate(33 3305)">
      <g id="Group_116652" data-name="Group 116652" transform="translate(4 4)">
        <path id="Path_183364" data-name="Path 183364" d="M23,16V10H17V4H16V17.5H15v-.091L11.859,9.033,6.5,8.5h-1v7H5a1,1,0,0,0-1,1V22a2,2,0,0,0,3.929.5h6.283A2.5,2.5,0,1,0,17,19.05V17h7V16ZM6.5,9.5l4.641.465L13.966,17.5H11.651l-3-2H6.5ZM6,23a1,1,0,1,1,1-1A1,1,0,0,1,6,23Zm8-1.5H7.929A1.976,1.976,0,0,0,5,20.278V16.5H8.348l3,2H16v.551A2.5,2.5,0,0,0,14,21.5Zm4,0A1.5,1.5,0,1,1,16.5,20,1.5,1.5,0,0,1,18,21.5ZM17,16V11h2v1.5h1V11h2v5Z" transform="translate(-4 -4)" fill="#fff" stroke="#fff" stroke-width="0.3"/>
      </g>
    </g>
  </g>
</svg>
