<svg xmlns="http://www.w3.org/2000/svg" width="23.372" height="29.327" viewBox="0 0 23.372 29.327">
  <g id="Group_117019" data-name="Group 117019" transform="translate(-24.918 -122.672)">
    <path id="bell" d="M75.618,22.782a4.448,4.448,0,0,1-1.352-1.84C73.1,18.476,72.858,15,72.858,12.526c0-.011,0-.021,0-.032a8.122,8.122,0,0,0-4.781-7.367V3.189A3.19,3.19,0,0,0,64.892,0h-.264a3.19,3.19,0,0,0-3.184,3.189V5.127a8.123,8.123,0,0,0-4.782,7.4c0,2.479-.244,5.951-1.409,8.415a4.448,4.448,0,0,1-1.352,1.84.815.815,0,0,0-.448.927.853.853,0,0,0,.841.655h6.147a4.318,4.318,0,0,0,8.635,0h6.147a.853.853,0,0,0,.841-.655A.815.815,0,0,0,75.618,22.782ZM63.122,3.189A1.509,1.509,0,0,1,64.628,1.68h.264A1.509,1.509,0,0,1,66.4,3.189V4.582a8.123,8.123,0,0,0-3.277,0V3.189ZM64.76,26.947a2.647,2.647,0,0,1-2.64-2.582H67.4A2.647,2.647,0,0,1,64.76,26.947Zm3.377-4.263H56.206a8.8,8.8,0,0,0,.44-.771c1.124-2.217,1.694-5.375,1.694-9.387a6.42,6.42,0,1,1,12.84,0c0,.01,0,.021,0,.031,0,4,.573,7.143,1.694,9.353a8.8,8.8,0,0,0,.44.771Z" transform="translate(-28.156 123.021)" fill="#383a65" stroke="#383a65" stroke-width="0.7"/>
  </g>
</svg>
