<svg xmlns="http://www.w3.org/2000/svg" width="27" height="27" viewBox="0 0 27 27">
  <g id="Group_117133" data-name="Group 117133" transform="translate(-311 -1741)">
    <circle id="Ellipse_40831" data-name="Ellipse 40831" cx="13.5" cy="13.5" r="13.5" transform="translate(311 1741)" fill="#f3f5f8"/>
    <g id="monitoring" transform="translate(312.635 1742.301)">
      <g id="Layer_2" data-name="Layer 2" transform="translate(2 6)">
        <path id="Path_183146" data-name="Path 183146" d="M2.62,14.679a.62.62,0,0,0,.62-.62v-.62H4.48v.62a1.86,1.86,0,0,0,1.86,1.86H11.3v1.24H7.579a.62.62,0,0,0,0,1.24h8.679a.62.62,0,0,0,0-1.24H12.538v-1.24H17.5a1.86,1.86,0,0,0,1.86-1.86V7.86A1.86,1.86,0,0,0,17.5,6H6.339A1.86,1.86,0,0,0,4.48,7.86V12.2H3.24v-.62a.62.62,0,0,0-1.24,0v2.48A.62.62,0,0,0,2.62,14.679Zm3.1-6.819a.62.62,0,0,1,.62-.62H17.5a.62.62,0,0,1,.62.62v6.2a.62.62,0,0,1-.62.62H6.339a.62.62,0,0,1-.62-.62v-.62h1.24a.62.62,0,0,0,.552-.341L9,10.122l2.43,3.1a.62.62,0,0,0,.49.217h0a.62.62,0,0,0,.49-.273l1.24-1.86a.62.62,0,0,0-1.029-.688l-.744,1.147L9.4,8.585A.643.643,0,0,0,8.329,8.7L6.575,12.2H5.719Z" transform="translate(-2 -6)" fill="#383a65" stroke="#f3f5f8" stroke-width="0.3"/>
      </g>
    </g>
  </g>
</svg>
