<svg xmlns="http://www.w3.org/2000/svg" width="35.5" height="26.5" viewBox="0 0 35.5 26.5">
  <g id="Icon_feather-eye" data-name="Icon feather-eye" transform="translate(-0.25 -4.75)">
    <path id="Path_182969" data-name="Path 182969" d="M18,4.75a15.631,15.631,0,0,1,7.612,2.031A22.508,22.508,0,0,1,31.1,11.145a29.523,29.523,0,0,1,4.519,6.3,1.25,1.25,0,0,1,0,1.118,29.523,29.523,0,0,1-4.519,6.3,22.509,22.509,0,0,1-5.488,4.365A15.631,15.631,0,0,1,18,31.25a15.631,15.631,0,0,1-7.612-2.031A22.509,22.509,0,0,1,4.9,24.855a29.523,29.523,0,0,1-4.519-6.3,1.25,1.25,0,0,1,0-1.118,29.523,29.523,0,0,1,4.519-6.3,22.508,22.508,0,0,1,5.488-4.365A15.631,15.631,0,0,1,18,4.75ZM33.076,18a28.352,28.352,0,0,0-3.845-5.192C25.756,9.12,21.977,7.25,18,7.25,9.636,7.25,4.228,15.719,2.924,18a28.352,28.352,0,0,0,3.845,5.192C10.244,26.88,14.023,28.75,18,28.75,26.364,28.75,31.772,20.281,33.076,18Z" fill="#383a65"/>
    <path id="Path_182970" data-name="Path 182970" d="M18,12.25A5.75,5.75,0,1,1,12.25,18,5.757,5.757,0,0,1,18,12.25Zm0,9A3.25,3.25,0,1,0,14.75,18,3.254,3.254,0,0,0,18,21.25Z" fill="#383a65"/>
  </g>
</svg>
