<svg xmlns="http://www.w3.org/2000/svg" width="30.9" height="28.272" viewBox="0 0 30.9 28.272">
  <g id="Group_117095" data-name="Group 117095" transform="translate(-2.376 -6.44)">
    <g id="Group_117094" data-name="Group 117094" transform="translate(2.426 6.503)">
      <path id="Path_183126" data-name="Path 183126" d="M26.421,66.893H11.275v1.622A3.56,3.56,0,1,1,5.741,64.98L4.719,63.528h0a5.328,5.328,0,1,0,8.316,5.257H26.349a1.773,1.773,0,1,0,.072-1.892Z" transform="translate(-2.426 -45.054)" fill="#383a65" stroke="#383a65" stroke-width="0.1"/>
      <path id="Path_183127" data-name="Path 183127" d="M13.659,28.607A1.778,1.778,0,0,1,15.3,27.495l6.678-11.566h0a5.323,5.323,0,1,1,8.694-4.565h0l-1.767.155a3.547,3.547,0,1,0-5.412,3.318l.976.564L16.9,28.5h0a1.81,1.81,0,1,1-3.244.106Z" transform="translate(-9.91 -6.503)" fill="#383a65" stroke="#383a65" stroke-width="0.1"/>
      <path id="Path_183128" data-name="Path 183128" d="M46.182,21.007l7.487,12.969.892-.515.015.026.022-.013a3.513,3.513,0,1,1,.232,6.235l-.755,1.6h0a5.3,5.3,0,1,0,.4-9.719h0L47.835,20.082a1.774,1.774,0,1,0-1.654.924Z" transform="translate(-30.879 -13.928)" fill="#383a65" stroke="#383a65" stroke-width="0.1"/>
    </g>
  </g>
</svg>
