<svg xmlns="http://www.w3.org/2000/svg" width="27" height="27" viewBox="0 0 27 27">
  <g id="Cycle_Count_383a65_" data-name="Cycle_Count_383a65 " transform="translate(-1184 -534)">
    <circle id="Ellipse_40727" data-name="Ellipse 40727" cx="13.5" cy="13.5" r="13.5" transform="translate(1184 534)" fill="#f3f5f8"/>
    <g id="noun_counting_3443682" transform="translate(1191.083 541.083)">
      <g id="Group_116278" data-name="Group 116278" transform="translate(0 0)">
        <path id="Path_182937" data-name="Path 182937" d="M13.634,1a.2.2,0,0,0-.2.2v1.8H10.826V2a.4.4,0,0,0-.4-.4h-1.2a.4.4,0,0,0-.4.4v1h-1.2V2a.4.4,0,0,0-.4-.4h-1.2a.4.4,0,0,0-.4.4v1h-1.2V2a.4.4,0,0,0-.4-.4H2.8a.4.4,0,0,0-.4.4v1h-1V1.2a.2.2,0,1,0-.4,0V13.634a.2.2,0,1,0,.4,0v-1.8H7.217v1a.4.4,0,0,0,.4.4h1.2a.4.4,0,0,0,.4-.4v-1h1.2v1a.4.4,0,0,0,.4.4h1.2a.4.4,0,0,0,.4-.4v-1h1v1.8a.2.2,0,1,0,.4,0V1.2A.2.2,0,0,0,13.634,1ZM9.222,2h1.2V4.409h-1.2ZM6.014,2h1.2V4.409h-1.2ZM2.8,2h1.2V4.409H2.8Zm-.4,1.4v1a.4.4,0,0,0,.4.4h1.2a.4.4,0,0,0,.4-.4v-1h1.2v1a.4.4,0,0,0,.4.4h1.2a.4.4,0,0,0,.4-.4v-1h1.2v1a.4.4,0,0,0,.4.4h1.2a.4.4,0,0,0,.4-.4v-1h2.607v3.81H8.42v-1a.4.4,0,0,0-.4-.4h-1.2a.4.4,0,0,0-.4.4v1h-1.2v-1a.4.4,0,0,0-.4-.4h-1.2a.4.4,0,0,0-.4.4v1H1.4V3.406ZM8.019,6.214V8.621h-1.2V6.214Zm-3.209,0V8.621h-1.2V6.214Zm4.011,6.618h-1.2V10.425h1.2Zm3.209,0h-1.2V10.425h1.2Zm.4-1.4v-1a.4.4,0,0,0-.4-.4h-1.2a.4.4,0,0,0-.4.4v1h-1.2v-1a.4.4,0,0,0-.4-.4h-1.2a.4.4,0,0,0-.4.4v1H1.4V7.618h1.8v1a.4.4,0,0,0,.4.4h1.2a.4.4,0,0,0,.4-.4v-1h1.2v1a.4.4,0,0,0,.4.4h1.2a.4.4,0,0,0,.4-.4v-1h5.014v3.81Z" transform="translate(-1 -1)" fill="#383a65" stroke="#383a65" stroke-width="0.3"/>
      </g>
    </g>
  </g>
</svg>
