<svg xmlns="http://www.w3.org/2000/svg" width="34" height="25.5" viewBox="0 0 34 25.5">
  <path id="people_2_" data-name="people (2)" d="M31.875,27.5A2.081,2.081,0,0,0,34,25.375c0-2.125-2.125-8.5-10.625-8.5S12.75,23.25,12.75,25.375A2.081,2.081,0,0,0,14.875,27.5ZM14.922,25.375l-.047-.008a6.521,6.521,0,0,1,1.615-3.655C17.663,20.337,19.724,19,23.375,19s5.71,1.339,6.885,2.711a6.543,6.543,0,0,1,1.615,3.655l-.017,0-.03,0Zm8.453-12.75a4.25,4.25,0,1,0-4.25-4.25A4.25,4.25,0,0,0,23.375,12.625Zm6.375-4.25A6.375,6.375,0,1,1,23.375,2,6.375,6.375,0,0,1,29.75,8.375ZM14.739,17.47a12.5,12.5,0,0,0-2.614-.525q-.748-.071-1.5-.07C2.125,16.875,0,23.25,0,25.375A1.878,1.878,0,0,0,2.125,27.5h8.959a4.756,4.756,0,0,1-.459-2.125A9.752,9.752,0,0,1,12.941,19.2a11.244,11.244,0,0,1,1.8-1.734ZM10.455,19A11.673,11.673,0,0,0,8.5,25.375H2.125A6.52,6.52,0,0,1,3.74,21.711C4.9,20.36,6.91,19.042,10.455,19ZM3.187,9.437a6.375,6.375,0,1,1,6.375,6.375A6.375,6.375,0,0,1,3.187,9.437Zm6.375-4.25a4.25,4.25,0,1,0,4.25,4.25A4.25,4.25,0,0,0,9.562,5.187Z" transform="translate(0 -2)" fill="#383a65"/>
</svg>
