<svg xmlns="http://www.w3.org/2000/svg" width="20.125" height="20.3" viewBox="0 0 20.125 20.3">
  <g id="Group_117092" data-name="Group 117092" transform="translate(-39.85 -2486.85)">
    <g id="Rectangle_22833" data-name="Rectangle 22833" transform="translate(40 2487)" fill="#343785" stroke="#f2f2f2" stroke-width="0.3" opacity="0">
      <rect width="19.823" height="19.823" stroke="none"/>
      <rect x="0.15" y="0.15" width="19.523" height="19.523" fill="none"/>
    </g>
    <g id="Group_117091" data-name="Group 117091" transform="translate(40 2487)">
      <path id="Path_182372" data-name="Path 182372" d="M1.915,0V20H21.74V0ZM20.687,18.947H9.059L6.166,16.054V4.254H20.64V16.126H10.946L8.769,13.949V7.383h9.474v6.257H13.9l-.813-.813H15.28V9.143H11.6v3.685h.033l-.016.016,1.85,1.85h5.832V6.331H7.716v8.054l2.794,2.794H20.687v1.769Zm0-15.745H5.114V16.49l2.458,2.458h-4.6V1.053H20.687Z" transform="translate(-1.915)" fill="#fff" stroke="#f2f2f2" stroke-width="0.3"/>
    </g>
  </g>
</svg>
