<svg xmlns="http://www.w3.org/2000/svg" width="20" height="20" viewBox="0 0 20 20">
  <g id="Group_117146" data-name="Group 117146" transform="translate(-32 -712)">
    <rect id="Rectangle_22857" data-name="Rectangle 22857" width="20" height="20" transform="translate(32 712)" fill="#6b4141" opacity="0"/>
    <g id="Icon_feather-eye" data-name="Icon feather-eye" transform="translate(31.75 710.25)">
      <path id="Path_182969" data-name="Path 182969" d="M10.25,4.75a8.806,8.806,0,0,1,4.288,1.144A12.681,12.681,0,0,1,17.63,8.353,16.632,16.632,0,0,1,20.176,11.9a.7.7,0,0,1,0,.63,16.632,16.632,0,0,1-2.546,3.547,12.681,12.681,0,0,1-3.092,2.459A8.806,8.806,0,0,1,10.25,19.68a8.806,8.806,0,0,1-4.288-1.144A12.681,12.681,0,0,1,2.87,16.077,16.632,16.632,0,0,1,.324,12.53a.7.7,0,0,1,0-.63A16.632,16.632,0,0,1,2.87,8.353,12.681,12.681,0,0,1,5.962,5.894,8.806,8.806,0,0,1,10.25,4.75Zm8.494,7.465A15.973,15.973,0,0,0,16.577,9.29,8.693,8.693,0,0,0,10.25,6.158c-4.712,0-7.759,4.772-8.494,6.056A15.973,15.973,0,0,0,3.923,15.14a8.693,8.693,0,0,0,6.327,3.131C14.962,18.271,18.009,13.5,18.744,12.215Z" fill="#fff"/>
      <path id="Path_182970" data-name="Path 182970" d="M15.489,12.25a3.239,3.239,0,1,1-3.239,3.239A3.243,3.243,0,0,1,15.489,12.25Zm0,5.07a1.831,1.831,0,1,0-1.831-1.831A1.833,1.833,0,0,0,15.489,17.32Z" transform="translate(-5.239 -3.275)" fill="#fff"/>
    </g>
  </g>
</svg>
