<svg xmlns="http://www.w3.org/2000/svg" width="30.863" height="31.136" viewBox="0 0 30.863 31.136">
  <g id="noun_packet_3624953" transform="translate(0.5 0.568)">
    <g id="Packet" transform="translate(0 0)">
      <path id="Path_182956" data-name="Path 182956" d="M15.936,14.176V5.615L8.968,1.864,2,5.615v8.561l6.968,3.752Zm-6.47,2.352V9.7l5.475-2.948v6.83ZM14.389,5.913,8.968,8.832,3.547,5.913,8.968,2.995ZM3,6.747,8.47,9.7v6.832L3,13.578Z" transform="translate(-2 -1.864)" fill="#383a65" stroke="#383a65" stroke-width="1"/>
      <path id="Path_182957" data-name="Path 182957" d="M40.968,29.864,34,33.615v8.561l6.968,3.752,6.968-3.752V33.615Zm5.421,4.049-5.421,2.919-5.421-2.919,5.421-2.919ZM35,34.747,40.47,37.7v6.832L35,41.578Zm6.47,9.781V37.7l5.475-2.948v6.83Z" transform="translate(-18.073 -15.928)" fill="#383a65" stroke="#383a65" stroke-width="1"/>
      <path id="Path_182958" data-name="Path 182958" d="M44.452,12.484v4.273l-.558-.558-.7.7,1.759,1.76,1.759-1.76-.7-.7-.558.558V12.484A3.488,3.488,0,0,0,41.964,9H34v1h7.964A2.492,2.492,0,0,1,44.452,12.484Z" transform="translate(-18.073 -5.448)" fill="#383a65" stroke="#383a65" stroke-width="1"/>
      <path id="Path_182959" data-name="Path 182959" d="M6.722,41.764V37.491l.558.558.7-.7-1.759-1.76-1.759,1.76.7.7.558-.558v4.273a3.488,3.488,0,0,0,3.484,3.484h7.963v-1H9.211a2.492,2.492,0,0,1-2.489-2.489Z" transform="translate(-3.238 -18.801)" fill="#383a65" stroke="#383a65" stroke-width="1"/>
      <path id="Path_182960" data-name="Path 182960" d="M31.986,30.493a1.493,1.493,0,1,0-1.493,1.493A1.493,1.493,0,0,0,31.986,30.493Zm-1.493.5a.5.5,0,1,1,.5-.5A.5.5,0,0,1,30.493,30.991Z" transform="translate(-15.562 -15.494)" fill="#383a65" stroke="#383a65" stroke-width="1"/>
    </g>
  </g>
</svg>
