<svg xmlns="http://www.w3.org/2000/svg" width="27.78" height="27.782" viewBox="0 0 27.78 27.782">
  <path id="Union_1" data-name="Union 1" d="M-11605.685,2531.783a1.048,1.048,0,0,1-1.047-1.047v-6.423a1.094,1.094,0,0,0-1.095-1.091h-2.569a1.093,1.093,0,0,0-1.091,1.091v6.423a1.048,1.048,0,0,1-1.048,1.047h-4.354a3.19,3.19,0,0,1-3.188-3.188v-7.943h-.2c-.032,0-.064,0-.1,0a2.756,2.756,0,0,1-1.823-.805,2.766,2.766,0,0,1-.009-3.9c.006,0,.009-.009.015-.012l11.126-11.125a2.732,2.732,0,0,1,1.951-.808,2.739,2.739,0,0,1,1.952.808l11.134,11.134a2.765,2.765,0,0,1,0,3.9,2.742,2.742,0,0,1-1.951.808h-.163v7.943a3.191,3.191,0,0,1-3.188,3.188Zm-2.142-10.659a3.192,3.192,0,0,1,3.188,3.188v5.376h3.309a1.094,1.094,0,0,0,1.094-1.094v-8.99a1.048,1.048,0,0,1,1.047-1.047h1.211a.661.661,0,0,0,.47-.2.669.669,0,0,0,0-.939l-.006-.006-11.129-11.126a.66.66,0,0,0-.47-.2.662.662,0,0,0-.47.2l-11.113,11.108-.056.094h-.026a.666.666,0,0,0,.062.869.673.673,0,0,0,.458.2h1.225a1.048,1.048,0,0,1,1.048,1.047v8.99a1.094,1.094,0,0,0,1.094,1.094h3.3v-5.376a3.2,3.2,0,0,1,3.188-3.188Z" transform="translate(11623 -2504.001)" fill="#383a65"/>
</svg>
