<svg xmlns="http://www.w3.org/2000/svg" width="27" height="27" viewBox="0 0 27 27">
  <g id="Group_117100" data-name="Group 117100" transform="translate(-320 -1680)">
    <circle id="Ellipse_40831" data-name="Ellipse 40831" cx="13.5" cy="13.5" r="13.5" transform="translate(320 1680)" fill="#f3f5f8"/>
    <g id="noun_manager_1649726" transform="translate(287.074 1683)">
      <g id="Group_117098" data-name="Group 117098" transform="translate(39.926 2)">
        <path id="Path_183129" data-name="Path 183129" d="M153.174,10.2c1.957,0,3.374-2.742,3.374-4.588a3.382,3.382,0,1,0-6.748,0C149.8,7.462,151.217,10.2,153.174,10.2Zm0-7.692a2.992,2.992,0,0,1,2.863,3.1c0,1.8-1.347,4.076-2.863,4.076s-2.863-2.281-2.863-4.076A2.992,2.992,0,0,1,153.174,2.512Z" transform="translate(-146.309 -2)" fill="#383a65" stroke="#383a65" stroke-width="0.5"/>
        <path id="Path_183130" data-name="Path 183130" d="M52.856,247.479c-.057-.079-.118-.159-.178-.232a4.212,4.212,0,0,0-2.138-1.42l-.832-.232c-.032-.01-.067-.016-.1-.025l-.273-.07-1.843,4.146-.172-2.659h.238v-.512H46.022v.512h.238l-.172,2.659L44.246,245.5l-.273.07c-.032.006-.067.016-.1.025l-.832.232a4.193,4.193,0,0,0-2.138,1.42c-.06.076-.121.152-.178.232a4.7,4.7,0,0,0-.747,3.374l.442,3.05H53.158l.442-3.05A4.688,4.688,0,0,0,52.856,247.479Zm-6.081-.492h.032l.238,3.667-.254.569-.254-.569Zm6.32,3.794-.378,2.608H51.144V251.34h-.512v2.049H42.95V251.34h-.512v2.049H40.865l-.378-2.608a4.179,4.179,0,0,1,.658-3.006c.051-.07.1-.14.159-.207a3.709,3.709,0,0,1,1.878-1.249l.775-.216,2.834,6.383,2.837-6.38.775.216a3.7,3.7,0,0,1,1.878,1.249c.054.067.108.137.159.207h0A4.169,4.169,0,0,1,53.094,250.781Z" transform="translate(-39.926 -237.763)" fill="#383a65" stroke="#383a65" stroke-width="0.5"/>
        <rect id="Rectangle_22834" data-name="Rectangle 22834" width="2.561" height="0.512" transform="translate(9.426 11.53)" fill="#383a65" stroke="#383a65" stroke-width="0.5"/>
      </g>
    </g>
  </g>
</svg>
