<svg xmlns="http://www.w3.org/2000/svg" width="27" height="27" viewBox="0 0 27 27">
  <g id="Group_117320" data-name="Group 117320" transform="translate(-322 -3868)">
    <g id="Group_117276" data-name="Group 117276" transform="translate(3 346)">
      <g id="Group_117268" data-name="Group 117268" transform="translate(5 204)">
        <g id="Group_117161" data-name="Group 117161" transform="translate(-8 179)">
          <circle id="Ellipse_40727" data-name="Ellipse 40727" cx="13.5" cy="13.5" r="13.5" transform="translate(322 3139)" fill="#f3f5f8"/>
        </g>
      </g>
    </g>
    <g id="noun-receipt-1402416" transform="translate(231.856 3837.601)">
      <path id="Path_183538" data-name="Path 183538" d="M236.1,205.076h2.168a.339.339,0,0,0,0-.678H236.1a.339.339,0,0,0,0,.678Z" transform="translate(-136.06 -162.918)" fill="#383a65" stroke="#383a65" stroke-width="0.2"/>
      <path id="Path_183539" data-name="Path 183539" d="M240.3,277.2h-4.2a.339.339,0,0,0,0,.678h4.2a.339.339,0,0,0,0-.678Z" transform="translate(-136.06 -233.518)" fill="#383a65" stroke="#383a65" stroke-width="0.2"/>
      <path id="Path_183540" data-name="Path 183540" d="M240.3,350h-4.2a.339.339,0,0,0,0,.677h4.2a.339.339,0,0,0,0-.677Z" transform="translate(-136.06 -304.116)" fill="#383a65" stroke="#383a65" stroke-width="0.2"/>
      <path id="Path_183541" data-name="Path 183541" d="M163.225,48.814V37.754A1.355,1.355,0,0,0,161.87,36.4h-7.283a1.355,1.355,0,0,0-1.355,1.355V38.4h-.677a1.355,1.355,0,0,0-1.355,1.355v11.06a.339.339,0,0,0,.576.237l1.3-1.2,1.321,1.2a.339.339,0,0,0,.457,0l1.338-1.2,1.338,1.2a.339.339,0,0,0,.457,0l1.338-1.2,1.287,1.2a.339.339,0,0,0,.237.085l.136-.034a.339.339,0,0,0,.2-.3V48.018l.169-.152,1.3,1.2h0a.339.339,0,0,0,.237.085l.136-.034h0a.339.339,0,0,0,.186-.3Zm-2.71,1.22-.948-.881a.339.339,0,0,0-.457,0l-1.338,1.2-1.338-1.2h0a.339.339,0,0,0-.457,0l-1.338,1.2-1.338-1.2h0a.339.339,0,0,0-.457,0l-.965.881v-10.3a.677.677,0,0,1,.677-.677h7.283a.677.677,0,0,1,.677.677Zm2.032-2-.965-.881a.339.339,0,0,0-.407-.051V39.736a1.355,1.355,0,0,0-1.355-1.355h-5.928v-.627a.678.678,0,0,1,.678-.677h7.283a.677.677,0,0,1,.677.677Z" transform="translate(-54.055)" fill="#383a65" stroke="#383a65" stroke-width="0.2"/>
    </g>
  </g>
</svg>
