<svg xmlns="http://www.w3.org/2000/svg" width="27" height="27" viewBox="0 0 27 27">
  <g id="Group_116636" data-name="Group 116636" transform="translate(-314 -49)">
    <g id="Group_484" data-name="Group 484" transform="translate(314 49)">
      <g id="Group_476" data-name="Group 476">
        <circle id="Ellipse_92" data-name="Ellipse 92" cx="13.5" cy="13.5" r="13.5" fill="#f3f5f8"/>
      </g>
    </g>
    <path id="home" d="M12.7,5.452h0L7.582.338a1.154,1.154,0,0,0-1.632,0L.84,5.448l-.005.005A1.153,1.153,0,0,0,1.6,7.419l.036,0h.2v3.763a1.352,1.352,0,0,0,1.351,1.35h2a.367.367,0,0,0,.367-.367V9.217A.617.617,0,0,1,6.176,8.6h1.18a.617.617,0,0,1,.616.616v2.95a.367.367,0,0,0,.367.367h2a1.352,1.352,0,0,0,1.351-1.35V7.421h.189A1.154,1.154,0,0,0,12.7,5.452Zm-.52,1.112a.417.417,0,0,1-.3.123h-.556a.367.367,0,0,0-.367.367v4.13a.617.617,0,0,1-.616.616H8.706V9.217A1.352,1.352,0,0,0,7.356,7.866H6.176A1.352,1.352,0,0,0,4.825,9.217V11.8H3.192a.617.617,0,0,1-.616-.616V7.054a.367.367,0,0,0-.367-.367H1.645a.419.419,0,0,1-.289-.716h0L6.469.857a.419.419,0,0,1,.593,0l5.112,5.111,0,0A.42.42,0,0,1,12.176,6.564Zm0,0" transform="translate(321.001 56.5)" fill="#383a65" stroke="#383a65" stroke-width="0.5"/>
  </g>
</svg>
