<svg xmlns="http://www.w3.org/2000/svg" width="20.3" height="20" viewBox="0 0 20.3 20">
  <g id="Group_117045" data-name="Group 117045" transform="translate(-32.85 -2283)">
    <g id="Rectangle_22816" data-name="Rectangle 22816" transform="translate(33 2283)" fill="#fff" stroke="#fff" stroke-width="0.3" opacity="0">
      <rect width="20" height="20" stroke="none"/>
      <rect x="0.15" y="0.15" width="19.7" height="19.7" fill="none"/>
    </g>
    <path id="Icon_awesome-boxes" data-name="Icon awesome-boxes" d="M18.346,17.153H10.958A1.027,1.027,0,0,1,9.929,16.13V9.837a1.027,1.027,0,0,1,1.029-1.022H14.1V11.53l.554-.367.554.367V8.815h3.14a1.027,1.027,0,0,1,1.029,1.022V16.13A1.027,1.027,0,0,1,18.346,17.153ZM10.958,9.811a.028.028,0,0,0-.027.026V16.13a.028.028,0,0,0,.027.026h7.388a.028.028,0,0,0,.027-.026V9.837a.028.028,0,0,0-.027-.026H16.209v3.578l-1.557-1.03L13.1,13.389V9.811ZM7.792,17.153H.4A1.027,1.027,0,0,1-.625,16.13V9.837A1.027,1.027,0,0,1,.4,8.815h3.14V11.53l.554-.367.554.367V8.815h3.14A1.027,1.027,0,0,1,8.821,9.837V16.13A1.027,1.027,0,0,1,7.792,17.153ZM.4,9.811a.028.028,0,0,0-.027.026V16.13a.028.028,0,0,0,.027.026H7.792a.028.028,0,0,0,.027-.026V9.837a.028.028,0,0,0-.027-.026H5.654v3.578L4.1,12.359l-1.557,1.03V9.811Zm12.665-2.1H5.681A1.027,1.027,0,0,1,4.652,6.691V.4A1.027,1.027,0,0,1,5.681-.625h3.14V2.09l.554-.367.554.367V-.625h3.14A1.027,1.027,0,0,1,14.1.4V6.691A1.027,1.027,0,0,1,13.069,7.713ZM5.681.371A.028.028,0,0,0,5.654.4V6.691a.028.028,0,0,0,.027.026h7.388a.028.028,0,0,0,.027-.026V.4a.028.028,0,0,0-.027-.026H10.932V3.949L9.375,2.92,7.818,3.949V.371Z" transform="translate(33.625 2284.625)" fill="#fff" stroke="#fff" stroke-width="0.3"/>
  </g>
</svg>
