<svg xmlns="http://www.w3.org/2000/svg" width="20.3" height="20" viewBox="0 0 20.3 20">
  <g id="Group_117124" data-name="Group 117124" transform="translate(-29.7 -2225)">
    <rect id="Rectangle_22853" data-name="Rectangle 22853" width="20" height="20" transform="translate(30 2225)" fill="#fff" opacity="0"/>
    <g id="noun_inspection_1951701" transform="translate(30 2225.976)">
      <g id="Path_183143" data-name="Path 183143" transform="translate(-4 -6.571)" fill="#fff">
        <path d="M 21.85148620605469 25.16120529174805 L 21.73830604553223 25.06276512145996 L 16.76770401000977 20.73954963684082 C 15.36636924743652 21.83119583129883 13.6269416809082 22.43091583251953 11.85495567321777 22.43091583251953 C 7.441005706787109 22.43091583251953 3.849995613098145 18.83990669250488 3.849995613098145 14.4259557723999 C 3.849995613098145 10.01201629638672 7.441005706787109 6.421005725860596 11.85495567321777 6.421005725860596 C 16.26890563964844 6.421005725860596 19.85991477966309 10.01201629638672 19.85991477966309 14.4259557723999 C 19.85991477966309 15.91078948974609 19.44918441772461 17.3569450378418 18.67079734802246 18.61705207824707 L 23.60891532897949 22.91191673278809 L 23.72209548950195 23.01034545898438 L 23.62365531921387 23.12353515625 L 21.94992637634277 25.04802513122559 L 21.85148620605469 25.16120529174805 Z M 16.77699661254883 19.47457504272461 L 16.87527656555176 19.56005668640137 L 21.75706672668457 23.80599594116211 L 22.36708450317383 23.10476875305176 L 17.50115585327148 18.87271499633789 L 17.39969635009766 18.78446578979492 L 17.47637557983398 18.67400550842285 L 17.6452465057373 18.43072509765625 C 18.4657154083252 17.24850654602051 18.89940643310547 15.86367607116699 18.89940643310547 14.4259557723999 C 18.89940643310547 10.54163551330566 15.73927593231201 7.381505966186523 11.85495567321777 7.381505966186523 C 7.970635890960693 7.381505966186523 4.810505867004395 10.54163551330566 4.810505867004395 14.4259557723999 C 4.810505867004395 18.31016540527344 7.970635890960693 21.47019577026367 11.85495567321777 21.47019577026367 C 13.54429531097412 21.47019577026367 15.18041610717773 20.85846519470215 16.46193504333496 19.74769592285156 L 16.67858505249023 19.55989646911621 L 16.77699661254883 19.47457504272461 Z" stroke="none"/>
        <path d="M 11.85495567321777 6.571004867553711 C 7.523574829101562 6.571004867553711 3.999996185302734 10.09458541870117 3.999996185302734 14.42596435546875 C 3.999996185302734 18.7573356628418 7.523574829101562 22.28091430664062 11.85495567321777 22.28091430664062 C 13.64382553100586 22.28091430664062 15.37853527069092 21.66620445251465 16.7722053527832 20.5446662902832 L 21.83674621582031 24.9495849609375 L 23.51047515869141 23.02509498596191 L 18.47543525695801 18.64593505859375 C 19.28388595581055 17.38326454162598 19.70991516113281 15.9305944442749 19.70991516113281 14.42596435546875 C 19.70991516113281 10.09480476379395 16.18633651733398 6.571004867553711 11.85495567321777 6.571004867553711 M 21.77179527282715 24.01760482788086 L 16.77682495117188 19.6732349395752 L 16.56018447875977 19.86104583740234 C 15.25150585174561 20.99535369873047 13.58041572570801 21.62019538879395 11.85495567321777 21.62019538879395 C 7.887956619262695 21.62019538879395 4.660505294799805 18.3929557800293 4.660505294799805 14.42596435546875 C 4.660505294799805 10.45896530151367 7.887956619262695 7.231504440307617 11.85495567321777 7.231504440307617 C 15.82195568084717 7.231504440307617 19.04940605163574 10.45896530151367 19.04940605163574 14.42596435546875 C 19.04940605163574 15.8944845199585 18.60642623901367 17.30884552001953 17.76846694946289 18.51625442504883 L 17.59959602355957 18.75953483581543 L 22.57871627807617 23.09003448486328 L 21.77179527282715 24.01760482788086 M 11.85495567321777 6.271005630493164 C 16.35161590576172 6.271005630493164 20.00991630554199 9.929304122924805 20.00991630554199 14.42596435546875 C 20.00991630554199 15.89603996276855 19.61471176147461 17.32894134521484 18.8646068572998 18.58681869506836 L 23.93370628356934 22.99560546875 L 21.86623573303223 25.37282562255859 L 16.76172256469727 20.93314552307129 C 15.35149097442627 21.99749374389648 13.61908149719238 22.58091354370117 11.85495567321777 22.58091354370117 C 7.358295440673828 22.58091354370117 3.699995040893555 18.92261505126953 3.699995040893555 14.42596435546875 C 3.699995040893555 9.929304122924805 7.358295440673828 6.271005630493164 11.85495567321777 6.271005630493164 Z M 22.15545272827148 23.11950302124023 L 17.19978523254395 18.80940628051758 L 17.52201461791992 18.34518432617188 C 18.32497596740723 17.1882152557373 18.74940490722656 15.8329553604126 18.74940490722656 14.42596435546875 C 18.74940490722656 10.62434577941895 15.65656566619873 7.531505584716797 11.85495567321777 7.531505584716797 C 8.0533447265625 7.531505584716797 4.960506439208984 10.62434577941895 4.960506439208984 14.42596435546875 C 4.960506439208984 18.22745513916016 8.0533447265625 21.32019424438477 11.85495567321777 21.32019424438477 C 13.50820541381836 21.32019424438477 15.10944557189941 20.72148513793945 16.36369705200195 19.63434600830078 L 16.77714538574219 19.27591514587402 L 21.74233627319336 23.59438705444336 L 22.15545272827148 23.11950302124023 Z" stroke="none" fill="#fff"/>
      </g>
      <g id="Path_183144" data-name="Path 183144" transform="translate(-10.257 -12.828)" fill="#fff">
        <path d="M 18.11186027526855 26.36051750183105 C 14.98108005523682 26.36051750183105 12.43400001525879 23.81353759765625 12.43400001525879 20.68286895751953 C 12.43400001525879 17.55207824707031 14.98108005523682 15.00499820709229 18.11186027526855 15.00499820709229 C 21.24263954162598 15.00499820709229 23.78972053527832 17.55207824707031 23.78972053527832 20.68286895751953 C 23.78972053527832 23.81353759765625 21.24263954162598 26.36051750183105 18.11186027526855 26.36051750183105 Z M 18.11186027526855 15.91688823699951 C 15.48401069641113 15.91688823699951 13.34609985351562 18.05480766296387 13.34609985351562 20.68265914916992 C 13.34609985351562 23.31050872802734 15.48401069641113 25.44841766357422 18.11186027526855 25.44841766357422 C 20.73970985412598 25.44841766357422 22.87762069702148 23.31059837341309 22.87762069702148 20.68286895751953 C 22.87762069702148 18.05489921569824 20.73970985412598 15.91688823699951 18.11186027526855 15.91688823699951 Z" stroke="none"/>
        <path d="M 18.11186027526855 15.15499877929688 C 15.06381034851074 15.15499877929688 12.58399963378906 17.63481903076172 12.58399963378906 20.68286895751953 C 12.58399963378906 23.73090744018555 15.06381034851074 26.21051788330078 18.11186027526855 26.21051788330078 C 21.15991020202637 26.21051788330078 23.63972091674805 23.73090744018555 23.63972091674805 20.68286895751953 C 23.63972091674805 17.63481903076172 21.15991020202637 15.15499877929688 18.11186027526855 15.15499877929688 M 18.11186027526855 25.59841918945312 C 15.40127944946289 25.59841918945312 13.19609069824219 23.39322853088379 13.19609069824219 20.68265914916992 C 13.19609069824219 17.97207832336426 15.40127944946289 15.76688766479492 18.11186027526855 15.76688766479492 C 20.82244110107422 15.76688766479492 23.02762031555176 17.97228813171387 23.02762031555176 20.68286895751953 C 23.02762031555176 23.3934383392334 20.82223129272461 25.59841918945312 18.11186027526855 25.59841918945312 M 18.11186027526855 14.8549976348877 C 21.32534980773926 14.8549976348877 23.93972015380859 17.46936798095703 23.93972015380859 20.68286895751953 C 23.93972015380859 23.89624786376953 21.32534980773926 26.51051712036133 18.11186027526855 26.51051712036133 C 14.89837074279785 26.51051712036133 12.28400039672852 23.89624786376953 12.28400039672852 20.68286895751953 C 12.28400039672852 17.46936798095703 14.89837074279785 14.8549976348877 18.11186027526855 14.8549976348877 Z M 18.11186027526855 25.29841804504395 C 20.65700149536133 25.29841804504395 22.72761917114258 23.2278881072998 22.72761917114258 20.68286895751953 C 22.72761917114258 18.13760757446289 20.65700149536133 16.0668888092041 18.11186027526855 16.0668888092041 C 15.56672096252441 16.0668888092041 13.49608993530273 18.13751792907715 13.49608993530273 20.68265914916992 C 13.49608993530273 23.22779846191406 15.56672096252441 25.29841804504395 18.11186027526855 25.29841804504395 Z" stroke="none" fill="#fff"/>
      </g>
      <path id="Path_183145" data-name="Path 183145" d="M39.677,23.051v.483a2.611,2.611,0,0,1,2.608,2.608h.483A3.094,3.094,0,0,0,39.677,23.051Z" transform="translate(-31.254 -18.855)" fill="#fff"/>
    </g>
  </g>
</svg>
