<svg xmlns="http://www.w3.org/2000/svg" width="30.746" height="30.8" viewBox="0 0 30.746 30.8">
  <g id="provider_" transform="translate(-1.6 -1.491)">
    <g id="Group_116611" data-name="Group 116611" transform="translate(2 1.891)">
      <path id="Path_182951" data-name="Path 182951" d="M51.486,44H45.5A1.5,1.5,0,0,0,44,45.5V49.49a1.5,1.5,0,0,0,1.5,1.5H46.89l-.337,1.379a.5.5,0,0,0,.485.618h2.908a.5.5,0,0,0,.485-.618l-.337-1.379h1.393a1.5,1.5,0,0,0,1.5-1.5V45.5A1.5,1.5,0,0,0,51.486,44ZM45.5,45h5.989a.5.5,0,0,1,.5.5v2.5H45V45.5A.5.5,0,0,1,45.5,45Zm3.813,6.987H47.674l.245-1h1.148Zm2.177-2H45.5a.5.5,0,0,1-.5-.5v-.5h6.987v.5A.5.5,0,0,1,51.486,49.989Z" transform="translate(-23.038 -22.984)" fill="#383a65"/>
      <path id="Path_182951_-_Outline" data-name="Path 182951 - Outline" d="M45.5,43.6h5.989a1.9,1.9,0,0,1,1.9,1.9V49.49a1.9,1.9,0,0,1-1.9,1.9H50.6l.216.883a.9.9,0,0,1-.873,1.113H47.038a.9.9,0,0,1-.874-1.113l.216-.883H45.5a1.9,1.9,0,0,1-1.9-1.9V45.5A1.9,1.9,0,0,1,45.5,43.6Zm5.989,6.987a1.1,1.1,0,0,0,1.1-1.1V45.5a1.1,1.1,0,0,0-1.1-1.1H45.5a1.1,1.1,0,0,0-1.1,1.1V49.49a1.1,1.1,0,0,0,1.1,1.1h1.9l-.459,1.874a.1.1,0,0,0,.1.123h2.908a.1.1,0,0,0,.1-.123l-.459-1.874ZM45.5,44.6h5.989a.9.9,0,0,1,.9.9v2.9H44.6V45.5A.9.9,0,0,1,45.5,44.6Zm6.088,2.995V45.5a.1.1,0,0,0-.1-.1H45.5a.1.1,0,0,0-.1.1v2.1Zm-6.987,1h7.787v.9a.9.9,0,0,1-.9.9H45.5a.9.9,0,0,1-.9-.9Zm6.987.8H45.4v.1a.1.1,0,0,0,.1.1h5.989a.1.1,0,0,0,.1-.1Zm-3.981,1.2H49.38l.439,1.8H47.164Zm1.148.8h-.52l-.049.2H48.8Z" transform="translate(-23.038 -22.984)" fill="#383a65"/>
      <path id="Path_182952" data-name="Path 182952" d="M30.486,44H24.5A1.5,1.5,0,0,0,23,45.5V49.49a1.5,1.5,0,0,0,1.5,1.5H25.89l-.337,1.379a.5.5,0,0,0,.485.618h2.908a.5.5,0,0,0,.485-.618l-.337-1.379h1.393a1.5,1.5,0,0,0,1.5-1.5V45.5A1.5,1.5,0,0,0,30.486,44ZM24.5,45h5.989a.5.5,0,0,1,.5.5v2.5H24V45.5A.5.5,0,0,1,24.5,45Zm3.813,6.987H26.674l.245-1h1.148Zm2.177-2H24.5a.5.5,0,0,1-.5-.5v-.5h6.987v.5A.5.5,0,0,1,30.486,49.989Z" transform="translate(-12.519 -22.984)" fill="#383a65"/>
      <path id="Path_182952_-_Outline" data-name="Path 182952 - Outline" d="M24.5,43.6h5.989a1.9,1.9,0,0,1,1.9,1.9V49.49a1.9,1.9,0,0,1-1.9,1.9H29.6l.216.883a.9.9,0,0,1-.873,1.113H26.038a.9.9,0,0,1-.874-1.113l.216-.883H24.5a1.9,1.9,0,0,1-1.9-1.9V45.5A1.9,1.9,0,0,1,24.5,43.6Zm5.989,6.987a1.1,1.1,0,0,0,1.1-1.1V45.5a1.1,1.1,0,0,0-1.1-1.1H24.5a1.1,1.1,0,0,0-1.1,1.1V49.49a1.1,1.1,0,0,0,1.1,1.1h1.9l-.459,1.874a.1.1,0,0,0,.1.123h2.908a.1.1,0,0,0,.1-.123l-.459-1.874ZM24.5,44.6h5.989a.9.9,0,0,1,.9.9v2.9H23.6V45.5A.9.9,0,0,1,24.5,44.6Zm6.088,2.995V45.5a.1.1,0,0,0-.1-.1H24.5a.1.1,0,0,0-.1.1v2.1Zm-6.987,1h7.787v.9a.9.9,0,0,1-.9.9H24.5a.9.9,0,0,1-.9-.9Zm6.987.8H24.4v.1a.1.1,0,0,0,.1.1h5.989a.1.1,0,0,0,.1-.1Zm-3.981,1.2H28.38l.439,1.8H26.164Zm1.148.8h-.52l-.049.2H27.8Z" transform="translate(-12.519 -22.984)" fill="#383a65"/>
      <path id="Path_182953" data-name="Path 182953" d="M9.486,44H3.5A1.5,1.5,0,0,0,2,45.5V49.49a1.5,1.5,0,0,0,1.5,1.5H4.89l-.337,1.379a.5.5,0,0,0,.485.618H7.946a.5.5,0,0,0,.485-.618l-.337-1.379H9.486a1.5,1.5,0,0,0,1.5-1.5V45.5A1.5,1.5,0,0,0,9.486,44ZM3.5,45H9.486a.5.5,0,0,1,.5.5v2.5H3V45.5A.5.5,0,0,1,3.5,45ZM7.31,51.986H5.674l.245-1H7.066Zm2.177-2H3.5a.5.5,0,0,1-.5-.5v-.5H9.986v.5A.5.5,0,0,1,9.486,49.989Z" transform="translate(-2 -22.984)" fill="#383a65"/>
      <path id="Path_182953_-_Outline" data-name="Path 182953 - Outline" d="M3.5,43.6H9.486a1.9,1.9,0,0,1,1.9,1.9V49.49a1.9,1.9,0,0,1-1.9,1.9H8.6l.216.883a.9.9,0,0,1-.873,1.113H5.038a.9.9,0,0,1-.874-1.113l.216-.883H3.5a1.9,1.9,0,0,1-1.9-1.9V45.5A1.9,1.9,0,0,1,3.5,43.6Zm5.989,6.987a1.1,1.1,0,0,0,1.1-1.1V45.5a1.1,1.1,0,0,0-1.1-1.1H3.5a1.1,1.1,0,0,0-1.1,1.1V49.49a1.1,1.1,0,0,0,1.1,1.1H5.4l-.459,1.874a.1.1,0,0,0,.1.123H7.946a.1.1,0,0,0,.1-.123l-.459-1.874ZM3.5,44.6H9.486a.9.9,0,0,1,.9.9v2.9H2.6V45.5A.9.9,0,0,1,3.5,44.6Zm6.088,2.995V45.5a.1.1,0,0,0-.1-.1H3.5a.1.1,0,0,0-.1.1v2.1Zm-6.987,1h7.787v.9a.9.9,0,0,1-.9.9H3.5a.9.9,0,0,1-.9-.9Zm6.987.8H3.4v.1a.1.1,0,0,0,.1.1H9.486a.1.1,0,0,0,.1-.1ZM5.6,50.587H7.38l.439,1.8H5.164Zm1.148.8h-.52l-.049.2H6.8Z" transform="translate(-2 -22.984)" fill="#383a65"/>
      <path id="Path_182954" data-name="Path 182954" d="M18,11.428H29.975a2,2,0,0,0,.2-3.982A3.993,3.993,0,1,0,22.751,4.52,2.988,2.988,0,0,0,18,6.937a2.922,2.922,0,0,0,.042.5H18a2,2,0,0,0,0,3.993Zm0-2.995h.71a.5.5,0,0,0,.457-.7,1.972,1.972,0,0,1-.169-.8,1.992,1.992,0,0,1,3.618-1.155.5.5,0,0,0,.9-.227,2.995,2.995,0,1,1,5.422,2.1.5.5,0,0,0,.409.783h.629a1,1,0,1,1,0,2H18a1,1,0,1,1,0-2Z" transform="translate(-9.013 -1.891)" fill="#383a65"/>
      <path id="Path_182954_-_Outline" data-name="Path 182954 - Outline" d="M29.975,11.828H18a2.4,2.4,0,0,1-.4-4.76q0-.066,0-.132a3.389,3.389,0,0,1,4.971-3,4.393,4.393,0,0,1,8.142,3.217,2.4,2.4,0,0,1-.735,4.677ZM18,7.836a1.6,1.6,0,0,0,0,3.193H29.974a1.6,1.6,0,0,0,.162-3.184L29.6,7.789l.212-.5a3.593,3.593,0,1,0-6.683-2.633l-.182.5-.43-.315a2.572,2.572,0,0,0-1.53-.5A2.588,2.588,0,0,0,18.4,6.936a2.531,2.531,0,0,0,.037.432l.081.468ZM29.975,10.83H18a1.4,1.4,0,0,1,0-2.8h.71A.1.1,0,0,0,18.8,7.9a2.355,2.355,0,0,1-.2-.959,2.392,2.392,0,0,1,4.345-1.386.1.1,0,0,0,.1.037.1.1,0,0,0,.074-.084,3.395,3.395,0,1,1,6.146,2.376.1.1,0,0,0,.083.153h.628a1.4,1.4,0,0,1,0,2.8ZM18,8.834a.6.6,0,0,0,0,1.2H29.975a.6.6,0,1,0,0-1.2h-.629a.9.9,0,0,1-.738-1.411,2.595,2.595,0,1,0-4.7-1.818.9.9,0,0,1-1.624.409,1.592,1.592,0,0,0-2.893.922,1.563,1.563,0,0,0,.134.637.9.9,0,0,1-.823,1.261Z" transform="translate(-9.013 -1.891)" fill="#383a65"/>
      <path id="Path_182956" data-name="Path 182956" d="M10,27.991h9.076a1.5,1.5,0,0,0,.906.906v3.586h1V28.9a1.5,1.5,0,0,0,.906-.906H30.96v4.492h1V27.492a.5.5,0,0,0-.5-.5H21.885a1.5,1.5,0,0,0-.906-.906V23h-1v3.086a1.5,1.5,0,0,0-.906.906H9.5a.5.5,0,0,0-.5.5v4.991h1Zm10.481-1a.5.5,0,1,1-.5.5A.5.5,0,0,1,20.479,26.993Z" transform="translate(-5.506 -12.465)" fill="#383a65"/>
      <path id="Path_182956_-_Outline" data-name="Path 182956 - Outline" d="M32.358,32.883h-1.8V28.391H22.143a1.887,1.887,0,0,1-.765.765v3.727h-1.8V29.156a1.887,1.887,0,0,1-.765-.765H10.4v4.492H8.6V27.492a.9.9,0,0,1,.9-.9h9.316a1.887,1.887,0,0,1,.765-.765V22.6h1.8v3.228a1.887,1.887,0,0,1,.765.765h9.316a.9.9,0,0,1,.9.9Zm-1-.8h.2V27.492a.1.1,0,0,0-.1-.1H21.6l-.095-.265a1.093,1.093,0,0,0-.664-.664l-.265-.095V23.4h-.2v2.968l-.265.095a1.093,1.093,0,0,0-.664.664l-.095.265H9.5a.1.1,0,0,0-.1.1v4.591h.2V27.591h9.757l.095.265a1.093,1.093,0,0,0,.664.664l.265.095v3.467h.2V28.615l.265-.095a1.093,1.093,0,0,0,.664-.664l.095-.265H31.36ZM20.479,28.391a.9.9,0,1,1,.9-.9A.9.9,0,0,1,20.479,28.391Z" transform="translate(-5.506 -12.465)" fill="#383a65"/>
    </g>
  </g>
</svg>
