<svg xmlns="http://www.w3.org/2000/svg" width="33.788" height="24.608" viewBox="0 0 33.788 24.608">
  <path id="Union_5" data-name="Union 5" d="M-11595.893,2528.25a1.226,1.226,0,0,1-.359-.866,1.216,1.216,0,0,1,.359-.866,14.349,14.349,0,0,0,4.229-10.212,14.34,14.34,0,0,0-4.229-10.212,1.226,1.226,0,0,1-.359-.866,1.216,1.216,0,0,1,.359-.866,1.211,1.211,0,0,1,.866-.359,1.2,1.2,0,0,1,.866.359,16.781,16.781,0,0,1,4.947,11.945,16.791,16.791,0,0,1-4.947,11.945,1.216,1.216,0,0,1-.866.359A1.223,1.223,0,0,1-11595.893,2528.25Zm-22.164,0A16.782,16.782,0,0,1-11623,2516.3a16.781,16.781,0,0,1,4.944-11.942,1.216,1.216,0,0,1,.869-.359,1.2,1.2,0,0,1,.864.359,1.2,1.2,0,0,1,.358.866,1.213,1.213,0,0,1-.358.866,14.344,14.344,0,0,0-4.228,10.209,14.345,14.345,0,0,0,4.228,10.212,1.215,1.215,0,0,1,.358.869,1.2,1.2,0,0,1-.358.863,1.206,1.206,0,0,1-.864.362A1.218,1.218,0,0,1-11618.057,2528.247Zm19.212-2.952a1.225,1.225,0,0,1,0-1.733,10.2,10.2,0,0,0,3-7.26,10.2,10.2,0,0,0-3-7.257,1.225,1.225,0,0,1,0-1.733,1.208,1.208,0,0,1,.866-.359,1.21,1.21,0,0,1,.866.359,12.633,12.633,0,0,1,3.722,8.99,12.634,12.634,0,0,1-3.722,8.993,1.209,1.209,0,0,1-.866.359A1.207,1.207,0,0,1-11598.845,2525.3Zm-16.257,0a12.632,12.632,0,0,1-3.725-8.993,12.636,12.636,0,0,1,3.725-8.99,1.2,1.2,0,0,1,.866-.359,1.208,1.208,0,0,1,.866.359,1.225,1.225,0,0,1,0,1.733,10.189,10.189,0,0,0-3.007,7.257,10.192,10.192,0,0,0,3.007,7.26,1.225,1.225,0,0,1,0,1.733,1.207,1.207,0,0,1-.866.359A1.2,1.2,0,0,1-11615.1,2525.3Zm13.3-2.955a1.22,1.22,0,0,1-.359-.866,1.221,1.221,0,0,1,.359-.866,6.047,6.047,0,0,0,1.782-4.305,6.045,6.045,0,0,0-1.782-4.3,1.225,1.225,0,0,1,0-1.733,1.207,1.207,0,0,1,.866-.359,1.207,1.207,0,0,1,.866.359,8.469,8.469,0,0,1,2.5,6.035,8.47,8.47,0,0,1-2.5,6.038,1.219,1.219,0,0,1-.866.359A1.219,1.219,0,0,1-11601.8,2522.34Zm-10.347,0a8.469,8.469,0,0,1-2.5-6.035,8.47,8.47,0,0,1,2.5-6.038,1.216,1.216,0,0,1,.866-.359,1.224,1.224,0,0,1,.866.359,1.23,1.23,0,0,1,0,1.733,6.047,6.047,0,0,0-1.782,4.305,6.04,6.04,0,0,0,1.782,4.3,1.226,1.226,0,0,1,.359.866,1.22,1.22,0,0,1-.359.866,1.212,1.212,0,0,1-.866.359A1.2,1.2,0,0,1-11612.146,2522.34Zm1.68-6.038a4.365,4.365,0,0,1,4.361-4.358,4.365,4.365,0,0,1,4.358,4.358,4.365,4.365,0,0,1-4.358,4.361A4.366,4.366,0,0,1-11610.467,2516.3Zm2.451,0a1.913,1.913,0,0,0,1.91,1.911,1.913,1.913,0,0,0,1.908-1.911,1.913,1.913,0,0,0-1.908-1.908A1.913,1.913,0,0,0-11608.016,2516.3Z" transform="translate(11623.001 -2504.001)" fill="#383a65"/>
</svg>
