<svg xmlns="http://www.w3.org/2000/svg" width="28.057" height="23.329" viewBox="0 0 28.057 23.329">
  <g id="noun-adjustment-1950903" transform="translate(-86.338 -133.719)">
    <path id="Path_183533" data-name="Path 183533" d="M176.383,148.873v7.15a.425.425,0,1,0,.851,0v-7.15a3.235,3.235,0,0,0,0-6.415v-7.713a.425.425,0,1,0-.851,0v7.713a3.235,3.235,0,0,0,0,6.415Zm.425-5.6h0a2.39,2.39,0,1,1-1.687.7,2.386,2.386,0,0,1,1.687-.7Z" transform="translate(-86.604 -0.002)" fill="#383a65" stroke="#383a65" stroke-width="1.2"/>
    <path id="Path_183534" data-name="Path 183534" d="M307.4,153.584v2.438h0a.425.425,0,1,0,.851,0v-2.438a3.383,3.383,0,0,0,0-6.714V134.744a.425.425,0,1,0-.851,0V146.87a3.383,3.383,0,0,0,0,6.714Zm.425-5.893a2.539,2.539,0,1,1-1.792.743,2.536,2.536,0,0,1,1.792-.743Z" transform="translate(-207.533)" fill="#383a65" stroke="#383a65" stroke-width="1.2"/>
    <path id="Path_183535" data-name="Path 183535" d="M440.223,144.8v11.231a.425.425,0,1,0,.851,0V144.8a3.383,3.383,0,0,0,0-6.714V134.75a.425.425,0,1,0-.851,0v3.332a3.383,3.383,0,0,0,0,6.714Zm.426-5.893a2.539,2.539,0,1,1-1.793.744,2.535,2.535,0,0,1,1.793-.744Z" transform="translate(-330.269 -0.005)" fill="#383a65" stroke="#383a65" stroke-width="1.2"/>
  </g>
</svg>
