<svg xmlns="http://www.w3.org/2000/svg" width="23.648" height="23.409" viewBox="0 0 23.648 23.409">
  <g id="Group_117238" data-name="Group 117238" transform="translate(-325.75 -3398.75)">
    <g id="noun_inventory_3377617" transform="translate(326 3399)">
      <path id="Path_183366" data-name="Path 183366" d="M39.418,46H31.7a.7.7,0,0,0-.7.694V68.215a.7.7,0,0,0,.7.694H53.447a.7.7,0,0,0,.7-.694V46.694a.7.7,0,0,0-.7-.694Zm.7,1.388h4.91v9.341l-2.024-1.559a.707.707,0,0,0-.863,0l-2.024,1.559ZM52.745,67.521H32.4V47.388h6.313V58.149a.694.694,0,0,0,.393.625.707.707,0,0,0,.74-.076l2.725-2.083L45.3,58.7a.706.706,0,0,0,.431.146.739.739,0,0,0,.309-.069.694.694,0,0,0,.393-.625V47.388h6.313Z" transform="translate(-31 -46)" fill="#383a65" stroke="#383a65" stroke-width="0.5"/>
      <path id="Path_183367" data-name="Path 183367" d="M69.272,90a.632.632,0,0,0-.632.632v3.159a.632.632,0,0,0,.632.632H74.44a.632.632,0,0,0,.632-.632V90.632A.632.632,0,0,0,74.44,90Zm4.536,3.159H69.9v-1.9h3.9Z" transform="translate(-54.45 -74.04)" fill="#383a65" stroke="#383a65" stroke-width="0.5"/>
    </g>
  </g>
</svg>
