<svg xmlns="http://www.w3.org/2000/svg" width="30.626" height="21.876" viewBox="0 0 30.626 21.876">
  <g id="monitoring" transform="translate(-2 -6)">
    <g id="Layer_2" data-name="Layer 2" transform="translate(2 6)">
      <path id="Path_183146" data-name="Path 183146" d="M3.094,21.313a1.094,1.094,0,0,0,1.094-1.094V19.125H6.375v1.094A3.281,3.281,0,0,0,9.656,23.5h8.75v2.188H11.844a1.094,1.094,0,0,0,0,2.188H27.157a1.094,1.094,0,0,0,0-2.188H20.594V23.5h8.75a3.281,3.281,0,0,0,3.281-3.281V9.281A3.281,3.281,0,0,0,29.345,6H9.656A3.281,3.281,0,0,0,6.375,9.281v7.656H4.188V15.844a1.094,1.094,0,1,0-2.188,0v4.375A1.094,1.094,0,0,0,3.094,21.313ZM8.563,9.281A1.094,1.094,0,0,1,9.656,8.188H29.345a1.094,1.094,0,0,1,1.094,1.094V20.219a1.094,1.094,0,0,1-1.094,1.094H9.656a1.094,1.094,0,0,1-1.094-1.094V19.125H10.75a1.094,1.094,0,0,0,.973-.6l2.625-5.25,4.288,5.469a1.094,1.094,0,0,0,.864.383h0a1.094,1.094,0,0,0,.864-.481l2.188-3.281a1.094,1.094,0,0,0-1.816-1.214l-1.313,2.024-4.375-5.611a1.134,1.134,0,0,0-1.881.2l-3.1,6.18H8.563Z" transform="translate(-2 -6)" fill="#383a65"/>
    </g>
  </g>
</svg>
