<svg xmlns="http://www.w3.org/2000/svg" width="27" height="27" viewBox="0 0 27 27">
  <g id="Group_117097" data-name="Group 117097" transform="translate(-320 -2107)">
    <g id="Putaway_383a65_" data-name="Putaway_383a65 " transform="translate(-309 1573)">
      <circle id="Ellipse_40727" data-name="Ellipse 40727" cx="13.5" cy="13.5" r="13.5" transform="translate(629 534)" fill="#f3f5f8"/>
    </g>
    <g id="Group_117096" data-name="Group 117096" transform="translate(323.574 2107.497)">
      <g id="Group_117094" data-name="Group 117094" transform="translate(2.426 6.503)">
        <path id="Path_183126" data-name="Path 183126" d="M14.251,65.186H6.787v.8a1.755,1.755,0,1,1-2.727-1.742l-.5-.716h0a2.626,2.626,0,1,0,4.1,2.591h6.561a.874.874,0,1,0,.036-.933Z" transform="translate(-2.426 -54.423)" fill="#383a65"/>
        <path id="Path_183127" data-name="Path 183127" d="M13.576,17.4a.876.876,0,0,1,.808-.548l3.291-5.7h0A2.624,2.624,0,1,1,21.959,8.9h0l-.871.076a1.748,1.748,0,1,0-2.667,1.635l.481.278-3.727,6.456h0a.892.892,0,1,1-1.6.052Z" transform="translate(-11.729 -6.503)" fill="#383a65"/>
        <path id="Path_183128" data-name="Path 183128" d="M45.336,19.221l3.69,6.391.439-.254.007.013.011-.006a1.732,1.732,0,1,1,.114,3.073l-.372.788h0a2.614,2.614,0,1,0,.2-4.79h0l-3.274-5.671a.874.874,0,1,0-.815.456Z" transform="translate(-37.794 -15.733)" fill="#383a65"/>
      </g>
    </g>
  </g>
</svg>
