<svg xmlns="http://www.w3.org/2000/svg" width="32.637" height="28.274" viewBox="0 0 32.637 28.274">
  <g id="Group_117312" data-name="Group 117312" transform="translate(-341 -3635.2)">
    <g id="Group_117310" data-name="Group 117310" transform="translate(341 3636)">
      <path id="Subtraction_27" data-name="Subtraction 27" d="M.983,10.785A.983.983,0,0,1,0,9.807V6.866A6.866,6.866,0,0,1,6.867,0h9.807V1.962H6.867a4.9,4.9,0,0,0-4.9,4.9V9.807A.981.981,0,0,1,.983,10.785Z" transform="translate(0 16.673)" fill="#383a65"/>
      <path id="Path_183537" data-name="Path 183537" d="M18.519,10.385A5.885,5.885,0,1,1,12.635,4.5,5.885,5.885,0,0,1,18.519,10.385Z" transform="translate(-0.618 -4.5)" fill="none" stroke="#383a65" stroke-linecap="round" stroke-linejoin="round" stroke-width="1.6"/>
      <g id="Group_117308" data-name="Group 117308" transform="translate(18.244 13.221)">
        <g id="noun_inventory_3377617" transform="translate(0 0)">
          <path id="Path_183366" data-name="Path 183366" d="M35.948,46H31.412a.41.41,0,0,0-.412.408V59.059a.41.41,0,0,0,.412.408H44.2a.41.41,0,0,0,.412-.408V46.408A.41.41,0,0,0,44.2,46Zm.412.816h2.887v5.491l-1.19-.916a.416.416,0,0,0-.507,0l-1.19.916Zm7.423,11.835H31.825V46.816h3.711v6.326a.408.408,0,0,0,.231.367.416.416,0,0,0,.435-.045l1.6-1.224,1.6,1.224a.415.415,0,0,0,.254.086.435.435,0,0,0,.181-.041.408.408,0,0,0,.231-.367V46.816h3.711Z" transform="translate(-30.608 -45.608)" fill="#383a65"/>
          <path id="Path_183366_-_Outline" data-name="Path 183366 - Outline" d="M31.6,45.8H44.388a.8.8,0,0,1,.8.8V59.252a.8.8,0,0,1-.8.8H31.6a.8.8,0,0,1-.8-.8V46.6A.8.8,0,0,1,31.6,45.8ZM44.388,59.268a.018.018,0,0,0,.02-.016V46.6a.018.018,0,0,0-.02-.016H31.6a.018.018,0,0,0-.02.016V59.252a.018.018,0,0,0,.02.016ZM31.625,46.616h4.5v6.718a.016.016,0,0,0,.01.014.021.021,0,0,0,.024,0L38,51.939l1.84,1.406a.028.028,0,0,0,.031,0,.017.017,0,0,0,0-.011V46.616h4.5v12.62H31.625Zm3.711.785H32.409V58.451H43.583V47.4H40.657v5.933a.8.8,0,0,1-.452.72.824.824,0,0,1-.845-.087L38,52.926l-1.364,1.042a.826.826,0,0,1-.844.086.8.8,0,0,1-.453-.721Zm.825-.785h3.671V53.3l-1.821-1.4a.023.023,0,0,0-.028,0l-1.822,1.4Zm2.887.785h-2.1v4.3l.558-.43a.808.808,0,0,1,.986,0l.558.429Z" transform="translate(-30.8 -45.8)" fill="#383a65"/>
        </g>
      </g>
    </g>
  </g>
</svg>
