<svg xmlns="http://www.w3.org/2000/svg" width="25.313" height="30" viewBox="0 0 25.313 30">
  <g id="verified" transform="translate(-40.391 0)">
    <path id="Path_34421" data-name="Path 34421" d="M64.59,4.858,53.106.09a1.172,1.172,0,0,0-.9,0L40.723,4.858A1.172,1.172,0,0,0,40,5.94v5.8A19.625,19.625,0,0,0,52.213,29.913a1.172,1.172,0,0,0,.886,0A19.625,19.625,0,0,0,65.313,11.737V5.94A1.172,1.172,0,0,0,64.59,4.858Zm-1.621,6.879A17.285,17.285,0,0,1,52.656,27.555,17.286,17.286,0,0,1,42.344,11.737V6.723L52.656,2.441,62.969,6.723Z" transform="translate(0.391)" fill="#383a65"/>
    <path id="Line_2105" data-name="Line 2105" d="M.485,10.351A1.135,1.135,0,0,1-.65,9.216V.485a1.135,1.135,0,0,1,2.27,0V9.216A1.135,1.135,0,0,1,.485,10.351Z" transform="translate(52.563 9.149)" fill="#383a65"/>
    <path id="Line_2106" data-name="Line 2106" d="M1.135,11A1.135,1.135,0,0,1,0,9.866V1.135a1.135,1.135,0,0,1,2.27,0V9.866A1.135,1.135,0,0,1,1.135,11Z" transform="translate(58.548 12.865) rotate(90)" fill="#383a65"/>
  </g>
</svg>
