<svg xmlns="http://www.w3.org/2000/svg" width="20.145" height="20" viewBox="0 0 20.145 20">
  <g id="Group_117263" data-name="Group 117263" transform="translate(-38 -3447)">
    <rect id="Rectangle_22887" data-name="Rectangle 22887" width="20" height="20" transform="translate(38 3447)" fill="#171c78" opacity="0"/>
    <g id="Group_117262" data-name="Group 117262" transform="translate(-103.523 244.964)">
      <g id="Group_117257" data-name="Group 117257" transform="translate(141.523 3203.231)">
        <path id="Path_183468" data-name="Path 183468" d="M119.379,27.479h0a7.869,7.869,0,0,1-6.459-3.373.631.631,0,1,1,1.032-.725,6.613,6.613,0,0,0,5.429,2.837,6.746,6.746,0,1,0,0-13.491,6.992,6.992,0,0,0-4.88,2.113l2.307,0h.014a.631.631,0,0,1,.006,1.261h-3.558a.955.955,0,0,1-.137.01.6.6,0,0,1-.439-.168.624.624,0,0,1-.125-.179h-.018l.011-.015a.637.637,0,0,1-.024-.441l.077-3.51a.631.631,0,0,1,1.261.011l.044,1.815a8,8,0,1,1,5.48,13.85Z" transform="translate(-107.242 -11.183)" fill="#fff"/>
        <path id="Path_183469" data-name="Path 183469" d="M53.94,28.965h-2.61V24.49a.659.659,0,0,0-1.318,0v5.134a.659.659,0,0,0,.659.659H53.94a.659.659,0,0,0,0-1.317Z" transform="translate(-38.584 -20.324)" fill="#fff"/>
        <path id="Line_2129" data-name="Line 2129" d="M7.136.642H-.116A.565.565,0,0,1-.6.021.565.565,0,0,1-.116-.6H7.136A.565.565,0,0,1,7.62.021.565.565,0,0,1,7.136.642Z" transform="translate(1.174 6.468)" fill="#fff"/>
        <path id="Line_2130" data-name="Line 2130" d="M5.653.642H-.106A.568.568,0,0,1-.6.021.568.568,0,0,1-.106-.6H5.653a.568.568,0,0,1,.494.621A.568.568,0,0,1,5.653.642Z" transform="translate(2.647 8.539)" fill="#fff"/>
        <path id="Line_2131" data-name="Line 2131" d="M4.162.642H.021A.621.621,0,0,1,.021-.6H4.162a.621.621,0,1,1,0,1.242Z" transform="translate(4.01 10.609)" fill="#fff"/>
      </g>
    </g>
  </g>
</svg>
