<svg xmlns="http://www.w3.org/2000/svg" width="27" height="27" viewBox="0 0 27 27">
  <g id="Group_116637" data-name="Group 116637" transform="translate(-314 -100)">
    <g id="Group_484" data-name="Group 484" transform="translate(314 100)">
      <g id="Group_476" data-name="Group 476">
        <circle id="Ellipse_92" data-name="Ellipse 92" cx="13.5" cy="13.5" r="13.5" fill="#f3f5f8"/>
      </g>
    </g>
    <path id="people_2_" data-name="people (2)" d="M14.342,13.474a.936.936,0,0,0,.956-.956c0-.956-.956-3.825-4.781-3.825s-4.781,2.868-4.781,3.825a.936.936,0,0,0,.956.956Zm-7.628-.956-.021,0a2.934,2.934,0,0,1,.727-1.645,3.826,3.826,0,0,1,3.1-1.22,3.832,3.832,0,0,1,3.1,1.22,2.944,2.944,0,0,1,.727,1.645l-.008,0-.013,0Zm3.8-5.737A1.912,1.912,0,1,0,8.605,4.868,1.912,1.912,0,0,0,10.517,6.781Zm2.868-1.912A2.868,2.868,0,1,1,10.517,2,2.868,2.868,0,0,1,13.386,4.868ZM6.632,8.961a5.622,5.622,0,0,0-1.176-.236q-.337-.032-.675-.032C.956,8.693,0,11.561,0,12.517a.845.845,0,0,0,.956.956H4.987a2.14,2.14,0,0,1-.207-.956A4.388,4.388,0,0,1,5.823,9.741a5.059,5.059,0,0,1,.809-.78ZM4.7,9.649a5.252,5.252,0,0,0-.88,2.868H.956a2.934,2.934,0,0,1,.727-1.648A3.8,3.8,0,0,1,4.7,9.65Zm-3.27-4.3A2.868,2.868,0,1,1,4.3,8.215,2.868,2.868,0,0,1,1.434,5.346ZM4.3,3.434A1.912,1.912,0,1,0,6.215,5.346,1.912,1.912,0,0,0,4.3,3.434Z" transform="translate(319.702 104.578)" fill="#383a65"/>
  </g>
</svg>
