<svg xmlns="http://www.w3.org/2000/svg" width="20" height="20.215" viewBox="0 0 20 20.215">
  <g id="Group_117321" data-name="Group 117321" transform="translate(-36 -3858.9)">
    <rect id="Rectangle_22908" data-name="Rectangle 22908" width="20" height="20" transform="translate(36 3859)" fill="#fff" opacity="0"/>
    <g id="noun-receipt-1402416" transform="translate(-59.144 3822.601)">
      <path id="Path_183538" data-name="Path 183538" d="M236.22,205.317h2.94a.459.459,0,0,0,0-.919h-2.94a.459.459,0,0,0,0,.919Z" transform="translate(-135.149 -161.108)" fill="#fff" stroke="#fff" stroke-width="0.2"/>
      <path id="Path_183539" data-name="Path 183539" d="M241.917,277.2h-5.7a.459.459,0,0,0,0,.919h5.7a.459.459,0,0,0,0-.919Z" transform="translate(-135.149 -230.924)" fill="#fff" stroke="#fff" stroke-width="0.2"/>
      <path id="Path_183540" data-name="Path 183540" d="M241.917,350h-5.7a.459.459,0,1,0,0,.919h5.7a.459.459,0,1,0,0-.919Z" transform="translate(-135.149 -300.738)" fill="#fff" stroke="#fff" stroke-width="0.2"/>
      <path id="Path_183541" data-name="Path 183541" d="M167.507,53.236v-15A1.838,1.838,0,0,0,165.67,36.4h-9.877a1.838,1.838,0,0,0-1.838,1.838v.873h-.919a1.837,1.837,0,0,0-1.838,1.838v15a.459.459,0,0,0,.781.322l1.769-1.631,1.792,1.631a.46.46,0,0,0,.62,0l1.815-1.631,1.815,1.631a.46.46,0,0,0,.62,0l1.815-1.631,1.746,1.631a.46.46,0,0,0,.322.115l.184-.046a.459.459,0,0,0,.276-.414V52.156l.23-.207,1.769,1.631h0a.459.459,0,0,0,.322.115l.184-.046h0A.46.46,0,0,0,167.507,53.236Zm-3.675,1.654-1.286-1.194a.46.46,0,0,0-.62,0l-1.815,1.631L158.3,53.695h0a.459.459,0,0,0-.62,0l-1.814,1.631-1.815-1.631h0a.46.46,0,0,0-.62,0l-1.309,1.194V40.924a.918.918,0,0,1,.919-.919h9.877a.918.918,0,0,1,.919.919Zm2.756-2.71-1.309-1.194a.459.459,0,0,0-.551-.069V40.924a1.837,1.837,0,0,0-1.838-1.837h-8.039v-.85a.919.919,0,0,1,.919-.919h9.877a.919.919,0,0,1,.919.919Z" transform="translate(-54.055)" fill="#fff" stroke="#fff" stroke-width="0.2"/>
    </g>
  </g>
</svg>
