<svg xmlns="http://www.w3.org/2000/svg" width="20" height="20" viewBox="0 0 20 20">
  <g id="Group_117314" data-name="Group 117314" transform="translate(-35 -3641)">
    <rect id="Rectangle_22901" data-name="Rectangle 22901" width="20" height="20" transform="translate(35 3641)" fill="#fff" opacity="0"/>
    <g id="Group_117313" data-name="Group 117313" transform="translate(-83 -8)">
      <g id="Group_117310" data-name="Group 117310" transform="translate(118 3651)">
        <path id="Subtraction_27" data-name="Subtraction 27" d="M.6,6.609a.6.6,0,0,1-.6-.6v-1.8A4.209,4.209,0,0,1,4.208,0h6.01V1.2H4.208a3.006,3.006,0,0,0-3,3v1.8A.6.6,0,0,1,.6,6.609Z" transform="translate(0 10.218)" fill="#fff"/>
        <path id="Path_183537" data-name="Path 183537" d="M13.962,8.106A3.606,3.606,0,1,1,10.356,4.5,3.606,3.606,0,0,1,13.962,8.106Z" transform="translate(-2.992 -4.5)" fill="none" stroke="#fff" stroke-linecap="round" stroke-linejoin="round" stroke-width="1"/>
        <g id="Group_117308" data-name="Group 117308" transform="translate(11.18 8.102)">
          <g id="noun_inventory_3377617" transform="translate(0 0)">
            <path id="Path_183366" data-name="Path 183366" d="M34.032,46h-2.78a.251.251,0,0,0-.253.25V54a.251.251,0,0,0,.253.25h7.834a.251.251,0,0,0,.253-.25V46.25a.251.251,0,0,0-.253-.25Zm.253.5h1.769v3.365l-.729-.561a.255.255,0,0,0-.311,0l-.729.561Zm4.549,7.253H31.505V46.5H33.78v3.876a.25.25,0,0,0,.142.225.255.255,0,0,0,.266-.027l.982-.75.982.75a.254.254,0,0,0,.155.053.266.266,0,0,0,.111-.025.25.25,0,0,0,.142-.225V46.5h2.274Z" transform="translate(-30.76 -45.76)" fill="#fff"/>
            <path id="Path_183366_-_Outline" data-name="Path 183366 - Outline" d="M31.293,45.8h7.834a.492.492,0,0,1,.493.49v7.753a.492.492,0,0,1-.493.49H31.293a.492.492,0,0,1-.493-.49V46.29A.492.492,0,0,1,31.293,45.8Zm7.834,8.253a.011.011,0,0,0,.012-.01V46.29a.011.011,0,0,0-.012-.01H31.293a.011.011,0,0,0-.012.01v7.753a.011.011,0,0,0,.012.01ZM31.305,46.3h2.755v4.117a.01.01,0,0,0,.006.009.013.013,0,0,0,.015,0l1.129-.863,1.128.862a.017.017,0,0,0,.019,0,.01.01,0,0,0,0-.007V46.3h2.755v7.733H31.305Zm2.274.481H31.786v6.772h6.847V46.781H36.84v3.636a.493.493,0,0,1-.277.441.5.5,0,0,1-.518-.053l-.835-.638-.836.639a.506.506,0,0,1-.517.053.493.493,0,0,1-.277-.442Zm.505-.481h2.25v4.094l-1.116-.86a.014.014,0,0,0-.017,0l-1.116.86Zm1.769.481H34.566v2.636l.342-.263a.5.5,0,0,1,.6,0l.342.263Z" transform="translate(-30.8 -45.8)" fill="#fff"/>
          </g>
        </g>
      </g>
    </g>
  </g>
</svg>
