<svg xmlns="http://www.w3.org/2000/svg" width="27" height="27" viewBox="0 0 27 27">
  <g id="Group_117122" data-name="Group 117122" transform="translate(-320 -2167)">
    <g id="Group_117105" data-name="Group 117105" transform="translate(0 60)">
      <g id="Putaway_383a65_" data-name="Putaway_383a65 " transform="translate(-309 1573)">
        <circle id="Ellipse_40727" data-name="Ellipse 40727" cx="13.5" cy="13.5" r="13.5" transform="translate(629 534)" fill="#f3f5f8"/>
      </g>
    </g>
    <g id="Group_117111" data-name="Group 117111" transform="translate(108.477 7.087)">
      <path id="Subtraction_4" data-name="Subtraction 4" d="M2.8,13.585a2.8,2.8,0,1,1,0-5.6,2.66,2.66,0,0,1,.471.041L8.024,3.272A2.613,2.613,0,0,1,7.98,2.8,2.78,2.78,0,0,1,9.055.592,2.808,2.808,0,0,1,10.775,0a2.75,2.75,0,0,1,.686.086.363.363,0,0,1,.263.254A.371.371,0,0,1,11.629.7L10.312,2.014l.314.944.945.314L12.89,1.955a.364.364,0,0,1,.256-.106.384.384,0,0,1,.1.013.362.362,0,0,1,.256.263,2.815,2.815,0,0,1-.506,2.4A2.781,2.781,0,0,1,10.886,5.6l0,.005h-.1a2.817,2.817,0,0,1-.471-.043L9.3,6.574l.408.408a.365.365,0,0,1,.056.073,3.945,3.945,0,0,0-.907.442.822.822,0,0,1,.1-.242l-.168-.17-1.705,1.7.17.17a.849.849,0,0,1,.338-.113,3.949,3.949,0,0,0-.4.969.366.366,0,0,1-.216-.1L6.571,9.3,5.563,10.312a2.77,2.77,0,0,1,.043.471A2.806,2.806,0,0,1,2.8,13.585ZM2.787,8.707a2.091,2.091,0,1,0,2.026,1.575.364.364,0,0,1,.095-.345L9.988,4.855l.013,0a.358.358,0,0,1,.191-.054.362.362,0,0,1,.09.011,2.064,2.064,0,0,0,2.565-1.788l-.921.92a.364.364,0,0,1-.256.106.349.349,0,0,1-.116-.018l-1.33-.443a.367.367,0,0,1-.231-.231L9.55,2.029a.367.367,0,0,1,.089-.372l.92-.92a2.047,2.047,0,0,0-1.379.737A2.071,2.071,0,0,0,8.772,3.3a.373.373,0,0,1-.1.347L3.648,8.677a.367.367,0,0,1-.258.106.4.4,0,0,1-.086-.01A2.03,2.03,0,0,0,2.787,8.707Zm.681,3.548H2.135a.368.368,0,0,1-.309-.177l-.666-1.109a.364.364,0,0,1,0-.374l.666-1.109a.368.368,0,0,1,.309-.177H3.468a.372.372,0,0,1,.311.177L4.441,10.6a.364.364,0,0,1,0,.374l-.666,1.109A.364.364,0,0,1,3.468,12.255ZM2.339,10.037l-.447.745.447.745h.922l.447-.745-.447-.745H2.339Zm2.171-.449h0L4,9.074,9.074,4l.513.512L4.511,9.587Zm.35-3.323h0L1.95,3.355l-.79-.2a.371.371,0,0,1-.226-.172L.029,1.4v0a.364.364,0,0,1,.079-.4L1,.107A.36.36,0,0,1,1.252,0,.356.356,0,0,1,1.43.05L2.983.934a.358.358,0,0,1,.171.231l.2.787,2.91,2.912-.513.512L2.767,2.395a.385.385,0,0,1-.1-.17l-.185-.735L1.31.816.817,1.31l.669,1.175.737.185a.363.363,0,0,1,.168.1L5.373,5.751l-.512.513Z" transform="translate(217.524 2165.913)" fill="#383a65"/>
      <g id="Icon_ionic-ios-checkmark-circle-outline" data-name="Icon ionic-ios-checkmark-circle-outline" transform="translate(225.09 2173.08)">
        <path id="Path_183131" data-name="Path 183131" d="M13.871,12.516l-.282-.29a.061.061,0,0,0-.045-.019h0a.058.058,0,0,0-.045.019L11.541,14.2l-.712-.712a.062.062,0,0,0-.09,0l-.286.286a.064.064,0,0,0,0,.091l.9.9a.284.284,0,0,0,.188.091.3.3,0,0,0,.186-.088h0l2.145-2.156A.069.069,0,0,0,13.871,12.516Z" transform="translate(-8.703 -10.071)" fill="#383a65"/>
        <path id="Path_183131_-_Outline" data-name="Path 183131 - Outline" d="M13.464,12.006a.183.183,0,0,1,.133.057l.281.289a.188.188,0,0,1,.008.252l-.008.008L11.7,14.8h-.007a.384.384,0,0,1-.23.088.4.4,0,0,1-.273-.127l-.9-.9a.184.184,0,0,1,0-.262l.286-.286a.183.183,0,0,1,.26,0l.627.627,1.87-1.884A.18.18,0,0,1,13.464,12.006Zm.2.476-.2-.21-2,2.016-.758-.758-.206.206.859.859a.172.172,0,0,0,.1.056.178.178,0,0,0,.1-.055l.024-.023Z" transform="translate(-8.624 -9.991)" fill="#383a65"/>
        <path id="Path_183132" data-name="Path 183132" d="M6.712,3.824A2.887,2.887,0,1,1,4.67,4.67a2.869,2.869,0,0,1,2.042-.846m0-.449a3.337,3.337,0,1,0,3.337,3.337A3.337,3.337,0,0,0,6.712,3.375Z" transform="translate(-3.254 -3.254)" fill="#383a65"/>
        <path id="Path_183132_-_Outline" data-name="Path 183132 - Outline" d="M6.633,3.175A3.458,3.458,0,1,1,3.175,6.633,3.462,3.462,0,0,1,6.633,3.175Zm0,6.674A3.217,3.217,0,1,0,3.416,6.633,3.22,3.22,0,0,0,6.633,9.849Zm0-6.225a3.007,3.007,0,1,1-2.128.881A2.989,2.989,0,0,1,6.633,3.624Zm0,5.776a2.766,2.766,0,1,0-1.957-.81A2.75,2.75,0,0,0,6.633,9.4Z" transform="translate(-3.175 -3.175)" fill="#383a65"/>
      </g>
    </g>
  </g>
</svg>
