<svg xmlns="http://www.w3.org/2000/svg" width="36.788" height="26.679" viewBox="0 0 36.788 26.679">
  <g id="Group_117171" data-name="Group 117171" transform="translate(-270.999 -3183.001)">
    <g id="Group_117170" data-name="Group 117170" transform="translate(117.786 58.68)">
      <g id="Group_117169" data-name="Group 117169" transform="translate(151 3113.954)">
        <path id="Path_183158" data-name="Path 183158" d="M-11605.571,2513.68h-15.494a1.938,1.938,0,0,1-1.931-1.938v-5.81a1.936,1.936,0,0,1,1.931-1.933h15.494a1.933,1.933,0,0,1,1.931,1.933v5.81A1.936,1.936,0,0,1-11605.571,2513.68Zm-8.627-7.505a2.817,2.817,0,0,0-1.406.362,2.631,2.631,0,0,0-1.012,1,2.842,2.842,0,0,0-.374,1.451,2.8,2.8,0,0,0,.374,1.444,2.668,2.668,0,0,0,1.012,1.006,2.9,2.9,0,0,0,1.406.357,2.824,2.824,0,0,0,1.406-.357,2.6,2.6,0,0,0,1.013-1.006,2.843,2.843,0,0,0,.375-1.444,2.917,2.917,0,0,0-.366-1.451,2.612,2.612,0,0,0-1.011-1A2.78,2.78,0,0,0-11614.2,2506.175Zm6.066.039a2.888,2.888,0,0,0-1.458.35,2.546,2.546,0,0,0-.953.983,3.074,3.074,0,0,0-.337,1.447,3.071,3.071,0,0,0,.337,1.445,2.432,2.432,0,0,0,.966.987,2.94,2.94,0,0,0,1.467.357,2.682,2.682,0,0,0,1.631-.486,2.9,2.9,0,0,0,.938-1.164v-1.513h-2.783v1.085h1.525a1.323,1.323,0,0,1-.467.554,1.318,1.318,0,0,1-.685.18,1.33,1.33,0,0,1-1.029-.367,1.494,1.494,0,0,1-.356-1.078,1.478,1.478,0,0,1,.328-1.006,1.12,1.12,0,0,1,.886-.374,1.2,1.2,0,0,1,.567.13.975.975,0,0,1,.365.356h1.6a2.093,2.093,0,0,0-.812-1.377A2.812,2.812,0,0,0-11608.132,2506.214Zm-12.512.046v5.482h3.231v-1.152h-1.705v-4.33Zm6.445,4.117a1.141,1.141,0,0,1-.906-.379,1.487,1.487,0,0,1-.334-1.01,1.5,1.5,0,0,1,.334-1.028,1.16,1.16,0,0,1,.906-.377,1.141,1.141,0,0,1,.912.377,1.5,1.5,0,0,1,.332,1.028,1.49,1.49,0,0,1-.332,1.01A1.144,1.144,0,0,1-11614.2,2510.377Z" transform="translate(11642.642 -2476.634)" fill="#383a65"/>
      </g>
    </g>
    <path id="Subtraction_19" data-name="Subtraction 19" d="M-11607.433,2528.709h-10.065a5.548,5.548,0,0,1-5.5-5.559v-13.593a5.546,5.546,0,0,1,5.5-5.556h21.607a5.547,5.547,0,0,1,5.5,5.556v10.168h-2.038v-10.168a3.489,3.489,0,0,0-3.466-3.5h-21.607a3.488,3.488,0,0,0-3.465,3.5v13.593a3.493,3.493,0,0,0,3.465,3.5h10.065v2.058Zm.731-11.326a3.535,3.535,0,0,1-1.957-.591l-9.823-6.795a1.022,1.022,0,0,1-.426-.661,1.037,1.037,0,0,1,.162-.772,1.015,1.015,0,0,1,.841-.448,1.007,1.007,0,0,1,.575.18l9.8,6.782a1.539,1.539,0,0,0,.836.247,1.53,1.53,0,0,0,.855-.261l9.776-6.768a1.009,1.009,0,0,1,.575-.18,1.019,1.019,0,0,1,.844.447,1.036,1.036,0,0,1,.161.772,1.024,1.024,0,0,1-.425.661l-9.8,6.779A3.627,3.627,0,0,1-11606.7,2517.384Z" transform="translate(11894 679)" fill="#383a65"/>
  </g>
</svg>
