<svg xmlns="http://www.w3.org/2000/svg" width="20.002" height="20" viewBox="0 0 20.002 20">
  <g id="Group_117224" data-name="Group 117224" transform="translate(-33 -3253)">
    <rect id="Rectangle_22885" data-name="Rectangle 22885" width="20" height="20" transform="translate(33 3253)" fill="#de2222" opacity="0"/>
    <g id="Group_117211" data-name="Group 117211" transform="translate(-306.556 -10.56)">
      <path id="Subtraction_16" data-name="Subtraction 16" d="M18.12,18.589H1.883A1.884,1.884,0,0,1,0,16.707V1.883A1.884,1.884,0,0,1,1.883,0H18.12A1.885,1.885,0,0,1,20,1.883V16.707A1.885,1.885,0,0,1,18.12,18.589ZM1.414,4.057V16.707a.47.47,0,0,0,.469.47H18.12a.47.47,0,0,0,.47-.47V4.057Zm.469-2.648a.471.471,0,0,0-.469.474v.762H18.59V1.883a.472.472,0,0,0-.47-.474Z" transform="translate(339.556 3264.56)" fill="#fff"/>
      <path id="Path" d="M34.553,37.7a5.083,5.083,0,0,0-4.165,2.283l-.588.894,3.388.565.235-1.388-1.012-.165a3.389,3.389,0,0,1,2.141-.777,3.581,3.581,0,0,1,3.506,3.53h1.412A5.007,5.007,0,0,0,34.553,37.7Z" transform="translate(315.004 3231.906)" fill="#fff"/>
      <path id="Path-2" data-name="Path" d="M35.147,60.888l1.012.165a3.388,3.388,0,0,1-2.141.777,3.581,3.581,0,0,1-3.506-3.53H29.1a5.007,5.007,0,0,0,4.918,4.942,5.083,5.083,0,0,0,4.165-2.283l.588-.894L35.383,59.5Z" transform="translate(315.539 3216.153)" fill="#fff"/>
    </g>
  </g>
</svg>
