<svg xmlns="http://www.w3.org/2000/svg" width="20.201" height="20.201" viewBox="0 0 20.201 20.201">
  <g id="Group_117042" data-name="Group 117042" transform="translate(-22.799 -2642.799)">
    <g id="Group_117041" data-name="Group 117041" transform="translate(-7 -121)">
      <rect id="Rectangle_22814" data-name="Rectangle 22814" width="20" height="20" transform="translate(30 2764)" fill="#c1c1c1" opacity="0"/>
    </g>
    <g id="Group_117040" data-name="Group 117040" transform="translate(-145.887 26)">
      <g id="noun_inspection_3780461" transform="translate(168.887 2617)">
        <g id="Group_117036" data-name="Group 117036" transform="translate(0 0)">
          <path id="Path_183094" data-name="Path 183094" d="M22.5,20.11l-6.259-6.26a.339.339,0,0,0-.479,0l-.239.239-.545-.545a6.114,6.114,0,1,0-1.437,1.437l.545.545-.239.239a.339.339,0,0,0,0,.479L20.11,22.5a1.306,1.306,0,0,0,1.847,0l.547-.547a1.306,1.306,0,0,0,0-1.847ZM4.6,10.02a5.418,5.418,0,1,1,5.418,5.418A5.418,5.418,0,0,1,4.6,10.02Zm9.474,4.536a6.139,6.139,0,0,0,.479-.479l.492.492-.479.479Zm.732,1.211.958-.958.239-.239.479.479-1.437,1.437-.479-.479Zm7.217,5.712-.547.547a.645.645,0,0,1-.889,0l-5.062-5.062,1.437-1.437,5.062,5.062a.629.629,0,0,1,0,.889Z" transform="translate(-3.887 -3.887)" fill="#fff" stroke="#fff" stroke-width="0.4"/>
        </g>
      </g>
      <g id="Icon_feather-eye" data-name="Icon feather-eye" transform="translate(170.744 2620.101)">
        <path id="Path_182969" data-name="Path 182969" d="M4.357,4.75a3.616,3.616,0,0,1,1.761.47,5.208,5.208,0,0,1,1.27,1.01A6.831,6.831,0,0,1,8.433,7.686a.289.289,0,0,1,0,.259A6.831,6.831,0,0,1,7.388,9.4a5.208,5.208,0,0,1-1.27,1.01,3.536,3.536,0,0,1-3.522,0A5.208,5.208,0,0,1,1.326,9.4,6.831,6.831,0,0,1,.281,7.945a.289.289,0,0,1,0-.259A6.831,6.831,0,0,1,1.326,6.23,5.208,5.208,0,0,1,2.6,5.22,3.616,3.616,0,0,1,4.357,4.75ZM7.845,7.816a6.56,6.56,0,0,0-.89-1.2,3.57,3.57,0,0,0-2.6-1.286c-1.935,0-3.186,1.96-3.488,2.487a6.56,6.56,0,0,0,.89,1.2,3.57,3.57,0,0,0,2.6,1.286C6.292,10.3,7.543,8.343,7.845,7.816Z" transform="translate(-0.25 -4.75)" fill="#fff" stroke="#fff" stroke-linecap="round" stroke-width="0.4"/>
        <path id="Path_182970" data-name="Path 182970" d="M13.58,12.25a1.33,1.33,0,1,1-1.33,1.33A1.332,1.332,0,0,1,13.58,12.25Zm0,2.082a.752.752,0,1,0-.752-.752A.753.753,0,0,0,13.58,14.332Z" transform="translate(-9.474 -10.515)" fill="#fff" stroke="#fff" stroke-linecap="round" stroke-width="0.4"/>
      </g>
    </g>
  </g>
</svg>
