<svg xmlns="http://www.w3.org/2000/svg" width="27" height="27" viewBox="0 0 27 27">
  <g id="Group_117208" data-name="Group 117208" transform="translate(-311 -2839)">
    <circle id="Ellipse_40727" data-name="Ellipse 40727" cx="13.5" cy="13.5" r="13.5" transform="translate(311 2839)" fill="#f3f5f8"/>
    <g id="Group_117182" data-name="Group 117182" transform="translate(107.217 10)">
      <path id="Subtraction_22" data-name="Subtraction 22" d="M13.477,14.761h-8.3a1.847,1.847,0,0,1-1.845-1.845h.923a.923.923,0,0,0,.922.923h8.3a.924.924,0,0,0,.923-.923V5.075h-3.69a.462.462,0,0,1-.461-.462V.923H5.174a.924.924,0,0,0-.922.923v.461H3.329V1.846A1.847,1.847,0,0,1,5.174,0h5.547A.464.464,0,0,1,10.99.1a.009.009,0,0,0,0,0,.531.531,0,0,1,.041.037L15.178,4.28a.457.457,0,0,1,.143.322v8.314A1.847,1.847,0,0,1,13.477,14.761ZM11.171,1.576V4.153h2.577ZM3.63,12.356a.462.462,0,0,1-.462-.462v-2A3.6,3.6,0,0,1,1.062,8.858a3.63,3.63,0,1,1,5.135,0A3.594,3.594,0,0,1,4.091,9.89v2A.463.463,0,0,1,3.63,12.356Zm0-3.361.049,0a2.711,2.711,0,1,0-.1,0Zm8.464,1.462H8.4V9.535h3.69a.461.461,0,0,1,0,.922Zm0-1.845H8.4V7.69h3.69a.461.461,0,0,1,0,.923Z" transform="translate(209.782 2834.999)" fill="#383a65"/>
    </g>
  </g>
</svg>
