<svg xmlns="http://www.w3.org/2000/svg" width="27" height="27" viewBox="0 0 27 27">
  <g id="Cycle_Count_383a65_" data-name="Cycle_Count_383a65 " transform="translate(-1184 -534)">
    <circle id="Ellipse_40727" data-name="Ellipse 40727" cx="13.5" cy="13.5" r="13.5" transform="translate(1184 534)" fill="#f3f5f8"/>
    <g id="noun_Key_4387464" transform="translate(1187.399 537.981)">
      <g id="Layer_2" data-name="Layer 2" transform="translate(1.999 2)">
        <path id="Path_183124" data-name="Path 183124" d="M13.571,2A4.629,4.629,0,0,0,8.943,6.629a4.565,4.565,0,0,0,.075.839l-6.85,6.85a.579.579,0,0,0,0,.816L3.9,16.869a.579.579,0,0,0,.816,0L5.76,15.834,6.8,16.869a.579.579,0,0,0,.816,0l1.736-1.736a.579.579,0,0,0,0-.816L8.312,13.282l2.76-2.76A4.629,4.629,0,1,0,13.571,2Zm0,8.1a3.471,3.471,0,0,1-2.187-.781.579.579,0,0,0-.775.035L7.091,12.871a.579.579,0,0,0,0,.816l1.036,1.041-.92.92L6.171,14.607a.579.579,0,0,0-.816,0L4.314,15.649l-.92-.92,6.671-6.665a.579.579,0,0,0,.15-.579,3.373,3.373,0,0,1-.116-.856A3.471,3.471,0,1,1,13.571,10.1Z" transform="translate(-1.999 -2)" fill="#383a65"/>
        <path id="Path_183125" data-name="Path 183125" d="M20.313,6a2.313,2.313,0,1,0,2.313,2.313A2.313,2.313,0,0,0,20.313,6Zm0,3.47A1.157,1.157,0,1,1,21.47,8.313,1.157,1.157,0,0,1,20.313,9.47Z" transform="translate(-8.74 -3.685)" fill="#383a65"/>
      </g>
    </g>
  </g>
</svg>
