<svg xmlns="http://www.w3.org/2000/svg" width="20.383" height="20" viewBox="0 0 20.383 20">
  <g id="IOT" transform="translate(-262.82 -269)">
    <rect id="Rectangle_22809" data-name="Rectangle 22809" width="20" height="20" transform="translate(263 269)" fill="#c1c1c1" opacity="0"/>
    <g id="Outline" transform="translate(261.032 265.021)">
      <path id="Path_182925" data-name="Path 182925" d="M30.622,34.928a2.681,2.681,0,0,0-1.884,0,.333.333,0,1,0,.233.624,2.008,2.008,0,0,1,1.415,0,.333.333,0,1,0,.233-.624Z" transform="translate(-17.71 -19.86)" fill="#fff"/>
      <path id="Path_182926" data-name="Path 182926" d="M29.912,31.2a3.779,3.779,0,0,0-3.479,0,.333.333,0,0,0,.306.591,3.119,3.119,0,0,1,2.866,0,.333.333,0,0,0,.306-.591Z" transform="translate(-16.202 -17.207)" fill="#fff"/>
      <path id="Path_182927" data-name="Path 182927" d="M24.505,28.052a4.147,4.147,0,0,1,4.317,0,.333.333,0,1,0,.346-.57,4.814,4.814,0,0,0-5.008,0,.333.333,0,1,0,.346.57Z" transform="translate(-14.694 -14.539)" fill="#fff"/>
      <path id="Path_182928" data-name="Path 182928" d="M3.977,15.977a1.983,1.983,0,0,0,.7-.127l2.057,3.564a2,2,0,1,0,3.213,1.892H14a2,2,0,1,0,3.213-1.894l2.057-3.562a2,2,0,1,0,0-3.742L17.211,8.544A2,2,0,1,0,14,6.651H9.942A2,2,0,1,0,6.729,8.546L4.672,12.109a2,2,0,1,0-.7,3.868Zm1.273-.459a2,2,0,0,0,.7-1.206H7.989a3.958,3.958,0,0,0,1.7,2.948l-1.056,1.83a1.961,1.961,0,0,0-1.323,0ZM8.64,13.979a3.331,3.331,0,1,1,.893,2.27A3.331,3.331,0,0,1,8.64,13.979ZM7.974,22.3a1.332,1.332,0,1,1,1.332-1.332A1.332,1.332,0,0,1,7.974,22.3ZM14,20.64H9.942a2,2,0,0,0-.724-1.228l1.052-1.822a3.936,3.936,0,0,0,3.4,0l1.052,1.822A2,2,0,0,0,14,20.64Zm3.3.333a1.332,1.332,0,1,1-1.332-1.332A1.332,1.332,0,0,1,17.3,20.973Zm-.671-1.883a1.961,1.961,0,0,0-1.323,0l-1.056-1.83a3.958,3.958,0,0,0,1.7-2.948H18a2,2,0,0,0,.7,1.206Zm3.335-6.443a1.332,1.332,0,1,1-1.332,1.332A1.332,1.332,0,0,1,19.964,12.646ZM18.69,12.44a2,2,0,0,0-.7,1.206H15.951a3.958,3.958,0,0,0-1.7-2.948l1.056-1.83a1.961,1.961,0,0,0,1.323,0ZM15.967,5.652a1.332,1.332,0,1,1-1.332,1.332A1.332,1.332,0,0,1,15.967,5.652ZM9.942,7.318H14a2,2,0,0,0,.724,1.228l-1.054,1.822a3.936,3.936,0,0,0-3.4,0L9.217,8.546A2,2,0,0,0,9.942,7.318Zm-3.3-.333A1.332,1.332,0,1,1,7.974,8.317,1.332,1.332,0,0,1,6.641,6.985Zm.671,1.883a1.961,1.961,0,0,0,1.323,0L9.692,10.7a3.958,3.958,0,0,0-1.7,2.948H5.945a2,2,0,0,0-.7-1.206ZM3.977,12.646a1.332,1.332,0,1,1-1.332,1.332,1.332,1.332,0,0,1,1.332-1.332Z" transform="translate(0 0)" fill="#fff" stroke="#fff" stroke-width="0.3"/>
    </g>
  </g>
</svg>
