<svg xmlns="http://www.w3.org/2000/svg" width="20.3" height="20.301" viewBox="0 0 20.3 20.301">
  <g id="Group_117108" data-name="Group 117108" transform="translate(-45.85 -968.85)">
    <rect id="Rectangle_22837" data-name="Rectangle 22837" width="20" height="20" transform="translate(46 969)" fill="#c1c1c1" opacity="0"/>
    <g id="noun_Factory_1122001" transform="translate(35 958.002)">
      <path id="Path_183133" data-name="Path 183133" d="M25.824,11a.513.513,0,0,0-.465.513v9.111l-6.41-3.662a.513.513,0,0,0-.769.449v3.213l-6.41-3.662a.513.513,0,0,0-.769.449V30.486a.513.513,0,0,0,.513.513H30.487A.513.513,0,0,0,31,30.486V11.511A.513.513,0,0,0,30.487,11H25.824Zm.561,1.026h3.59V29.973H12.026V18.3l6.41,3.662a.513.513,0,0,0,.769-.449V18.3l6.41,3.662a.513.513,0,0,0,.769-.449ZM15.054,23.562a.513.513,0,0,0-.465.513v3.59a.513.513,0,0,0,.513.513h3.59a.513.513,0,0,0,.513-.513v-3.59a.513.513,0,0,0-.513-.513H15.054Zm7.179,0a.513.513,0,0,0-.465.513v3.59a.513.513,0,0,0,.513.513h3.59a.513.513,0,0,0,.513-.513v-3.59a.513.513,0,0,0-.513-.513H22.234Zm-6.619,1.026h2.564v2.564H15.615Zm7.179,0h2.564v2.564H22.795Z" fill="#fff" stroke="#fff" stroke-width="0.3"/>
    </g>
  </g>
</svg>
