<svg xmlns="http://www.w3.org/2000/svg" width="27" height="27" viewBox="0 0 27 27">
  <g id="Group_117305" data-name="Group 117305" transform="translate(-319 -3585)">
    <g id="Group_117276" data-name="Group 117276" transform="translate(0 63)">
      <g id="Group_117268" data-name="Group 117268" transform="translate(5 204)">
        <g id="Group_117161" data-name="Group 117161" transform="translate(-8 179)">
          <circle id="Ellipse_40727" data-name="Ellipse 40727" cx="13.5" cy="13.5" r="13.5" transform="translate(322 3139)" fill="#f3f5f8"/>
        </g>
      </g>
    </g>
    <g id="noun-adjustment-1950903" transform="translate(239.034 3458.681)">
      <path id="Path_183533" data-name="Path 183533" d="M175.031,141.883V145.6a.221.221,0,1,0,.442,0v-3.716a1.681,1.681,0,0,0,0-3.334v-4.008a.221.221,0,1,0-.442,0v4.008a1.681,1.681,0,0,0,0,3.334Zm.221-2.908h0a1.242,1.242,0,1,1-.877.364,1.24,1.24,0,0,1,.877-.364Z" transform="translate(-86.604 -0.002)" fill="#383a65" stroke="#383a65" stroke-width="0.8"/>
      <path id="Path_183534" data-name="Path 183534" d="M305.977,144.33V145.6h0a.221.221,0,1,0,.442,0V144.33a1.758,1.758,0,0,0,0-3.489v-6.3a.221.221,0,1,0-.442,0v6.3a1.758,1.758,0,0,0,0,3.489Zm.221-3.062a1.319,1.319,0,1,1-.932.386,1.318,1.318,0,0,1,.932-.386Z" transform="translate(-212.307)" fill="#383a65" stroke="#383a65" stroke-width="0.8"/>
      <path id="Path_183535" data-name="Path 183535" d="M438.8,139.766V145.6a.221.221,0,1,0,.442,0v-5.837a1.758,1.758,0,0,0,0-3.489v-1.732a.221.221,0,1,0-.442,0v1.732a1.758,1.758,0,0,0,0,3.489Zm.221-3.062a1.319,1.319,0,1,1-.932.386,1.318,1.318,0,0,1,.932-.386Z" transform="translate(-339.889 -0.006)" fill="#383a65" stroke="#383a65" stroke-width="0.8"/>
    </g>
  </g>
</svg>
