<svg xmlns="http://www.w3.org/2000/svg" width="27.899" height="27.9" viewBox="0 0 27.899 27.9">
  <g id="noun_Factory_1122001" transform="translate(-10.55 -10.548)">
    <path id="Path_183133" data-name="Path 183133" d="M31.011,11a.692.692,0,0,0-.627.692v12.3L21.73,19.046a.692.692,0,0,0-1.038.606V23.99l-8.654-4.943A.692.692,0,0,0,11,19.652V37.306a.692.692,0,0,0,.692.692H37.307A.692.692,0,0,0,38,37.306V11.691A.692.692,0,0,0,37.307,11H31.076Q31.044,11,31.011,11Zm.757,1.385h4.846v24.23H12.385V20.853L21.038,25.8a.692.692,0,0,0,1.038-.606V20.853L30.73,25.8a.692.692,0,0,0,1.038-.606ZM16.473,27.96a.692.692,0,0,0-.627.692V33.5a.692.692,0,0,0,.692.692h4.846a.692.692,0,0,0,.692-.692V28.652a.692.692,0,0,0-.692-.692H16.538Q16.506,27.958,16.473,27.96Zm9.692,0a.692.692,0,0,0-.627.692V33.5a.692.692,0,0,0,.692.692h4.846a.692.692,0,0,0,.692-.692V28.652a.692.692,0,0,0-.692-.692H26.23Q26.2,27.958,26.165,27.96Zm-8.935,1.385h3.461v3.461H17.231Zm9.692,0h3.461v3.461H26.923Z" fill="#383a65" stroke="#383a65" stroke-width="0.9"/>
  </g>
</svg>
