<svg xmlns="http://www.w3.org/2000/svg" width="20" height="20" viewBox="0 0 20 20">
  <g id="Group_117090" data-name="Group 117090" transform="translate(-26 -2519)">
    <rect id="Rectangle_22832" data-name="Rectangle 22832" width="20" height="20" transform="translate(26 2519)" fill="#fff" opacity="0"/>
    <g id="noun_Toolbox_2586725" transform="translate(14.762 2427.435)">
      <path id="Path_182917" data-name="Path 182917" d="M25.266,97.862l-.289.279a.321.321,0,0,1-.448,0l-.863-.863a.244.244,0,0,0-.382.047,1.758,1.758,0,0,0-.063,1.642,1.811,1.811,0,0,0,.824.9,1.77,1.77,0,0,0,1.32.117.227.227,0,0,1,.224.055l.8.8a.244.244,0,0,0,.345-.345l-.795-.795a.715.715,0,0,0-.706-.178,1.29,1.29,0,0,1-.961-.082,1.322,1.322,0,0,1-.6-.66,1.387,1.387,0,0,1-.095-.9l.609.609a.812.812,0,0,0,1.133.009l.292-.282.006-.006.282-.292a.812.812,0,0,0-.009-1.133l-.609-.609a1.388,1.388,0,0,1,.9.095,1.322,1.322,0,0,1,.66.6,1.29,1.29,0,0,1,.082.961.715.715,0,0,0,.178.706l2.785,2.785H24.5a.244.244,0,0,0-.244.244v.687a.855.855,0,0,0,.751.847v4a1.391,1.391,0,0,0,1.39,1.39H39.463a1.391,1.391,0,0,0,1.39-1.39v-4a.855.855,0,0,0,.751-.847v-.687a.244.244,0,0,0-.244-.244H35.37l2.449-2.886h0a.256.256,0,0,0,.057-.17v-.006a.246.246,0,0,0-.008-.044.005.005,0,0,0,0,0,.243.243,0,0,0-.044-.086h0a.66.66,0,0,1-.142-.415A1.172,1.172,0,0,0,36.491,96.4a2.129,2.129,0,0,1,.29-.212,2.326,2.326,0,0,1,2.11-.093,1.814,1.814,0,0,1,.48.275l1.061.833a.184.184,0,0,1,.069.124l.046.383a.674.674,0,0,0,.832.573l.24-.06a.184.184,0,0,1,.159.034l.381.3a.22.22,0,0,1,.038.31l-.955,1.209a.219.219,0,0,1-.305.04l-.309-.232a.184.184,0,0,1-.072-.122l-.033-.23a.674.674,0,0,0-.847-.554l-.235.065a.754.754,0,0,1-.669-.137l-.3-.236a.244.244,0,1,0-.3.382l.281.224-.993,1.216a.244.244,0,0,0,.378.309L38.894,99.5a1.242,1.242,0,0,0,.678.006l.235-.065a.185.185,0,0,1,.233.153l.033.23a.669.669,0,0,0,.263.444l.309.232a.7.7,0,0,0,.981-.128l.955-1.209a.709.709,0,0,0-.121-1l-.381-.3a.67.67,0,0,0-.577-.122l-.24.06a.185.185,0,0,1-.229-.158l-.046-.383a.669.669,0,0,0-.252-.449l-1.061-.833a2.3,2.3,0,0,0-.609-.348,2.671,2.671,0,0,0-3.357.927.244.244,0,0,0,.255.363,1.216,1.216,0,0,1,1,.122.838.838,0,0,1,.234.654,1.152,1.152,0,0,0,.136.552l-2.6,3.063h-.987L31.8,97.2l.357-.171a.244.244,0,0,0,.075-.384l-1.544-1.7a.244.244,0,0,0-.286-.056l-.914.438a.244.244,0,0,0-.136.259l.361,2.27a.244.244,0,0,0,.347.182l.354-.17,1.371,2.9a.244.244,0,1,0,.441-.209l-1.476-3.119a.244.244,0,0,0-.326-.116l-.281.135-.281-1.767.586-.281,1.2,1.325-.281.134a.244.244,0,0,0-.115.325l1.951,4.124H30.571l-3.13-3.13a.226.226,0,0,1-.055-.224,1.77,1.77,0,0,0-.117-1.32,1.811,1.811,0,0,0-.9-.825,1.758,1.758,0,0,0-1.642.063.244.244,0,0,0-.047.382l.863.863a.321.321,0,0,1,0,.448Zm8.321,3.943H36.33v.808h-6.8v-.808Zm-4.542,0v1.285a.3.3,0,0,1-.3.3h-.537a.3.3,0,0,1-.3-.3v-1.285Zm12.069.443a.366.366,0,0,1-.365.365H39.3a.244.244,0,1,0,0,.488h1.064v3.99a.9.9,0,0,1-.9.9H26.4a.9.9,0,0,1-.9-.9V103.1h1.065a.244.244,0,1,0,0-.488h-1.45a.366.366,0,0,1-.365-.365v-.443h2.67v1.285a.79.79,0,0,0,.789.789h.537a.79.79,0,0,0,.789-.778h6.8a.79.79,0,0,0,.789.778h.537a.79.79,0,0,0,.789-.789v-1.285h2.67Zm-3.158-.443v1.285a.3.3,0,0,1-.3.3h-.537a.3.3,0,0,1-.3-.3v-1.285Z" transform="translate(-11.651 -0.143)" fill="#fff"/>
      <path id="Path_182917_-_Outline" data-name="Path 182917 - Outline" d="M30.361,94.565a.4.4,0,0,1,.3.132L32.2,96.4a.4.4,0,0,1-.124.631l-.216.1,1.837,3.882h.814L37,98.086a1.313,1.313,0,0,1-.107-.529.693.693,0,0,0-.178-.533.723.723,0,0,0-.47-.128,2.24,2.24,0,0,0-.4.041.4.4,0,0,1-.419-.6,2.761,2.761,0,0,1,2.3-1.239,3.569,3.569,0,0,1,1.253.245,2.456,2.456,0,0,1,.652.372l1.06.832A.832.832,0,0,1,41,97.1l.046.382a.028.028,0,0,0,.035.024l.24-.06a.827.827,0,0,1,.712.15l.38.3a.866.866,0,0,1,.148,1.22l-.955,1.209a.862.862,0,0,1-1.2.156l-.308-.231a.831.831,0,0,1-.324-.548l-.033-.23a.028.028,0,0,0-.036-.023l-.235.065a1.4,1.4,0,0,1-.661.02l-.993,1.216a.4.4,0,1,1-.621-.508l.893-1.093-.157-.125a.4.4,0,1,1,.5-.628l.3.236a.6.6,0,0,0,.53.108l.235-.065a.831.831,0,0,1,1.044.683l.033.23a.028.028,0,0,0,.011.018l.309.232a.062.062,0,0,0,.087-.011l.956-1.21a.063.063,0,0,0-.011-.089l-.381-.3a.027.027,0,0,0-.024-.005l-.241.06a.831.831,0,0,1-1.026-.706L40.2,97.2a.027.027,0,0,0-.01-.019l-1.061-.833a1.658,1.658,0,0,0-.439-.252,2.794,2.794,0,0,0-.976-.195,1.889,1.889,0,0,0-.967.258,1.285,1.285,0,0,1,.484.251,1.429,1.429,0,0,1,.464,1.154.5.5,0,0,0,.108.316.4.4,0,0,1,.067.123l.011.021v.022a.406.406,0,0,1,.007.051v.017a.413.413,0,0,1-.088.268l-.006.007-2.23,2.627h5.65a.4.4,0,0,1,.4.4v.687a1.014,1.014,0,0,1-.751.976v3.868a1.551,1.551,0,0,1-1.547,1.547H26.258a1.551,1.551,0,0,1-1.547-1.547v-3.868a1.013,1.013,0,0,1-.751-.976v-.687a.4.4,0,0,1,.4-.4h5L26.841,98.5a.872.872,0,0,1-.218-.861,1.128,1.128,0,0,0-.071-.844,1.168,1.168,0,0,0-.581-.526,1.393,1.393,0,0,0-.494-.12l.378.378a.963.963,0,0,1,.012,1.353l-.283.292-.009.009-.292.282a.969.969,0,0,1-1.353-.011l-.378-.378a1.411,1.411,0,0,0,.118.492,1.169,1.169,0,0,0,.527.583,1.145,1.145,0,0,0,.843.072.871.871,0,0,1,.862.217l.8.8a.4.4,0,1,1-.567.567l-.8-.795a.07.07,0,0,0-.067-.015,1.927,1.927,0,0,1-1.438-.127,1.975,1.975,0,0,1-.9-.98,1.908,1.908,0,0,1,.073-1.784.4.4,0,0,1,.3-.192.405.405,0,0,1,.049,0,.4.4,0,0,1,.284.118l.863.863a.164.164,0,0,0,.229,0l.286-.277.278-.287a.163.163,0,0,0,0-.228l-.863-.863A.4.4,0,0,1,24.5,95.6a1.781,1.781,0,0,1,.928-.26h0a2.165,2.165,0,0,1,.857.187,1.972,1.972,0,0,1,.978.9,1.919,1.919,0,0,1,.128,1.44.069.069,0,0,0,.017.068l3.083,3.083h2.318l-1.845-3.9a.4.4,0,0,1,.189-.533l.091-.043-.981-1.083-.374.18.23,1.443.091-.043a.4.4,0,0,1,.536.19l1.476,3.119a.4.4,0,1,1-.725.343l-1.3-2.755-.212.1a.408.408,0,0,1-.36-.006.4.4,0,0,1-.21-.292l-.361-2.27a.4.4,0,0,1,.223-.425l.914-.438A.4.4,0,0,1,30.361,94.565Zm4.3,6.765H33.5l-2.055-4.344.5-.239a.087.087,0,0,0,.027-.137l-1.544-1.7a.089.089,0,0,0-.1-.02l-.914.438a.088.088,0,0,0-.048.092l.361,2.27a.087.087,0,0,0,.124.065l.5-.238,1.438,3.04a.089.089,0,0,0,.116.042.087.087,0,0,0,.041-.116l-1.476-3.119a.087.087,0,0,0-.116-.041l-.471.226-.333-2.09.8-.382,1.422,1.568-.47.226a.087.087,0,0,0-.041.116l2.057,4.348H30.362l-3.176-3.176a.384.384,0,0,1-.094-.381,1.605,1.605,0,0,0-.106-1.2,1.657,1.657,0,0,0-.822-.751,1.856,1.856,0,0,0-.734-.162h0a1.471,1.471,0,0,0-.766.215.087.087,0,0,0-.017.136l.863.863a.476.476,0,0,1,.006.668l-.284.293-.289.279a.478.478,0,0,1-.668,0l-.864-.864a.088.088,0,0,0-.072-.025.086.086,0,0,0-.064.042,1.607,1.607,0,0,0-.053,1.5,1.659,1.659,0,0,0,.754.824,1.613,1.613,0,0,0,1.2.105.384.384,0,0,1,.379.092l.8.8a.089.089,0,0,0,.123,0,.087.087,0,0,0,0-.123l-.795-.795a.557.557,0,0,0-.55-.139,1.447,1.447,0,0,1-1.077-.093l0,0a1.483,1.483,0,0,1-.67-.738,1.531,1.531,0,0,1-.1-1l.07-.264.8.8a.655.655,0,0,0,.913.007l.294-.284.282-.291a.651.651,0,0,0-.008-.913l-.8-.8.264-.07a1.326,1.326,0,0,1,.337-.043,1.671,1.671,0,0,1,.661.145,1.482,1.482,0,0,1,.736.669l0,0a1.44,1.44,0,0,1,.092,1.078.557.557,0,0,0,.14.549l3.053,3.053H24.361a.087.087,0,0,0-.087.087v.687a.7.7,0,0,0,.613.691l.138.017v4.136a1.236,1.236,0,0,0,1.233,1.233H39.319a1.236,1.236,0,0,0,1.233-1.233v-4.136l.138-.017a.7.7,0,0,0,.613-.691v-.687a.087.087,0,0,0-.087-.087H34.887l2.667-3.142a.1.1,0,0,0,.022-.066v0a.091.091,0,0,0,0-.011l0-.007a.085.085,0,0,0-.014-.025.82.82,0,0,1-.177-.515,1.017,1.017,0,0,0-1.042-1.15l-.388-.02.293-.256a2.293,2.293,0,0,1,.311-.228,2.2,2.2,0,0,1,1.159-.321A3.106,3.106,0,0,1,38.8,95.8a1.97,1.97,0,0,1,.522.3l1.06.832a.343.343,0,0,1,.128.229l.046.382a.517.517,0,0,0,.638.439l.24-.06a.341.341,0,0,1,.294.062l.38.3a.377.377,0,0,1,.064.532l-.955,1.209a.376.376,0,0,1-.523.068l-.308-.231a.343.343,0,0,1-.134-.226l-.033-.229a.517.517,0,0,0-.649-.425l-.235.065a.911.911,0,0,1-.809-.165l-.3-.236a.087.087,0,1,0-.108.136l.405.323-1.094,1.339a.087.087,0,1,0,.135.11l1.122-1.374.1.029a1.09,1.09,0,0,0,.592,0l.234-.065a.342.342,0,0,1,.43.282l.033.23a.516.516,0,0,0,.2.34l.309.232a.548.548,0,0,0,.763-.1l.955-1.21a.551.551,0,0,0-.094-.777l-.381-.3a.519.519,0,0,0-.442-.093l-.241.06a.343.343,0,0,1-.423-.291l-.046-.383a.516.516,0,0,0-.193-.344l-1.061-.833a2.142,2.142,0,0,0-.569-.325,3.256,3.256,0,0,0-1.141-.224A2.466,2.466,0,0,0,35.7,96.5a.087.087,0,0,0,.091.129,2.552,2.552,0,0,1,.457-.046,1.019,1.019,0,0,1,.672.2.962.962,0,0,1,.29.776,1,1,0,0,0,.118.476l.05.094Zm-10.21.174h2.984v1.442a.634.634,0,0,0,.632.632H28.6a.635.635,0,0,0,.632-.623l0-.155h7.106l0,.155a.635.635,0,0,0,.632.623h.537a.634.634,0,0,0,.632-.632v-1.442h2.984v.6a.524.524,0,0,1-.522.523h-1.45a.087.087,0,1,0,0,.174h1.221v4.147a1.061,1.061,0,0,1-1.058,1.059H26.258a1.061,1.061,0,0,1-1.059-1.058V102.8h1.222a.087.087,0,1,0,0-.174h-1.45a.524.524,0,0,1-.523-.522Zm2.67.314H24.763v.286a.209.209,0,0,0,.209.208h1.45a.4.4,0,0,1,0,.8h-.908v3.833a.747.747,0,0,0,.745.744H39.319a.747.747,0,0,0,.744-.745v-3.833h-.907a.4.4,0,0,1,0-.8h1.45a.209.209,0,0,0,.208-.209v-.285H38.459v1.128a.949.949,0,0,1-.946.946h-.537a.952.952,0,0,1-.931-.778H29.532a.952.952,0,0,1-.93.778h-.537a.949.949,0,0,1-.946-.946Zm.488-.314h1.453v1.442a.459.459,0,0,1-.458.458h-.537a.459.459,0,0,1-.458-.458Zm1.139.314h-.824v1.128a.144.144,0,0,0,.144.144H28.6a.144.144,0,0,0,.144-.144Zm.488-.314h7.11v1.122h-7.11Zm6.8.314H29.548v.494h6.482Zm.488-.314H37.97v1.442a.459.459,0,0,1-.458.458h-.537a.459.459,0,0,1-.458-.458Zm1.139.314h-.824v1.128a.144.144,0,0,0,.144.144h.536a.144.144,0,0,0,.144-.144Z" transform="translate(-11.507)" fill="#fff"/>
    </g>
  </g>
</svg>
