<svg xmlns="http://www.w3.org/2000/svg" width="27" height="27" viewBox="0 0 27 27">
  <g id="Group_117203" data-name="Group 117203" transform="translate(-311 -3047)">
    <g id="Group_117177" data-name="Group 117177" transform="translate(-23)">
      <circle id="Ellipse_40835" data-name="Ellipse 40835" cx="13.5" cy="13.5" r="13.5" transform="translate(334 3047)" fill="#f3f5f8"/>
      <g id="Group_117176" data-name="Group 117176" transform="translate(123.297 -6.148)">
        <path id="Subtraction_20" data-name="Subtraction 20" d="M9.211,13.251h0a.5.5,0,0,1-.362-.156L3.31,7.746a4.606,4.606,0,0,1-.017-6.418A4.442,4.442,0,0,1,6.433,0,4.407,4.407,0,0,1,9.211,1.311,4.873,4.873,0,0,1,12.3.156h.018a4.016,4.016,0,0,1,2.812,1.172,4.608,4.608,0,0,1,1.294,3.21,4.511,4.511,0,0,1-1.294,3.191L9.573,13.1A.523.523,0,0,1,9.211,13.251ZM4.087,7.057l5.124,4.951,5.176-5a3.561,3.561,0,0,0,0-4.952,2.916,2.916,0,0,0-2.07-.862H12.3A3.946,3.946,0,0,0,9.573,2.381a.5.5,0,0,1-.725,0A3.861,3.861,0,0,0,6.433,1.035a3.368,3.368,0,0,0-2.4,1.018,3.592,3.592,0,0,0-.672,3.968H5.329L6.364,4.434a.5.5,0,0,1,.418-.226l.048,0a.486.486,0,0,1,.431.275L8.727,7.3,10.3,4.711a.514.514,0,0,1,.379-.242l.056,0a.569.569,0,0,1,.376.141l1.432,1.38a.52.52,0,0,1,.157.371.518.518,0,0,1-.881.371L10.849,5.8,9.124,8.609a.5.5,0,0,1-.431.258H8.676a.569.569,0,0,1-.449-.275L6.744,5.746,6.036,6.815a.5.5,0,0,1-.429.242Z" transform="translate(214.704 3060.148)" fill="#383a65"/>
      </g>
    </g>
  </g>
</svg>
