<svg xmlns="http://www.w3.org/2000/svg" width="27" height="27" viewBox="0 0 27 27">
  <g id="Group_117088" data-name="Group 117088" transform="translate(-299 -2533)">
    <g id="Group_117087" data-name="Group 117087" transform="translate(0 -53)">
      <g id="Group_117032" data-name="Group 117032" transform="translate(2 117)">
        <circle id="Ellipse_40727" data-name="Ellipse 40727" cx="13.5" cy="13.5" r="13.5" transform="translate(297 2469)" fill="#f3f5f8"/>
      </g>
    </g>
    <g id="noun_Toolbox_2586725" transform="translate(292.433 2445.736)">
      <path id="Path_182917" data-name="Path 182917" d="M24.97,97.462l-.25.242a.278.278,0,0,1-.388,0l-.748-.748a.212.212,0,0,0-.331.041,1.523,1.523,0,0,0-.055,1.423,1.569,1.569,0,0,0,.714.781,1.534,1.534,0,0,0,1.144.1.2.2,0,0,1,.194.047l.689.689a.212.212,0,1,0,.3-.3l-.689-.689a.619.619,0,0,0-.611-.154,1.118,1.118,0,0,1-.833-.071,1.145,1.145,0,0,1-.519-.572,1.2,1.2,0,0,1-.082-.777l.527.527a.7.7,0,0,0,.982.008l.253-.244,0,0,.245-.253a.7.7,0,0,0-.008-.982L24.98,96a1.2,1.2,0,0,1,.777.082,1.146,1.146,0,0,1,.572.519,1.117,1.117,0,0,1,.071.833.619.619,0,0,0,.154.611l2.413,2.413H24.31a.211.211,0,0,0-.212.212v.6a.74.74,0,0,0,.651.734v3.463a1.205,1.205,0,0,0,1.2,1.2H37.269a1.205,1.205,0,0,0,1.2-1.2V102a.74.74,0,0,0,.651-.734v-.6a.212.212,0,0,0-.212-.211H33.723l2.122-2.5h0a.222.222,0,0,0,.049-.148V97.8a.213.213,0,0,0-.007-.038,0,0,0,0,0,0,0,.211.211,0,0,0-.038-.075h0a.572.572,0,0,1-.123-.36,1.015,1.015,0,0,0-1.032-1.134,1.844,1.844,0,0,1,.251-.184,2.015,2.015,0,0,1,1.828-.08,1.571,1.571,0,0,1,.416.238l.919.721a.16.16,0,0,1,.06.107l.04.331a.584.584,0,0,0,.721.5l.208-.052a.159.159,0,0,1,.138.029l.33.257a.191.191,0,0,1,.033.269l-.827,1.047a.19.19,0,0,1-.264.034l-.267-.2a.159.159,0,0,1-.063-.106l-.028-.2a.584.584,0,0,0-.733-.48l-.2.056a.654.654,0,0,1-.58-.118l-.257-.2a.212.212,0,1,0-.264.331l.243.194-.861,1.053a.212.212,0,1,0,.328.268l.915-1.12a1.076,1.076,0,0,0,.587,0l.2-.056a.161.161,0,0,1,.2.132l.029.2a.58.58,0,0,0,.228.384l.267.2a.611.611,0,0,0,.85-.111l.827-1.048a.614.614,0,0,0-.1-.865l-.33-.257a.58.58,0,0,0-.5-.106l-.208.052a.161.161,0,0,1-.2-.137l-.04-.332a.58.58,0,0,0-.219-.389l-.919-.721a1.993,1.993,0,0,0-.528-.3,2.314,2.314,0,0,0-2.909.8.212.212,0,0,0,.221.315,1.053,1.053,0,0,1,.866.105.726.726,0,0,1,.2.567,1,1,0,0,0,.118.478l-2.253,2.654h-.855l-1.686-3.563.309-.148A.211.211,0,0,0,31,96.41l-1.337-1.475a.212.212,0,0,0-.248-.049l-.792.38a.211.211,0,0,0-.117.224l.313,1.967a.211.211,0,0,0,.3.157l.307-.147,1.188,2.51A.212.212,0,1,0,31,99.8l-1.279-2.7a.211.211,0,0,0-.283-.1l-.243.117-.244-1.531.507-.243L30.5,96.484l-.243.117a.211.211,0,0,0-.1.281l1.69,3.573h-2.28l-2.712-2.712a.2.2,0,0,1-.047-.194,1.533,1.533,0,0,0-.1-1.144,1.569,1.569,0,0,0-.781-.714,1.523,1.523,0,0,0-1.423.054.212.212,0,0,0-.041.331l.748.748a.278.278,0,0,1,0,.388Zm7.209,3.416h2.376v.7H28.667v-.7Zm-3.935,0v1.114a.261.261,0,0,1-.261.261h-.465a.261.261,0,0,1-.261-.261v-1.114Zm10.456.384a.317.317,0,0,1-.317.317H37.128a.212.212,0,1,0,0,.423h.922v3.457a.782.782,0,0,1-.781.781H25.953a.782.782,0,0,1-.781-.781V102h.922a.212.212,0,1,0,0-.423H24.838a.317.317,0,0,1-.317-.317v-.384h2.313v1.114a.685.685,0,0,0,.684.684h.465a.684.684,0,0,0,.683-.674h5.889a.684.684,0,0,0,.683.674H35.7a.685.685,0,0,0,.684-.684v-1.114H38.7Zm-2.736-.384v1.114a.261.261,0,0,1-.261.261h-.465a.261.261,0,0,1-.261-.261v-1.114Z" transform="translate(-11.507 0)" fill="#383a65"/>
      <path id="Path_182917_-_Outline" data-name="Path 182917 - Outline" d="M29.508,94.765a.312.312,0,0,1,.231.1l1.338,1.475a.311.311,0,0,1-.1.49l-.219.105,1.616,3.416h.745l2.18-2.569a1.1,1.1,0,0,1-.1-.464.633.633,0,0,0-.167-.49.979.979,0,0,0-.783-.084.312.312,0,0,1-.325-.464,2.353,2.353,0,0,1,1.957-1.056,3.056,3.056,0,0,1,1.073.21,2.092,2.092,0,0,1,.555.317l.918.721a.684.684,0,0,1,.256.456l.04.331a.061.061,0,0,0,.075.052l.208-.052a.69.69,0,0,1,.586.124l.33.257a.714.714,0,0,1,.122,1.006L39.221,99.7a.71.71,0,0,1-.989.128l-.267-.2a.684.684,0,0,1-.267-.45l-.028-.2a.061.061,0,0,0-.076-.05l-.2.056a1.181,1.181,0,0,1-.577.012l-.875,1.07a.312.312,0,1,1-.483-.394l.8-.975-.164-.131a.311.311,0,1,1,.388-.487l.257.2a.56.56,0,0,0,.491.1l.2-.056a.684.684,0,0,1,.859.562l.028.2a.06.06,0,0,0,.023.04l.268.2a.091.091,0,0,0,.126-.016l.828-1.048a.091.091,0,0,0-.015-.128l-.33-.257a.06.06,0,0,0-.052-.011l-.208.052a.684.684,0,0,1-.845-.581l-.04-.331a.06.06,0,0,0-.023-.04l-.919-.722a1.471,1.471,0,0,0-.39-.223,1.926,1.926,0,0,0-1.74.072l-.048.031a1.107,1.107,0,0,1,.488.23,1.2,1.2,0,0,1,.389.972.473.473,0,0,0,.1.3.308.308,0,0,1,.053.1l.007.013v.014a.315.315,0,0,1,.007.043v.014a.319.319,0,0,1-.069.208l0,.005-1.982,2.335h4.973a.312.312,0,0,1,.312.311v.6a.842.842,0,0,1-.651.817v3.379a1.308,1.308,0,0,1-1.3,1.3H25.953a1.308,1.308,0,0,1-1.3-1.3v-3.379a.842.842,0,0,1-.651-.817v-.6a.312.312,0,0,1,.312-.312h4.416l-2.242-2.242a.719.719,0,0,1-.18-.71,1.013,1.013,0,0,0-.065-.759,1.047,1.047,0,0,0-.521-.472,1.186,1.186,0,0,0-.529-.106l.388.388a.8.8,0,0,1,.009,1.122l-.252.26-.253.245a.8.8,0,0,1-1.122-.009l-.388-.389a1.209,1.209,0,0,0,.105.527,1.049,1.049,0,0,0,.474.523,1.03,1.03,0,0,0,.756.064.719.719,0,0,1,.711.179l.689.689a.312.312,0,1,1-.441.441l-.689-.689a.1.1,0,0,0-.094-.022,1.651,1.651,0,0,1-1.219-.108,1.674,1.674,0,0,1-.761-.831,1.619,1.619,0,0,1,.061-1.513.312.312,0,0,1,.487-.06l.748.748a.183.183,0,0,0,.249,0l.25-.242.24-.248a.177.177,0,0,0,0-.248l-.747-.747a.312.312,0,0,1,.06-.487,1.507,1.507,0,0,1,.785-.22h0a1.84,1.84,0,0,1,.728.159,1.673,1.673,0,0,1,.83.76,1.626,1.626,0,0,1,.108,1.22.1.1,0,0,0,.023.1l2.682,2.682h2.081l-1.623-3.43a.312.312,0,0,1,.147-.414l.122-.059-.9-.994-.373.179.211,1.325.122-.059a.311.311,0,0,1,.416.147l1.279,2.7a.311.311,0,1,1-.563.266L29.38,97.6l-.216.1a.317.317,0,0,1-.279,0,.313.313,0,0,1-.163-.227l-.313-1.967a.313.313,0,0,1,.173-.33l.792-.38A.309.309,0,0,1,29.508,94.765Zm3.707,5.789H32.25l-1.755-3.711.4-.191a.111.111,0,0,0,.034-.175L29.59,95a.114.114,0,0,0-.131-.026l-.792.38a.112.112,0,0,0-.062.118l.313,1.967a.112.112,0,0,0,.058.081.113.113,0,0,0,.1,0l.4-.191,1.231,2.6a.114.114,0,0,0,.148.053.112.112,0,0,0,.053-.148l-1.279-2.7a.111.111,0,0,0-.149-.053l-.364.175-.277-1.737.642-.308,1.181,1.3-.364.174a.112.112,0,0,0-.053.148L32,100.555H29.524l-2.741-2.741a.3.3,0,0,1-.072-.294,1.427,1.427,0,0,0-.095-1.07,1.472,1.472,0,0,0-.73-.668,1.643,1.643,0,0,0-.65-.143h0a1.31,1.31,0,0,0-.682.191.112.112,0,0,0-.021.174l.748.748a.376.376,0,0,1,0,.528l-.242.25-.252.244a.378.378,0,0,1-.528,0l-.748-.748a.112.112,0,0,0-.092-.032.111.111,0,0,0-.082.053,1.427,1.427,0,0,0-.048,1.332,1.473,1.473,0,0,0,.669.732,1.45,1.45,0,0,0,1.068.094.3.3,0,0,1,.293.071l.69.69a.114.114,0,0,0,.158,0,.112.112,0,0,0,0-.158l-.689-.689a.519.519,0,0,0-.512-.129,1.233,1.233,0,0,1-.906-.078,1.25,1.25,0,0,1-.566-.623,1.307,1.307,0,0,1-.086-.84l.044-.168.651.651a.6.6,0,0,0,.842.007l.252-.244.247-.255a.6.6,0,0,0-.007-.842l-.65-.65.168-.044a1.291,1.291,0,0,1,.842.087,1.248,1.248,0,0,1,.62.564,1.213,1.213,0,0,1,.079.909.519.519,0,0,0,.13.512l2.583,2.583h-4.9a.112.112,0,0,0-.112.111v.6a.641.641,0,0,0,.563.634l.088.011v3.551a1.107,1.107,0,0,0,1.1,1.1H37.269a1.107,1.107,0,0,0,1.1-1.1v-3.551l.088-.011a.641.641,0,0,0,.563-.635v-.6a.112.112,0,0,0-.112-.111h-5.4l2.261-2.663a.122.122,0,0,0,.027-.081v0a.113.113,0,0,0,0-.017l0-.007a.11.11,0,0,0-.018-.033.674.674,0,0,1-.145-.423.917.917,0,0,0-.937-1.033l-.247-.013.187-.163a1.95,1.95,0,0,1,.264-.194,2.122,2.122,0,0,1,1.915-.089,1.671,1.671,0,0,1,.443.254l.918.721a.261.261,0,0,1,.1.174l.04.331a.484.484,0,0,0,.6.411l.208-.052a.264.264,0,0,1,.223.047l.33.256a.291.291,0,0,1,.05.41l-.827,1.047a.29.29,0,0,1-.4.052l-.267-.2a.261.261,0,0,1-.1-.172l-.028-.2a.484.484,0,0,0-.608-.4l-.2.056a.763.763,0,0,1-.669-.136l-.257-.2a.114.114,0,0,0-.157.018.112.112,0,0,0,.018.157l.323.257L35.611,99.8a.112.112,0,1,0,.173.141l.957-1.171.064.019a.98.98,0,0,0,.532,0l.2-.056a.261.261,0,0,1,.328.214l.029.2a.483.483,0,0,0,.188.318l.268.2a.51.51,0,0,0,.711-.092l.827-1.048A.514.514,0,0,0,39.8,97.8l-.33-.257a.486.486,0,0,0-.414-.087l-.208.052a.261.261,0,0,1-.322-.222l-.04-.331a.483.483,0,0,0-.181-.322l-.919-.722a1.892,1.892,0,0,0-.5-.287,2.857,2.857,0,0,0-1-.2,2.169,2.169,0,0,0-1.785.957.112.112,0,0,0,.117.166,1.141,1.141,0,0,1,.948.127.82.82,0,0,1,.238.644.9.9,0,0,0,.106.43l.032.06Zm-8.793.223h2.513v1.214a.585.585,0,0,0,.584.584h.465a.587.587,0,0,0,.583-.575v-.1h6.086v.1a.587.587,0,0,0,.583.575H35.7a.585.585,0,0,0,.584-.584v-1.213H38.8v.484a.418.418,0,0,1-.417.417H37.128a.112.112,0,0,0,0,.223H38.15v3.557a.883.883,0,0,1-.881.881H25.953a.883.883,0,0,1-.881-.881V101.9h1.022a.112.112,0,1,0,0-.223H24.838a.418.418,0,0,1-.417-.416Zm2.313.2H24.622v.284a.217.217,0,0,0,.217.217h1.256a.312.312,0,1,1,0,.623h-.822v3.357a.683.683,0,0,0,.681.681H37.269a.683.683,0,0,0,.681-.681V102.1h-.822a.312.312,0,0,1,0-.623h1.256a.217.217,0,0,0,.217-.217v-.283H36.487v1.014a.786.786,0,0,1-.784.784h-.465a.789.789,0,0,1-.776-.674h-5.7a.788.788,0,0,1-.775.674h-.465a.786.786,0,0,1-.784-.784Zm.423-.2h1.186v1.214a.362.362,0,0,1-.361.361h-.465a.362.362,0,0,1-.361-.361Zm.986.2h-.786v1.014a.161.161,0,0,0,.161.161h.465a.161.161,0,0,0,.161-.161Zm.423-.2h6.088v.9H28.567Zm5.888.2H28.767v.5h5.688Zm.423-.2h1.186v1.214a.362.362,0,0,1-.361.361h-.465a.362.362,0,0,1-.361-.361Zm.986.2h-.786v1.014a.161.161,0,0,0,.161.161H35.7a.161.161,0,0,0,.161-.161Z" transform="translate(-11.507 0)" fill="#383a65"/>
    </g>
  </g>
</svg>
