<svg xmlns="http://www.w3.org/2000/svg" width="34.005" height="26.974" viewBox="0 0 34.005 26.974">
  <g id="Group_117193" data-name="Group 117193" transform="translate(-215 -2914.187)">
    <g id="Group_117192" data-name="Group 117192">
      <g id="Group_117188" data-name="Group 117188" transform="translate(-1.999 -21.815)">
        <g id="Group_117186" data-name="Group 117186" transform="translate(216.999 2936.001)">
          <path id="Icon_awesome-exchange-alt" data-name="Icon awesome-exchange-alt" d="M0,8.133v-.6a.9.9,0,0,1,.9-.9H14.388v-1.8A.9.9,0,0,1,15.923,4.2l3,3a.9.9,0,0,1,0,1.272l-3,3a.9.9,0,0,1-1.535-.636v-1.8H.9A.9.9,0,0,1,0,8.133Zm18.285,5.7H4.8v-1.8a.9.9,0,0,0-1.535-.636l-3,3a.9.9,0,0,0,0,1.272l3,3A.9.9,0,0,0,4.8,18.025v-1.8H18.285a.9.9,0,0,0,.9-.9v-.6A.9.9,0,0,0,18.285,13.829Z" transform="translate(5.067 0.115)" fill="#383a65"/>
          <path id="Subtraction_23" data-name="Subtraction 23" d="M12.159,24.313H0V0H32.42V15.2H30.4V2.025H2.028V22.289H12.159v2.024Z" fill="#383a65"/>
          <path id="Path_183167" data-name="Path 183167" d="M-11605.577,2513.68h-15.491a1.928,1.928,0,0,1-1.932-1.935v-5.809a1.931,1.931,0,0,1,1.932-1.935h15.491a1.932,1.932,0,0,1,1.932,1.935v5.809A1.929,1.929,0,0,1-11605.577,2513.68Zm-8.633-7.506a2.849,2.849,0,0,0-1.408.366,2.676,2.676,0,0,0-1.011,1,2.825,2.825,0,0,0-.372,1.451,2.808,2.808,0,0,0,.372,1.444,2.733,2.733,0,0,0,1.011,1.007,2.974,2.974,0,0,0,1.408.354,2.883,2.883,0,0,0,1.416-.354,2.548,2.548,0,0,0,1-1.007,2.777,2.777,0,0,0,.378-1.444,2.93,2.93,0,0,0-.364-1.451,2.662,2.662,0,0,0-1.011-1A2.794,2.794,0,0,0-11614.21,2506.174Zm6.076.043a2.908,2.908,0,0,0-1.464.349,2.556,2.556,0,0,0-.954.983,3.03,3.03,0,0,0-.346,1.447,3.023,3.023,0,0,0,.346,1.446,2.425,2.425,0,0,0,.968.989,2.939,2.939,0,0,0,1.464.357,2.662,2.662,0,0,0,1.636-.49,2.907,2.907,0,0,0,.935-1.16v-1.512h-2.776v1.083h1.52a1.258,1.258,0,0,1-.462.555,1.324,1.324,0,0,1-.687.179,1.355,1.355,0,0,1-1.038-.366,1.535,1.535,0,0,1-.351-1.08,1.485,1.485,0,0,1,.33-1.007,1.1,1.1,0,0,1,.887-.371,1.213,1.213,0,0,1,.571.13,1.036,1.036,0,0,1,.363.354h1.6a2.064,2.064,0,0,0-.812-1.375A2.806,2.806,0,0,0-11608.134,2506.217Zm-12.523.046v5.481h3.231v-1.152h-1.7v-4.33Zm6.447,4.117a1.126,1.126,0,0,1-.907-.38,1.545,1.545,0,0,1-.322-1.009,1.557,1.557,0,0,1,.322-1.028,1.158,1.158,0,0,1,.907-.378,1.136,1.136,0,0,1,.921.378,1.527,1.527,0,0,1,.324,1.028,1.525,1.525,0,0,1-.324,1.009A1.146,1.146,0,0,1-11614.21,2510.38Z" transform="translate(11637.65 -2486.706)" fill="#383a65"/>
        </g>
      </g>
    </g>
  </g>
</svg>
