<svg xmlns="http://www.w3.org/2000/svg" width="20" height="20" viewBox="0 0 20 20">
  <g id="Group_117113" data-name="Group 117113" transform="translate(-30 -2182)">
    <rect id="Rectangle_22838" data-name="Rectangle 22838" width="20" height="20" transform="translate(30 2182)" fill="#fff" opacity="0"/>
    <g id="Group_117112" data-name="Group 117112" transform="translate(-187.522 16.087)">
      <path id="Subtraction_4" data-name="Subtraction 4" d="M3.87,18.759a3.869,3.869,0,1,1,0-7.738,3.668,3.668,0,0,1,.651.057l6.559-6.56a3.575,3.575,0,0,1-.06-.648A3.836,3.836,0,0,1,12.5.817,3.88,3.88,0,0,1,14.879,0a3.8,3.8,0,0,1,.947.119.5.5,0,0,1,.363.351.512.512,0,0,1-.13.491L14.239,2.782l.434,1.3,1.305.434L17.8,2.7a.5.5,0,0,1,.354-.146.535.535,0,0,1,.135.018.5.5,0,0,1,.354.363,3.891,3.891,0,0,1-.7,3.32,3.839,3.839,0,0,1-2.911,1.481l0,.007h-.142a3.889,3.889,0,0,1-.651-.059L12.846,9.078l.563.564a.486.486,0,0,1,.077.1,5.443,5.443,0,0,0-1.252.61,1.1,1.1,0,0,1,.133-.334l-.233-.235L9.78,12.135l.234.235a1.17,1.17,0,0,1,.467-.155,5.465,5.465,0,0,0-.546,1.339.509.509,0,0,1-.3-.143l-.562-.564L7.682,14.239a3.955,3.955,0,0,1,.06.65A3.875,3.875,0,0,1,3.87,18.759Zm-.023-6.736a2.888,2.888,0,1,0,2.8,2.175.5.5,0,0,1,.131-.477L13.793,6.7l.017,0a.5.5,0,0,1,.388-.059A2.849,2.849,0,0,0,17.74,4.178L16.469,5.449a.5.5,0,0,1-.354.146.479.479,0,0,1-.159-.025l-1.837-.611a.508.508,0,0,1-.32-.32L13.188,2.8a.507.507,0,0,1,.123-.514l1.27-1.271a2.825,2.825,0,0,0-1.9,1.018,2.862,2.862,0,0,0-.564,2.524.517.517,0,0,1-.132.479L5.037,11.982a.506.506,0,0,1-.356.146.554.554,0,0,1-.119-.013A2.807,2.807,0,0,0,3.848,12.023Zm.94,4.9H2.948a.507.507,0,0,1-.426-.244L1.6,15.147a.5.5,0,0,1,0-.516l.92-1.531a.506.506,0,0,1,.426-.244h1.84a.513.513,0,0,1,.43.244l.914,1.531a.5.5,0,0,1,0,.516l-.919,1.531A.5.5,0,0,1,4.788,16.923ZM3.23,13.86l-.617,1.029.617,1.029H4.5l.618-1.029L4.5,13.86H3.23Zm3-.62h0l-.708-.709,7.012-7.01.707.707L6.229,13.239Zm.484-4.589h0L2.694,4.632,1.6,4.359a.511.511,0,0,1-.312-.237L.04,1.93V1.924a.5.5,0,0,1,.109-.552L1.375.148a.5.5,0,0,1,.6-.08L4.12,1.289a.494.494,0,0,1,.236.32L4.629,2.7,8.647,6.716l-.707.707L3.82,3.306a.529.529,0,0,1-.132-.235L3.434,2.056,1.809,1.127l-.68.682.925,1.622,1.018.256A.5.5,0,0,1,3.3,3.82L7.42,7.941l-.707.709Z" transform="translate(217.523 2165.913)" fill="#fff"/>
      <g id="Icon_ionic-ios-checkmark-circle-outline" data-name="Icon ionic-ios-checkmark-circle-outline" transform="translate(227.972 2175.81)">
        <path id="Path_183131" data-name="Path 183131" d="M15.18,12.634l-.39-.4a.084.084,0,0,0-.062-.027h0a.08.08,0,0,0-.062.027l-2.7,2.723-.984-.984a.086.086,0,0,0-.124,0l-.394.394a.088.088,0,0,0,0,.126L11.7,15.733a.392.392,0,0,0,.259.126.411.411,0,0,0,.257-.122h0l2.962-2.978A.1.1,0,0,0,15.18,12.634Z" transform="translate(-8.044 -9.257)" fill="#fff"/>
        <path id="Path_183131_-_Outline" data-name="Path 183131 - Outline" d="M14.695,12.006a.252.252,0,0,1,.183.079l.388.4a.259.259,0,0,1,.011.348l-.01.012-3.011,3.027h-.01a.531.531,0,0,1-.318.122.551.551,0,0,1-.377-.175L10.31,14.577a.255.255,0,0,1,0-.362l.394-.394a.252.252,0,0,1,.36,0l.866.866,2.583-2.6A.249.249,0,0,1,14.695,12.006Zm.282.658-.282-.29L11.93,15.158l-1.046-1.046L10.6,14.4l1.186,1.186a.238.238,0,0,0,.141.078.246.246,0,0,0,.143-.077l.033-.031Z" transform="translate(-8.01 -9.224)" fill="#fff"/>
        <path id="Path_183132" data-name="Path 183132" d="M7.983,4a3.986,3.986,0,1,1-2.82,1.168A3.962,3.962,0,0,1,7.983,4m0-.62a4.608,4.608,0,1,0,4.608,4.608A4.608,4.608,0,0,0,7.983,3.375Z" transform="translate(-3.209 -3.209)" fill="#fff"/>
        <path id="Path_183132_-_Outline" data-name="Path 183132 - Outline" d="M7.95,3.175A4.775,4.775,0,1,1,3.175,7.95,4.78,4.78,0,0,1,7.95,3.175Zm0,9.217A4.442,4.442,0,1,0,3.508,7.95,4.447,4.447,0,0,0,7.95,12.392Zm0-8.6A4.153,4.153,0,1,1,5.012,5.012,4.128,4.128,0,0,1,7.95,3.8Zm0,7.976a3.82,3.82,0,1,0-2.7-1.119A3.8,3.8,0,0,0,7.95,11.771Z" transform="translate(-3.175 -3.175)" fill="#fff"/>
      </g>
    </g>
  </g>
</svg>
