<svg xmlns="http://www.w3.org/2000/svg" width="30.389" height="30.549" viewBox="0 0 30.389 30.549">
  <g id="noun_inspection_3307934" transform="translate(-0.471 -15.6)">
    <path id="Path_182363" data-name="Path 182363" d="M150.94,147.777a.493.493,0,0,0-.7,0l-.144.144-.7-.7a7.4,7.4,0,1,0-2.177,2.177l.7.7-.144.144a.493.493,0,0,0,0,.7l6.393,6.393a2.237,2.237,0,1,0,3.163-3.163Zm-7.746-10.994a6.389,6.389,0,0,1,1.973.311v8.566h-7.89a6.41,6.41,0,0,1,5.917-8.877Zm-5.4,9.863h7.866a.493.493,0,0,0,.493-.493v-8.645a6.41,6.41,0,1,1-8.359,9.138Zm10.223,2.152a7.468,7.468,0,0,0,.782-.782l.6.6-.782.782Zm2.575.024.782.782-1.768,1.768-.782-.782ZM155.752,157a1.242,1.242,0,0,1-.884-.366l-4.565-4.565,1.768-1.768,4.565,4.565a1.25,1.25,0,0,1-.884,2.135Z" transform="translate(-127.529 -112.399)" fill="#383a65" stroke="#383a65" stroke-width="0.8"/>
    <path id="Path_182364" data-name="Path 182364" d="M30.795,22.411V16.493A.493.493,0,0,0,30.3,16H16.493a.493.493,0,0,0-.493.493v14.3a.493.493,0,0,0,.493.493h5.918V30.3H16.986V19.945h3.945V22.9a.493.493,0,0,0,.842.349l.638-.638.638.638a.493.493,0,0,0,.7,0l.638-.638.638.638a.493.493,0,0,0,.842-.349V19.945h3.945v2.466ZM16.986,18.959V16.986h3.945v1.973Zm7.746,2.61a.493.493,0,0,0-.7,0l-.638.638-.638-.638a.493.493,0,0,0-.7,0l-.144.144V16.986h2.959v4.727Zm1.131-2.61V16.986h3.945v1.973Z" transform="translate(-15.129 0)" fill="#383a65" stroke="#383a65" stroke-width="0.8"/>
    <rect id="Rectangle_21054" data-name="Rectangle 21054" height="1.132" transform="translate(14.606 30.722)" fill="#383a65" stroke="#383a65" stroke-width="0.8"/>
    <rect id="Rectangle_21055" data-name="Rectangle 21055" width="1.132" height="1.132" transform="translate(12.341 30.722)" fill="#383a65"/>
    <rect id="Rectangle_21056" data-name="Rectangle 21056" width="1.132" height="1.132" transform="translate(15.739 30.722)" fill="#383a65"/>
    <rect id="Rectangle_21057" data-name="Rectangle 21057" height="1.132" transform="translate(3.282 26.192)" fill="#383a65" stroke="#383a65" stroke-width="0.8"/>
    <rect id="Rectangle_21058" data-name="Rectangle 21058" width="2.265" height="1.132" transform="translate(4.414 26.192)" fill="#383a65"/>
    <rect id="Rectangle_21059" data-name="Rectangle 21059" width="2.265" height="1.132" transform="translate(3.282 28.457)" fill="#383a65"/>
  </g>
</svg>
