<svg xmlns="http://www.w3.org/2000/svg" width="20" height="20" viewBox="0 0 20 20">
  <g id="tenants" transform="translate(-19 -112)">
    <rect id="Rectangle_22801" data-name="Rectangle 22801" width="20" height="20" transform="translate(19 112)" fill="#fff" opacity="0"/>
    <path id="people_2_" data-name="people (2)" d="M18.75,17A1.224,1.224,0,0,0,20,15.75c0-1.25-1.25-5-6.25-5s-6.25,3.75-6.25,5A1.224,1.224,0,0,0,8.75,17ZM8.777,15.75l-.027-.005a3.836,3.836,0,0,1,.95-2.15A5,5,0,0,1,13.75,12a5.01,5.01,0,0,1,4.05,1.595,3.849,3.849,0,0,1,.95,2.15l-.01,0-.017,0Zm4.973-7.5a2.5,2.5,0,1,0-2.5-2.5A2.5,2.5,0,0,0,13.75,8.25Zm3.75-2.5A3.75,3.75,0,1,1,13.75,2,3.75,3.75,0,0,1,17.5,5.75ZM8.67,11.1a7.35,7.35,0,0,0-1.537-.309q-.44-.042-.883-.041c-5,0-6.25,3.75-6.25,5A1.1,1.1,0,0,0,1.25,17H6.52a2.8,2.8,0,0,1-.27-1.25,5.736,5.736,0,0,1,1.363-3.63A6.614,6.614,0,0,1,8.67,11.1ZM6.15,12A6.866,6.866,0,0,0,5,15.75H1.25a3.836,3.836,0,0,1,.95-2.155A4.967,4.967,0,0,1,6.15,12ZM1.875,6.375a3.75,3.75,0,1,1,3.75,3.75A3.75,3.75,0,0,1,1.875,6.375Zm3.75-2.5a2.5,2.5,0,1,0,2.5,2.5A2.5,2.5,0,0,0,5.625,3.875Z" transform="translate(19 113)" fill="#fff"/>
  </g>
</svg>
