<svg xmlns="http://www.w3.org/2000/svg" width="27" height="27" viewBox="0 0 27 27">
  <g id="Group_117093" data-name="Group 117093" transform="translate(-297 -2284)">
    <g id="Group_117035" data-name="Group 117035" transform="translate(0 -185)">
      <circle id="Ellipse_40727" data-name="Ellipse 40727" cx="13.5" cy="13.5" r="13.5" transform="translate(297 2469)" fill="#f3f5f8"/>
    </g>
    <path id="Icon_awesome-boxes" data-name="Icon awesome-boxes" d="M14.1,13.2H8.477a.793.793,0,0,1-.795-.79V7.623a.793.793,0,0,1,.795-.79h2.4V8.889l.41-.271.41.271V6.833h2.4a.793.793,0,0,1,.795.79v4.789A.793.793,0,0,1,14.1,13.2ZM8.477,7.614a.01.01,0,0,0-.008.008v4.789a.01.01,0,0,0,.008.008H14.1a.01.01,0,0,0,.008-.008V7.623a.01.01,0,0,0-.008-.008H12.485v2.733l-1.2-.791-1.2.791V7.614ZM6.068,13.2H.445a.793.793,0,0,1-.795-.79V7.623a.793.793,0,0,1,.795-.79h2.4V8.889l.41-.271.41.271V6.833h2.4a.793.793,0,0,1,.795.79v4.789A.793.793,0,0,1,6.068,13.2ZM.445,7.614a.01.01,0,0,0-.008.008v4.789a.01.01,0,0,0,.008.008H6.068a.01.01,0,0,0,.008-.008V7.623a.01.01,0,0,0-.008-.008H4.453v2.733l-1.2-.791-1.2.791V7.614Zm9.639-1.6H4.461a.793.793,0,0,1-.795-.79V.44a.793.793,0,0,1,.795-.79h2.4V1.706l.41-.271.41.271V-.35h2.4a.793.793,0,0,1,.795.79V5.228A.793.793,0,0,1,10.084,6.018ZM4.461.431A.01.01,0,0,0,4.453.44V5.228a.01.01,0,0,0,.008.008h5.623a.01.01,0,0,0,.008-.008V.44a.01.01,0,0,0-.008-.008H8.469V3.164l-1.2-.791-1.2.791V.431Z" transform="translate(303.512 2290.645)" fill="#383a65"/>
  </g>
</svg>
