<svg xmlns="http://www.w3.org/2000/svg" width="27" height="27" viewBox="0 0 27 27">
  <g id="Group_116648" data-name="Group 116648" transform="translate(-310 -646)">
    <g id="Group_484" data-name="Group 484" transform="translate(310 646)">
      <g id="Group_476" data-name="Group 476">
        <circle id="Ellipse_92" data-name="Ellipse 92" cx="13.5" cy="13.5" r="13.5" fill="#f3f5f8"/>
      </g>
    </g>
    <g id="users-roles" transform="translate(314.043 650.043)">
      <path id="Path_182942" data-name="Path 182942" d="M10.44,2.121a1.5,1.5,0,1,0-.115,1,6.013,6.013,0,0,1,4.254,3.643l.917-.361A7.015,7.015,0,0,0,10.44,2.121Zm-1.458.847a.5.5,0,1,1,.354-.147A.5.5,0,0,1,8.981,2.968Zm-2.2.416-.371-.917A7.015,7.015,0,0,0,2.121,7.523a1.5,1.5,0,1,0,1,.115A6.013,6.013,0,0,1,6.776,3.384Zm-4.309,6.1a.5.5,0,1,1,.5-.5A.5.5,0,0,1,2.467,9.482Zm6.514,4.51a1.5,1.5,0,0,0-1.343.837,6.013,6.013,0,0,1-4.254-3.643l-.917.371a7.015,7.015,0,0,0,5.071,4.284,1.5,1.5,0,1,0,1.443-1.849Zm0,2a.5.5,0,1,1,.5-.5A.5.5,0,0,1,8.981,16ZM17,8.981a1.5,1.5,0,1,0-2.17,1.343,6.013,6.013,0,0,1-3.643,4.254l.371.917a7.015,7.015,0,0,0,4.284-5.071A1.5,1.5,0,0,0,17,8.981Zm-1.5.5a.5.5,0,1,1,.5-.5A.5.5,0,0,1,15.5,9.482Z" transform="translate(0 0)" fill="#383a65"/>
      <path id="Path_182943" data-name="Path 182943" d="M15.54,13.134a2,2,0,1,0-2.8,0,2.505,2.505,0,0,0-1.1,2.075v1h5.011v-1A2.505,2.505,0,0,0,15.54,13.134ZM13.14,11.7a1,1,0,1,1,1,1A1,1,0,0,1,13.14,11.7Zm-.5,3.508a1.5,1.5,0,1,1,3.007,0Z" transform="translate(-5.161 -4.223)" fill="#383a65"/>
    </g>
  </g>
</svg>
