<svg xmlns="http://www.w3.org/2000/svg" width="27.99" height="27.99" viewBox="0 0 27.99 27.99">
  <g id="Group_117037" data-name="Group 117037" transform="translate(-168.386 -2616.499)">
    <g id="noun_inspection_3780461" transform="translate(168.887 2617)">
      <g id="Group_117036" data-name="Group 117036" transform="translate(0 0)">
        <path id="Path_183094" data-name="Path 183094" d="M30.333,26.932,21.442,18.04a.481.481,0,0,0-.68,0l-.34.34-.774-.773a8.685,8.685,0,1,0-2.041,2.041l.773.774-.34.34a.481.481,0,0,0,0,.68l8.892,8.891a1.855,1.855,0,0,0,2.623,0l.777-.777a1.855,1.855,0,0,0,0-2.623ZM4.9,12.6a7.7,7.7,0,1,1,7.7,7.7,7.7,7.7,0,0,1-7.7-7.7Zm13.458,6.443a8.721,8.721,0,0,0,.681-.681l.7.7-.681.681Zm1.039,1.72L20.761,19.4l.34-.34.974,1.044-2.041,2.041L19.061,21.1Zm10.252,8.114-.777.777a.916.916,0,0,1-1.263,0l-6.9-6.827,2.041-2.041,6.9,6.827a.893.893,0,0,1,0,1.263Z" transform="translate(-3.887 -3.887)" fill="#383a65" stroke="#383a65" stroke-width="1"/>
      </g>
    </g>
    <g id="Icon_feather-eye" data-name="Icon feather-eye" transform="translate(171.773 2621.591)">
      <path id="Path_182969" data-name="Path 182969" d="M5.836,4.75a4.919,4.919,0,0,1,2.4.639A7.083,7.083,0,0,1,9.958,6.762,9.29,9.29,0,0,1,11.38,8.744a.393.393,0,0,1,0,.352,9.291,9.291,0,0,1-1.422,1.981A7.083,7.083,0,0,1,8.231,12.45a4.919,4.919,0,0,1-2.4.639,4.919,4.919,0,0,1-2.4-.639,7.083,7.083,0,0,1-1.727-1.373A9.291,9.291,0,0,1,.292,9.1a.393.393,0,0,1,0-.352A9.29,9.29,0,0,1,1.713,6.762,7.083,7.083,0,0,1,3.44,5.389,4.919,4.919,0,0,1,5.836,4.75ZM10.58,8.92A8.922,8.922,0,0,0,9.37,7.286,4.856,4.856,0,0,0,5.836,5.537C3.2,5.537,1.5,8.2,1.091,8.92A8.922,8.922,0,0,0,2.3,10.554,4.856,4.856,0,0,0,5.836,12.3C8.468,12.3,10.17,9.637,10.58,8.92Z" transform="translate(-0.25 -4.75)" fill="#383a65" stroke="#383a65" stroke-linecap="round" stroke-width="1"/>
      <path id="Path_182970" data-name="Path 182970" d="M14.059,12.25a1.809,1.809,0,1,1-1.809,1.809A1.812,1.812,0,0,1,14.059,12.25Zm0,2.832a1.023,1.023,0,1,0-1.023-1.023A1.024,1.024,0,0,0,14.059,15.082Z" transform="translate(-8.474 -9.89)" fill="#383a65" stroke="#383a65" stroke-linecap="round" stroke-width="1"/>
    </g>
  </g>
</svg>
