<svg xmlns="http://www.w3.org/2000/svg" width="28.819" height="27.682" viewBox="0 0 28.819 27.682">
  <g id="Group_117339" data-name="Group 117339" transform="translate(-223.706 -3522.568)">
    <path id="Subtraction_34" data-name="Subtraction 34" d="M-11607.861,2534.708a13.572,13.572,0,0,1-7.491-2.243l-.527-.347-1.129,1.211-.138-4,4-.14-1.277,1.368.814.473a11.454,11.454,0,0,0,4.095,1.42l-.116.12h1.768a11.471,11.471,0,0,0,8.736-4.02l1.715,1.283a13.517,13.517,0,0,1-4.67,3.6A13.543,13.543,0,0,1-11607.861,2534.708Zm-12.817-8.967h0a13.545,13.545,0,0,1-.822-4.669,13.752,13.752,0,0,1,7.514-12.181l.563-.283-.481-1.581,3.529,1.878-1.876,3.532-.548-1.791-.816.476a11.52,11.52,0,0,0-5.572,7.966l-.175-.228v2.211a11.484,11.484,0,0,0,.653,3.827l-1.968.843Zm24.607-.759h0l-2.128-3.385.919.21.919.2v-.939a11.488,11.488,0,0,0-9.388-11.3l.254-2.126a13.617,13.617,0,0,1,8.063,4.641,13.658,13.658,0,0,1,3.206,8.785c0,.261-.008.518-.023.785l-.038.633,1.607.367-3.389,2.126Z" transform="translate(11845.207 1015.542)" fill="#383a65"/>
    <path id="Path_183548" data-name="Path 183548" d="M265.917,188.873l.374-.206h0a.6.6,0,0,0,.234-.843l-1.033-1.715a.662.662,0,0,0-.882-.226l-.378.206a.687.687,0,0,1-.736-.058,5.529,5.529,0,0,0-1.206-.67.634.634,0,0,1-.421-.578v-.414a.632.632,0,0,0-.648-.617H259.15a.632.632,0,0,0-.646.617v.414a.634.634,0,0,1-.421.578,5.518,5.518,0,0,0-1.208.67.687.687,0,0,1-.736.058l-.378-.209a.662.662,0,0,0-.882.226l-1.036,1.715a.6.6,0,0,0,.237.843l.374.206h0a.6.6,0,0,1,.318.6,4.938,4.938,0,0,0,0,1.413.6.6,0,0,1-.318.6l-.374.206h0a.6.6,0,0,0-.237.843l1.036,1.715a.662.662,0,0,0,.882.226l.378-.2a.687.687,0,0,1,.736.058,5.527,5.527,0,0,0,1.206.67.634.634,0,0,1,.421.578v.414a.632.632,0,0,0,.648.617h2.071a.632.632,0,0,0,.646-.617v-.414a.634.634,0,0,1,.421-.578,5.52,5.52,0,0,0,1.208-.67.687.687,0,0,1,.736-.058l.378.209a.662.662,0,0,0,.882-.226l1.035-1.715a.6.6,0,0,0-.234-.843l-.374-.206h0a.6.6,0,0,1-.318-.6,4.931,4.931,0,0,0,0-1.413A.6.6,0,0,1,265.917,188.873Zm-5.732,3.937a2.63,2.63,0,1,1,1.86-.77A2.631,2.631,0,0,1,260.185,192.81Z" transform="translate(-23.064 3346.041)" fill="#383a65"/>
  </g>
</svg>
