<svg xmlns="http://www.w3.org/2000/svg" width="33.923" height="31.751" viewBox="0 0 33.923 31.751">
  <g id="Group_117181" data-name="Group 117181" transform="translate(-211.364 -2837)">
    <path id="Subtraction_22" data-name="Subtraction 22" d="M-11605.3,2536h-2.151a3.8,3.8,0,0,1-3.847-3.75h1.922a1.857,1.857,0,0,0,.565,1.327,1.933,1.933,0,0,0,1.359.548h2.151V2536Zm-5.135-4.969h-.006a.944.944,0,0,1-.674-.277.935.935,0,0,1-.276-.674l0-4.138a7.41,7.41,0,0,1-4.348-2.132,7.447,7.447,0,0,1-2.193-5.3,7.44,7.44,0,0,1,2.193-5.3,7.444,7.444,0,0,1,5.3-2.194,7.44,7.44,0,0,1,5.3,2.194,7.44,7.44,0,0,1,2.193,5.3,7.447,7.447,0,0,1-2.193,5.3,7.41,7.41,0,0,1-4.348,2.132v4.138A.95.95,0,0,1-11610.438,2531.032Zm-.006-6.937c.033,0,.07,0,.1.006a5.546,5.546,0,0,0,3.854-1.636,5.6,5.6,0,0,0,0-7.911,5.546,5.546,0,0,0-3.953-1.636,5.556,5.556,0,0,0-3.955,1.636,5.6,5.6,0,0,0,0,7.911,5.55,5.55,0,0,0,3.855,1.636h.012C-11610.5,2524.1-11610.473,2524.095-11610.444,2524.095Zm24.141,2.907h-1.922v-10.687h-7.691a.952.952,0,0,1-.963-.939v-7.5h-10.575a1.894,1.894,0,0,0-1.922,1.814h-1.925a3.82,3.82,0,0,1,3.847-3.689h11.562a.972.972,0,0,1,.664.286l8.644,8.427a.858.858,0,0,1,.1.114l0,.009s0,0,.006,0a.94.94,0,0,1,.172.513V2527Zm-8.654-17.8h0v5.237h5.371l-5.371-5.237Zm1.925,16.018h-7.692v-1.875h7.692a.952.952,0,0,1,.962.939A.95.95,0,0,1-11593.033,2525.22Zm0-3.75h-7.692V2519.6h7.692a.952.952,0,0,1,.962.939A.95.95,0,0,1-11593.033,2521.471Z" transform="translate(11829.303 330.999)" fill="#383a65"/>
    <path id="Path_183166" data-name="Path 183166" d="M-11605.57,2513.681h-15.494a1.937,1.937,0,0,1-1.931-1.938v-5.809a1.934,1.934,0,0,1,1.931-1.933h15.494a1.933,1.933,0,0,1,1.93,1.933v5.809A1.936,1.936,0,0,1-11605.57,2513.681Zm-8.628-7.506a2.811,2.811,0,0,0-1.405.363,2.623,2.623,0,0,0-1.012,1,2.836,2.836,0,0,0-.375,1.452,2.782,2.782,0,0,0,.375,1.444,2.655,2.655,0,0,0,1.012,1.005,2.89,2.89,0,0,0,1.405.357,2.827,2.827,0,0,0,1.406-.357,2.594,2.594,0,0,0,1.012-1.005,2.835,2.835,0,0,0,.377-1.444,2.9,2.9,0,0,0-.368-1.452,2.6,2.6,0,0,0-1.011-1A2.777,2.777,0,0,0-11614.2,2506.175Zm6.066.04a2.882,2.882,0,0,0-1.457.35,2.552,2.552,0,0,0-.954.983,3.074,3.074,0,0,0-.338,1.447,3.069,3.069,0,0,0,.338,1.445,2.438,2.438,0,0,0,.964.987,2.952,2.952,0,0,0,1.469.357,2.677,2.677,0,0,0,1.63-.486,2.888,2.888,0,0,0,.938-1.164v-1.513h-2.782v1.085h1.525a1.344,1.344,0,0,1-.467.554,1.328,1.328,0,0,1-.685.18,1.33,1.33,0,0,1-1.03-.367,1.493,1.493,0,0,1-.356-1.078,1.484,1.484,0,0,1,.328-1.005,1.118,1.118,0,0,1,.886-.374,1.206,1.206,0,0,1,.567.131.98.98,0,0,1,.365.356h1.6a2.092,2.092,0,0,0-.812-1.377A2.809,2.809,0,0,0-11608.132,2506.215Zm-12.51.046v5.482h3.23v-1.152h-1.707v-4.331Zm6.443,4.117a1.138,1.138,0,0,1-.905-.38,1.485,1.485,0,0,1-.333-1.01,1.5,1.5,0,0,1,.333-1.029,1.159,1.159,0,0,1,.905-.378,1.143,1.143,0,0,1,.912.378,1.5,1.5,0,0,1,.332,1.029,1.494,1.494,0,0,1-.332,1.01A1.143,1.143,0,0,1-11614.2,2510.378Z" transform="translate(11848.928 355.071)" fill="#383a65"/>
  </g>
</svg>
