<svg xmlns="http://www.w3.org/2000/svg" width="33.932" height="30.6" viewBox="0 0 33.932 30.6">
  <path id="Union_3" data-name="Union 3" d="M-11616.05,2532.357a3.646,3.646,0,0,1,.9-4.063l-3.18-5.513a3.665,3.665,0,0,1-1.021.152h-.021a3.63,3.63,0,0,1-3.334-2.2,3.626,3.626,0,0,1,.709-3.944,3.658,3.658,0,0,1,2.628-1.123,3.68,3.68,0,0,1,1.038.152l3.18-5.51a3.648,3.648,0,0,1-.9-4.063,3.621,3.621,0,0,1,3.354-2.243,3.908,3.908,0,0,1,.414.023,3.65,3.65,0,0,1,3.119,2.76h6.271a3.645,3.645,0,0,1,3.118-2.762,3.879,3.879,0,0,1,.414-.023,3.622,3.622,0,0,1,3.354,2.243,3.648,3.648,0,0,1-.9,4.063l3.183,5.513a3.526,3.526,0,0,1,1.03-.152,3.653,3.653,0,0,1,2.908,1.453,3.656,3.656,0,0,1,0,4.355,3.655,3.655,0,0,1-2.908,1.456,3.626,3.626,0,0,1-1.03-.152l-3.183,5.51a3.641,3.641,0,0,1,.9,4.061,3.614,3.614,0,0,1-3.352,2.246,3.922,3.922,0,0,1-.414-.023,3.645,3.645,0,0,1-3.118-2.762h-6.271a3.653,3.653,0,0,1-3.119,2.765,3.908,3.908,0,0,1-.414.023A3.621,3.621,0,0,1-11616.05,2532.357Zm14.764-1.4a1.923,1.923,0,0,0,1.919,1.922,1.926,1.926,0,0,0,1.923-1.922,1.923,1.923,0,0,0-1.923-1.919A1.921,1.921,0,0,0-11601.286,2530.957Zm-13.322,0a1.923,1.923,0,0,0,1.919,1.922,1.923,1.923,0,0,0,1.92-1.922,1.921,1.921,0,0,0-1.92-1.919A1.921,1.921,0,0,0-11614.608,2530.957Zm4.378-2.666a3.59,3.59,0,0,1,1.065,1.812h6.274a3.607,3.607,0,0,1,1.067-1.812l-1.493-2.587a6.939,6.939,0,0,1-2.71.557,6.917,6.917,0,0,1-2.71-.557Zm11.829-.831,3.194-5.534a3.605,3.605,0,0,1-1.021-1.771h-2.891a6.874,6.874,0,0,1-2.713,4.7l1.5,2.6a3.6,3.6,0,0,1,.966-.131A3.6,3.6,0,0,1-11598.4,2527.459Zm-13.325,0,1.5-2.6a6.874,6.874,0,0,1-2.713-4.7h-2.891a3.626,3.626,0,0,1-1.021,1.771l3.194,5.534a3.563,3.563,0,0,1,.962-.131A3.57,3.57,0,0,1-11611.727,2527.459Zm4.723-13.316a5.251,5.251,0,0,0-4.273,5.157,5.208,5.208,0,0,0,1.406,3.579,5.269,5.269,0,0,0,3.845,1.675,5.238,5.238,0,0,0,2.8-.808,5.258,5.258,0,0,0,2.089-6.365,5.219,5.219,0,0,0-4.883-3.331A5.264,5.264,0,0,0-11607,2514.143Zm12.38,5.157a1.921,1.921,0,0,0,1.92,1.919,1.923,1.923,0,0,0,1.922-1.919,1.923,1.923,0,0,0-1.922-1.919A1.921,1.921,0,0,0-11594.624,2519.3Zm-26.647,0a1.923,1.923,0,0,0,1.92,1.919,1.921,1.921,0,0,0,1.922-1.919,1.921,1.921,0,0,0-1.922-1.919A1.923,1.923,0,0,0-11621.271,2519.3Zm19.439-5.554a6.868,6.868,0,0,1,2.713,4.7h2.891a3.629,3.629,0,0,1,1.021-1.774l-3.194-5.531a3.607,3.607,0,0,1-1.929,0Zm-15.014,2.926a3.65,3.65,0,0,1,1.021,1.774h2.891a6.868,6.868,0,0,1,2.713-4.7l-1.5-2.6a3.593,3.593,0,0,1-1.925,0Zm13.526-3.775,1.5-2.587a3.63,3.63,0,0,1-1.067-1.812h-6.274a3.605,3.605,0,0,1-1.068,1.812l1.494,2.587a6.873,6.873,0,0,1,2.71-.56A6.873,6.873,0,0,1-11603.319,2512.9Zm2.033-5.257a1.921,1.921,0,0,0,1.919,1.922,1.924,1.924,0,0,0,1.923-1.922,1.923,1.923,0,0,0-1.923-1.919A1.921,1.921,0,0,0-11601.286,2507.641Zm-13.322,0a1.921,1.921,0,0,0,1.919,1.922,1.921,1.921,0,0,0,1.92-1.922,1.921,1.921,0,0,0-1.92-1.919A1.921,1.921,0,0,0-11614.608,2507.641Zm9.652,14.8a3,3,0,0,0-1.073-.2,2.994,2.994,0,0,0-1.073.2.892.892,0,0,1-.3.055.859.859,0,0,1-.8-.557.851.851,0,0,1,.021-.653.847.847,0,0,1,.479-.447,4.767,4.767,0,0,1,1.675-.3,4.765,4.765,0,0,1,1.677.3.858.858,0,0,1,.5,1.1.861.861,0,0,1-.8.557A.888.888,0,0,1-11604.956,2522.436Zm1.188-1.852-.009,0a4.907,4.907,0,0,0-2.249-.548,4.907,4.907,0,0,0-2.252.548l-.009,0a.826.826,0,0,1-.371.087.856.856,0,0,1-.761-.464.851.851,0,0,1,.347-1.141l.006,0a6.642,6.642,0,0,1,3.04-.741,6.62,6.62,0,0,1,3.036.741l.006,0a.852.852,0,0,1,.348,1.141.857.857,0,0,1-.762.464A.822.822,0,0,1-11603.769,2520.584Zm1.184-1.806a6.61,6.61,0,0,0-3.444-.966,6.59,6.59,0,0,0-3.439.966.863.863,0,0,1-.443.125.849.849,0,0,1-.732-.411.856.856,0,0,1-.1-.647.855.855,0,0,1,.388-.528,8.336,8.336,0,0,1,4.329-1.217,8.341,8.341,0,0,1,4.332,1.217.844.844,0,0,1,.385.528.838.838,0,0,1-.1.647.848.848,0,0,1-.731.411A.841.841,0,0,1-11602.585,2518.778Z" transform="translate(11623 -2504)" fill="#383a65"/>
</svg>
