<svg xmlns="http://www.w3.org/2000/svg" width="27" height="27" viewBox="0 0 27 27">
  <g id="Group_117118" data-name="Group 117118" transform="translate(-323 -2043)">
    <g id="Putaway_383a65_" data-name="Putaway_383a65 " transform="translate(-306 1509)">
      <circle id="Ellipse_40727" data-name="Ellipse 40727" cx="13.5" cy="13.5" r="13.5" transform="translate(629 534)" fill="#f3f5f8"/>
    </g>
    <g id="noun_Category_2680179" transform="translate(309.474 1732.455)">
      <g id="Group_117117" data-name="Group 117117" transform="translate(19.075 316.32)">
        <path id="Path_183142" data-name="Path 183142" d="M297.552,316.32V320.9h-1.891l-.02,2.579h2.9V321.5h4.581v4.581h-4.581V324.29h-2.91l-.038,4.786h3.987v-1.887h4.581v4.581h-4.581v-1.887h-4.8l.028-3.535H292.84v1.885H288.26v-4.581h4.581v1.885h1.977l.037-4.637h-1.883V316.32Zm-5.522,8.142H289.07v2.961h2.961ZM303.354,328h-2.961v2.961h2.961Zm-1.039-5.691h-2.961v2.961h2.961Zm-5.573-5.178h-2.961v2.961h2.961Z" transform="translate(-288.26 -316.32)" fill="#383a65"/>
      </g>
    </g>
  </g>
</svg>
