<svg xmlns="http://www.w3.org/2000/svg" width="27" height="27" viewBox="0 0 27 27">
  <g id="Group_116650" data-name="Group 116650" transform="translate(-310 -749)">
    <g id="Group_116614" data-name="Group 116614" transform="translate(310 749)">
      <g id="Group_476" data-name="Group 476">
        <circle id="Ellipse_92" data-name="Ellipse 92" cx="13.5" cy="13.5" r="13.5" fill="#f3f5f8"/>
      </g>
    </g>
    <g id="Group_116616" data-name="Group 116616" transform="translate(-419 89)">
      <g id="bg_services" data-name="bg services" transform="translate(736 669)">
        <path id="Path_182957" data-name="Path 182957" d="M20.824,972.362a.168.168,0,0,1,.147.162v9.422a.169.169,0,0,1-.162.162H7.162A.169.169,0,0,1,7,981.947v-9.422a.169.169,0,0,1,.162-.162H20.824Zm-.178.325H7.325v1.579H20.646Zm0,1.9H7.325v7.194H20.646Z" transform="translate(-7 -972.362)" fill="#383a65"/>
        <path id="Path_182957_-_Outline" data-name="Path 182957 - Outline" d="M20.816,972.262h.017a.268.268,0,0,1,.238.262v9.422a.269.269,0,0,1-.262.262H7.162a.269.269,0,0,1-.262-.262v-9.422a.269.269,0,0,1,.262-.262Zm0,.2H7.162a.07.07,0,0,0-.062.062v9.422a.07.07,0,0,0,.062.063H20.809a.07.07,0,0,0,.062-.062v-9.422A.07.07,0,0,0,20.817,972.462Zm-13.593.125H20.746v1.779H7.225Zm13.321.2H7.425v1.379H20.546Zm-13.321,1.7H20.746v7.394H7.225Zm13.321.2H7.425v6.994H20.546Z" transform="translate(-7 -972.362)" fill="#383a65"/>
        <path id="Path_182958" data-name="Path 182958" d="M83.258,977.581a.3.3,0,0,1,.289.294.289.289,0,1,1-.579,0A.3.3,0,0,1,83.258,977.581Z" transform="translate(-70.627 -976.733)" fill="#383a65"/>
        <path id="Path_182958_-_Outline" data-name="Path 182958 - Outline" d="M83.258,977.481a.4.4,0,0,1,.389.394.389.389,0,1,1-.779,0A.4.4,0,0,1,83.258,977.481Zm0,.584a.19.19,0,0,0,.189-.189.189.189,0,1,0-.379,0A.19.19,0,0,0,83.258,978.065Z" transform="translate(-70.627 -976.733)" fill="#383a65"/>
        <path id="Path_182959" data-name="Path 182959" d="M68.133,977.581a.3.3,0,0,1,.289.294.289.289,0,1,1-.579,0A.3.3,0,0,1,68.133,977.581Z" transform="translate(-57.959 -976.733)" fill="#383a65"/>
        <path id="Path_182959_-_Outline" data-name="Path 182959 - Outline" d="M68.133,977.481a.4.4,0,0,1,.389.394.389.389,0,1,1-.779,0A.4.4,0,0,1,68.133,977.481Zm0,.584a.19.19,0,0,0,.189-.189.189.189,0,1,0-.379,0A.19.19,0,0,0,68.133,978.065Z" transform="translate(-57.959 -976.733)" fill="#383a65"/>
        <path id="Path_182960" data-name="Path 182960" d="M75.7,977.581a.3.3,0,0,1,.289.294.289.289,0,1,1-.579,0A.3.3,0,0,1,75.7,977.581Z" transform="translate(-64.293 -976.733)" fill="#383a65"/>
        <path id="Path_182960_-_Outline" data-name="Path 182960 - Outline" d="M75.7,977.481a.4.4,0,0,1,.389.394.389.389,0,1,1-.779,0A.4.4,0,0,1,75.7,977.481Zm0,.584a.19.19,0,0,0,.189-.189.189.189,0,1,0-.379,0A.19.19,0,0,0,75.7,978.065Z" transform="translate(-64.293 -976.733)" fill="#383a65"/>
      </g>
      <g id="Icon_feather-settings" data-name="Icon feather-settings" transform="translate(740.921 672.459)">
        <path id="Path_182962" data-name="Path 182962" d="M13.174,12.5a.674.674,0,1,1-.674.674A.675.675,0,0,1,13.174,12.5Zm0,1.1a.429.429,0,1,0-.429-.429A.43.43,0,0,0,13.174,13.6Z" transform="translate(-11.029 -11.029)" fill="#383a65"/>
        <path id="Path_182962_-_Outline" data-name="Path 182962 - Outline" d="M13.174,12.4a.774.774,0,1,1-.774.774A.775.775,0,0,1,13.174,12.4Zm0,1.349a.574.574,0,1,0-.574-.574A.575.575,0,0,0,13.174,13.749Zm0-1.1a.529.529,0,1,1-.529.529A.53.53,0,0,1,13.174,12.645Zm0,.858a.329.329,0,1,0-.329-.329A.33.33,0,0,0,13.174,13.5Z" transform="translate(-11.029 -11.029)" fill="#383a65"/>
        <path id="Path_182963" data-name="Path 182963" d="M2.661,4.792a.491.491,0,0,1-.49-.49V4.286a.18.18,0,0,0-.118-.164l-.007,0a.181.181,0,0,0-.2.036l-.011.011a.491.491,0,1,1-.694-.694l.01-.01a.18.18,0,0,0,.036-.2h0a.181.181,0,0,0-.166-.11H.99a.49.49,0,0,1,0-.981h.015a.18.18,0,0,0,.164-.118l0-.007a.18.18,0,0,0-.036-.2l-.011-.011a.491.491,0,1,1,.694-.694l.01.01a.181.181,0,0,0,.2.036.123.123,0,0,1,.034-.009.181.181,0,0,0,.092-.157V.99a.49.49,0,0,1,.981,0v.017a.181.181,0,0,0,.11.165h0a.181.181,0,0,0,.2-.036l.011-.011a.491.491,0,1,1,.694.694l-.01.01a.18.18,0,0,0-.036.2.123.123,0,0,1,.009.034.181.181,0,0,0,.157.092H4.3a.49.49,0,0,1,0,.981H4.285a.181.181,0,0,0-.165.11h0a.18.18,0,0,0,.036.2l.011.011a.491.491,0,1,1-.694.694l-.01-.01a.181.181,0,0,0-.2-.036h0a.181.181,0,0,0-.11.166V4.3A.491.491,0,0,1,2.661,4.792Zm-.521-.9a.424.424,0,0,1,.275.389V4.3a.245.245,0,0,0,.49,0V4.27a.428.428,0,0,1,.727-.3h0l.011.011a.245.245,0,1,0,.347-.347l-.011-.011h0a.429.429,0,0,1,.3-.727H4.3a.245.245,0,0,0,0-.49H4.27a.426.426,0,0,1-.39-.258A.123.123,0,0,1,3.87,2.1a.424.424,0,0,1,.1-.445h0l.011-.011A.245.245,0,1,0,3.63,1.3l-.011.011h0a.429.429,0,0,1-.727-.3V.99a.245.245,0,1,0-.49,0v.031a.426.426,0,0,1-.258.39.123.123,0,0,1-.038.01.426.426,0,0,1-.445-.1h0l-.011-.011a.245.245,0,1,0-.347.347l.011.011h0A.424.424,0,0,1,1.4,2.14a.424.424,0,0,1-.389.275H.99a.245.245,0,1,0,0,.49h.031a.429.429,0,0,1,.3.727h0l-.011.011a.245.245,0,1,0,.347.347l.011-.011h0a.426.426,0,0,1,.466-.087Z" transform="translate(-0.5 -0.5)" fill="#383a65"/>
        <path id="Path_182963_-_Outline" data-name="Path 182963 - Outline" d="M2.661,4.892a.591.591,0,0,1-.59-.59V4.286a.079.079,0,0,0-.053-.07L2,4.211a.08.08,0,0,0-.089.016l-.009.009A.591.591,0,1,1,1.07,3.4l.01-.01A.08.08,0,0,0,1.1,3.3a.082.082,0,0,0-.075-.051H.99a.59.59,0,0,1,0-1.181h.015a.079.079,0,0,0,.07-.053L1.081,2a.081.081,0,0,0-.016-.089l-.01-.009a.591.591,0,1,1,.835-.835l.01.01a.081.081,0,0,0,.088.015.222.222,0,0,1,.036-.012.081.081,0,0,0,.03-.063V.991a.59.59,0,1,1,1.181,0v.017a.08.08,0,0,0,.049.073.078.078,0,0,0,.091-.015l.009-.009a.591.591,0,1,1,.835.835l-.01.01a.08.08,0,0,0-.015.088.222.222,0,0,1,.012.036.081.081,0,0,0,.063.03H4.3a.59.59,0,1,1,0,1.181H4.285a.08.08,0,0,0-.073.049.081.081,0,0,0,.015.091l.009.009a.591.591,0,1,1-.835.835l-.01-.01a.083.083,0,0,0-.139.06V4.3A.591.591,0,0,1,2.661,4.892ZM1.972,4a.3.3,0,0,1,.3.28V4.3a.39.39,0,0,0,.781,0V4.27a.281.281,0,0,1,.17-.257.284.284,0,0,1,.309.055l.011.011a.391.391,0,1,0,.553-.552l-.011-.011a.283.283,0,0,1,.2-.481H4.3a.39.39,0,0,0,0-.781H4.271a.282.282,0,0,1-.244-.142L4.017,2.1l0-.019a.022.022,0,0,0,0-.006.28.28,0,0,1,.056-.309L4.08,1.75A.391.391,0,1,0,3.528,1.2l-.011.011a.284.284,0,0,1-.31.057.28.28,0,0,1-.17-.257V.99a.39.39,0,0,0-.781,0v.031a.282.282,0,0,1-.142.244l-.017.01-.019,0-.006,0a.284.284,0,0,1-.309-.056L1.75,1.212a.391.391,0,1,0-.553.552l.011.011a.3.3,0,0,1-.2.5H.99a.39.39,0,0,0,0,.781h.031a.283.283,0,0,1,.2.48l-.011.011a.391.391,0,1,0,.552.553l.011-.011A.28.28,0,0,1,1.972,4Zm.689.643A.346.346,0,0,1,2.315,4.3V4.285a.341.341,0,0,0-.572-.233l-.011.011a.345.345,0,1,1-.488-.489l.011-.011a.329.329,0,0,0-.233-.557H.99a.345.345,0,0,1,0-.69h.017a.341.341,0,0,0,.233-.572l-.011-.011a.345.345,0,1,1,.489-.488l.011.011a.326.326,0,0,0,.341.073l.013,0H2.1l.007,0a.326.326,0,0,0,.2-.3V.99a.345.345,0,0,1,.69,0v.017a.329.329,0,0,0,.557.233l.011-.011a.345.345,0,1,1,.488.489l-.011.011a.323.323,0,0,0-.073.341l0,.013V2.1a.023.023,0,0,0,0,.007.326.326,0,0,0,.3.2H4.3a.345.345,0,0,1,0,.69H4.284a.329.329,0,0,0-.233.557l.011.011a.345.345,0,1,1-.489.488l-.011-.011a.329.329,0,0,0-.557.233V4.3A.346.346,0,0,1,2.661,4.647Zm-.689-.888A.523.523,0,0,1,2.18,3.8a.522.522,0,0,1,.336.478V4.3a.145.145,0,0,0,.29,0V4.27a.528.528,0,0,1,.9-.376l.013.013a.149.149,0,0,0,.206,0,.145.145,0,0,0,0-.206L3.91,3.69a.529.529,0,0,1,.374-.9H4.3a.145.145,0,0,0,0-.29H4.27a.526.526,0,0,1-.482-.319.222.222,0,0,1-.016-.055.521.521,0,0,1,.122-.538l.013-.013a.145.145,0,0,0,0-.206.149.149,0,0,0-.206,0l-.011.011a.529.529,0,0,1-.9-.374V.99a.145.145,0,0,0-.29,0v.031a.526.526,0,0,1-.319.482.223.223,0,0,1-.055.016A.526.526,0,0,1,1.589,1.4l-.013-.013a.149.149,0,0,0-.206,0,.145.145,0,0,0,0,.206l.011.011a.525.525,0,0,1,.109.578.522.522,0,0,1-.478.336H.99a.145.145,0,0,0,0,.29h.031a.529.529,0,0,1,.376.9l-.013.013a.145.145,0,0,0,0,.206.149.149,0,0,0,.206,0L1.6,3.91A.525.525,0,0,1,1.972,3.759Z" transform="translate(-0.5 -0.5)" fill="#383a65"/>
      </g>
    </g>
  </g>
</svg>
