<svg xmlns="http://www.w3.org/2000/svg" width="24.726" height="24.492" viewBox="0 0 24.726 24.492">
  <g id="Group_117034" data-name="Group 117034" transform="translate(-306.487 -2593.5)">
    <g id="customer-support" transform="translate(307 2594)">
      <path id="Path_182356" data-name="Path 182356" d="M.364,2.23,1.93,4.97a.391.391,0,0,0,.244.185l1.46.365L8.643,10.53,9.2,9.977,4.11,4.887a.39.39,0,0,0-.182-.1l-1.4-.352L1.2,2.1,2.335.956,4.67,2.29l.352,1.4a.39.39,0,0,0,.1.182l5.087,5.087.553-.553L5.756,3.4,5.391,1.94a.392.392,0,0,0-.185-.249L2.466.131A.391.391,0,0,0,2,.194L.431,1.758a.391.391,0,0,0-.067.47Zm0,0" transform="translate(-0.314 -0.076)" fill="#383a65" stroke="#383a65" stroke-width="0.5"/>
      <path id="Path_182356_-_Outline" data-name="Path 182356 - Outline" d="M8.643,10.884,3.506,5.747,2.113,5.4a.645.645,0,0,1-.4-.3L.114,2.3V2.285a.643.643,0,0,1,.142-.705L1.82.017A.637.637,0,0,1,2.273-.17a.642.642,0,0,1,.316.084L5.33,1.474a.646.646,0,0,1,.3.409l.347,1.39L11.119,8.41l-.907.907L4.948,4.053a.64.64,0,0,1-.169-.3l-.326-1.3L2.377,1.268l-.869.872L2.689,4.216l1.3.326a.64.64,0,0,1,.3.169L9.55,9.977ZM.614,2.163,2.147,4.846a.142.142,0,0,0,.088.067L3.762,5.3l4.881,4.881.2-.2L3.933,5.064a.141.141,0,0,0-.066-.037L2.361,4.649.885,2.057,2.293.644,4.886,2.126l.378,1.507A.141.141,0,0,0,5.3,3.7L10.212,8.61l.2-.2L5.53,3.528,5.149,2a.145.145,0,0,0-.068-.093L2.342.348a.144.144,0,0,0-.169.023L.608,1.935a.142.142,0,0,0-.026.171Z" transform="translate(-0.314 -0.076)" fill="#383a65" stroke="#383a65" stroke-width="0.5"/>
      <path id="Path_182357" data-name="Path 182357" d="M183.144,174.273l-8.61,8.61-.553-.553,8.61-8.61Zm0,0" transform="translate(-166.823 -166.561)" fill="#383a65" stroke="#383a65" stroke-width="0.5"/>
      <path id="Path_182357_-_Outline" data-name="Path 182357 - Outline" d="M174.534,183.237l-.907-.907,8.964-8.964.907.907Zm-.2-.907.2.2,8.256-8.256-.2-.2Z" transform="translate(-166.823 -166.561)" fill="#383a65"/>
      <path id="Path_182358" data-name="Path 182358" d="M52,399.025a.391.391,0,0,0-.332-.19H49.319a.391.391,0,0,0-.332.19l-1.174,1.957a.391.391,0,0,0,0,.4l1.174,1.957a.391.391,0,0,0,.332.19h2.348a.391.391,0,0,0,.332-.19l1.174-1.957a.391.391,0,0,0,0-.4Zm-.556,3.724h-1.91l-.939-1.566.939-1.566h1.91l.939,1.566Zm0,0" transform="translate(-45.798 -382.399)" fill="#383a65" stroke="#383a65" stroke-width="0.5"/>
      <path id="Path_182358_-_Outline" data-name="Path 182358 - Outline" d="M51.668,403.782H49.319a.646.646,0,0,1-.547-.312L47.6,401.513a.64.64,0,0,1,0-.66l1.174-1.957a.645.645,0,0,1,.545-.311h2.353a.646.646,0,0,1,.547.312l1.17,1.957a.64.64,0,0,1,0,.66l-1.174,1.957a.645.645,0,0,1-.545.312Zm0-4.7H49.319a.141.141,0,0,0-.118.069l-1.175,1.957a.141.141,0,0,0,0,.145l1.175,1.957a.142.142,0,0,0,.12.069h2.345a.142.142,0,0,0,.119-.069l1.174-1.957a.141.141,0,0,0,0-.146l-1.171-1.957A.142.142,0,0,0,51.669,399.085ZM51.588,403H49.4l-1.089-1.816,1.089-1.816h2.193l1.089,1.816Zm-1.909-.5H51.3l.79-1.316-.789-1.316H49.678l-.789,1.316Z" transform="translate(-45.798 -382.399)" fill="#383a65"/>
      <path id="Path_182359" data-name="Path 182359" d="M19.059,9.393a4.68,4.68,0,0,0,4.552-5.831.391.391,0,0,0-.656-.183L20.519,5.814,18.586,5.17l-.645-1.93L20.378.8a.391.391,0,0,0-.184-.657A4.682,4.682,0,0,0,14.363,4.7a4.593,4.593,0,0,0,.1.914L5.888,14.184a4.616,4.616,0,0,0-.914-.1,4.7,4.7,0,1,0,4.7,4.7,4.606,4.606,0,0,0-.1-.914l2.052-2.052.9.9a.391.391,0,0,0,.553,0l.2-.2a.439.439,0,1,1,.621.62h0l-.2.2a.391.391,0,0,0,0,.553l4.669,4.669a3.158,3.158,0,0,0,4.485-4.446l-.02-.02-4.669-4.668a.391.391,0,0,0-.553,0l-.2.2a.439.439,0,0,1-.621-.62h0l.2-.2a.391.391,0,0,0,0-.553l-.9-.9L18.144,9.3a4.6,4.6,0,0,0,.914.1ZM20.6,22.7a2.378,2.378,0,0,1-.831-.152l3.057-3.057A2.373,2.373,0,0,1,20.6,22.7ZM16.161,12.528a1.221,1.221,0,0,0,1.722,1.719l4.392,4.4c.047.048.092.1.135.15l-3.342,3.346c-.051-.043-.1-.087-.15-.135l-4.4-4.395A1.222,1.222,0,0,0,12.8,15.889l-.626-.626L15.537,11.9Zm1.578-3.936L8.866,17.468a.392.392,0,0,0-.1.372,3.94,3.94,0,1,1-2.846-2.846.4.4,0,0,0,.372-.1l8.875-8.877a.391.391,0,0,0,.1-.372A3.895,3.895,0,0,1,19.281.79L17.217,2.855a.391.391,0,0,0-.095.4L17.9,5.6a.392.392,0,0,0,.249.249l2.348.782a.391.391,0,0,0,.4-.095l2.064-2.064q.007.112.007.222A3.893,3.893,0,0,1,18.115,8.49a.392.392,0,0,0-.372.1h0Zm0,0" transform="translate(-0.276 -0.001)" fill="#383a65" stroke="#383a65" stroke-width="0.5"/>
      <path id="Path_182359_-_Outline" data-name="Path 182359 - Outline" d="M20.609,23.743a3.384,3.384,0,0,1-2.42-1.009l-4.668-4.668a.642.642,0,0,1,0-.907l.195-.2a.189.189,0,0,0,0-.267.193.193,0,0,0-.267,0l-.2.2a.641.641,0,0,1-.907,0l-.72-.72L9.845,17.954a4.867,4.867,0,0,1,.075.83,4.946,4.946,0,1,1-4.946-4.945,4.881,4.881,0,0,1,.831.075l8.383-8.387A4.91,4.91,0,0,1,16.01.8,4.932,4.932,0,0,1,20.255-.1a.641.641,0,0,1,.3,1.076L18.228,3.307l.556,1.665,1.668.556L22.779,3.2a.641.641,0,0,1,1.076.3,4.962,4.962,0,0,1-.893,4.245,4.9,4.9,0,0,1-3.721,1.893l0,.008h-.181a4.867,4.867,0,0,1-.83-.075l-1.781,1.781.72.72a.642.642,0,0,1,0,.907l-.2.2a.189.189,0,0,0,0,.267.193.193,0,0,0,.267,0l.2-.2a.641.641,0,0,1,.907,0l4.689,4.688a3.408,3.408,0,0,1-2.419,5.808Zm-7.027-7.6a.689.689,0,0,1,.488,1.175l-.2.2a.141.141,0,0,0,0,.2l4.669,4.669a2.908,2.908,0,1,0,4.131-4.093L17.986,13.6a.145.145,0,0,0-.2,0l-.195.2a.689.689,0,1,1-.975-.973l.2-.2a.141.141,0,0,0,0-.2l-1.074-1.074,2.324-2.324.132.027a4.366,4.366,0,0,0,.684.086h.2a4.4,4.4,0,0,0,3.491-1.7,4.459,4.459,0,0,0,.8-3.816.141.141,0,0,0-.237-.067L20.586,6.1l-2.2-.733-.733-2.2L20.2.624a.141.141,0,0,0-.066-.237A4.432,4.432,0,0,0,14.613,4.7a4.352,4.352,0,0,0,.09.864l.027.132L5.969,14.456l-.132-.027a4.376,4.376,0,0,0-.864-.09A4.446,4.446,0,1,0,9.42,18.785a4.363,4.363,0,0,0-.09-.863L9.3,17.79l2.324-2.324L12.7,16.54a.145.145,0,0,0,.2,0l.195-.2A.684.684,0,0,1,13.583,16.142ZM4.946,23a4.19,4.19,0,1,1,1.032-8.25.142.142,0,0,0,.033,0,.144.144,0,0,0,.1-.042l8.874-8.876a.142.142,0,0,0,.037-.134A4.145,4.145,0,0,1,19.04.533c.085,0,.172,0,.257.008l.553.034L17.394,3.032a.141.141,0,0,0-.034.145l.782,2.348a.143.143,0,0,0,.09.091l2.349.783a.142.142,0,0,0,.144-.034L23.179,3.91l.037.55c.005.08.008.16.008.238a4.143,4.143,0,0,1-5.171,4.034.142.142,0,0,0-.133.038l-.095.095h0L9.042,17.644a.143.143,0,0,0-.037.135A4.19,4.19,0,0,1,4.946,23Zm0-7.879A3.69,3.69,0,1,0,8.52,17.9a.646.646,0,0,1,.168-.61l8.968-8.97.023,0a.646.646,0,0,1,.5-.078A3.642,3.642,0,0,0,22.7,5.092L21.079,6.717a.641.641,0,0,1-.656.155L18.075,6.09a.644.644,0,0,1-.408-.408l-.782-2.348a.638.638,0,0,1,.155-.656l1.626-1.627A3.645,3.645,0,0,0,15.509,5.58a.645.645,0,0,1-.169.611L6.466,15.068a.644.644,0,0,1-.609.169A3.7,3.7,0,0,0,4.944,15.122ZM20.6,22.949H20.6a2.619,2.619,0,0,1-.918-.168l-.363-.136L22.92,19.04l.137.363A2.623,2.623,0,0,1,20.6,22.949Zm-.354-.53A2.123,2.123,0,0,0,22.7,19.972Zm-1.165.058-.176-.147c-.065-.055-.118-.1-.166-.15l-4.558-4.556.146-.175a.972.972,0,0,0-1.37-1.368l-.175.146-.964-.965,3.718-3.712.963.963-.148.176A.977.977,0,0,0,16.408,14a.965.965,0,0,0,.686.284h0a.972.972,0,0,0,.627-.229l.176-.148,4.555,4.558c.052.053.1.107.15.166l.147.175Zm-4.236-4.9,4.214,4.212,3-3.007-4.209-4.212a1.472,1.472,0,0,1-.761.212h0a1.462,1.462,0,0,1-1.04-.43,1.482,1.482,0,0,1-.22-1.8l-.3-.3-3.01,3.006.3.3a1.472,1.472,0,0,1,2.019,2.016Z" transform="translate(-0.276 -0.001)" fill="#383a65" stroke="#383a65" stroke-width="0.5"/>
      <path id="Path_182360" data-name="Path 182360" d="M387.357,386.538l-.555.551-3.914-3.913.553-.553Zm0,0" transform="translate(-367.122 -366.856)" fill="#383a65" stroke="#383a65" stroke-width="0.5"/>
      <path id="Path_182360_-_Outline" data-name="Path 182360 - Outline" d="M386.8,387.442l-4.267-4.266.907-.907,4.27,4.269Zm-3.56-4.266,3.561,3.56.2-.2-3.561-3.561Z" transform="translate(-367.122 -366.856)" fill="#383a65"/>
    </g>
  </g>
</svg>
