<svg xmlns="http://www.w3.org/2000/svg" width="27" height="27" viewBox="0 0 27 27">
  <g id="Group_116641" data-name="Group 116641" transform="translate(-314 -295)">
    <g id="Group_484" data-name="Group 484" transform="translate(314 295)">
      <g id="Group_476" data-name="Group 476">
        <circle id="Ellipse_92" data-name="Ellipse 92" cx="13.5" cy="13.5" r="13.5" fill="#f3f5f8"/>
      </g>
    </g>
    <g id="verified" transform="translate(281.609 302)">
      <path id="Path_34421" data-name="Path 34421" d="M49.947,1.965,45.3.036a.474.474,0,0,0-.364,0L40.292,1.965A.474.474,0,0,0,40,2.4V4.748A7.938,7.938,0,0,0,44.94,12.1a.474.474,0,0,0,.358,0,7.938,7.938,0,0,0,4.94-7.353V2.4A.474.474,0,0,0,49.947,1.965Zm-.656,2.782a6.992,6.992,0,0,1-4.171,6.4,6.992,6.992,0,0,1-4.171-6.4V2.719L45.12.987l4.171,1.732Z" transform="translate(0.391)" fill="#383a65"/>
      <path id="Line_2105" data-name="Line 2105" d="M-.191,3.8A.459.459,0,0,1-.65,3.341V-.191A.459.459,0,0,1-.191-.65a.459.459,0,0,1,.459.459V3.341A.459.459,0,0,1-.191,3.8Z" transform="translate(45.702 4.492)" fill="#383a65"/>
      <path id="Line_2106" data-name="Line 2106" d="M.459,4.45A.459.459,0,0,1,0,3.991V.459a.459.459,0,0,1,.918,0V3.991A.459.459,0,0,1,.459,4.45Z" transform="translate(47.736 5.608) rotate(90)" fill="#383a65"/>
    </g>
  </g>
</svg>
