<svg xmlns="http://www.w3.org/2000/svg" width="27" height="27" viewBox="0 0 27 27">
  <g id="Putaway_383a65_" data-name="Putaway_383a65 " transform="translate(-629 -534)">
    <circle id="Ellipse_40727" data-name="Ellipse 40727" cx="13.5" cy="13.5" r="13.5" transform="translate(629 534)" fill="#f3f5f8"/>
    <g id="noun_Forklift_2216632" transform="translate(634.02 540.231)">
      <g id="Group_116281" data-name="Group 116281" transform="translate(0 0)">
        <path id="Path_182942" data-name="Path 182942" d="M5.027,292.5v4.846H11.69V292.5Zm.606.606h5.452v3.634H5.633Z" transform="translate(5.27 -285.838)" fill="#383a65" stroke="#383a65" stroke-width="0.2"/>
        <path id="Path_182943" data-name="Path 182943" d="M2.346,289.592a1.817,1.817,0,0,0-1.817,1.817V301.1a1.817,1.817,0,0,0,1.215,1.716,1.211,1.211,0,1,0,2.419.1H5.981a1.211,1.211,0,1,0,2.391-.276,2.539,2.539,0,0,0,.885-2.334,37.6,37.6,0,0,0-2.829-9.638,1.817,1.817,0,0,0-1.659-1.078Zm0,.606H4.769a1.211,1.211,0,0,1,1.106.718A36.991,36.991,0,0,1,8.658,300.4a1.932,1.932,0,0,1,0,.576h0a22.82,22.82,0,0,0-7.524-6.083v-3.483A1.211,1.211,0,0,1,2.345,290.2Zm-1.21,5.375a22.215,22.215,0,0,1,7.288,6.082,1.925,1.925,0,0,1-.344.438,1.211,1.211,0,0,0-1.936.22H4a1.212,1.212,0,0,0-2.056-.069,1.212,1.212,0,0,1-.81-1.143Zm1.8,6.738a.607.607,0,1,1-.59.608.606.606,0,0,1,.59-.608Zm4.238,0a.606.606,0,1,1-.588.606.6.6,0,0,1,.588-.606Z" transform="translate(-0.529 -289.592)" fill="#383a65" stroke="#383a65" stroke-width="0.2"/>
        <path id="Path_182945" data-name="Path 182945" d="M5.1,301.706H9.647a.3.3,0,0,1,0,.606H4.5v-12.72H5.1Z" transform="translate(4.588 -289.591)" fill="#383a65" stroke="#383a65" stroke-width="0.2"/>
      </g>
    </g>
  </g>
</svg>
