<svg xmlns="http://www.w3.org/2000/svg" width="20.419" height="20" viewBox="0 0 20.419 20">
  <g id="Group_117306" data-name="Group 117306" transform="translate(-24.581 -3590)">
    <rect id="Rectangle_22899" data-name="Rectangle 22899" width="20" height="20" transform="translate(25 3590)" fill="#fff" opacity="0"/>
    <g id="noun-adjustment-1950903" transform="translate(-61.965 3457.681)">
      <path id="Path_183533" data-name="Path 183533" d="M175.572,144.694v5.1a.3.3,0,1,0,.605,0v-5.1a2.306,2.306,0,0,0,0-4.572v-5.5a.3.3,0,1,0-.605,0v5.5a2.306,2.306,0,0,0,0,4.572Zm.3-3.989h0a1.7,1.7,0,1,1-1.2.5,1.7,1.7,0,0,1,1.2-.5Z" transform="translate(-86.604 -0.002)" fill="#fff" stroke="#fff" stroke-width="0.8"/>
      <path id="Path_183534" data-name="Path 183534" d="M306.546,148.052v1.738h0a.3.3,0,1,0,.605,0v-1.738a2.412,2.412,0,0,0,0-4.786v-8.644a.3.3,0,1,0-.605,0v8.644a2.412,2.412,0,0,0,0,4.786Zm.3-4.2a1.808,1.808,0,1,1-1.276.53,1.8,1.8,0,0,1,1.276-.53Z" transform="translate(-210.417 0)" fill="#fff" stroke="#fff" stroke-width="0.8"/>
      <path id="Path_183535" data-name="Path 183535" d="M439.369,141.789v8.006a.3.3,0,1,0,.605,0v-8.006a2.412,2.412,0,0,0,0-4.786v-2.375a.3.3,0,1,0-.605,0V137a2.412,2.412,0,0,0,0,4.786Zm.3-4.2a1.808,1.808,0,1,1-1.276.53,1.8,1.8,0,0,1,1.276-.53Z" transform="translate(-336.08 -0.006)" fill="#fff" stroke="#fff" stroke-width="0.8"/>
    </g>
  </g>
</svg>
