<svg xmlns="http://www.w3.org/2000/svg" width="20" height="20" viewBox="0 0 20 20">
  <g id="Group_117223" data-name="Group 117223" transform="translate(-36 -3186)">
    <rect id="Rectangle_22885" data-name="Rectangle 22885" width="20" height="20" transform="translate(36 3186)" fill="#de2222" opacity="0"/>
    <path id="Subtraction_24" data-name="Subtraction 24" d="M-11611.942,2521.9a8.9,8.9,0,0,1-6.33-2.623.705.705,0,0,1,0-.993.694.694,0,0,1,.5-.2.7.7,0,0,1,.5.2,7.5,7.5,0,0,0,5.337,2.211,7.5,7.5,0,0,0,5.335-2.211,7.553,7.553,0,0,0,0-10.669,7.5,7.5,0,0,0-5.336-2.208,7.5,7.5,0,0,0-5.336,2.208,7.536,7.536,0,0,0-2.176,4.692l.9-.833a.7.7,0,0,1,.477-.188.7.7,0,0,1,.514.223.707.707,0,0,1-.036.993l-2.188,2.031a.692.692,0,0,1-.476.187.688.688,0,0,1-.517-.225l-2.028-2.185a.7.7,0,0,1-.187-.5.7.7,0,0,1,.223-.489.7.7,0,0,1,.477-.185.707.707,0,0,1,.517.223l.912.98a8.927,8.927,0,0,1,2.6-5.713,8.887,8.887,0,0,1,6.329-2.618,8.891,8.891,0,0,1,6.329,2.618,8.96,8.96,0,0,1,0,12.655A8.889,8.889,0,0,1-11611.942,2521.9Zm3.124-7.69h-3.477a.7.7,0,0,1-.7-.7v-5.463a.7.7,0,0,1,.7-.7.7.7,0,0,1,.7.7v4.762l2.776,0a.7.7,0,0,1,.7.7A.7.7,0,0,1-11608.818,2514.2Z" transform="translate(11658.998 683)" fill="#fff"/>
  </g>
</svg>
