<svg xmlns="http://www.w3.org/2000/svg" width="28.329" height="26.756" viewBox="0 0 28.329 26.756">
  <g id="noun_inspection_1951701" transform="translate(-2.132 -6.071)">
    <g id="Path_183143" data-name="Path 183143" transform="translate(-1.368)" fill="#383a65">
      <path d="M 28.82173347473145 32.47414398193359 L 28.63309288024902 32.31007385253906 L 21.7485466003418 26.32219886779785 C 19.79781150817871 27.83211517333984 17.38142585754395 28.66138648986816 14.92019367218018 28.66138648986816 C 8.760933876037598 28.66138648986816 3.750003576278687 23.65045547485352 3.750003576278687 17.49119567871094 C 3.750003576278687 11.33193588256836 8.760933876037598 6.321005821228027 14.92019367218018 6.321005821228027 C 21.07945442199707 6.321005821228027 26.09038352966309 11.33193588256836 26.09038352966309 17.49119567871094 C 26.09038352966309 19.55133247375488 25.52366256713867 21.55829048156738 24.44951248168945 23.30955696105957 L 31.28808403015137 29.25731658935547 L 31.47671318054199 29.4213752746582 L 31.31266403198242 29.61001586914062 L 28.98580360412598 32.28550720214844 L 28.82173347473145 32.47414398193359 Z M 21.76299285888672 24.45502662658691 L 21.92678451538086 24.59748649597168 L 28.68231964111328 30.47310829162598 L 29.47595405578613 29.56081199645996 L 22.74250411987305 23.70450592041016 L 22.57339286804199 23.55742645263672 L 22.7011833190918 23.37331581115723 L 22.93594360351562 23.03508567810059 C 24.07176399230957 21.39850616455078 24.67213439941406 19.48145484924316 24.67213439941406 17.49119567871094 C 24.67213439941406 12.1139554977417 20.29743385314941 7.739255905151367 14.92019367218018 7.739255905151367 C 9.542953491210938 7.739255905151367 5.168253421783447 12.1139554977417 5.168253421783447 17.49119567871094 C 5.168253421783447 22.86826515197754 9.542953491210938 27.24282646179199 14.92019367218018 27.24282646179199 C 17.25877380371094 27.24282646179199 19.52371406555176 26.39598655700684 21.29779434204102 24.85829544067383 L 21.59897422790527 24.59721565246582 L 21.76299285888672 24.45502662658691 Z" stroke="none"/>
      <path d="M 14.92019271850586 6.571006774902344 C 8.898584365844727 6.571006774902344 4.000003814697266 11.46958541870117 4.000003814697266 17.49119567871094 C 4.000003814697266 23.51279449462891 8.898584365844727 28.41138458251953 14.92019271850586 28.41138458251953 C 17.40713310241699 28.41138458251953 19.81877326965332 27.55679702758789 21.75629425048828 25.99759674072266 L 28.79716300964355 32.12144470214844 L 31.1240234375 29.44595527648926 L 24.12416458129883 23.35792541503906 C 25.24811363220215 21.60252571105957 25.84038352966309 19.58298492431641 25.84038352966309 17.49119567871094 C 25.84038352966309 11.46988487243652 20.94180297851562 6.571006774902344 14.92019271850586 6.571006774902344 M 28.70687294006348 30.82578659057617 L 21.76272392272949 24.7861156463623 L 21.46153259277344 25.04720687866211 C 19.64216232299805 26.6241569519043 17.31898307800293 27.49282455444336 14.92019271850586 27.49282455444336 C 9.405153274536133 27.49282455444336 4.918252944946289 23.0062370300293 4.918252944946289 17.49119567871094 C 4.918252944946289 11.97615623474121 9.405153274536133 7.489255905151367 14.92019271850586 7.489255905151367 C 20.43522262573242 7.489255905151367 24.92212295532227 11.97615623474121 24.92212295532227 17.49119567871094 C 24.92212295532227 19.53277587890625 24.30628395080566 21.49906539916992 23.14132308959961 23.17763519287109 L 22.90656280517578 23.51586532592773 L 29.82867431640625 29.5362548828125 L 28.70687294006348 30.82578659057617 M 14.92019271850586 6.071006774902344 C 21.21730422973633 6.071006774902344 26.34038352966309 11.1940860748291 26.34038352966309 17.49119567871094 C 26.34038352966309 19.52666282653809 25.79926109313965 21.51141548156738 24.77178192138672 23.25852584838867 L 31.82941436767578 29.39680480957031 L 28.8463134765625 32.82685470581055 L 21.73786544799805 26.64422988891602 C 19.7728271484375 28.10908126831055 17.36829376220703 28.91138458251953 14.92019271850586 28.91138458251953 C 8.623083114624023 28.91138458251953 3.500003814697266 23.78830528259277 3.500003814697266 17.49119567871094 C 3.500003814697266 11.1940860748291 8.623083114624023 6.071006774902344 14.92019271850586 6.071006774902344 Z M 29.12323379516602 29.58536911010742 L 22.240234375 23.59898567199707 L 22.7305736541748 22.89253616333008 C 23.83719253540039 21.29802513122559 24.42212295532227 19.43026542663574 24.42212295532227 17.49119567871094 C 24.42212295532227 12.25180625915527 20.15957260131836 7.989255905151367 14.92019271850586 7.989255905151367 C 9.680803298950195 7.989255905151367 5.418252944946289 12.25180625915527 5.418252944946289 17.49119567871094 C 5.418252944946289 22.73041534423828 9.680803298950195 26.99282455444336 14.92019271850586 26.99282455444336 C 17.19863319396973 26.99282455444336 19.40542221069336 26.16767501831055 21.13405227661133 24.66937637329102 L 21.76327323913574 24.12393569946289 L 28.65777587890625 30.12042236328125 L 29.12323379516602 29.58536911010742 Z" stroke="none" fill="#383a65"/>
    </g>
    <g id="Path_183144" data-name="Path 183144" transform="translate(-6.935 -5.567)" fill="#383a65">
      <path d="M 20.48731994628906 31.16094207763672 C 16.01913070678711 31.16094207763672 12.38399982452393 27.52603149414062 12.38399982452393 23.0581111907959 C 12.38399982452393 18.59004211425781 16.01913070678711 14.95500183105469 20.48731994628906 14.95500183105469 C 24.95550918579102 14.95500183105469 28.59063911437988 18.59004211425781 28.59063911437988 23.0581111907959 C 28.59063911437988 27.52603149414062 24.95550918579102 31.16094207763672 20.48731994628906 31.16094207763672 Z M 20.48731994628906 16.22982215881348 C 16.72224044799805 16.22982215881348 13.65913009643555 19.2928524017334 13.65913009643555 23.05782127380371 C 13.65913009643555 26.82280158996582 16.72224044799805 29.88583183288574 20.48731994628906 29.88583183288574 C 24.25239944458008 29.88583183288574 27.31550979614258 26.82293128967285 27.31550979614258 23.0581111907959 C 27.31550979614258 19.29298210144043 24.25239944458008 16.22982215881348 20.48731994628906 16.22982215881348 Z" stroke="none"/>
      <path d="M 20.48731994628906 15.15500259399414 C 16.12944984436035 15.15500259399414 12.58399963378906 18.70036125183105 12.58399963378906 23.0581111907959 C 12.58399963378906 27.41587257385254 16.12944984436035 30.96094131469727 20.48731994628906 30.96094131469727 C 24.84519004821777 30.96094131469727 28.39064025878906 27.41587257385254 28.39064025878906 23.0581111907959 C 28.39064025878906 18.70036125183105 24.84519004821777 15.15500259399414 20.48731994628906 15.15500259399414 M 20.48731994628906 30.0858325958252 C 16.61194038391113 30.0858325958252 13.45912933349609 26.93310165405273 13.45912933349609 23.05782127380371 C 13.45912933349609 19.18254280090332 16.61194038391113 16.02982139587402 20.48731994628906 16.02982139587402 C 24.36269950866699 16.02982139587402 27.51551055908203 19.18284225463867 27.51551055908203 23.0581111907959 C 27.51551055908203 26.93340110778809 24.3624095916748 30.0858325958252 20.48731994628906 30.0858325958252 M 20.48731994628906 14.75500106811523 C 25.0657901763916 14.75500106811523 28.79063987731934 18.47976112365723 28.79063987731934 23.0581111907959 C 28.79063987731934 27.63631248474121 25.0657901763916 31.36094284057617 20.48731994628906 31.36094284057617 C 15.90884971618652 31.36094284057617 12.18400001525879 27.63631248474121 12.18400001525879 23.0581111907959 C 12.18400001525879 18.47976112365723 15.90884971618652 14.75500106811523 20.48731994628906 14.75500106811523 Z M 20.48731994628906 29.68583106994629 C 24.14212036132812 29.68583106994629 27.11550903320312 26.7126522064209 27.11550903320312 23.0581111907959 C 27.11550903320312 19.40326118469238 24.14212036132812 16.4298210144043 20.48731994628906 16.4298210144043 C 16.83251953125 16.4298210144043 13.859130859375 19.40313148498535 13.859130859375 23.05782127380371 C 13.859130859375 26.71252250671387 16.83251953125 29.68583106994629 20.48731994628906 29.68583106994629 Z" stroke="none" fill="#383a65"/>
    </g>
    <path id="Path_183145" data-name="Path 183145" d="M39.677,23.051v.875A4.73,4.73,0,0,1,44.4,28.651h.875A5.606,5.606,0,0,0,39.677,23.051Z" transform="translate(-26.124 -11.16)" fill="#383a65"/>
  </g>
</svg>
