<svg xmlns="http://www.w3.org/2000/svg" width="20.178" height="20" viewBox="0 0 20.178 20">
  <g id="Group_117024" data-name="Group 117024" transform="translate(-36.898 -1817)">
    <g id="Group_117023" data-name="Group 117023" transform="translate(-1 899)">
      <g id="Rectangle_22812" data-name="Rectangle 22812" transform="translate(38 918)" fill="#fff" stroke="#fff" stroke-width="0.2" opacity="0">
        <rect width="20" height="20" stroke="none"/>
        <rect x="0.1" y="0.1" width="19.8" height="19.8" fill="none"/>
      </g>
    </g>
    <g id="Picking_383a65_" data-name="Picking_383a65 " transform="translate(-778.958 1281.15)">
      <g id="noun_pick_4098873" transform="translate(815.958 537.85)">
        <path id="Path_182936" data-name="Path 182936" d="M20.787,13.311a.955.955,0,0,0-.392-.6,7.283,7.283,0,0,0-.487-1.623.676.676,0,0,0-.443-.383h0c-1.5-.408-3.031-.776-4.546-1.1-1.962-.74-3.97-1.428-5.973-2.057a.746.746,0,0,0-.285-.948L6.347,5.167a.753.753,0,0,0-1.036.241l-3.2,5.134a.753.753,0,0,0,.241,1.037l1,.624h0l1.308.814a.731.731,0,0,0,.987-.187,8.814,8.814,0,0,0,2.926,4.007c2.342,1.566,4.678,3.211,6.942,4.89a.246.246,0,0,0,.147.049.25.25,0,0,0,.12-.031,1.645,1.645,0,0,0,.632-2.235,1.692,1.692,0,0,0-.112-.173,8.173,8.173,0,0,0-2.448-2.2,1.163,1.163,0,0,1,.43-2.154,4.412,4.412,0,0,1,1.214,0,3.243,3.243,0,0,1,2.685,2.462l.138.594a2.972,2.972,0,0,0,2.179,2.219.553.553,0,0,0,.674-.659c-.048-.214-.1-.428-.149-.642a.56.56,0,0,0,.153.022.553.553,0,0,0,.544-.651C21.429,16.669,21.112,14.982,20.787,13.311ZM5.122,12.632a.263.263,0,0,1-.2-.033l-1.1-.684.4-.644a.247.247,0,1,0-.419-.261l-.4.645-.793-.494a.259.259,0,0,1-.083-.357l3.2-5.135a.259.259,0,0,1,.161-.115.276.276,0,0,1,.059-.007.26.26,0,0,1,.136.039h0L8.4,7.025a.259.259,0,0,1,.083.357l-3.2,5.134A.259.259,0,0,1,5.122,12.632Zm16.044,5.85a2.441,2.441,0,0,1-.27-.1c-.27-1.182-.54-2.364-.822-3.543a1.478,1.478,0,0,0-.558-.843c-.915-.674-1.869-1.314-2.836-1.9a.247.247,0,0,0-.256.422c.955.579,1.9,1.21,2.8,1.876a.985.985,0,0,1,.372.561c.379,1.583.746,3.169,1.1,4.785a.058.058,0,0,1-.073.044,2.479,2.479,0,0,1-1.819-1.852l-.138-.594a3.741,3.741,0,0,0-3.1-2.839,4.855,4.855,0,0,0-1.35,0,1.656,1.656,0,0,0-.613,3.068,7.68,7.68,0,0,1,2.3,2.072,1.206,1.206,0,0,1,.079.122,1.151,1.151,0,0,1-.312,1.478c-2.228-1.649-4.522-3.264-6.811-4.793a8.314,8.314,0,0,1-2.871-4.13l2.69-4.319c2.037.637,4.08,1.338,6.076,2.09.007,0,.013,0,.02,0s.01.006.016.007c1.512.319,3.038.687,4.537,1.093h0a.186.186,0,0,1,.122.105,6.791,6.791,0,0,1,.347,1.048,15.886,15.886,0,0,0-1.856-.961.247.247,0,0,0-.2.452,15.382,15.382,0,0,1,2.357,1.286.458.458,0,0,1,.2.293c.325,1.669.641,3.354.939,5.035A.07.07,0,0,1,21.166,18.482Z" transform="translate(-1.881 -4.934)" fill="#fff" stroke="#fff" stroke-width="0.2"/>
        <path id="Path_182936_-_Outline" data-name="Path 182936 - Outline" d="M5.921,4.9a.868.868,0,0,1,.459.132L8.691,6.474a.868.868,0,0,1,.388.543.854.854,0,0,1-.011.43c2.007.632,3.975,1.311,5.851,2.018,1.524.322,3.053.69,4.544,1.1l.019.006a.794.794,0,0,1,.5.446,7.4,7.4,0,0,1,.487,1.6,1.079,1.079,0,0,1,.4.643c.325,1.672.642,3.36.941,5.016a.672.672,0,0,1-.66.792l.032.137c.026.113.053.225.078.338a.673.673,0,0,1-.819.8,3.091,3.091,0,0,1-2.267-2.308l-.138-.594a3.123,3.123,0,0,0-2.585-2.371,4.313,4.313,0,0,0-1.181,0A1.043,1.043,0,0,0,13.889,17a8.291,8.291,0,0,1,2.484,2.237,1.8,1.8,0,0,1,.12.186,1.764,1.764,0,0,1-.678,2.4.373.373,0,0,1-.4-.026c-2.257-1.674-4.591-3.318-6.937-4.887l-.007,0a8.975,8.975,0,0,1-2.9-3.881.816.816,0,0,1-.346.177.868.868,0,0,1-.659-.11L2.261,11.65a.872.872,0,0,1-.279-1.2l3.2-5.134A.877.877,0,0,1,5.921,4.9Zm13.463,5.883c-1.484-.4-3.006-.769-4.524-1.09l-.017-.005c-1.912-.721-3.92-1.412-5.966-2.055L8.748,7.6,8.8,7.474a.627.627,0,0,0-.24-.8L6.254,5.238a.633.633,0,0,0-.872.2l-3.2,5.134a.633.633,0,0,0,.2.872L4.7,12.886a.624.624,0,0,0,.331.1.635.635,0,0,0,.147-.017.622.622,0,0,0,.351-.238l.133-.173.074.205A8.735,8.735,0,0,0,8.617,16.71c2.348,1.57,4.684,3.216,6.944,4.891a.13.13,0,0,0,.139.009,1.525,1.525,0,0,0,.585-2.072,1.562,1.562,0,0,0-.1-.161,8.053,8.053,0,0,0-2.412-2.173,1.282,1.282,0,0,1,.475-2.375,4.552,4.552,0,0,1,1.247,0,3.363,3.363,0,0,1,2.784,2.553l.138.594A2.853,2.853,0,0,0,20.5,20.11a.433.433,0,0,0,.528-.517c-.025-.112-.052-.224-.078-.336s-.048-.2-.071-.306l-.045-.2.194.055a.433.433,0,0,0,.548-.493c-.3-1.656-.616-3.342-.941-5.013a.838.838,0,0,0-.343-.522l-.041-.028-.009-.049a7.175,7.175,0,0,0-.479-1.6.557.557,0,0,0-.365-.316ZM5.92,5.4a.378.378,0,0,1,.168.04h0l.017.011.011.007.057.036,2.255,1.4a.378.378,0,0,1,.121.521l-3.2,5.134a.377.377,0,0,1-.235.169.4.4,0,0,1-.086.009.378.378,0,0,1-.2-.057l-1.2-.747.464-.746A.128.128,0,0,0,4.056,11a.126.126,0,0,0-.066-.019.127.127,0,0,0-.109.06l-.464.746-.894-.557A.378.378,0,0,1,2.4,10.71L5.6,5.575a.377.377,0,0,1,.235-.168A.4.4,0,0,1,5.92,5.4Zm.017.24a.144.144,0,0,0-.05,0A.139.139,0,0,0,5.8,5.7L2.6,10.836a.14.14,0,0,0,.044.192l.692.431.338-.543A.366.366,0,1,1,4.3,11.3l-.338.543,1,.621a.145.145,0,0,0,.107.017.139.139,0,0,0,.085-.062l3.2-5.134A.14.14,0,0,0,8.3,7.1L6.022,5.676H5.937ZM8.6,7.816l.088.028c2.063.645,4.106,1.348,6.073,2.089l.021,0,.02.008c1.5.316,3.019.682,4.52,1.089h0l.012,0a.3.3,0,0,1,.2.173,6.821,6.821,0,0,1,.354,1.066l.072.282-.249-.151a15.8,15.8,0,0,0-1.842-.954.124.124,0,0,0-.05-.01.128.128,0,0,0-.118.076.127.127,0,0,0,.066.167,15.5,15.5,0,0,1,2.376,1.3.578.578,0,0,1,.247.37c.351,1.8.658,3.446.939,5.037l0,.027-.008.026a.189.189,0,0,1-.179.128.165.165,0,0,1-.038,0l-.006,0a2.435,2.435,0,0,1-.273-.1l-.067-.029-.02-.086c-.264-1.153-.536-2.345-.816-3.515a1.358,1.358,0,0,0-.513-.775c-.915-.674-1.867-1.312-2.827-1.895a.127.127,0,0,0-.132.218c.955.579,1.9,1.213,2.808,1.882a1.106,1.106,0,0,1,.417.629c.4,1.688.765,3.253,1.1,4.787l.006.028-.007.028a.179.179,0,0,1-.172.136.177.177,0,0,1-.047-.007,2.6,2.6,0,0,1-1.9-1.94l-.138-.594a3.621,3.621,0,0,0-3-2.747,4.758,4.758,0,0,0-1.317,0,1.536,1.536,0,0,0-.569,2.846,7.8,7.8,0,0,1,2.336,2.1,1.331,1.331,0,0,1,.086.134,1.272,1.272,0,0,1-.344,1.632l-.071.054-.072-.053c-2.231-1.651-4.521-3.263-6.806-4.79l-.007,0A8.439,8.439,0,0,1,5.85,12.313l-.016-.052Zm6.114,2.351a.148.148,0,0,1-.028-.008c-1.936-.73-3.948-1.423-5.98-2.06L6.094,12.294A8.2,8.2,0,0,0,8.905,16.31c2.262,1.511,4.528,3.105,6.737,4.739a1.033,1.033,0,0,0,.211-1.269,1.088,1.088,0,0,0-.071-.109,7.561,7.561,0,0,0-2.265-2.04,1.775,1.775,0,0,1,.658-3.289,5,5,0,0,1,1.383,0,3.861,3.861,0,0,1,3.2,2.93l.138.594a2.358,2.358,0,0,0,1.63,1.735c-.331-1.492-.684-3.017-1.076-4.657a.866.866,0,0,0-.326-.493c-.9-.665-1.841-1.294-2.79-1.87a.366.366,0,0,1,.38-.627c.967.587,1.924,1.228,2.845,1.907a1.6,1.6,0,0,1,.6.912c.277,1.16.547,2.341.809,3.485l.1.041c-.275-1.55-.575-3.156-.915-4.9a.338.338,0,0,0-.144-.217,15.262,15.262,0,0,0-2.339-1.276.366.366,0,0,1,.148-.7h0a.361.361,0,0,1,.146.03,16.031,16.031,0,0,1,1.616.818,5.988,5.988,0,0,0-.265-.747.067.067,0,0,0-.039-.036l-.008,0c-1.5-.407-3.026-.774-4.528-1.09A.143.143,0,0,1,14.715,10.168Z" transform="translate(-1.85 -4.903)" fill="#fff" stroke="#fff" stroke-width="0.2"/>
      </g>
    </g>
  </g>
</svg>
