<svg xmlns="http://www.w3.org/2000/svg" width="20" height="20" viewBox="0 0 20 20">
  <g id="Group_117131" data-name="Group 117131" transform="translate(-60 -2109)">
    <rect id="Rectangle_22854" data-name="Rectangle 22854" width="20" height="20" transform="translate(60 2109)" fill="#b23e3e" opacity="0"/>
    <g id="Group_117130" data-name="Group 117130" transform="translate(57.574 2104.204)">
      <g id="Group_117094" data-name="Group 117094" transform="translate(2.426 6.503)">
        <path id="Path_183126" data-name="Path 183126" d="M18.014,65.714H8.174v1.054a2.313,2.313,0,1,1-3.6-2.3l-.663-.943h0a3.461,3.461,0,1,0,5.4,3.415h8.649a1.152,1.152,0,1,0,.047-1.229Z" transform="translate(-2.426 -51.527)" fill="#fff"/>
        <path id="Path_183127" data-name="Path 183127" d="M13.6,20.862a1.155,1.155,0,0,1,1.065-.722L19,12.626h0a3.458,3.458,0,1,1,5.648-2.966h0l-1.148.1a2.3,2.3,0,1,0-3.516,2.156l.634.366-4.913,8.51h0a1.176,1.176,0,1,1-2.107.069Z" transform="translate(-11.166 -6.503)" fill="#fff"/>
        <path id="Path_183128" data-name="Path 183128" d="M45.6,19.773,50.461,28.2l.579-.334.01.017.014-.008a2.282,2.282,0,1,1,.151,4.05l-.491,1.039h0a3.445,3.445,0,1,0,.262-6.314h0l-4.316-7.475a1.153,1.153,0,1,0-1.074.6Z" transform="translate(-35.656 -15.175)" fill="#fff"/>
      </g>
    </g>
  </g>
</svg>
