<svg xmlns="http://www.w3.org/2000/svg" width="27" height="27" viewBox="0 0 27 27">
  <g id="Group_117069" data-name="Group 117069" transform="translate(-314 -1324)">
    <circle id="Ellipse_40727" data-name="Ellipse 40727" cx="13.5" cy="13.5" r="13.5" transform="translate(314 1324)" fill="#f3f5f8"/>
    <g id="Group_117068" data-name="Group 117068" transform="translate(322 1331)">
      <g id="stamp" transform="translate(2.914 2.085)">
        <g id="Group_429" data-name="Group 429" transform="translate(0 5.718)">
          <path id="Path_30665" data-name="Path 30665" d="M10.75,17.5h5.361v1.072H10.75Z" transform="translate(-10.75 -17.5)" fill="#383a65"/>
        </g>
        <g id="Group_430" data-name="Group 430" transform="translate(0 8.578)">
          <path id="Path_30666" data-name="Path 30666" d="M10.75,21.5H15.4v1.072H10.75Z" transform="translate(-10.75 -21.5)" fill="#383a65"/>
        </g>
        <g id="Group_431" data-name="Group 431" transform="translate(0 2.859)">
          <path id="Path_30667" data-name="Path 30667" d="M10.75,13.5h5.361v1.072H10.75Z" transform="translate(-10.75 -13.5)" fill="#383a65"/>
        </g>
        <g id="Group_432" data-name="Group 432" transform="translate(0 0)">
          <path id="Path_30668" data-name="Path 30668" d="M10.75,9.5h5.361v1.072H10.75Z" transform="translate(-10.75 -9.5)" fill="#383a65"/>
        </g>
      </g>
      <g id="doc" transform="translate(0 0)">
        <path id="Path_30673" data-name="Path 30673" d="M11.922,13.8H3.582A1.583,1.583,0,0,1,2,12.223V1.582A1.583,1.583,0,0,1,3.582,0h8.34A1.583,1.583,0,0,1,13.5,1.582V12.223A1.583,1.583,0,0,1,11.922,13.8ZM3.582.863a.72.72,0,0,0-.719.719V12.223a.72.72,0,0,0,.719.719h8.34a.72.72,0,0,0,.719-.719V1.582a.72.72,0,0,0-.719-.719Z" transform="translate(-2)" fill="#383a65"/>
      </g>
    </g>
  </g>
</svg>
