<svg id="Layer_1" data-name="Layer 1" xmlns="http://www.w3.org/2000/svg" viewBox="0 0 248.83 243.48"><defs><style>.cls-1{fill:#4a494a;}.cls-2{fill:#578f40;}</style></defs><path class="cls-1" d="M308.08,123.82a4.51,4.51,0,0,1,6.59.06c7.89,7.83,15.7,15.72,23.58,23.55a6.15,6.15,0,0,1,2.08,3.3,4.74,4.74,0,0,1-1.61,4.26l-21.21,21.18q-15.47-15.45-30.9-30.91C293.77,138.12,300.9,130.94,308.08,123.82Z" transform="translate(-91.59 -94.26)"/><path class="cls-1" d="M142.9,289q68.78-68.77,137.54-137.54,6.17,6.19,12.36,12.37-40.74,40.75-81.49,81.5a4.38,4.38,0,1,0,6.17,6.18q40.23-40.23,80.45-80.46c.36-.35.73-.69,1.12-1,4.06,4.15,8.2,8.23,12.29,12.35Q242.58,251.15,173.82,319.9,158.34,304.47,142.9,289Z" transform="translate(-91.59 -94.26)"/><path class="cls-1" d="M138.62,297.1q13.59,13.5,27.09,27.07l-40.63,13.57Q131.85,317.41,138.62,297.1Z" transform="translate(-91.59 -94.26)"/><rect class="cls-1" x="228.01" y="143.18" width="23.32" height="156.48" transform="translate(135.18 -198.88) rotate(45)"/><rect class="cls-2" x="114.14" y="197.78" width="29.02" height="75.81" transform="translate(-220.56 65.74) rotate(-45)"/><rect class="cls-2" x="208.34" y="75.65" width="29.02" height="197.12" transform="translate(96.87 -200.82) rotate(45)"/></svg>