<svg xmlns="http://www.w3.org/2000/svg" width="36.144" height="29.269" viewBox="0 0 36.144 29.269">
  <g id="Group_117175" data-name="Group 117175" transform="translate(-215.001 -3060.131)">
    <path id="Subtraction_20" data-name="Subtraction 20" d="M-11607.07,2533.268h0a1.118,1.118,0,0,1-.8-.341l-12.231-11.815a10.124,10.124,0,0,1-2.895-7.081,10.119,10.119,0,0,1,2.856-7.1,9.7,9.7,0,0,1,3.173-2.163,9.718,9.718,0,0,1,3.762-.771c1.879,0,3.943.975,6.138,2.9a10.756,10.756,0,0,1,6.82-2.552h.038a8.861,8.861,0,0,1,6.211,2.591,10.159,10.159,0,0,1,2.858,7.089,9.959,9.959,0,0,1-1.852,5.846h-3.054l.41-.4a7.865,7.865,0,0,0,0-10.937,6.438,6.438,0,0,0-4.574-1.905h-.038a8.71,8.71,0,0,0-6.021,2.628,1.113,1.113,0,0,1-.8.341,1.118,1.118,0,0,1-.8-.341c-1.982-1.945-3.827-2.973-5.335-2.973a7.436,7.436,0,0,0-5.3,2.249,7.933,7.933,0,0,0-1.485,8.763h4.344l2.287-3.5a1.1,1.1,0,0,1,.922-.5,1.046,1.046,0,0,1,.108.005,1.062,1.062,0,0,1,.951.61l3.24,6.211,3.469-5.715a1.128,1.128,0,0,1,.838-.534c.043,0,.085-.006.126-.006a1.25,1.25,0,0,1,.825.31l3.165,3.049a1.135,1.135,0,0,1,.347.82,1.135,1.135,0,0,1-.347.82,1.145,1.145,0,0,1-.8.326,1.145,1.145,0,0,1-.8-.326l-2.133-2.057-3.812,6.211a1.111,1.111,0,0,1-.951.572h-.038a1.255,1.255,0,0,1-.992-.61l-3.278-6.29-1.562,2.363a1.092,1.092,0,0,1-.944.534h-3.361l10.7,10.337a7.026,7.026,0,0,0,1.643,2.792l-.22.212A1.147,1.147,0,0,1-11607.07,2533.268Z" transform="translate(11838 556.131)" fill="#383a65"/>
    <path id="Path_183165" data-name="Path 183165" d="M-11605.571,2513.68h-15.494a1.938,1.938,0,0,1-1.931-1.938v-5.81a1.936,1.936,0,0,1,1.931-1.933h15.494a1.933,1.933,0,0,1,1.931,1.933v5.81A1.936,1.936,0,0,1-11605.571,2513.68Zm-8.627-7.505a2.817,2.817,0,0,0-1.406.362,2.631,2.631,0,0,0-1.012,1,2.842,2.842,0,0,0-.374,1.451,2.8,2.8,0,0,0,.374,1.444,2.668,2.668,0,0,0,1.012,1.006,2.9,2.9,0,0,0,1.406.357,2.824,2.824,0,0,0,1.406-.357,2.6,2.6,0,0,0,1.013-1.006,2.843,2.843,0,0,0,.375-1.444,2.917,2.917,0,0,0-.366-1.451,2.612,2.612,0,0,0-1.011-1A2.78,2.78,0,0,0-11614.2,2506.175Zm6.066.039a2.888,2.888,0,0,0-1.458.35,2.546,2.546,0,0,0-.953.983,3.074,3.074,0,0,0-.337,1.447,3.071,3.071,0,0,0,.337,1.445,2.432,2.432,0,0,0,.966.987,2.94,2.94,0,0,0,1.467.357,2.682,2.682,0,0,0,1.631-.486,2.9,2.9,0,0,0,.938-1.164v-1.513h-2.783v1.085h1.525a1.323,1.323,0,0,1-.467.554,1.318,1.318,0,0,1-.685.18,1.33,1.33,0,0,1-1.029-.367,1.494,1.494,0,0,1-.356-1.078,1.478,1.478,0,0,1,.328-1.006,1.12,1.12,0,0,1,.886-.374,1.2,1.2,0,0,1,.567.13.975.975,0,0,1,.365.356h1.6a2.093,2.093,0,0,0-.812-1.377A2.812,2.812,0,0,0-11608.132,2506.214Zm-12.512.046v5.482h3.231v-1.152h-1.705v-4.33Zm6.445,4.117a1.141,1.141,0,0,1-.906-.379,1.487,1.487,0,0,1-.334-1.01,1.5,1.5,0,0,1,.334-1.028,1.16,1.16,0,0,1,.906-.377,1.141,1.141,0,0,1,.912.377,1.5,1.5,0,0,1,.332,1.028,1.49,1.49,0,0,1-.332,1.01A1.144,1.144,0,0,1-11614.2,2510.377Z" transform="translate(11854.785 573.47)" fill="#383a65"/>
  </g>
</svg>
