<svg xmlns="http://www.w3.org/2000/svg" width="20" height="20.6" viewBox="0 0 20 20.6">
  <g id="Group_117319" data-name="Group 117319" transform="translate(-29 -3786.4)">
    <rect id="Rectangle_22905" data-name="Rectangle 22905" width="20" height="20" transform="translate(29 3787)" fill="#fff" opacity="0"/>
    <path id="Subtraction_32" data-name="Subtraction 32" d="M-11624.5,2531a.452.452,0,0,1-.189-.04.524.524,0,0,1-.3-.486v-17.437a2.206,2.206,0,0,1,.576-1.51,1.971,1.971,0,0,1,.8-.527h11.889a1.975,1.975,0,0,1,.732.5,2.218,2.218,0,0,1,.539,1.071v18.136a.532.532,0,0,1-.232.221l-.2.053h-.02a.482.482,0,0,1-.328-.133l-1.881-1.9-1.959,1.9a.464.464,0,0,1-.332.14.479.479,0,0,1-.334-.14l-1.955-1.9-1.957,1.9a.476.476,0,0,1-.334.14.48.48,0,0,1-.336-.14l-1.93-1.9-1.908,1.9A.474.474,0,0,1-11624.5,2531Zm6.82-3.282a.477.477,0,0,1,.334.138l1.955,1.9,1.955-1.9a.487.487,0,0,1,.336-.14.487.487,0,0,1,.336.14l1.387,1.39V2513.01a1.127,1.127,0,0,0-.291-.756.953.953,0,0,0-.7-.312h-10.648a.961.961,0,0,0-.7.312,1.125,1.125,0,0,0-.289.756v16.235l1.41-1.39a.483.483,0,0,1,.334-.14.479.479,0,0,1,.334.14l1.959,1.9,1.955-1.9A.47.47,0,0,1-11617.682,2527.717Zm3.531-3.947h-6.143a.515.515,0,0,1-.492-.534.515.515,0,0,1,.492-.534h6.143a.517.517,0,0,1,.494.534A.516.516,0,0,1-11614.15,2523.771Zm0-3.47h-6.143a.515.515,0,0,1-.492-.536.514.514,0,0,1,.492-.533h6.143a.516.516,0,0,1,.494.533A.517.517,0,0,1-11614.15,2520.3Zm-2.971-3.472h-3.172a.515.515,0,0,1-.492-.534.515.515,0,0,1,.492-.534h3.172a.518.518,0,0,1,.5.534A.518.518,0,0,1-11617.121,2516.829Z" transform="translate(11656.496 1275.5)" fill="#fff" stroke="#fff" stroke-width="0.2"/>
  </g>
</svg>
