<svg xmlns="http://www.w3.org/2000/svg" width="20.15" height="19.896" viewBox="0 0 20.15 19.896">
  <g id="Group_117119" data-name="Group 117119" transform="translate(-28 -2042)">
    <g id="Rectangle_22851" data-name="Rectangle 22851" transform="translate(28 2042)" fill="#8e1c1c" stroke="#fff" stroke-width="0.3" opacity="0">
      <rect width="19.896" height="19.896" stroke="none"/>
      <rect x="0.15" y="0.15" width="19.596" height="19.596" fill="none"/>
    </g>
    <g id="noun_Category_2680179" transform="translate(29 2043.005)">
      <g id="Group_117117" data-name="Group 117117">
        <path id="Path_183142" data-name="Path 183142" d="M299.36,316.32v5.472H297.1l-.024,3.081h3.469v-2.368h5.472v5.472h-5.472v-2.136H297.07l-.045,5.717h4.763V329.3h5.472v5.472h-5.472v-2.254h-5.734l.034-4.223h-2.355v2.252H288.26v-5.472h5.472v2.252h2.362l.044-5.539h-2.25V316.32Zm-6.6,9.727h-3.537v3.537h3.537Zm13.527,4.225h-3.537v3.537h3.537Zm-1.241-6.8h-3.537v3.537h3.537Zm-6.658-6.185h-3.537v3.537h3.537Z" transform="translate(-288.26 -316.32)" fill="#fff" stroke="#fff" stroke-width="0.3"/>
      </g>
    </g>
  </g>
</svg>
