<svg xmlns="http://www.w3.org/2000/svg" width="27" height="27" viewBox="0 0 27 27">
  <g id="Group_117033" data-name="Group 117033" transform="translate(-299 -2586)">
    <g id="Group_117032" data-name="Group 117032" transform="translate(2 117)">
      <circle id="Ellipse_40727" data-name="Ellipse 40727" cx="13.5" cy="13.5" r="13.5" transform="translate(297 2469)" fill="#f3f5f8"/>
    </g>
    <g id="customer-support" transform="translate(306.725 2593.999)">
      <path id="Path_182356" data-name="Path 182356" d="M.338,1.121,1.1,2.448a.189.189,0,0,0,.118.09l.707.177L4.348,5.141l.268-.268L2.153,2.408a.189.189,0,0,0-.088-.05l-.679-.171L.741,1.057,1.293.5l1.131.646.171.68a.189.189,0,0,0,.05.088L5.108,4.382l.268-.268L2.95,1.688,2.773.981A.19.19,0,0,0,2.684.86L1.356.1a.189.189,0,0,0-.227.031L.371.892a.189.189,0,0,0-.033.228Zm0,0" transform="translate(-0.039 -0.077)" fill="#383a65" stroke="#383a65" stroke-width="0.2"/>
      <path id="Path_182357" data-name="Path 182357" d="M178.419,173.988l-4.17,4.17-.268-.268,4.17-4.17Zm0,0" transform="translate(-170.239 -170.252)" fill="#383a65" stroke="#383a65" stroke-width="0.2"/>
      <path id="Path_182358" data-name="Path 182358" d="M49.813,398.927a.189.189,0,0,0-.161-.092H48.514a.189.189,0,0,0-.161.092l-.569.948a.189.189,0,0,0,0,.2l.569.948a.189.189,0,0,0,.161.092h1.137a.189.189,0,0,0,.161-.092l.568-.948a.189.189,0,0,0,0-.2Zm-.27,1.8h-.925l-.455-.758.455-.758h.925l.455.758Zm0,0" transform="translate(-46.533 -390.874)" fill="#383a65" stroke="#383a65" stroke-width="0.2"/>
      <path id="Path_182359" data-name="Path 182359" d="M9.375,4.55a2.267,2.267,0,0,0,2.2-2.824.189.189,0,0,0-.318-.089l-1.18,1.179L9.145,2.5l-.312-.935L10.013.388A.189.189,0,0,0,9.924.07,2.268,2.268,0,0,0,7.1,2.275a2.225,2.225,0,0,0,.046.443L3,6.87a2.236,2.236,0,0,0-.443-.046A2.275,2.275,0,1,0,4.827,9.1a2.231,2.231,0,0,0-.046-.443l.994-.994.434.434a.189.189,0,0,0,.268,0L6.572,8a.212.212,0,1,1,.3.3h0L6.778,8.4a.189.189,0,0,0,0,.268l2.261,2.261a1.529,1.529,0,0,0,2.172-2.153l-.01-.01L8.941,6.5a.189.189,0,0,0-.268,0L8.578,6.6a.212.212,0,0,1-.3-.3h0L8.372,6.2a.189.189,0,0,0,0-.268L7.938,5.5l.994-.994a2.23,2.23,0,0,0,.443.046Zm.745,6.445a1.152,1.152,0,0,1-.4-.074l1.48-1.48a1.149,1.149,0,0,1-1.077,1.554ZM7.971,6.068A.591.591,0,0,0,8.8,6.9L10.932,9.03c.023.023.045.047.066.072L9.379,10.723c-.025-.021-.049-.042-.072-.066L7.177,8.529A.592.592,0,0,0,6.343,7.7l-.3-.3L7.669,5.766Zm.764-1.906-4.3,4.3a.19.19,0,0,0-.05.18A1.908,1.908,0,1,1,3.009,7.263a.191.191,0,0,0,.18-.05l4.3-4.3a.189.189,0,0,0,.05-.18A1.886,1.886,0,0,1,9.482.383l-1,1a.189.189,0,0,0-.046.194l.379,1.137a.19.19,0,0,0,.121.121l1.137.379a.189.189,0,0,0,.194-.046l1-1q0,.054,0,.107A1.886,1.886,0,0,1,8.917,4.112a.19.19,0,0,0-.18.05h0Zm0,0" transform="translate(-0.002 0)" fill="#383a65" stroke="#383a65" stroke-width="0.2"/>
      <path id="Path_182360" data-name="Path 182360" d="M385.052,384.519l-.269.267-1.9-1.9.268-.268Zm0,0" transform="translate(-374.977 -374.985)" fill="#383a65" stroke="#383a65" stroke-width="0.2"/>
    </g>
  </g>
</svg>
