<svg xmlns="http://www.w3.org/2000/svg" width="29.621" height="29.596" viewBox="0 0 29.621 29.596">
  <g id="choose_product" data-name="choose product" transform="translate(-1.5 -1.5)">
    <g id="Group_117143" data-name="Group 117143" transform="translate(1.5 1.5)">
      <g id="Group_117142" data-name="Group 117142">
        <path id="Path_183150" data-name="Path 183150" d="M12.554,33.125H6.519a.728.728,0,0,0,0,1.456h6.035a.728.728,0,0,0,0-1.456Z" transform="translate(-3.709 -17.781)" fill="#383a65"/>
        <path id="Path_183151" data-name="Path 183151" d="M9.537,37.25H6.519a.728.728,0,1,0,0,1.456H9.537a.728.728,0,1,0,0-1.456Z" transform="translate(-3.709 -19.905)" fill="#383a65"/>
        <path id="Path_183152" data-name="Path 183152" d="M29.177,18.876a1.787,1.787,0,0,0-.738.161,1.923,1.923,0,0,0-1.694-1.1,1.8,1.8,0,0,0-.96.288,1.873,1.873,0,0,0-1.473-.751,1.758,1.758,0,0,0-.489.076V15.7A2.056,2.056,0,0,0,22.1,13.61V2.228a.728.728,0,0,0-.728-.728H2.228a.728.728,0,0,0-.728.728V22.042a.728.728,0,0,0,.728.728H16.394a31.253,31.253,0,0,1,2.55,4.785A3.789,3.789,0,0,0,22.752,31.1h4.722a3.651,3.651,0,0,0,3.647-3.647V20.993A2.039,2.039,0,0,0,29.177,18.876ZM20.646,4.954H14.411v-2h6.235Zm-7.691,3.7H11.073v-5.7h1.882Zm-3.338-5.7v2H2.956v-2ZM2.956,6.41H9.617V9.384a.728.728,0,0,0,.728.728h3.338a.728.728,0,0,0,.728-.728V6.41h6.235v7.669a2.179,2.179,0,0,0-.711,1.623v5.288l-.52-.706a2.212,2.212,0,0,0-1.3-.859,1.839,1.839,0,0,0-2.267,1.67,2.059,2.059,0,0,0,0,.219H2.956ZM27.474,29.64H22.752A2.337,2.337,0,0,1,20.4,27.449a.739.739,0,0,0-.024-.184,32.163,32.163,0,0,0-2.888-5.494c-.01-.015-.019-.03-.03-.044a.77.77,0,0,1-.157-.509.387.387,0,0,1,.5-.371.767.767,0,0,1,.44.3l1.833,2.489a.72.72,0,0,0,.813.243.748.748,0,0,0,.5-.708V15.7c0-.359.224-.662.489-.662s.489.3.489.662v5.281a.728.728,0,1,0,1.456,0V19.591c0-.359.224-.662.489-.662s.489.3.489.662v2.118a.728.728,0,0,0,1.456,0V20.054c0-.359.224-.662.489-.662s.489.3.489.662v2.118a.728.728,0,1,0,1.456,0v-1.18c0-.359.224-.662.489-.662s.489.3.489.662v6.456A2.194,2.194,0,0,1,27.474,29.64Z" transform="translate(-1.5 -1.5)" fill="#383a65"/>
      </g>
    </g>
  </g>
</svg>
