<svg xmlns="http://www.w3.org/2000/svg" width="20.15" height="20.15" viewBox="0 0 20.15 20.15">
  <g id="Group_117120" data-name="Group 117120" transform="translate(-53.85 -2232.85)">
    <rect id="Rectangle_22852" data-name="Rectangle 22852" width="20" height="20" transform="translate(54 2233)" fill="rgba(255,255,255,0)"/>
    <g id="noun_inspection_3307934" transform="translate(53.129 2217)">
      <path id="Path_182363" data-name="Path 182363" d="M145.708,143.636a.323.323,0,0,0-.457,0l-.095.095-.459-.459a4.848,4.848,0,1,0-1.425,1.425l.459.459-.095.095a.323.323,0,0,0,0,.457l4.186,4.186a1.465,1.465,0,0,0,2.071-2.071Zm-5.072-7.2a4.183,4.183,0,0,1,1.292.2v5.609h-5.166a4.2,4.2,0,0,1,3.875-5.812ZM137.1,142.9h5.15a.323.323,0,0,0,.323-.323v-5.66A4.2,4.2,0,1,1,137.1,142.9Zm6.694,1.409a4.886,4.886,0,0,0,.512-.512l.394.394-.512.512Zm1.686.016.512.512-1.158,1.158-.512-.512Zm3.379,5.356a.813.813,0,0,1-.579-.24l-2.989-2.989,1.158-1.158,2.989,2.989a.819.819,0,0,1-.579,1.4Z" transform="translate(-130.078 -114.949)" fill="#fff" stroke="#fff" stroke-width="0.3"/>
      <path id="Path_182364" data-name="Path 182364" d="M25.687,20.2V16.323A.323.323,0,0,0,25.364,16H16.323a.323.323,0,0,0-.323.323v9.364a.323.323,0,0,0,.323.323H20.2v-.646H16.646V18.583h2.583v1.937a.323.323,0,0,0,.551.228l.417-.418.417.418a.323.323,0,0,0,.457,0l.417-.418.417.418a.323.323,0,0,0,.551-.228V18.583h2.583V20.2Zm-9.041-2.26V16.646h2.583v1.292Zm5.072,1.709a.323.323,0,0,0-.457,0l-.417.418-.417-.418a.323.323,0,0,0-.457,0l-.095.095v-3.1h1.937v3.1Zm.74-1.709V16.646h2.583v1.292Z" transform="translate(-15.129 0)" fill="#fff" stroke="#fff" stroke-width="0.3"/>
      <rect id="Rectangle_21054" data-name="Rectangle 21054" height="0.741" transform="translate(9.864 25.639)" fill="#fff" stroke="#fff" stroke-width="0.3"/>
      <rect id="Rectangle_21055" data-name="Rectangle 21055" width="0.741" height="0.741" transform="translate(8.381 25.639)" fill="#fff" stroke="#fff" stroke-width="0.3"/>
      <rect id="Rectangle_21056" data-name="Rectangle 21056" width="0.741" height="0.741" transform="translate(10.606 25.639)" fill="#fff" stroke="#fff" stroke-width="0.3"/>
      <rect id="Rectangle_21057" data-name="Rectangle 21057" height="0.741" transform="translate(2.45 22.673)" fill="#fff" stroke="#fff" stroke-width="0.3"/>
      <rect id="Rectangle_21058" data-name="Rectangle 21058" width="1.483" height="0.741" transform="translate(3.191 22.673)" fill="#fff" stroke="#fff" stroke-width="0.3"/>
      <rect id="Rectangle_21059" data-name="Rectangle 21059" width="1.483" height="0.741" transform="translate(2.45 24.156)" fill="#fff" stroke="#fff" stroke-width="0.3"/>
    </g>
  </g>
</svg>
