<svg xmlns="http://www.w3.org/2000/svg" width="36.548" height="35.747" viewBox="0 0 36.548 35.747">
  <g id="Group_117158" data-name="Group 117158" transform="translate(-1.452 -1.299)">
    <path id="Path_183158" data-name="Path 183158" d="M-11605.574,2513.68h-15.494a1.938,1.938,0,0,1-1.93-1.938v-5.809a1.935,1.935,0,0,1,1.93-1.933h15.494a1.934,1.934,0,0,1,1.931,1.933v5.809A1.937,1.937,0,0,1-11605.574,2513.68Zm-8.626-7.505a2.83,2.83,0,0,0-1.406.362,2.652,2.652,0,0,0-1.014,1,2.86,2.86,0,0,0-.371,1.451,2.81,2.81,0,0,0,.371,1.445,2.7,2.7,0,0,0,1.014,1.005,2.886,2.886,0,0,0,1.406.356,2.824,2.824,0,0,0,1.406-.356,2.615,2.615,0,0,0,1.013-1.005,2.854,2.854,0,0,0,.374-1.445,2.928,2.928,0,0,0-.366-1.451,2.613,2.613,0,0,0-1.01-1A2.78,2.78,0,0,0-11614.2,2506.175Zm6.067.04a2.88,2.88,0,0,0-1.458.35,2.543,2.543,0,0,0-.956.982,3.087,3.087,0,0,0-.336,1.447,3.078,3.078,0,0,0,.336,1.445,2.446,2.446,0,0,0,.967.988,2.933,2.933,0,0,0,1.466.356,2.679,2.679,0,0,0,1.631-.486,2.906,2.906,0,0,0,.938-1.164v-1.513h-2.782v1.084h1.523a1.314,1.314,0,0,1-.467.554,1.315,1.315,0,0,1-.683.18,1.337,1.337,0,0,1-1.032-.367,1.5,1.5,0,0,1-.354-1.078,1.474,1.474,0,0,1,.327-1.006,1.123,1.123,0,0,1,.888-.373,1.187,1.187,0,0,1,.565.131.954.954,0,0,1,.366.355h1.6a2.1,2.1,0,0,0-.813-1.377A2.816,2.816,0,0,0-11608.133,2506.214Zm-12.512.046v5.481h3.23v-1.152h-1.707v-4.329Zm6.444,4.116a1.144,1.144,0,0,1-.907-.379,1.486,1.486,0,0,1-.333-1.01,1.5,1.5,0,0,1,.333-1.028,1.161,1.161,0,0,1,.907-.377,1.148,1.148,0,0,1,.912.377,1.5,1.5,0,0,1,.333,1.028,1.5,1.5,0,0,1-.333,1.01A1.147,1.147,0,0,1-11614.2,2510.377Z" transform="translate(11641.644 -2476.634)" fill="#383a65"/>
    <path id="Subtraction_14" data-name="Subtraction 14" d="M16.846,32.754h0a16.041,16.041,0,0,1-6.922-4.084A1.258,1.258,0,1,1,11.7,26.89a13.4,13.4,0,0,0,5.144,3.226v2.636ZM34.8,25.926H31.7A13.521,13.521,0,1,0,7.8,16.177l1.607-1.492a1.258,1.258,0,1,1,1.712,1.844L7.2,20.169A1.258,1.258,0,0,1,5.426,20.1l-3.64-3.919a1.258,1.258,0,0,1,1.844-1.712l1.634,1.759A16.035,16.035,0,1,1,34.8,25.926Zm-7.938-6.34H20.635a1.259,1.259,0,0,1-1.258-1.256V8.537a1.256,1.256,0,0,1,2.513,0v8.535l4.977,0a1.256,1.256,0,0,1,0,2.512Z" transform="translate(0)" fill="#383a65"/>
  </g>
</svg>
