<svg xmlns="http://www.w3.org/2000/svg" width="29.264" height="26.079" viewBox="0 0 29.264 26.079">
  <path id="Icon_awesome-boxes" data-name="Icon awesome-boxes" d="M26.565,24.854H15.976A1.472,1.472,0,0,1,14.5,23.389V14.369A1.472,1.472,0,0,1,15.976,12.9h4.5v3.891l.794-.525.794.525V12.9h4.5a1.472,1.472,0,0,1,1.475,1.465v9.019A1.472,1.472,0,0,1,26.565,24.854ZM15.976,14.332a.041.041,0,0,0-.038.038v9.019a.041.041,0,0,0,.038.038H26.565a.041.041,0,0,0,.038-.038V14.369a.041.041,0,0,0-.038-.038H23.5V19.46L21.27,17.984,19.039,19.46V14.332ZM11.438,24.854H.85A1.472,1.472,0,0,1-.625,23.389V14.369A1.472,1.472,0,0,1,.85,12.9h4.5v3.891l.794-.525.794.525V12.9h4.5a1.472,1.472,0,0,1,1.475,1.465v9.019A1.472,1.472,0,0,1,11.438,24.854ZM.85,14.332a.041.041,0,0,0-.038.038v9.019a.041.041,0,0,0,.038.038H11.438a.041.041,0,0,0,.038-.038V14.369a.041.041,0,0,0-.038-.038H8.375V19.46L6.144,17.984,3.913,19.46V14.332ZM19,11.325H8.413A1.472,1.472,0,0,1,6.938,9.86V.84A1.472,1.472,0,0,1,8.413-.625h4.5V3.266l.794-.526.794.526V-.625H19A1.472,1.472,0,0,1,20.476.84V9.86A1.472,1.472,0,0,1,19,11.325ZM8.413.8A.041.041,0,0,0,8.375.84V9.86a.041.041,0,0,0,.038.038H19a.041.041,0,0,0,.038-.038V.84A.041.041,0,0,0,19,.8H15.938V5.931L13.707,4.455,11.476,5.931V.8Z" transform="translate(0.925 0.925)" fill="#383a65" stroke="#383a65" stroke-width="0.6"/>
</svg>
