<svg xmlns="http://www.w3.org/2000/svg" width="31.847" height="22.257" viewBox="0 0 31.847 22.257">
  <g id="Group_117128" data-name="Group 117128" transform="translate(-296.573 -2535.372)">
    <g id="noun_Toolbox_2586725" transform="translate(285.342 2440.806)">
      <path id="Path_182917" data-name="Path 182917" d="M26.55,99.6l-.456.441a.507.507,0,0,1-.708-.006l-1.362-1.362a.385.385,0,0,0-.6.074,2.774,2.774,0,0,0-.1,2.592,2.859,2.859,0,0,0,1.3,1.422,2.794,2.794,0,0,0,2.084.184.358.358,0,0,1,.353.086l1.255,1.255a.385.385,0,1,0,.545-.545l-1.254-1.255a1.128,1.128,0,0,0-1.114-.281,2.036,2.036,0,0,1-1.517-.13,2.087,2.087,0,0,1-.945-1.042,2.189,2.189,0,0,1-.149-1.415l.961.961a1.281,1.281,0,0,0,1.789.015l.46-.445.009-.009.446-.46a1.281,1.281,0,0,0-.015-1.789l-.961-.961a2.191,2.191,0,0,1,1.415.149,2.088,2.088,0,0,1,1.042.945,2.035,2.035,0,0,1,.13,1.517,1.128,1.128,0,0,0,.281,1.114l4.4,4.4H25.348a.385.385,0,0,0-.385.385v1.084a1.349,1.349,0,0,0,1.185,1.337v6.309a2.2,2.2,0,0,0,2.194,2.194H48.958a2.2,2.2,0,0,0,2.194-2.194v-6.309a1.349,1.349,0,0,0,1.185-1.337v-1.084a.385.385,0,0,0-.385-.385H42.5l3.866-4.555h0a.4.4,0,0,0,.09-.269v-.01a.389.389,0,0,0-.012-.069.008.008,0,0,0,0,0,.384.384,0,0,0-.069-.136h0a1.042,1.042,0,0,1-.225-.656,1.85,1.85,0,0,0-1.88-2.066,3.361,3.361,0,0,1,.457-.335,3.672,3.672,0,0,1,3.331-.146,2.863,2.863,0,0,1,.757.434l1.674,1.314a.291.291,0,0,1,.11.195l.073.6a1.063,1.063,0,0,0,1.314.9l.379-.095a.29.29,0,0,1,.251.053l.6.468a.348.348,0,0,1,.059.49l-1.507,1.908a.346.346,0,0,1-.482.063l-.487-.365a.291.291,0,0,1-.114-.193l-.052-.363a1.063,1.063,0,0,0-1.336-.875l-.371.1a1.191,1.191,0,0,1-1.056-.216l-.467-.372a.385.385,0,1,0-.48.6l.444.353L45.8,103.734a.385.385,0,1,0,.6.488l1.667-2.041a1.96,1.96,0,0,0,1.07.009l.37-.1a.293.293,0,0,1,.368.241l.052.363a1.057,1.057,0,0,0,.415.7l.487.365a1.112,1.112,0,0,0,1.549-.2l1.507-1.909a1.118,1.118,0,0,0-.191-1.576l-.6-.468a1.057,1.057,0,0,0-.911-.192l-.379.095a.293.293,0,0,1-.362-.249l-.073-.6a1.057,1.057,0,0,0-.4-.708L49.289,96.63a3.631,3.631,0,0,0-.962-.549,4.217,4.217,0,0,0-5.3,1.463.385.385,0,0,0,.4.574,1.919,1.919,0,0,1,1.578.192,1.322,1.322,0,0,1,.369,1.033,1.818,1.818,0,0,0,.215.871l-4.1,4.835H39.93l-3.072-6.492.563-.27a.385.385,0,0,0,.119-.606L35.1,94.992a.386.386,0,0,0-.452-.089l-1.443.692a.385.385,0,0,0-.214.408l.57,3.583a.385.385,0,0,0,.547.287l.559-.268,2.164,4.573a.385.385,0,1,0,.7-.33L35.2,98.925a.385.385,0,0,0-.515-.182l-.443.212L33.8,96.166l.925-.443,1.9,2.092-.443.212a.385.385,0,0,0-.182.512l3.079,6.509H34.923l-4.941-4.941a.357.357,0,0,1-.086-.353,2.794,2.794,0,0,0-.184-2.084,2.859,2.859,0,0,0-1.422-1.3,2.774,2.774,0,0,0-2.592.1.385.385,0,0,0-.074.6l1.362,1.362a.507.507,0,0,1,.006.708Zm13.134,6.223h4.329V107.1H33.287v-1.276Zm-7.169,0v2.029a.476.476,0,0,1-.475.475h-.847a.476.476,0,0,1-.475-.475v-2.029Zm19.051.7a.578.578,0,0,1-.577.577H48.7a.385.385,0,1,0,0,.771h1.68v6.3a1.425,1.425,0,0,1-1.423,1.423H28.342a1.425,1.425,0,0,1-1.423-1.423v-6.3H28.6a.385.385,0,1,0,0-.771H26.31a.577.577,0,0,1-.577-.577v-.7h4.214v2.029a1.247,1.247,0,0,0,1.246,1.246h.847a1.247,1.247,0,0,0,1.245-1.228H44.014a1.247,1.247,0,0,0,1.245,1.228h.848a1.247,1.247,0,0,0,1.246-1.246v-2.029h4.214Zm-4.985-.7v2.029a.476.476,0,0,1-.475.475h-.847a.476.476,0,0,1-.475-.475v-2.029Z" transform="translate(-11.425 0.082)" fill="#383a65" stroke="#383a65" stroke-width="0.4"/>
      <path id="Path_182917_-_Outline" data-name="Path 182917 - Outline" d="M34.9,94.765a.569.569,0,0,1,.421.186l2.437,2.688a.567.567,0,0,1-.175.893l-.4.192,2.945,6.224h1.358l3.972-4.68a2.007,2.007,0,0,1-.181-.846,1.153,1.153,0,0,0-.3-.892,1.783,1.783,0,0,0-1.427-.152.568.568,0,0,1-.593-.845,4.287,4.287,0,0,1,3.566-1.924,5.568,5.568,0,0,1,1.954.382,3.812,3.812,0,0,1,1.011.577l1.673,1.314a1.247,1.247,0,0,1,.467.83l.073.6a.111.111,0,0,0,.137.094l.379-.095a1.257,1.257,0,0,1,1.067.226l.6.467a1.3,1.3,0,0,1,.222,1.833L52.6,103.75a1.294,1.294,0,0,1-1.8.234l-.486-.365a1.246,1.246,0,0,1-.486-.821l-.052-.362a.11.11,0,0,0-.139-.091l-.371.1a2.151,2.151,0,0,1-1.051.021l-1.593,1.95a.568.568,0,1,1-.879-.718l1.451-1.776-.3-.239a.568.568,0,1,1,.707-.888l.467.372a1.021,1.021,0,0,0,.894.182l.37-.1a1.246,1.246,0,0,1,1.565,1.024l.052.363a.109.109,0,0,0,.043.073l.488.366a.166.166,0,0,0,.229-.029l1.508-1.909a.165.165,0,0,0-.028-.233l-.6-.468a.11.11,0,0,0-.094-.02l-.38.095a1.246,1.246,0,0,1-1.539-1.059l-.073-.6a.11.11,0,0,0-.041-.073l-1.674-1.315a2.681,2.681,0,0,0-.71-.407,3.51,3.51,0,0,0-3.171.132l-.088.056a2.017,2.017,0,0,1,.889.42,2.193,2.193,0,0,1,.709,1.771.862.862,0,0,0,.185.541.562.562,0,0,1,.1.18l.012.023v.025a.574.574,0,0,1,.012.079v.025a.582.582,0,0,1-.126.379l-.007.009-3.612,4.255h9.06a.568.568,0,0,1,.568.568V106.6a1.534,1.534,0,0,1-1.185,1.489v6.156a2.382,2.382,0,0,1-2.376,2.376H28.424a2.382,2.382,0,0,1-2.376-2.376V108.09a1.534,1.534,0,0,1-1.185-1.489v-1.085a.568.568,0,0,1,.568-.568h8.045l-4.085-4.085a1.311,1.311,0,0,1-.327-1.294,1.846,1.846,0,0,0-.118-1.384A1.908,1.908,0,0,0,28,97.327a2.161,2.161,0,0,0-.963-.193l.708.708a1.455,1.455,0,0,1,.017,2.044l-.459.474-.46.446a1.463,1.463,0,0,1-2.044-.016l-.708-.708a2.2,2.2,0,0,0,.192.96,1.911,1.911,0,0,0,.864.953,1.876,1.876,0,0,0,1.378.117,1.31,1.31,0,0,1,1.3.326l1.255,1.255a.568.568,0,1,1-.8.8l-1.255-1.255a.177.177,0,0,0-.172-.041,3.008,3.008,0,0,1-2.22-.2,3.05,3.05,0,0,1-1.387-1.514,2.949,2.949,0,0,1,.111-2.756.568.568,0,0,1,.888-.109L25.6,99.985a.333.333,0,0,0,.453,0l.455-.441.437-.451a.323.323,0,0,0,0-.453l-1.362-1.362a.568.568,0,0,1,.109-.888,2.746,2.746,0,0,1,1.431-.4h0a3.352,3.352,0,0,1,1.327.29,3.048,3.048,0,0,1,1.511,1.384,2.963,2.963,0,0,1,.2,2.222.175.175,0,0,0,.042.173l4.886,4.886h3.791L35.915,98.7a.569.569,0,0,1,.268-.754l.222-.107-1.641-1.81-.68.326.384,2.413.222-.107a.567.567,0,0,1,.758.269l2.329,4.924a.568.568,0,1,1-1.026.485L34.668,99.93l-.394.189a.577.577,0,0,1-.509-.009.57.57,0,0,1-.3-.413l-.57-3.583a.571.571,0,0,1,.315-.6l1.443-.692A.563.563,0,0,1,34.9,94.765Zm6.754,10.547H39.9l-3.2-6.76.726-.348a.2.2,0,0,0,.063-.32L35.051,95.2a.207.207,0,0,0-.238-.047l-1.443.692a.2.2,0,0,0-.113.215l.57,3.583a.2.2,0,0,0,.106.148.207.207,0,0,0,.182,0l.725-.347,2.242,4.739a.207.207,0,0,0,.271.1.2.2,0,0,0,.1-.271L35.12,99.085a.2.2,0,0,0-.271-.1l-.663.318-.5-3.164,1.17-.561L37,97.956l-.663.318a.2.2,0,0,0-.1.27l3.2,6.769H34.93l-4.994-4.994a.541.541,0,0,1-.132-.535,2.6,2.6,0,0,0-.172-1.949A2.682,2.682,0,0,0,28.3,96.618a2.994,2.994,0,0,0-1.184-.261h0a2.386,2.386,0,0,0-1.243.348.2.2,0,0,0-.039.318L27.2,98.386a.685.685,0,0,1,.008.963l-.442.456-.46.445a.689.689,0,0,1-.963-.007L23.978,98.88a.2.2,0,0,0-.168-.058.2.2,0,0,0-.149.1,2.6,2.6,0,0,0-.088,2.426,2.684,2.684,0,0,0,1.219,1.333,2.641,2.641,0,0,0,1.946.171.544.544,0,0,1,.534.13l1.257,1.257a.208.208,0,0,0,.287,0,.2.2,0,0,0,0-.287l-1.255-1.255a.946.946,0,0,0-.933-.235,2.246,2.246,0,0,1-1.651-.142,2.277,2.277,0,0,1-1.031-1.134,2.382,2.382,0,0,1-.157-1.531l.081-.307,1.185,1.185a1.1,1.1,0,0,0,1.534.012l.46-.445.45-.465a1.093,1.093,0,0,0-.013-1.534L26.3,96.914l.307-.081a2.352,2.352,0,0,1,1.534.158,2.274,2.274,0,0,1,1.13,1.027,2.209,2.209,0,0,1,.143,1.657.945.945,0,0,0,.236.932l4.706,4.706H25.431a.2.2,0,0,0-.2.2V106.6a1.168,1.168,0,0,0,1.025,1.156l.16.02v6.47a2.017,2.017,0,0,0,2.012,2.012H49.041a2.017,2.017,0,0,0,2.012-2.012v-6.47l.16-.02a1.168,1.168,0,0,0,1.025-1.156v-1.084a.2.2,0,0,0-.2-.2H42.187l4.119-4.852a.222.222,0,0,0,.049-.148v-.007a.205.205,0,0,0-.006-.031l0-.013a.2.2,0,0,0-.033-.061,1.228,1.228,0,0,1-.264-.771,1.67,1.67,0,0,0-1.707-1.882l-.45-.023.34-.3a3.554,3.554,0,0,1,.482-.353,3.865,3.865,0,0,1,3.49-.161,3.044,3.044,0,0,1,.807.462l1.673,1.313a.476.476,0,0,1,.178.317l.073.6a.881.881,0,0,0,1.089.749l.379-.095a.481.481,0,0,1,.407.086l.6.467a.53.53,0,0,1,.09.747l-1.507,1.908a.528.528,0,0,1-.735.095L50.771,103a.475.475,0,0,1-.185-.313l-.052-.362a.881.881,0,0,0-1.107-.725l-.371.1a1.39,1.39,0,0,1-1.218-.249l-.468-.373a.208.208,0,0,0-.285.032.2.2,0,0,0,.032.286l.588.468-1.685,2.062a.2.2,0,1,0,.315.257l1.744-2.134.116.034a1.786,1.786,0,0,0,.97.008l.37-.1a.475.475,0,0,1,.6.391l.052.363a.88.88,0,0,0,.343.58l.488.366a.93.93,0,0,0,1.3-.168l1.507-1.909a.936.936,0,0,0-.16-1.319l-.6-.468a.886.886,0,0,0-.754-.159l-.379.095a.475.475,0,0,1-.587-.4l-.073-.6a.881.881,0,0,0-.33-.587l-1.674-1.315a3.447,3.447,0,0,0-.915-.522,5.2,5.2,0,0,0-1.825-.359,3.952,3.952,0,0,0-3.252,1.744.2.2,0,0,0,.212.3,2.078,2.078,0,0,1,1.728.232,1.493,1.493,0,0,1,.434,1.174,1.64,1.64,0,0,0,.193.783l.058.109Zm-16.02.407h4.579v2.211a1.067,1.067,0,0,0,1.064,1.063h.847a1.069,1.069,0,0,0,1.063-1.048l0-.179H44.276l0,.179a1.069,1.069,0,0,0,1.063,1.048h.847a1.067,1.067,0,0,0,1.063-1.064v-2.211h4.579v.881a.761.761,0,0,1-.759.759H48.784a.2.2,0,0,0,0,.406h1.862v6.48a1.61,1.61,0,0,1-1.605,1.605H28.424a1.609,1.609,0,0,1-1.605-1.605v-6.48h1.863a.2.2,0,1,0,0-.406H26.393a.761.761,0,0,1-.759-.759Zm4.214.364H26v.517a.4.4,0,0,0,.395.395h2.289a.568.568,0,1,1,0,1.135h-1.5v6.116a1.244,1.244,0,0,0,1.241,1.241H49.041a1.244,1.244,0,0,0,1.241-1.241V108.13h-1.5a.568.568,0,0,1,0-1.135h2.289a.4.4,0,0,0,.395-.395v-.516h-3.85v1.847a1.432,1.432,0,0,1-1.428,1.428h-.848a1.437,1.437,0,0,1-1.413-1.228H33.536a1.437,1.437,0,0,1-1.413,1.228h-.847a1.432,1.432,0,0,1-1.428-1.428Zm.771-.364h2.161v2.211a.659.659,0,0,1-.657.657h-.847a.659.659,0,0,1-.657-.657Zm1.8.364H30.984v1.847a.294.294,0,0,0,.293.293h.847a.294.294,0,0,0,.293-.293Zm.771-.364H44.278v1.64H33.187Zm10.727.364H33.551V107H43.914Zm.771-.364h2.162v2.211a.659.659,0,0,1-.657.657h-.848a.659.659,0,0,1-.657-.657Zm1.8.364H45.049v1.847a.294.294,0,0,0,.293.293h.847a.294.294,0,0,0,.293-.293Z" transform="translate(-11.507 0)" fill="#383a65" stroke="#383a65" stroke-width="0.4"/>
    </g>
  </g>
</svg>
