<svg xmlns="http://www.w3.org/2000/svg" width="26.499" height="25.762" viewBox="0 0 26.499 25.762">
  <g id="Group_117110" data-name="Group 117110" transform="translate(-217.462 -2165.863)">
    <path id="Subtraction_4" data-name="Subtraction 4" d="M5.1,24.707a5.1,5.1,0,1,1,0-10.191,4.826,4.826,0,0,1,.856.075l8.638-8.64a4.724,4.724,0,0,1-.079-.854,5.055,5.055,0,0,1,1.954-4.021A5.107,5.107,0,0,1,19.6,0a5.01,5.01,0,0,1,1.247.156.659.659,0,0,1,.477.463.672.672,0,0,1-.171.646l-2.395,2.4.571,1.716,1.718.571,2.4-2.4a.66.66,0,0,1,.465-.192.7.7,0,0,1,.178.024.659.659,0,0,1,.466.478,5.122,5.122,0,0,1-.92,4.373,5.059,5.059,0,0,1-3.834,1.95l0,.009h-.187a5.148,5.148,0,0,1-.857-.078l-1.833,1.836.743.742a.686.686,0,0,1,.1.132,7.174,7.174,0,0,0-1.65.8,1.469,1.469,0,0,1,.175-.44l-.307-.31-3.1,3.1.309.31a1.544,1.544,0,0,1,.614-.2,7.209,7.209,0,0,0-.719,1.763.665.665,0,0,1-.392-.188l-.741-.742-1.835,1.833a4.967,4.967,0,0,1,.079.857A5.1,5.1,0,0,1,5.1,24.707Zm-.03-8.871A3.8,3.8,0,1,0,8.752,18.7a.66.66,0,0,1,.173-.628L18.165,8.83l.024,0a.653.653,0,0,1,.347-.1.666.666,0,0,1,.163.021A3.753,3.753,0,0,0,23.364,5.5L21.69,7.177a.659.659,0,0,1-.466.192.632.632,0,0,1-.21-.033l-2.419-.805a.665.665,0,0,1-.42-.421l-.806-2.419a.67.67,0,0,1,.162-.676L19.2,1.341A3.722,3.722,0,0,0,16.7,2.681,3.769,3.769,0,0,0,15.953,6a.677.677,0,0,1-.174.631L6.634,15.781a.667.667,0,0,1-.469.192.714.714,0,0,1-.157-.018A3.7,3.7,0,0,0,5.068,15.835Zm1.238,6.452H3.884a.668.668,0,0,1-.562-.322L2.111,19.949a.662.662,0,0,1,0-.679l1.211-2.017a.667.667,0,0,1,.562-.321H6.306a.674.674,0,0,1,.566.321l1.2,2.017a.658.658,0,0,1,0,.679l-1.21,2.017A.662.662,0,0,1,6.306,22.288ZM4.254,18.254,3.442,19.61l.812,1.355H5.931l.814-1.355-.814-1.355H4.254ZM8.2,17.437h0L7.268,16.5,16.5,7.27l.932.932L8.2,17.436Zm.637-6.044h0L3.548,6.1,2.111,5.74A.674.674,0,0,1,1.7,5.428L.052,2.542V2.534A.663.663,0,0,1,.2,1.806L1.81.2A.652.652,0,0,1,2.275,0,.644.644,0,0,1,2.6.09L5.426,1.7a.654.654,0,0,1,.312.421L6.1,3.549l5.293,5.3-.932.931L5.031,4.355a.708.708,0,0,1-.174-.31L4.522,2.708,2.381,1.485l-.9.9L2.7,4.52l1.34.337a.654.654,0,0,1,.305.174l5.422,5.428-.93.933Z" transform="translate(217.524 2165.913)" fill="#383a65" stroke="#383a65" stroke-width="0.1"/>
    <g id="Icon_ionic-ios-checkmark-circle-outline" data-name="Icon ionic-ios-checkmark-circle-outline" transform="translate(231.284 2178.948)">
      <path id="Path_183131" data-name="Path 183131" d="M16.685,12.769l-.514-.528a.11.11,0,0,0-.082-.035h0a.106.106,0,0,0-.082.035l-3.56,3.586-1.3-1.3a.113.113,0,0,0-.163,0l-.519.519a.116.116,0,0,0,0,.166L12.1,16.852a.517.517,0,0,0,.341.166.541.541,0,0,0,.338-.16h0l3.9-3.922A.125.125,0,0,0,16.685,12.769Z" transform="translate(-7.286 -8.322)" fill="#383a65" stroke="#383a65" stroke-width="0.2"/>
      <path id="Path_183131_-_Outline" data-name="Path 183131 - Outline" d="M16.109,12.006a.332.332,0,0,1,.242.1l.511.525a.341.341,0,0,1,.015.459l-.014.015L12.9,17.1h-.013a.7.7,0,0,1-.419.16.726.726,0,0,1-.5-.231l-1.634-1.634a.335.335,0,0,1,0-.476l.519-.519a.332.332,0,0,1,.474,0l1.14,1.14,3.4-3.426A.327.327,0,0,1,16.109,12.006Zm.371.866-.372-.382-3.64,3.667L11.09,14.779l-.374.374,1.562,1.562a.314.314,0,0,0,.186.1.324.324,0,0,0,.188-.1l.043-.041Z" transform="translate(-7.305 -8.341)" fill="#383a65" stroke="#383a65" stroke-width="0.2"/>
      <path id="Path_183132" data-name="Path 183132" d="M9.444,4.192A5.25,5.25,0,1,1,5.73,5.73,5.217,5.217,0,0,1,9.444,4.192m0-.817a6.069,6.069,0,1,0,6.069,6.069A6.068,6.068,0,0,0,9.444,3.375Z" transform="translate(-3.156 -3.156)" fill="#383a65" stroke="#383a65" stroke-width="0.2"/>
      <path id="Path_183132_-_Outline" data-name="Path 183132 - Outline" d="M9.464,3.175A6.289,6.289,0,1,1,3.175,9.464,6.3,6.3,0,0,1,9.464,3.175Zm0,12.139a5.85,5.85,0,1,0-5.85-5.85A5.857,5.857,0,0,0,9.464,15.314Zm0-11.322a5.469,5.469,0,1,1-3.87,1.6A5.436,5.436,0,0,1,9.464,3.992Zm0,10.5A5.031,5.031,0,1,0,5.9,13.023,5,5,0,0,0,9.464,14.5Z" transform="translate(-3.175 -3.175)" fill="#383a65" stroke="#383a65" stroke-width="0.2"/>
    </g>
  </g>
</svg>
