<svg xmlns="http://www.w3.org/2000/svg" width="20" height="20" viewBox="0 0 20 20">
  <g id="Group_117025" data-name="Group 117025" transform="translate(-38 -1206)">
    <g id="Rectangle_22812" data-name="Rectangle 22812" transform="translate(38 1206)" fill="#c1c1c1" stroke="#fff" stroke-width="0.2" opacity="0">
      <rect width="20" height="20" stroke="none"/>
      <rect x="0.1" y="0.1" width="19.8" height="19.8" fill="none"/>
    </g>
    <g id="_2540142" data-name="2540142" transform="translate(38.654 1209)">
      <path id="Path_182894" data-name="Path 182894" d="M412.394,70.748a.548.548,0,1,0-.775.774,8.254,8.254,0,0,1,0,11.668.548.548,0,1,0,.775.775,9.35,9.35,0,0,0,0-13.217Z" transform="translate(-396.438 -70.587)" fill="#fff" stroke="#fff" stroke-width="0.2"/>
      <path id="Path_182895" data-name="Path 182895" d="M366.975,116.168a.547.547,0,0,0-.774.774,5.909,5.909,0,0,1,0,8.352.548.548,0,0,0,.774.775,7,7,0,0,0,0-9.9Z" transform="translate(-352.677 -114.349)" fill="#fff" stroke="#fff" stroke-width="0.2"/>
      <path id="Path_182896" data-name="Path 182896" d="M321.521,161.62a.548.548,0,0,0-.775.774,3.56,3.56,0,0,1,0,5.033.548.548,0,1,0,.775.775,4.657,4.657,0,0,0,0-6.582Z" transform="translate(-308.883 -158.142)" fill="#fff" stroke="#fff" stroke-width="0.2"/>
      <path id="Path_182897" data-name="Path 182897" d="M1.1,77.357A8.2,8.2,0,0,1,3.51,71.523a.548.548,0,0,0-.774-.774,9.35,9.35,0,0,0,0,13.217.548.548,0,0,0,.774-.774A8.2,8.2,0,0,1,1.1,77.357Z" transform="translate(0 -70.588)" fill="#fff" stroke="#fff" stroke-width="0.2"/>
      <path id="Path_182898" data-name="Path 182898" d="M65.314,121.118a5.866,5.866,0,0,1,1.728-4.176.548.548,0,1,0-.774-.774,7,7,0,0,0,0,9.9.548.548,0,0,0,.774-.775A5.866,5.866,0,0,1,65.314,121.118Z" transform="translate(-61.875 -114.349)" fill="#fff" stroke="#fff" stroke-width="0.2"/>
      <path id="Path_182899" data-name="Path 182899" d="M130.625,161.62a.547.547,0,0,0-.774,0,4.656,4.656,0,0,0,0,6.582.548.548,0,0,0,.774-.774,3.56,3.56,0,0,1,0-5.033A.547.547,0,0,0,130.625,161.62Z" transform="translate(-123.797 -158.142)" fill="#fff" stroke="#fff" stroke-width="0.2"/>
      <path id="Path_182900" data-name="Path 182900" d="M195.107,192.8a2.307,2.307,0,1,0,2.307,2.307A2.31,2.31,0,0,0,195.107,192.8Zm0,3.519a1.212,1.212,0,1,1,1.212-1.212A1.213,1.213,0,0,1,195.107,196.319Z" transform="translate(-185.762 -188.338)" fill="#fff" stroke="#fff" stroke-width="0.2"/>
    </g>
  </g>
</svg>
