<svg xmlns="http://www.w3.org/2000/svg" width="27" height="27" viewBox="0 0 27 27">
  <g id="Group_116645" data-name="Group 116645" transform="translate(-310 -498)">
    <g id="Group_484" data-name="Group 484" transform="translate(310 498)">
      <g id="Group_476" data-name="Group 476">
        <circle id="Ellipse_92" data-name="Ellipse 92" cx="13.5" cy="13.5" r="13.5" fill="#f3f5f8"/>
      </g>
    </g>
    <g id="Device_Sensor_383a65" transform="translate(316 435.413)">
      <path id="Path_182894" data-name="Path 182894" d="M412.17,70.709a.416.416,0,0,0-.589.589,6.278,6.278,0,0,1,0,8.873.416.416,0,0,0,.589.589,7.11,7.11,0,0,0,0-10.051Z" transform="translate(-400.036 0)" fill="#383a65"/>
      <path id="Path_182895" data-name="Path 182895" d="M366.75,116.129a.416.416,0,0,0-.589.589,4.493,4.493,0,0,1,0,6.351.416.416,0,0,0,.589.589,5.326,5.326,0,0,0,0-7.529Z" transform="translate(-355.877 -44.159)" fill="#383a65"/>
      <path id="Path_182896" data-name="Path 182896" d="M321.3,161.581a.416.416,0,0,0-.589.589,2.708,2.708,0,0,1,0,3.828.416.416,0,1,0,.589.589,3.541,3.541,0,0,0,0-5.005Z" transform="translate(-311.686 -88.349)" fill="#383a65"/>
      <path id="Path_182897" data-name="Path 182897" d="M.833,75.735A6.233,6.233,0,0,1,2.669,71.3a.416.416,0,1,0-.589-.589,7.11,7.11,0,0,0,0,10.051.416.416,0,1,0,.589-.589A6.233,6.233,0,0,1,.833,75.735Z" transform="translate(0 0)" fill="#383a65"/>
      <path id="Path_182898" data-name="Path 182898" d="M65.052,119.894a4.461,4.461,0,0,1,1.315-3.176.416.416,0,0,0-.589-.589,5.326,5.326,0,0,0,0,7.529.416.416,0,0,0,.589-.589A4.461,4.461,0,0,1,65.052,119.894Z" transform="translate(-62.436 -44.158)" fill="#383a65"/>
      <path id="Path_182899" data-name="Path 182899" d="M130.113,161.581a.416.416,0,0,0-.589,0,3.541,3.541,0,0,0,0,5.006.416.416,0,0,0,.589-.589,2.708,2.708,0,0,1,0-3.828A.417.417,0,0,0,130.113,161.581Z" transform="translate(-124.921 -88.349)" fill="#383a65"/>
      <path id="Path_182900" data-name="Path 182900" d="M194.555,192.8a1.755,1.755,0,1,0,1.755,1.755A1.757,1.757,0,0,0,194.555,192.8Zm0,2.676a.922.922,0,1,1,.922-.922A.923.923,0,0,1,194.555,195.476Z" transform="translate(-187.447 -118.82)" fill="#383a65"/>
    </g>
  </g>
</svg>
