<svg xmlns="http://www.w3.org/2000/svg" width="26.8" height="26.8" viewBox="0 0 26.8 26.8">
  <g id="Rooms_383a65" transform="translate(0.4 0.4)">
    <g id="Group_116197" data-name="Group 116197" transform="translate(12.435 0)">
      <g id="Group_116196" data-name="Group 116196">
        <path id="Path_182862" data-name="Path 182862" d="M235.231,0a.565.565,0,0,0-.565.565V16.391a.565.565,0,1,0,1.13,0V.565A.565.565,0,0,0,235.231,0Z" transform="translate(-234.666 0)" fill="#383a65" stroke="#383a65" stroke-width="0.8"/>
      </g>
    </g>
    <g id="Group_116199" data-name="Group 116199" transform="translate(20.348 11.304)">
      <g id="Group_116198" data-name="Group 116198">
        <path id="Path_182863" data-name="Path 182863" d="M389.087,213.333h-4.522a.565.565,0,0,0,0,1.13h4.522a.565.565,0,0,0,0-1.13Z" transform="translate(-384 -213.333)" fill="#383a65" stroke="#383a65" stroke-width="0.8"/>
      </g>
    </g>
    <g id="Group_116201" data-name="Group 116201" transform="translate(9.043 11.304)">
      <g id="Group_116200" data-name="Group 116200">
        <path id="Path_182864" data-name="Path 182864" d="M178.014,213.333h-6.783a.565.565,0,1,0,0,1.13h6.783a.565.565,0,1,0,0-1.13Z" transform="translate(-170.666 -213.333)" fill="#383a65" stroke="#383a65" stroke-width="0.8"/>
      </g>
    </g>
    <g id="Group_116203" data-name="Group 116203" transform="translate(0 11.304)">
      <g id="Group_116202" data-name="Group 116202">
        <path id="Path_182865" data-name="Path 182865" d="M5.087,213.333H.565a.565.565,0,1,0,0,1.13H5.087a.565.565,0,1,0,0-1.13Z" transform="translate(0 -213.333)" fill="#383a65" stroke="#383a65" stroke-width="0.8"/>
      </g>
    </g>
    <g id="Group_116205" data-name="Group 116205" transform="translate(12.435 20.348)">
      <g id="Group_116204" data-name="Group 116204">
        <path id="Path_182866" data-name="Path 182866" d="M235.231,384a.565.565,0,0,0-.565.565v4.522a.565.565,0,0,0,1.13,0v-4.522A.565.565,0,0,0,235.231,384Z" transform="translate(-234.666 -384)" fill="#383a65" stroke="#383a65" stroke-width="0.8"/>
      </g>
    </g>
    <g id="Group_116207" data-name="Group 116207" transform="translate(0 0)">
      <g id="Group_116206" data-name="Group 116206">
        <path id="Path_182867" data-name="Path 182867" d="M25.435,0H.565A.565.565,0,0,0,0,.565V16.391a.566.566,0,0,0,.565.565H1.7a.565.565,0,1,0,0-1.13H1.13V1.13H24.87V24.87H1.13V21.478H1.7a.565.565,0,1,0,0-1.13H.565A.565.565,0,0,0,0,20.913v4.522A.565.565,0,0,0,.565,26h24.87A.565.565,0,0,0,26,25.435V.565A.565.565,0,0,0,25.435,0Z" transform="translate(0 0)" fill="#383a65" stroke="#383a65" stroke-width="0.8"/>
      </g>
    </g>
    <g id="Group_116209" data-name="Group 116209" transform="translate(11.304 15.826)">
      <g id="Group_116208" data-name="Group 116208">
        <path id="Path_182868" data-name="Path 182868" d="M216.159,298.667H213.9a.565.565,0,1,0,0,1.13h2.261a.565.565,0,1,0,0-1.13Z" transform="translate(-213.333 -298.667)" fill="#383a65" stroke="#383a65" stroke-width="0.8"/>
      </g>
    </g>
    <g id="Group_116211" data-name="Group 116211" transform="translate(11.304 20.348)">
      <g id="Group_116210" data-name="Group 116210">
        <path id="Path_182869" data-name="Path 182869" d="M216.159,384H213.9a.565.565,0,1,0,0,1.13h2.261a.565.565,0,1,0,0-1.13Z" transform="translate(-213.333 -384)" fill="#383a65" stroke="#383a65" stroke-width="0.8"/>
      </g>
    </g>
    <g id="Group_116213" data-name="Group 116213" transform="translate(4.522 10.174)">
      <g id="Group_116212" data-name="Group 116212">
        <path id="Path_182870" data-name="Path 182870" d="M85.9,192a.565.565,0,0,0-.565.565v2.261a.565.565,0,0,0,1.13,0v-2.261A.565.565,0,0,0,85.9,192Z" transform="translate(-85.333 -192)" fill="#383a65" stroke="#383a65" stroke-width="0.8"/>
      </g>
    </g>
    <g id="Group_116215" data-name="Group 116215" transform="translate(9.043 10.174)">
      <g id="Group_116214" data-name="Group 116214">
        <path id="Path_182871" data-name="Path 182871" d="M171.231,192a.565.565,0,0,0-.565.565v2.261a.565.565,0,1,0,1.13,0v-2.261A.565.565,0,0,0,171.231,192Z" transform="translate(-170.666 -192)" fill="#383a65" stroke="#383a65" stroke-width="0.8"/>
      </g>
    </g>
    <g id="Group_116217" data-name="Group 116217" transform="translate(15.826 10.174)">
      <g id="Group_116216" data-name="Group 116216">
        <path id="Path_182872" data-name="Path 182872" d="M299.231,192a.565.565,0,0,0-.565.565v2.261a.565.565,0,1,0,1.13,0v-2.261A.565.565,0,0,0,299.231,192Z" transform="translate(-298.666 -192)" fill="#383a65" stroke="#383a65" stroke-width="0.8"/>
      </g>
    </g>
    <g id="Group_116219" data-name="Group 116219" transform="translate(20.348 10.174)">
      <g id="Group_116218" data-name="Group 116218">
        <path id="Path_182873" data-name="Path 182873" d="M384.565,192a.565.565,0,0,0-.565.565v2.261a.565.565,0,1,0,1.13,0v-2.261A.565.565,0,0,0,384.565,192Z" transform="translate(-384 -192)" fill="#383a65" stroke="#383a65" stroke-width="0.8"/>
      </g>
    </g>
  </g>
</svg>
