<svg xmlns="http://www.w3.org/2000/svg" width="21.847" height="26.766" viewBox="0 0 21.847 26.766">
  <g id="noun-receipt-1402416" transform="translate(-97.044 -36.299)">
    <path id="Path_183538" data-name="Path 183538" d="M236.371,205.618h3.9a.61.61,0,0,0,0-1.22h-3.9a.61.61,0,0,0,0,1.22Z" transform="translate(-134.013 -158.852)" fill="#383a65" stroke="#383a65" stroke-width="0.2"/>
    <path id="Path_183539" data-name="Path 183539" d="M243.932,277.2h-7.561a.61.61,0,0,0,0,1.22h7.561a.61.61,0,0,0,0-1.22Z" transform="translate(-134.013 -227.691)" fill="#383a65" stroke="#383a65" stroke-width="0.2"/>
    <path id="Path_183540" data-name="Path 183540" d="M243.932,350h-7.561a.61.61,0,1,0,0,1.219h7.561a.61.61,0,1,0,0-1.219Z" transform="translate(-134.013 -296.527)" fill="#383a65" stroke="#383a65" stroke-width="0.2"/>
    <path id="Path_183541" data-name="Path 183541" d="M172.846,58.747V38.838a2.439,2.439,0,0,0-2.439-2.439H157.3a2.44,2.44,0,0,0-2.439,2.439V40h-1.219a2.439,2.439,0,0,0-2.439,2.439V62.345a.61.61,0,0,0,1.037.427l2.348-2.165,2.378,2.165a.61.61,0,0,0,.823,0l2.409-2.165,2.409,2.165a.61.61,0,0,0,.823,0l2.409-2.165,2.317,2.165a.611.611,0,0,0,.427.152l.244-.061a.61.61,0,0,0,.366-.549v-5l.3-.274L171.84,59.2h0a.609.609,0,0,0,.427.152l.244-.061h0a.61.61,0,0,0,.335-.549Zm-4.878,2.2-1.707-1.585a.61.61,0,0,0-.823,0l-2.409,2.165-2.409-2.165h0a.61.61,0,0,0-.823,0l-2.408,2.165-2.409-2.165h0a.61.61,0,0,0-.823,0l-1.738,1.585V42.405a1.219,1.219,0,0,1,1.219-1.219h13.11a1.219,1.219,0,0,1,1.219,1.219Zm3.659-3.6-1.738-1.585a.61.61,0,0,0-.732-.091V42.405a2.439,2.439,0,0,0-2.439-2.439H156.047V38.838a1.22,1.22,0,0,1,1.22-1.219h13.11a1.22,1.22,0,0,1,1.219,1.219Z" transform="translate(-54.055 0)" fill="#383a65" stroke="#383a65" stroke-width="0.2"/>
  </g>
</svg>
