<svg xmlns="http://www.w3.org/2000/svg" width="31.821" height="26.531" viewBox="0 0 31.821 26.531">
  <g id="noun_Forklift_2216632" transform="translate(0.35 0.35)">
    <g id="Group_116281" data-name="Group 116281" transform="translate(-0.25 -0.25)">
      <path id="Path_182942" data-name="Path 182942" d="M5.027,292.5v8.583h11.8V292.5ZM6.1,293.576h9.656v6.436H6.1Z" transform="translate(14.502 -281.409)" fill="#383a65"/>
      <path id="Path_182942_-_Outline" data-name="Path 182942 - Outline" d="M4.777,292.252H17.16v9.164H4.777Zm11.8.581H5.358v8h11.22Zm-10.729.493H16.087v7.017H5.85Zm9.656.581H6.431v5.855h9.075Z" transform="translate(14.462 -281.45)" fill="#383a65" stroke="#383a65" stroke-width="0.2"/>
      <path id="Path_182943" data-name="Path 182943" d="M3.748,289.592A3.218,3.218,0,0,0,.529,292.81v17.165a3.218,3.218,0,0,0,2.152,3.039,2.146,2.146,0,1,0,4.285.18h3.219a2.146,2.146,0,1,0,4.235-.488,4.5,4.5,0,0,0,1.567-4.134,66.593,66.593,0,0,0-5.01-17.071,3.218,3.218,0,0,0-2.938-1.909Zm0,1.073H8.039A2.145,2.145,0,0,1,10,291.936a65.516,65.516,0,0,1,4.929,16.8,3.422,3.422,0,0,1,0,1.02h0A40.419,40.419,0,0,0,1.6,298.979V292.81a2.145,2.145,0,0,1,2.146-2.146ZM1.6,300.184a39.347,39.347,0,0,1,12.908,10.772,3.412,3.412,0,0,1-.61.776,2.145,2.145,0,0,0-3.428.39H6.681A2.146,2.146,0,0,0,3.04,312,2.146,2.146,0,0,1,1.6,309.975ZM4.8,312.117a1.075,1.075,0,1,1-1.046,1.077A1.074,1.074,0,0,1,4.8,312.117Zm7.506,0a1.073,1.073,0,1,1-1.041,1.073,1.071,1.071,0,0,1,1.041-1.073Z" transform="translate(-0.239 -289.301)" fill="#383a65" stroke="#383a65" stroke-width="0.2"/>
      <path id="Path_182943_-_Outline" data-name="Path 182943 - Outline" d="M3.788,289.342H8.08a3.512,3.512,0,0,1,3.2,2.082,66.891,66.891,0,0,1,5.032,17.145,4.816,4.816,0,0,1-1.537,4.288,2.436,2.436,0,1,1-4.825.669H7.278a2.436,2.436,0,0,1-4.853-.274,3.514,3.514,0,0,1-2.146-3.236V292.851A3.513,3.513,0,0,1,3.788,289.342Zm8.583,25.75a1.855,1.855,0,0,0,1.806-2.278l-.041-.175.138-.115a4.229,4.229,0,0,0,1.466-3.867,66.311,66.311,0,0,0-4.988-17,2.931,2.931,0,0,0-2.673-1.737H3.788A2.932,2.932,0,0,0,.86,292.851v17.165a2.932,2.932,0,0,0,1.958,2.765l.21.074-.017.222a1.855,1.855,0,1,0,3.705.156l0-.288h3.8v.291a1.855,1.855,0,0,0,1.855,1.856ZM3.786,290.414H8.08a2.438,2.438,0,0,1,2.224,1.444,65.817,65.817,0,0,1,4.951,16.872,3.708,3.708,0,0,1,0,1.107l-.1.655-.415-.516a39.859,39.859,0,0,0-13.231-10.7l-.16-.08v-6.348A2.439,2.439,0,0,1,3.786,290.414Zm10.917,18.6q-.009-.1-.023-.2a65.235,65.235,0,0,0-4.907-16.722A1.857,1.857,0,0,0,8.08,291H3.788a1.858,1.858,0,0,0-1.857,1.856v5.99a40.79,40.79,0,0,1,7.133,4.625A40.8,40.8,0,0,1,14.7,309.014ZM1.354,299.746l.425.221a39.693,39.693,0,0,1,7.088,4.723,39.712,39.712,0,0,1,5.915,6.128l.119.154-.1.169a3.7,3.7,0,0,1-.662.842l-.213.2-.2-.215a1.855,1.855,0,0,0-2.964.337l-.084.145H6.554l-.084-.145a1.844,1.844,0,0,0-1.545-.927H4.862a1.851,1.851,0,0,0-1.541.823l-.125.187-.212-.074a2.439,2.439,0,0,1-1.63-2.3ZM14.2,311.017a39.349,39.349,0,0,0-12.264-10.31v9.309a1.858,1.858,0,0,0,1.047,1.67,2.437,2.437,0,0,1,3.9.186h3.471a2.435,2.435,0,0,1,3.579-.507A3.123,3.123,0,0,0,14.2,311.017Zm-9.336.85a1.356,1.356,0,0,1,.954.389,1.364,1.364,0,1,1-.989-.388Zm0,2.151a.785.785,0,0,0,0-1.57h-.02a.785.785,0,0,0,.02,1.569Zm7.511-2.146a1.355,1.355,0,0,1,.95.386,1.37,1.37,0,0,1,.413.978,1.363,1.363,0,1,1-1.4-1.363Zm0,2.146a.782.782,0,0,0,.782-.782.782.782,0,1,0-1.565,0,.782.782,0,0,0,.782.782Z" transform="translate(-0.279 -289.342)" fill="#383a65" stroke="#383a65" stroke-width="0.2"/>
      <path id="Path_182945" data-name="Path 182945" d="M5.571,311.048h8.046a.537.537,0,0,1,0,1.073H4.5v-22.53H5.571Z" transform="translate(11.885 -289.3)" fill="#383a65" stroke="#383a65" stroke-width="0.2"/>
      <path id="Path_182945_-_Outline" data-name="Path 182945 - Outline" d="M13.658,312.453H4.248V289.342H5.9V310.8h7.756a.827.827,0,0,1,0,1.654Zm-8.829-.581h8.829a.246.246,0,0,0,0-.492H5.321V289.923H4.829Z" transform="translate(11.845 -289.341)" fill="#383a65" stroke="#383a65" stroke-width="0.2"/>
    </g>
  </g>
</svg>
