<svg xmlns="http://www.w3.org/2000/svg" width="33.107" height="28.197" viewBox="0 0 33.107 28.197">
  <g id="noun_pick_4098873" transform="translate(0.253 0.25)">
    <path id="Path_182936" data-name="Path 182936" d="M32.663,18.532a1.559,1.559,0,0,0-.64-.976,11.887,11.887,0,0,0-.8-2.649,1.1,1.1,0,0,0-.724-.625h0c-2.45-.665-4.947-1.266-7.42-1.788-3.2-1.207-6.48-2.331-9.748-3.357a1.218,1.218,0,0,0-.465-1.547L9.1,5.24A1.229,1.229,0,0,0,7.4,5.633l-5.218,8.38a1.229,1.229,0,0,0,.393,1.692l1.636,1.018h0L6.35,18.053a1.194,1.194,0,0,0,1.611-.305,14.385,14.385,0,0,0,4.775,6.54c3.823,2.556,7.635,5.241,11.331,7.982a.4.4,0,0,0,.24.079.407.407,0,0,0,.2-.051,2.684,2.684,0,0,0,1.031-3.648,2.762,2.762,0,0,0-.182-.282,13.34,13.34,0,0,0-4-3.6,1.9,1.9,0,0,1,.7-3.515,7.2,7.2,0,0,1,1.981,0,5.293,5.293,0,0,1,4.382,4.018l.226.97A4.851,4.851,0,0,0,32.2,29.868a.9.9,0,0,0,1.1-1.076c-.079-.35-.164-.7-.243-1.048a.914.914,0,0,0,.25.036.9.9,0,0,0,.889-1.063C33.711,24.012,33.194,21.259,32.663,18.532ZM7.1,17.423a.429.429,0,0,1-.319-.053L4.983,16.252,5.638,15.2a.4.4,0,1,0-.683-.426L4.3,15.827,3,15.021a.423.423,0,0,1-.135-.582L8.088,6.058a.422.422,0,0,1,.263-.188.45.45,0,0,1,.1-.011.424.424,0,0,1,.223.064h0l3.771,2.348a.423.423,0,0,1,.135.582l-5.218,8.38A.422.422,0,0,1,7.1,17.423ZM33.282,26.97a3.981,3.981,0,0,1-.441-.17c-.441-1.929-.882-3.858-1.342-5.782a2.412,2.412,0,0,0-.912-1.376c-1.493-1.1-3.051-2.145-4.629-3.1a.4.4,0,0,0-.418.689c1.558.945,3.1,1.976,4.569,3.062a1.608,1.608,0,0,1,.606.915c.618,2.584,1.218,5.173,1.8,7.81a.1.1,0,0,1-.119.072,4.046,4.046,0,0,1-2.968-3.022l-.226-.97a6.105,6.105,0,0,0-5.053-4.633,7.924,7.924,0,0,0-2.2,0,2.7,2.7,0,0,0-1,5.007A12.535,12.535,0,0,1,24.7,28.845a1.969,1.969,0,0,1,.128.2,1.878,1.878,0,0,1-.509,2.413c-3.636-2.691-7.381-5.327-11.116-7.823A13.569,13.569,0,0,1,8.52,16.894l4.39-7.05c3.325,1.04,6.66,2.184,9.917,3.412.011,0,.022,0,.033.006s.017.009.026.011c2.468.52,4.959,1.121,7.4,1.784h0a.3.3,0,0,1,.2.172,11.085,11.085,0,0,1,.567,1.71,25.928,25.928,0,0,0-3.029-1.569.4.4,0,0,0-.322.738,25.106,25.106,0,0,1,3.847,2.1.748.748,0,0,1,.319.479C32.4,21.409,32.919,24.16,33.4,26.9A.114.114,0,0,1,33.282,26.97Z" transform="translate(-1.805 -4.858)" fill="#383a65" stroke="#383a65" stroke-width="0.5"/>
    <path id="Path_182936_-_Outline" data-name="Path 182936 - Outline" d="M8.5,4.9a1.416,1.416,0,0,1,.749.216l3.772,2.348a1.416,1.416,0,0,1,.634.886,1.394,1.394,0,0,1-.018.7c3.275,1.032,6.487,2.14,9.55,3.294,2.487.526,4.983,1.127,7.417,1.788l.03.009a1.3,1.3,0,0,1,.824.728,12.073,12.073,0,0,1,.794,2.616,1.761,1.761,0,0,1,.654,1.05c.531,2.729,1.048,5.483,1.536,8.188a1.1,1.1,0,0,1-1.078,1.293l.052.223c.043.184.086.367.128.552A1.1,1.1,0,0,1,32.2,30.1a5.045,5.045,0,0,1-3.7-3.767l-.226-.97A5.1,5.1,0,0,0,24.057,21.5a7.04,7.04,0,0,0-1.927,0,1.7,1.7,0,0,0-.63,3.154A13.532,13.532,0,0,1,25.554,28.3a2.938,2.938,0,0,1,.2.3,2.88,2.88,0,0,1-1.106,3.913A.609.609,0,0,1,24,32.471c-3.684-2.732-7.493-5.416-11.323-7.976l-.011-.008a14.648,14.648,0,0,1-4.73-6.334,1.331,1.331,0,0,1-.566.289,1.417,1.417,0,0,1-1.075-.179l-3.77-2.347a1.424,1.424,0,0,1-.456-1.961l5.218-8.38A1.432,1.432,0,0,1,8.5,4.9Zm21.973,9.6c-2.423-.657-4.907-1.255-7.383-1.778l-.028-.008c-3.121-1.176-6.4-2.3-9.738-3.353l-.21-.066.091-.2a1.023,1.023,0,0,0-.391-1.3L9.038,5.45a1.034,1.034,0,0,0-1.423.331L2.4,14.161a1.034,1.034,0,0,0,.331,1.424L6.5,17.932a1.018,1.018,0,0,0,.54.157,1.036,1.036,0,0,0,.24-.027,1.016,1.016,0,0,0,.573-.388l.217-.283.121.335A14.257,14.257,0,0,0,12.9,24.174c3.833,2.563,7.646,5.249,11.333,7.984a.212.212,0,0,0,.226.014,2.489,2.489,0,0,0,.955-3.382,2.549,2.549,0,0,0-.17-.262A13.144,13.144,0,0,0,21.3,24.982a2.093,2.093,0,0,1,.774-3.877,7.43,7.43,0,0,1,2.035,0,5.489,5.489,0,0,1,4.544,4.167l.226.97A4.657,4.657,0,0,0,32.3,29.724a.707.707,0,0,0,.862-.844c-.041-.183-.084-.366-.127-.548-.039-.167-.078-.333-.116-.5l-.073-.321.316.09a.707.707,0,0,0,.894-.805c-.488-2.7-1-5.455-1.535-8.182a1.368,1.368,0,0,0-.56-.853l-.066-.046-.014-.08a11.711,11.711,0,0,0-.782-2.606.909.909,0,0,0-.6-.515ZM8.492,5.709a.617.617,0,0,1,.274.064h0l.028.017.018.011.093.058,3.68,2.291a.618.618,0,0,1,.2.851l-5.218,8.38a.616.616,0,0,1-.384.275.655.655,0,0,1-.14.015.617.617,0,0,1-.328-.093L4.759,16.36l.758-1.217a.209.209,0,0,0-.067-.287.205.205,0,0,0-.108-.031.208.208,0,0,0-.177.1L4.406,16.14l-1.46-.909a.618.618,0,0,1-.2-.851L7.968,6a.616.616,0,0,1,.383-.275A.652.652,0,0,1,8.492,5.709ZM8.52,6.1a.235.235,0,0,0-.082,0,.226.226,0,0,0-.139.1L3.08,14.587a.228.228,0,0,0,.072.313l1.13.7.552-.887a.6.6,0,1,1,1.014.632l-.552.886,1.628,1.014a.237.237,0,0,0,.175.028.227.227,0,0,0,.139-.1L12.456,8.8a.228.228,0,0,0-.072-.313L8.659,6.164H8.52Zm4.349,3.557.144.045c3.367,1.053,6.7,2.2,9.911,3.409l.034.007a.241.241,0,0,1,.033.012c2.445.516,4.927,1.113,7.377,1.777h0l.019.005a.5.5,0,0,1,.327.283,11.133,11.133,0,0,1,.577,1.74l.117.461L31,17.151a25.784,25.784,0,0,0-3.007-1.557.2.2,0,0,0-.082-.017.21.21,0,0,0-.192.125.208.208,0,0,0,.107.273,25.3,25.3,0,0,1,3.877,2.115.944.944,0,0,1,.4.6c.572,2.936,1.074,5.625,1.533,8.222l.008.044L33.636,27a.309.309,0,0,1-.292.209.27.27,0,0,1-.062-.007l-.01,0a3.974,3.974,0,0,1-.445-.17l-.109-.047-.032-.14c-.43-1.882-.875-3.828-1.331-5.737a2.217,2.217,0,0,0-.838-1.265c-1.494-1.1-3.047-2.141-4.614-3.093a.208.208,0,0,0-.216.356c1.559.946,3.1,1.979,4.583,3.071a1.8,1.8,0,0,1,.68,1.027c.659,2.754,1.249,5.31,1.8,7.813l.01.046-.012.045a.292.292,0,0,1-.281.222.289.289,0,0,1-.077-.011,4.239,4.239,0,0,1-3.108-3.167l-.226-.97A5.909,5.909,0,0,0,24.17,20.7a7.766,7.766,0,0,0-2.149,0,2.507,2.507,0,0,0-.929,4.645,12.73,12.73,0,0,1,3.813,3.435,2.173,2.173,0,0,1,.141.219,2.077,2.077,0,0,1-.562,2.664l-.116.087-.117-.087c-3.641-2.695-7.378-5.325-11.109-7.818l-.011-.008A13.774,13.774,0,0,1,8.378,17l-.027-.085ZM22.848,13.5a.241.241,0,0,1-.046-.013c-3.161-1.191-6.444-2.322-9.761-3.363L8.777,16.965a13.384,13.384,0,0,0,4.588,6.555c3.692,2.467,7.391,5.068,11,7.734a1.686,1.686,0,0,0,.345-2.071,1.774,1.774,0,0,0-.115-.179,12.341,12.341,0,0,0-3.7-3.33,2.9,2.9,0,0,1,1.073-5.368,8.157,8.157,0,0,1,2.258,0,6.3,6.3,0,0,1,5.216,4.782l.226.97A3.849,3.849,0,0,0,32.328,28.9c-.541-2.435-1.116-4.925-1.756-7.6a1.414,1.414,0,0,0-.533-.8c-1.472-1.085-3-2.112-4.554-3.052a.6.6,0,0,1,.62-1.023c1.578.958,3.141,2,4.644,3.113a2.608,2.608,0,0,1,.985,1.488c.452,1.893.893,3.822,1.32,5.688.056.024.111.047.166.068-.449-2.529-.938-5.15-1.494-8a.552.552,0,0,0-.236-.354,24.911,24.911,0,0,0-3.818-2.083.6.6,0,0,1,.241-1.145h0a.589.589,0,0,1,.238.05,26.165,26.165,0,0,1,2.638,1.336,9.773,9.773,0,0,0-.432-1.22.109.109,0,0,0-.063-.059l-.013,0c-2.451-.664-4.939-1.264-7.39-1.78A.233.233,0,0,1,22.848,13.5Z" transform="translate(-1.85 -4.903)" fill="#383a65" stroke="#383a65" stroke-width="0.5"/>
  </g>
</svg>
