<svg xmlns="http://www.w3.org/2000/svg" width="20" height="20.125" viewBox="0 0 20 20.125">
  <g id="Group_117018" data-name="Group 117018" transform="translate(-38 -917.875)">
    <rect id="Rectangle_22812" data-name="Rectangle 22812" width="20" height="20" transform="translate(38 918)" fill="#c1c1c1" opacity="0"/>
    <g id="Group_115050" data-name="Group 115050" transform="translate(14.722 794.979)">
      <path id="bell" d="M68.367,15.335a2.994,2.994,0,0,1-.91-1.239,14.336,14.336,0,0,1-.948-5.665c0-.007,0-.014,0-.022A5.467,5.467,0,0,0,63.29,3.451v-1.3A2.147,2.147,0,0,0,61.147,0h-.178a2.147,2.147,0,0,0-2.143,2.147v1.3a5.468,5.468,0,0,0-3.219,4.981,14.336,14.336,0,0,1-.948,5.665,2.994,2.994,0,0,1-.91,1.239.549.549,0,0,0-.3.624.574.574,0,0,0,.566.441h4.138a2.907,2.907,0,0,0,5.813,0H68.1a.574.574,0,0,0,.566-.441A.549.549,0,0,0,68.367,15.335ZM59.955,2.147a1.016,1.016,0,0,1,1.014-1.016h.178a1.016,1.016,0,0,1,1.014,1.016v.938a5.468,5.468,0,0,0-2.206,0V2.147Zm1.1,15.992A1.781,1.781,0,0,1,59.281,16.4h3.555A1.781,1.781,0,0,1,61.058,18.139Zm2.273-2.869H55.3a5.921,5.921,0,0,0,.3-.519,14.293,14.293,0,0,0,1.14-6.319,4.321,4.321,0,1,1,8.643,0c0,.007,0,.014,0,.021a14.265,14.265,0,0,0,1.14,6.3,5.921,5.921,0,0,0,.3.519Z" transform="translate(-28.156 123.021)" fill="#fff" stroke="#fff" stroke-width="0.25"/>
      <circle id="Ellipse_515" data-name="Ellipse 515" cx="3.455" cy="3.455" r="3.455" transform="translate(33.916 124.749)" fill="#ff7850" opacity="0"/>
    </g>
  </g>
</svg>
