<svg xmlns="http://www.w3.org/2000/svg" width="13.176" height="14.563" viewBox="0 0 13.176 14.563"><defs><style>.a{fill:#4e2c90;stroke:#4e2c90;stroke-width:0.3px;}</style></defs><g transform="translate(-476.39 -457.897)"><path class="a" d="M11.91,8.672,10.869,7.631,6.186,2.948A2.208,2.208,0,0,0,3.064,6.07l4.683,4.684a.491.491,0,0,0,.694-.694L3.758,5.376A1.226,1.226,0,0,1,5.492,3.642l4.684,4.683,1.041,1.041a2.208,2.208,0,1,1-3.123,3.122l-.867-.867L2.37,6.764l-.347-.347a3.189,3.189,0,0,1,4.51-4.51l5.2,5.2a.491.491,0,1,0,.694-.694l-5.2-5.2a4.17,4.17,0,0,0-5.9,5.9l5.2,5.2.868.867a3.189,3.189,0,0,0,4.509-4.51Zm0,0" transform="translate(476.425 458.048)"/></g></svg>