<svg xmlns="http://www.w3.org/2000/svg" width="10.6" height="10.6" viewBox="0 0 10.6 10.6">
  <defs>
    <style>
      .cls-1 {
        fill: #4e2c90;
      }
    </style>
  </defs>
  <path id="Icon_awesome-download" data-name="Icon awesome-download" class="cls-1" d="M4.472,0H6.128a.5.5,0,0,1,.5.5V3.975H8.441a.413.413,0,0,1,.292.706L5.584,7.832a.4.4,0,0,1-.565,0L1.865,4.681a.413.413,0,0,1,.292-.706H3.975V.5A.5.5,0,0,1,4.472,0ZM10.6,7.784V10.1a.5.5,0,0,1-.5.5H.5a.5.5,0,0,1-.5-.5V7.784a.5.5,0,0,1,.5-.5H3.534L4.548,8.3a1.061,1.061,0,0,0,1.5,0L7.066,7.287H10.1A.5.5,0,0,1,10.6,7.784ZM8.033,9.606a.414.414,0,1,0-.414.414A.415.415,0,0,0,8.033,9.606Zm1.325,0a.414.414,0,1,0-.414.414A.415.415,0,0,0,9.358,9.606Z"/>
</svg>
