<svg xmlns="http://www.w3.org/2000/svg" width="10.231" height="17.904" viewBox="0 0 10.231 17.904"><defs><style>.a{fill:#d95128;}.b{fill:#e0e0e3;}</style></defs><g transform="translate(0 17.904) rotate(-90)"><g transform="translate(0 0)"><path class="a" d="M17.265,2.592H15.346V.639A.639.639,0,0,0,14.707,0H.639A.639.639,0,0,0,0,.639V9.592a.639.639,0,0,0,.639.639H14.707a.639.639,0,0,0,.639-.639V7.674h1.918a.639.639,0,0,0,.639-.639v-3.8A.64.64,0,0,0,17.265,2.592Zm-3.2,6.361H1.279V1.279H14.068V8.952Zm2.558-2.558H15.346V3.87h1.279Z" transform="translate(0 0)"/></g><g transform="translate(1.918 2.558)"><g transform="translate(0)"><path class="a" d="M.639,0A.639.639,0,0,0,0,.639V4.476a.639.639,0,1,0,1.279,0V.639A.64.64,0,0,0,.639,0Z" transform="translate(1)"/><path class="a" d="M.639,0A.639.639,0,0,0,0,.639V4.476a.639.639,0,1,0,1.279,0V.639A.64.64,0,0,0,.639,0Z" transform="translate(3)"/><path class="b" d="M.639,0A.639.639,0,0,0,0,.639V4.476a.639.639,0,1,0,1.279,0V.639A.64.64,0,0,0,.639,0Z" transform="translate(5)"/><path class="b" d="M.639,0A.639.639,0,0,0,0,.639V4.476a.639.639,0,1,0,1.279,0V.639A.64.64,0,0,0,.639,0Z" transform="translate(7)"/><path class="b" d="M.639,0A.639.639,0,0,0,0,.639V4.476a.639.639,0,1,0,1.279,0V.639A.64.64,0,0,0,.639,0Z" transform="translate(9)"/></g></g></g></svg>