<svg xmlns="http://www.w3.org/2000/svg" width="18.073" height="17.12" viewBox="0 0 18.073 17.12"><defs><style>.a{fill:#fff;stroke:#fff;stroke-width:0.2px;}</style></defs><g transform="translate(0.1 0.1)"><path class="a" d="M16.384,16.356V14.9a1.383,1.383,0,0,0,.894-1.36,1.316,1.316,0,0,0-1.192-1.41,1.316,1.316,0,0,0-1.192,1.41,1.383,1.383,0,0,0,.894,1.36v1.46H14.3V7.614a.281.281,0,0,0-.165-.252l-2.218-1.05V4.794a.285.285,0,0,0-.216-.271L7.745,3.453V.282A.29.29,0,0,0,7.447,0H1.489a.29.29,0,0,0-.3.282V16.356H0v.564H17.873v-.564Zm-9.234,0H1.787v-.564H4.468v-.564H1.787V14.1H4.468v-.564H1.787V12.408H4.468v-.564H1.787V10.716H4.468v-.564H1.787V9.024H4.468V8.46H1.787V7.332H4.468V6.768H1.787V5.64H4.468V5.076H1.787V3.948H4.468V3.384H1.787V2.256H4.468V1.692H1.787V.564H7.149Zm4.17,0H7.745v-.564H9.83v-.564H7.745V14.1H9.83v-.564H7.745V12.408H9.83v-.564H7.745V10.716H9.83v-.564H7.745V9.024H9.83V8.46H7.745V7.332H9.83V6.768H7.745V5.64H9.83V5.076H7.745V4.04l3.575.967Zm2.383,0H11.915v-.564h.894v-.564h-.894V14.1h.894v-.564h-.894V12.408h.894v-.564h-.894V10.716h.894v-.564h-.894V9.024h.894V8.46h-.894V6.942l1.787.846Zm2.085-2.1a.957.957,0,0,1-.3-.725c0-.459.273-.846.6-.846s.6.387.6.846a.959.959,0,0,1-.3.725v-.443h-.6Z"/></g></svg>