<svg xmlns="http://www.w3.org/2000/svg" width="15.664" height="15.664" viewBox="0 0 15.664 15.664"><defs><style>.a{fill:#4e2c90;}</style></defs><path class="a" d="M7.832,0a7.832,7.832,0,1,0,7.832,7.832A7.832,7.832,0,0,0,7.832,0Zm0,14.545a6.713,6.713,0,1,1,6.713-6.713A6.713,6.713,0,0,1,7.832,14.545Z"/><g transform="translate(3.713 3.713)"><path class="a" d="M121.2,113.331a.559.559,0,0,0-.5,0h0l-4.747,2.373a.56.56,0,0,0-.251.251l-2.373,4.747a.559.559,0,0,0,.75.75l4.747-2.373a.56.56,0,0,0,.251-.251l2.373-4.747A.559.559,0,0,0,121.2,113.331Zm-6.118,6.369,1.275-2.551,1.275,1.275Zm3.342-2.066-1.275-1.275,2.551-1.275Z" transform="translate(-113.269 -113.272)"/></g></svg>