<svg xmlns="http://www.w3.org/2000/svg" width="9.348" height="10.824" viewBox="0 0 9.348 10.824"><defs><style>.a{fill:#fff;}</style></defs><g transform="translate(-32)"><g transform="translate(32)"><g transform="translate(0)"><path class="a" d="M38.888,7.872h-5.9A.984.984,0,0,1,32,6.888V0h.984V6.888h5.9Z" transform="translate(-32 2.952)"/><path class="a" d="M123.729,94.189h-5.412a.984.984,0,0,1-.984-.984V86.317a.984.984,0,0,1,.984-.984h5.412a.984.984,0,0,1,.984.984V93.2A.984.984,0,0,1,123.729,94.189Zm0-7.872h-5.412V93.2h5.412Z" transform="translate(-115.365 -85.333)"/></g></g></g></svg>