<svg xmlns="http://www.w3.org/2000/svg" width="14.238" height="14.238" viewBox="0 0 14.238 14.238"><defs><style>.a{fill:#fff;stroke:#fff;stroke-width:0.15px;}</style></defs><g transform="translate(0.075 0.075)"><g transform="translate(0 0)"><path class="a" d="M14.08,3.043a.425.425,0,0,0-.018-.087.444.444,0,0,0-.033-.082.325.325,0,0,0-.015-.037L12.253.2a.443.443,0,0,0-.366-.2H2.2a.441.441,0,0,0-.366.2L.074,2.838a.271.271,0,0,0-.015.037.444.444,0,0,0-.033.082.425.425,0,0,0-.018.087A.239.239,0,0,0,0,3.082V13.207a.881.881,0,0,0,.88.88H13.207a.881.881,0,0,0,.88-.88V3.082A.274.274,0,0,0,14.08,3.043ZM11.65.88l1.175,1.761H8.738L8.444.88ZM6.536.88H7.551l.294,1.761h-1.6ZM6.163,3.522H7.924V5.113l-.741-.248a.455.455,0,0,0-.278,0l-.741.248ZM2.437.88H5.644L5.35,2.641H1.263Zm10.77,12.767v-.44H.88V3.522h4.4v2.2a.437.437,0,0,0,.183.357.447.447,0,0,0,.4.062l1.182-.394,1.182.394a.447.447,0,0,0,.139.023.442.442,0,0,0,.44-.44v-2.2h4.4v9.685h0Z" transform="translate(0 0)"/></g><g transform="translate(1.601 9.744)"><path class="a" d="M66.8,352H64.4a.4.4,0,0,0,0,.8h2.4a.4.4,0,1,0,0-.8Z" transform="translate(-64 -352)"/></g><g transform="translate(1.601 11.686)"><path class="a" d="M65.6,416H64.4a.4.4,0,0,0,0,.8h1.2a.4.4,0,0,0,0-.8Z" transform="translate(-64 -416)"/></g></g></svg>