<svg xmlns="http://www.w3.org/2000/svg" width="13.504" height="13.504" viewBox="0 0 13.504 13.504">
    <defs>
        <style>
            .prefix__cls-1{fill:#fff;stroke:#fff;stroke-width:.5px}
        </style>
    </defs>
    <g id="prefix__download" transform="translate(.25 .25)">
        <path id="prefix__Path_30709" d="M240.406 9.211A.407.407 0 0 1 240 8.8V.406a.406.406 0 0 1 .813 0V8.8a.407.407 0 0 1-.407.411zm0 0" class="prefix__cls-1" data-name="Path 30709" transform="translate(-233.904)"/>
        <path id="prefix__Path_30710" d="M157.245 248.3a.4.4 0 0 1-.287-.119l-2.167-2.167a.407.407 0 0 1 .575-.575l1.88 1.88 1.88-1.88a.407.407 0 0 1 .575.575l-2.167 2.167a.407.407 0 0 1-.289.119zm0 0" class="prefix__cls-1" data-name="Path 30710" transform="translate(-150.743 -239.086)"/>
        <path id="prefix__Path_30711" d="M11.514 345.667H1.49a1.491 1.491 0 0 1-1.49-1.49v-2.438a.406.406 0 0 1 .813 0v2.438a.678.678 0 0 0 .677.677h10.024a.678.678 0 0 0 .677-.677v-2.438a.406.406 0 0 1 .813 0v2.438a1.491 1.491 0 0 1-1.49 1.49zm0 0" class="prefix__cls-1" data-name="Path 30711" transform="translate(0 -332.663)"/>
    </g>
</svg>
