<svg xmlns="http://www.w3.org/2000/svg" width="18.819" height="18.82" viewBox="0 0 18.819 18.82"><g transform="translate(0)"><path d="M15.463,20.016H3.552A2.555,2.555,0,0,1,1,17.463V5.552A2.555,2.555,0,0,1,3.552,3H9.508a.851.851,0,0,1,0,1.7H3.552a.852.852,0,0,0-.851.851V17.463a.852.852,0,0,0,.851.851H15.463a.852.852,0,0,0,.851-.851V11.508a.851.851,0,1,1,1.7,0v5.956A2.555,2.555,0,0,1,15.463,20.016Z" transform="translate(-1 -1.195)"/><path d="M18.06.879a2.656,2.656,0,0,1,1.878,4.533l-8.082,8.082a.851.851,0,0,1-.4.224l-3.4.851a.851.851,0,0,1-1.032-1.032l.851-3.4a.851.851,0,0,1,.224-.4l8.082-8.082A2.638,2.638,0,0,1,18.06.879ZM10.819,12.125l7.916-7.916A.954.954,0,1,0,17.386,2.86L9.47,10.776l-.45,1.8Z" transform="translate(-1.895 -0.879)"/></g></svg>