<svg id="Component_618_1" data-name="Component 618 – 1" xmlns="http://www.w3.org/2000/svg" xmlns:xlink="http://www.w3.org/1999/xlink" width="18" height="18" viewBox="0 0 18 18">
  <defs>
    <clipPath id="clip-path">
      <rect id="Rectangle_23666" data-name="Rectangle 23666" width="18" height="18" rx="1" transform="translate(0.295)" fill="#4e2c90"/>
    </clipPath>
  </defs>
  <g id="Group_121470" data-name="Group 121470" transform="translate(-0.295)">
    <g id="Mask_Group_1" data-name="Mask Group 1" clip-path="url(#clip-path)">
      <g id="noun-edit-1611749" transform="translate(3.139 2.411)">
        <path id="Path_183778" data-name="Path 183778" d="M17.67,4.521l-.035-.035L16.164,3.015A1.2,1.2,0,0,0,14.467,3l-.017.017L6.139,11.343a.36.36,0,0,0-.1.173l-.727,3.428a.31.31,0,0,0,.087.312.342.342,0,0,0,.242.1h.069l3.428-.727a.359.359,0,0,0,.173-.1l8.328-8.311a1.186,1.186,0,0,0,.035-1.7ZM8.892,13.957l-2.8.606.606-2.8,6.32-6.32,2.2,2.2ZM17.151,5.7,15.714,7.153,13.5,4.937,14.952,3.5a.5.5,0,0,1,.71-.017l1.489,1.489a.5.5,0,0,1,0,.727Z" transform="translate(-5.294 -2.655)" fill="#4e2c90" stroke="#4e2c90" stroke-width="0.4"/>
      </g>
    </g>
  </g>
</svg>
