<svg xmlns="http://www.w3.org/2000/svg" width="13.217" height="13.713" viewBox="0 0 13.217 13.713"><defs><style>.a{fill:#8892a5;stroke:#8892a5;stroke-width:0.25px;}</style></defs><g transform="translate(-9.589 0.125)"><g transform="translate(9.722)"><path class="a" d="M22.618.281A.511.511,0,0,0,22.162,0H10.233a.511.511,0,0,0-.412.815l4.672,6.34v5.8a.511.511,0,0,0,.511.511h2.386a.511.511,0,0,0,.511-.511v-5.8L22.574.815A.511.511,0,0,0,22.618.281Zm-5.64,6.4a.51.51,0,0,0-.1.3V12.44H15.516V6.987a.511.511,0,0,0-.1-.3L11.245,1.022h9.906Z" transform="translate(-9.722 0)"/></g></g></svg>