<svg xmlns="http://www.w3.org/2000/svg" width="13.631" height="16.502" viewBox="0 0 13.631 16.502"><defs><style>.a{fill:#d95128;}</style></defs><path class="a" d="M17.917,20.245V5.275a.766.766,0,0,0-1.532,0v14.97a.766.766,0,0,0,1.532,0Zm-3.025,0V8.338a.766.766,0,0,0-1.532,0V20.245a.766.766,0,0,0,1.532,0Zm-3.025,0V11.4a.766.766,0,0,0-1.532,0v8.844a.766.766,0,0,0,1.532,0Zm-3.025,0V14.464a.766.766,0,0,0-1.532,0v5.781a.766.766,0,0,0,1.532,0Zm-3.025,0v-3.1a.766.766,0,0,0-1.532,0v3.1a.766.766,0,0,0,1.532,0Z" transform="translate(-4.286 -4.509)"/></svg>