<svg xmlns="http://www.w3.org/2000/svg" width="15.107" height="17.148" viewBox="0 0 15.107 17.148"><defs><style>.a{fill:#fff;}</style></defs><g transform="translate(-30.505)"><path class="a" d="M45.13,2.7A2.237,2.237,0,0,1,42.979.5L42.972,0H33.145l-.006.5A2.237,2.237,0,0,1,30.987,2.7l-.482.019V6.764A10.262,10.262,0,0,0,35.444,15.6l2.614,1.546L40.673,15.6a10.262,10.262,0,0,0,4.939-8.838V2.723Zm-.521,4.059a9.254,9.254,0,0,1-4.446,7.974l-2.1,1.244-2.1-1.244a9.254,9.254,0,0,1-4.446-7.974V3.653A3.241,3.241,0,0,0,34.1,1h7.921a3.241,3.241,0,0,0,2.59,2.649Z" transform="translate(0 0)"/><path class="a" d="M195.566,171.818h-1v1.619h-1.619v1h1.619v1.619h1V174.44h1.619v-1h-1.619Z" transform="translate(-157.006 -166.071)"/><path class="a" d="M129.516,104a4.389,4.389,0,1,0,4.389,4.389A4.394,4.394,0,0,0,129.516,104Zm0,7.774a3.385,3.385,0,1,1,3.385-3.385A3.389,3.389,0,0,1,129.516,111.774Z" transform="translate(-91.457 -100.521)"/></g></svg>