<svg xmlns="http://www.w3.org/2000/svg" width="28.721" height="28.719" viewBox="0 0 28.721 28.719"><defs><style>.a{fill:#8892a5;}</style></defs><g transform="translate(0 0)"><g transform="translate(0 10.763)"><g transform="translate(0)"><path class="a" d="M194.489,194.634l2.383-2.384a1.212,1.212,0,1,1,1.714,1.714l-2.383,2.384a6.5,6.5,0,1,0,9.195,9.195l2.384-2.383a1.212,1.212,0,0,1,1.714,1.714l-2.389,2.389a8.926,8.926,0,0,1-12.618-12.629Z" transform="translate(-191.895 -191.895)"/></g></g><g transform="translate(10.765 0)"><path class="a" d="M.355,5l2.389-2.39A8.926,8.926,0,0,1,15.362,15.235l-2.384,2.384A1.212,1.212,0,0,1,11.264,15.9l2.384-2.384A6.5,6.5,0,0,0,4.453,4.326L2.069,6.71A1.212,1.212,0,1,1,.355,5Z" transform="translate(0 -0.019)"/></g><g transform="translate(10.078 10.077)"><g transform="translate(0)"><path class="a" d="M180.007,186.157l6.141-6.141a1.212,1.212,0,0,1,1.714,1.714l-6.141,6.141a1.212,1.212,0,0,1-1.714-1.714Z" transform="translate(-179.652 -179.66)"/></g></g></g></svg>