<svg xmlns="http://www.w3.org/2000/svg" width="29.212" height="29.121" viewBox="0 0 29.212 29.121"><defs><style>.a{fill:#8892a5;}.a,.b{stroke:#f7f8fa;stroke-width:0.4px;}.b{fill:#f44336;}</style></defs><g transform="translate(0.2 0.2)"><g transform="translate(0 0)"><path class="a" d="M182.356,18.479a1.305,1.305,0,0,1-.923-2.228l2.637-2.637a6.261,6.261,0,0,0,1.863-4.482,6.352,6.352,0,0,0-6.345-6.345,6.256,6.256,0,0,0-4.478,1.859L172.47,7.287a1.305,1.305,0,1,1-1.846-1.846L173.261,2.8A8.843,8.843,0,0,1,179.589.176a8.965,8.965,0,0,1,8.956,8.956,8.847,8.847,0,0,1-2.633,6.333L183.278,18.1A1.3,1.3,0,0,1,182.356,18.479Zm0,0" transform="translate(-159.824 -0.176)"/><path class="a" d="M8.959,188.7A8.965,8.965,0,0,1,0,179.739a8.847,8.847,0,0,1,2.633-6.333l2.633-2.633a1.305,1.305,0,0,1,1.846,1.846l-2.637,2.637a6.261,6.261,0,0,0-1.864,4.483,6.352,6.352,0,0,0,6.345,6.345,6.256,6.256,0,0,0,4.478-1.859l2.641-2.641a1.305,1.305,0,1,1,1.846,1.846l-2.637,2.637A8.843,8.843,0,0,1,8.959,188.7Zm0,0" transform="translate(-0.004 -159.974)"/><path class="a" d="M259.867,133.237a1.305,1.305,0,0,1-.923-2.228l2.454-2.454a1.305,1.305,0,1,1,1.846,1.846l-2.454,2.454A1.3,1.3,0,0,1,259.867,133.237Zm0,0" transform="translate(-242.739 -120.339)"/><path class="a" d="M129.306,263.8a1.306,1.306,0,0,1-.923-2.229l2.454-2.454a1.305,1.305,0,1,1,1.846,1.846l-2.454,2.454A1.3,1.3,0,0,1,129.306,263.8Zm0,0" transform="translate(-120.167 -242.911)"/></g><path class="b" d="M27.415,28.893a1.3,1.3,0,0,1-.923-.382L.383,2.4A1.305,1.305,0,0,1,2.229.555l26.11,26.109a1.306,1.306,0,0,1-.923,2.229Zm0,0" transform="translate(0 -0.172)"/></g></svg>