<svg xmlns="http://www.w3.org/2000/svg" width="10.669" height="14.026" viewBox="0 0 10.669 14.026"><defs><style>.a{fill:#4e2c90;stroke:#4e2c90;stroke-width:0.6px;}</style></defs><g transform="translate(-729.781 -274.067)"><g transform="translate(728.571 274.367)"><path class="a" d="M8.811,200.391H1.259A1.26,1.26,0,0,1,0,199.132v-5.874A1.26,1.26,0,0,1,1.259,192H8.811a1.26,1.26,0,0,1,1.259,1.259v5.874A1.26,1.26,0,0,1,8.811,200.391Zm-7.552-7.552a.42.42,0,0,0-.42.42v5.874a.42.42,0,0,0,.42.42H8.811a.42.42,0,0,0,.42-.42v-5.874a.42.42,0,0,0-.42-.42Zm0,0" transform="translate(1.51 -186.965)"/><path class="a" d="M70.293,5.874a.42.42,0,0,1-.42-.42v-2.1a2.517,2.517,0,0,0-5.035,0v2.1a.42.42,0,1,1-.839,0v-2.1a3.356,3.356,0,1,1,6.713,0v2.1A.42.42,0,0,1,70.293,5.874Zm0,0" transform="translate(-60.812)"/></g></g></svg>