<svg xmlns="http://www.w3.org/2000/svg" width="33.654" height="23.691" viewBox="0 0 33.654 23.691"><defs><style>.a{fill:#8892a5;stroke:#8892a5;stroke-width:0.45px;}</style></defs><g transform="translate(0.229 -76.575)"><g transform="translate(6.64 95.06)"><circle class="a" cx="1.107" cy="1.107" r="1.107" transform="translate(0 0)"/></g><g transform="translate(24.347 95.06)"><circle class="a" cx="1.107" cy="1.107" r="1.107" transform="translate(0 0)"/></g><g transform="translate(0 76.8)"><path class="a" d="M63.607,323.481a3.873,3.873,0,1,1,3.873-3.873,3.873,3.873,0,0,1-3.873,3.873Zm0-6.64a2.767,2.767,0,1,0,2.767,2.767A2.767,2.767,0,0,0,63.607,316.841Z" transform="translate(-55.861 -300.24)"/><path class="a" d="M336.674,323.481a3.873,3.873,0,1,1,3.873-3.873,3.873,3.873,0,0,1-3.873,3.873Zm0-6.64a2.767,2.767,0,1,0,2.767,2.767,2.767,2.767,0,0,0-2.767-2.767Z" transform="translate(-311.22 -300.24)"/><path class="a" d="M20.387,320.16h-1.66a1.662,1.662,0,0,1-1.66-1.66v-2.213a.553.553,0,0,1,.553-.553H41.414a.553.553,0,0,1,0,1.107H18.174v1.66a.554.554,0,0,0,.553.553h1.66a.553.553,0,0,1,0,1.107Z" transform="translate(-15.96 -300.239)"/><path class="a" d="M438.52,320.162h-2.767a.553.553,0,1,1,0-1.107h2.767a.554.554,0,0,0,.553-.553v-2.213a.553.553,0,0,1,1.107,0V318.5a1.662,1.662,0,0,1-1.66,1.66Z" transform="translate(-406.979 -300.241)"/><path class="a" d="M173.754,368.041H162.687a.553.553,0,1,1,0-1.107h11.067a.553.553,0,1,1,0,1.107Z" transform="translate(-151.62 -348.12)"/><path class="a" d="M343.866,165.22a.553.553,0,0,1-.553-.553v-5.113a.554.554,0,0,0-.142-.368l-3.813-4.294a.554.554,0,0,0-.416-.185h-5.035v9.407h2.767a.553.553,0,0,1,0,1.107h-3.32a.553.553,0,0,1-.553-.553V154.153a.553.553,0,0,1,.553-.553h5.589a1.66,1.66,0,0,1,1.244.558L344,158.45a1.658,1.658,0,0,1,.422,1.1v5.113a.553.553,0,0,1-.553.553Z" transform="translate(-311.219 -148.62)"/><path class="a" d="M22.134,93.4H.553A.553.553,0,0,1,0,92.847v-8.3a.553.553,0,1,1,1.107,0v7.747H21.581V78.46a.554.554,0,0,0-.553-.553H1.66a.554.554,0,0,0-.553.553v1.66A.553.553,0,0,1,0,80.12V78.46A1.662,1.662,0,0,1,1.66,76.8H21.027a1.662,1.662,0,0,1,1.66,1.66V92.847a.553.553,0,0,1-.553.553Z" transform="translate(0 -76.8)"/><path class="a" d="M.553,154.723a.558.558,0,0,1-.393-.16.643.643,0,0,1-.116-.183.523.523,0,0,1,0-.42.57.57,0,0,1,.116-.183.639.639,0,0,1,.182-.116.555.555,0,0,1,.6.116.582.582,0,0,1,.16.393.554.554,0,0,1-.044.21.648.648,0,0,1-.116.183.55.55,0,0,1-.393.16Z" transform="translate(0 -148.636)"/><path class="a" d="M391.747,161.9H385.66a1.662,1.662,0,0,1-1.66-1.66v-6.087a.553.553,0,0,1,1.107,0v6.087a.554.554,0,0,0,.553.553h6.087a.553.553,0,0,1,0,1.107Z" transform="translate(-359.099 -148.62)"/></g></g></svg>