<svg xmlns="http://www.w3.org/2000/svg" width="13.395" height="17.789" viewBox="0 0 13.395 17.789"><defs><style>.a{fill:#fff;stroke:#fff;stroke-width:0.25px;}</style></defs><g transform="translate(4.125 0.125)"><path class="a" d="M7.218,1.191H4.4a2,2,0,0,0-3.655,0H-2.074A1.928,1.928,0,0,0-4,3.117v12.5a1.928,1.928,0,0,0,1.926,1.926H7.218a1.929,1.929,0,0,0,1.926-1.926V3.117A1.929,1.929,0,0,0,7.218,1.191Zm-6.156.877a.438.438,0,0,0,.428-.344,1.115,1.115,0,0,1,2.164,0,.438.438,0,0,0,.428.344h.869v.385A1.05,1.05,0,0,1,3.9,3.5H1.242A1.05,1.05,0,0,1,.193,2.453V2.068ZM8.268,15.613a1.05,1.05,0,0,1-1.049,1.049H-2.074a1.05,1.05,0,0,1-1.049-1.049V3.117A1.05,1.05,0,0,1-2.074,2.068H-.684v.385A1.928,1.928,0,0,0,1.242,4.379H3.9A1.928,1.928,0,0,0,5.829,2.453V2.068H7.218A1.05,1.05,0,0,1,8.268,3.117Zm0,0" transform="translate(0 0)"/><path class="a" d="M105.344,227.567l-2.879,2.811L101,228.951a.438.438,0,0,0-.619.622l.006.006,1.768,1.726a.439.439,0,0,0,.613,0l3.185-3.11a.438.438,0,0,0-.613-.627Zm0,0" transform="translate(-100.602 -219.465)"/></g></svg>