<svg xmlns="http://www.w3.org/2000/svg" width="12.931" height="16.706" viewBox="0 0 12.931 16.706"><defs><style>.a{fill:#fff;}</style></defs><path class="a" d="M69.543,7.9,67.179,5.54V1.468A1.47,1.47,0,0,0,65.71,0h-6.4a1.47,1.47,0,0,0-1.468,1.468V15.237a1.47,1.47,0,0,0,1.468,1.468H69.3a.489.489,0,0,0,.48-.393l.912-4.54A4.264,4.264,0,0,0,69.543,7.9ZM59.315.979h6.4a.49.49,0,0,1,.489.489V7.781a1.534,1.534,0,0,0-2.165,2.173L65.91,11.9a4.157,4.157,0,0,0-1.311,1.7H58.826V1.468A.49.49,0,0,1,59.315.979Zm-.489,14.258v-.653h5.456a7,7,0,0,0-.157,1.142h-4.81A.49.49,0,0,1,58.826,15.237ZM69.732,11.58,68.9,15.727H65.107a4.491,4.491,0,0,1,.876-2.54,2.484,2.484,0,0,1,.881-.723.485.485,0,0,0,.178-.8l-2.311-2.4a.555.555,0,0,1,.783-.786c1.035,1.058.532.55,2.342,2.361a.489.489,0,0,0,.692-.692L67.179,8.779V6.924L68.851,8.6A3.287,3.287,0,0,1,69.732,11.58Z" transform="translate(-57.847)"/></svg>