<svg xmlns="http://www.w3.org/2000/svg" width="16.091" height="16.094" viewBox="0 0 16.091 16.094"><defs><style>.a{fill:#fff;stroke:#fff;stroke-width:0.09px;}</style></defs><g transform="translate(-0.005 0.045)"><g transform="translate(0.05)"><path class="a" d="M13.884,57.79H7.647V51.554a.452.452,0,0,0-.454-.454,7.144,7.144,0,1,0,7.144,7.144A.456.456,0,0,0,13.884,57.79Zm-6.69,6.69A6.236,6.236,0,0,1,6.74,52.024v6.22a.452.452,0,0,0,.454.454h6.22A6.242,6.242,0,0,1,7.194,64.48Z" transform="translate(-0.05 -49.383)"/><path class="a" d="M257.747,7.12A7.143,7.143,0,0,0,250.6,0a.452.452,0,0,0-.454.454v6.69a.452.452,0,0,0,.454.454h6.69a.452.452,0,0,0,.454-.454Zm-6.69-.427V.927a6.241,6.241,0,0,1,5.766,5.766h-5.766Z" transform="translate(-241.746)"/></g></g></svg>