<svg xmlns="http://www.w3.org/2000/svg" width="20.795" height="29.575" viewBox="0 0 20.795 29.575"><defs><style>.a{fill:#4e2c90;}</style></defs><g transform="translate(-76)"><g transform="translate(76)"><path class="a" d="M86.4,0a10.4,10.4,0,0,0-8.845,15.865l8.254,13.3a.866.866,0,0,0,.736.41h.007a.866.866,0,0,0,.736-.421l8.043-13.429A10.4,10.4,0,0,0,86.4,0Zm7.444,14.835L86.529,27.044l-7.5-12.092a8.67,8.67,0,1,1,14.816-.117Z" transform="translate(-76)"/></g><g transform="translate(81.199 5.199)"><path class="a" d="M171.2,90a5.2,5.2,0,1,0,5.2,5.2A5.2,5.2,0,0,0,171.2,90Zm0,8.676A3.477,3.477,0,1,1,174.67,95.2,3.48,3.48,0,0,1,171.2,98.676Z" transform="translate(-166 -90)"/></g></g></svg>