<svg xmlns="http://www.w3.org/2000/svg" width="24.092" height="24.092" viewBox="0 0 24.092 24.092">
  <g id="Group_116609" data-name="Group 116609" transform="translate(-118 552.842) rotate(-90)">
    <circle id="Ellipse_217" data-name="Ellipse 217" cx="12.046" cy="12.046" r="12.046" transform="translate(528.751 118)" fill="#f3f5f8"/>
    <g id="x-mark" transform="translate(540.922 124.746) rotate(45)">
      <path id="Path_30744" data-name="Path 30744" d="M152.984,153.595a.607.607,0,0,1-.431-.178l-6.089-6.089a.609.609,0,1,1,.861-.861l6.089,6.089a.609.609,0,0,1-.43,1.039Zm0,0" transform="translate(-146.286 -146.288)" fill="#4e2c90" stroke="#4e2c90" stroke-width="0.5"/>
      <path id="Path_30745" data-name="Path 30745" d="M146.9,153.593a.609.609,0,0,1-.43-1.039l6.089-6.089a.609.609,0,1,1,.861.861l-6.089,6.089A.607.607,0,0,1,146.9,153.593Zm0,0" transform="translate(-146.286 -146.286)" fill="#4e2c90" stroke="#4e2c90" stroke-width="0.5"/>
    </g>
  </g>
</svg>
