<svg xmlns="http://www.w3.org/2000/svg" width="13.35" height="13.35" viewBox="0 0 13.35 13.35"><defs><style>.a{fill:#8892a5;stroke:#8892a5;}</style></defs><g transform="translate(0.5 0.5)"><path class="a" d="M5.217,0a5.217,5.217,0,1,0,5.217,5.217A5.223,5.223,0,0,0,5.217,0Zm0,9.521a4.3,4.3,0,1,1,4.3-4.3A4.309,4.309,0,0,1,5.217,9.521Z"/><g transform="translate(8.122 8.122)"><path class="a" d="M340.8,340.159l-3.316-3.316a.456.456,0,0,0-.645.645l3.316,3.316a.456.456,0,1,0,.645-.645Z" transform="translate(-336.708 -336.71)"/></g></g></svg>