<svg xmlns="http://www.w3.org/2000/svg" width="18.779" height="13.703" viewBox="0 0 18.779 13.703"><defs><style>.a{fill:#fff;stroke:#645098;stroke-width:0.11px;}</style></defs><g transform="translate(0.055 0.091)"><path class="a" d="M412.393,70.748a.547.547,0,0,0-.773.773,8.244,8.244,0,0,1,0,11.653.547.547,0,0,0,.773.773,9.338,9.338,0,0,0,0-13.2Z" transform="translate(-396.457 -70.587)"/><path class="a" d="M366.973,116.167a.547.547,0,0,0-.774.773,5.9,5.9,0,0,1,0,8.341.547.547,0,0,0,.774.773,6.995,6.995,0,0,0,0-9.888Z" transform="translate(-352.693 -114.351)"/><path class="a" d="M321.52,161.619a.547.547,0,0,0-.773.773,3.556,3.556,0,0,1,0,5.027.547.547,0,0,0,.773.773,4.65,4.65,0,0,0,0-6.574Z" transform="translate(-308.897 -158.146)"/><path class="a" d="M1.094,77.348a8.185,8.185,0,0,1,2.412-5.827.547.547,0,0,0-.773-.773,9.338,9.338,0,0,0,0,13.2.547.547,0,0,0,.773-.773A8.185,8.185,0,0,1,1.094,77.348Z" transform="translate(0 -70.588)"/><path class="a" d="M65.313,121.111a5.859,5.859,0,0,1,1.726-4.171.547.547,0,0,0-.773-.773,6.995,6.995,0,0,0,0,9.888.547.547,0,0,0,.773-.773A5.859,5.859,0,0,1,65.313,121.111Z" transform="translate(-61.877 -114.351)"/><path class="a" d="M130.622,161.62a.547.547,0,0,0-.773,0,4.65,4.65,0,0,0,0,6.574.547.547,0,0,0,.773-.773,3.556,3.556,0,0,1,0-5.027A.547.547,0,0,0,130.622,161.62Z" transform="translate(-123.803 -158.146)"/><path class="a" d="M195.1,192.8a2.3,2.3,0,1,0,2.3,2.3A2.307,2.307,0,0,0,195.1,192.8Zm0,3.515a1.21,1.21,0,1,1,1.211-1.21A1.212,1.212,0,0,1,195.1,196.315Z" transform="translate(-185.77 -188.344)"/></g></svg>