<svg xmlns="http://www.w3.org/2000/svg" width="21.5" height="7.96" viewBox="0 0 21.5 7.96"><defs><style>.a,.b{fill:#fff;}.a{stroke:#62519a;stroke-width:0.5px;}</style></defs><g transform="translate(0.25 0.25)"><path class="a" d="M23.475,24.957H3.992a.759.759,0,0,0-.759.759v5.943a.759.759,0,0,0,.759.759H23.474a.759.759,0,0,0,.759-.759V25.716a.758.758,0,0,0-.758-.759Zm-.759,5.974L4.75,30.9V26.474H22.716Z" transform="translate(-3.233 -24.957)"/><ellipse class="b" cx="0.771" cy="0.771" rx="0.771" ry="0.771" transform="translate(2.521 2.964) rotate(-0.229)"/><ellipse class="b" cx="0.771" cy="0.771" rx="0.771" ry="0.771" transform="translate(5.157 2.964) rotate(-0.229)"/><ellipse class="b" cx="0.771" cy="0.771" rx="0.771" ry="0.771" transform="translate(7.794 2.965) rotate(-0.229)"/><path class="b" d="M429.065,242.315a.771.771,0,1,0-.771-.771A.771.771,0,0,0,429.065,242.315Z" transform="translate(-412.277 -237.814)"/></g></svg>