<svg id="Component_617_1" data-name="Component 617 – 1" xmlns="http://www.w3.org/2000/svg" width="18" height="18" viewBox="0 0 18 18">
  <rect id="Rectangle_23681" data-name="Rectangle 23681" width="18" height="18" fill="rgba(255,255,255,0)"/>
  <g id="noun-open-447056" transform="translate(3 3.338)">
    <path id="Path_183809" data-name="Path 183809" d="M221.018,145.7a.649.649,0,0,0-.648.648v3.628a.389.389,0,0,1-.389.389h-8.293a.389.389,0,0,1-.389-.389v-8.293a.389.389,0,0,1,.389-.389h3.628a.648.648,0,1,0,0-1.3h-3.628A1.686,1.686,0,0,0,210,141.686v8.293a1.686,1.686,0,0,0,1.684,1.685h8.293a1.686,1.686,0,0,0,1.685-1.685v-3.628a.649.649,0,0,0-.648-.648Z" transform="translate(-210.004 -140.002)" fill="#4e2c90"/>
    <path id="Path_183810" data-name="Path 183810" d="M341.474,140h-3.11a.648.648,0,0,0,0,1.3h1.546l-4.025,4.025a.648.648,0,1,0,.916.916l4.025-4.025v1.546a.648.648,0,0,0,1.3,0v-3.11A.648.648,0,0,0,341.474,140Z" transform="translate(-330.46 -140)" fill="#4e2c90"/>
  </g>
</svg>
