<svg xmlns="http://www.w3.org/2000/svg" width="19.86" height="19.86" viewBox="0 0 19.86 19.86"><defs><style>.a{fill:#fff;stroke:#61529a;stroke-width:0.11px;}</style></defs><g transform="translate(0.055 0.055)"><g transform="translate(3.474 3.474)"><path class="a" d="M96.473,102.873a6.4,6.4,0,1,1,6.4-6.4A6.408,6.408,0,0,1,96.473,102.873Zm0-11.644a5.243,5.243,0,1,0,5.243,5.243A5.249,5.249,0,0,0,96.473,91.229Z" transform="translate(-90.072 -90.072)"/></g><g transform="translate(9.296)"><path class="a" d="M241,0h1.157V2.317H241Z" transform="translate(-241)"/></g><g transform="translate(4.436 1.034)"><path class="a" d="M0,0H1.157V2.317H0Z" transform="matrix(0.866, -0.5, 0.5, 0.866, 0, 0.579)"/></g><g transform="translate(1.034 4.437)"><path class="a" d="M0,0H1.157V2.317H0Z" transform="matrix(0.5, -0.866, 0.866, 0.5, 0, 1.002)"/></g><g transform="translate(0 9.296)"><path class="a" d="M0,241H2.317v1.157H0Z" transform="translate(0 -241)"/></g><g transform="translate(1.034 13.153)"><path class="a" d="M0,0H2.317V1.157H0Z" transform="matrix(0.866, -0.5, 0.5, 0.866, 0, 1.159)"/></g><g transform="translate(4.436 16.131)"><path class="a" d="M0,0H2.317V1.157H0Z" transform="matrix(0.5, -0.866, 0.866, 0.5, 0, 2.007)"/></g><g transform="translate(9.296 17.433)"><path class="a" d="M241,451.928h1.157v2.317H241Z" transform="translate(-241 -451.928)"/></g><g transform="translate(13.152 16.131)"><path class="a" d="M0,0H1.157V2.317H0Z" transform="matrix(0.866, -0.5, 0.5, 0.866, 0, 0.579)"/></g><g transform="translate(16.131 13.153)"><path class="a" d="M0,0H1.157V2.317H0Z" transform="matrix(0.5, -0.866, 0.866, 0.5, 0, 1.002)"/></g><g transform="translate(17.433 9.296)"><path class="a" d="M451.928,241h2.317v1.157h-2.317Z" transform="translate(-451.928 -241)"/></g><g transform="translate(16.131 4.436)"><path class="a" d="M0,0H2.317V1.157H0Z" transform="matrix(0.866, -0.5, 0.5, 0.866, 0, 1.159)"/></g><g transform="translate(13.153 1.034)"><path class="a" d="M0,0H2.317V1.157H0Z" transform="matrix(0.5, -0.866, 0.866, 0.5, 0, 2.007)"/></g><g transform="translate(9.296 11.822)"><path class="a" d="M240.989,306.478h1.158v1.157h-1.158Z" transform="translate(-240.989 -306.478)"/></g><g transform="translate(7.657 9.263)"><path class="a" d="M199.33,241.882l-.818-.818a3.133,3.133,0,0,1,4.435,0l-.818.818a1.976,1.976,0,0,0-2.8,0Z" transform="translate(-198.512 -240.144)"/></g><g transform="translate(6.022 6.949)"><path class="a" d="M156.923,182.561l-.818-.818a5.444,5.444,0,0,1,7.707,0l-.818.818a4.287,4.287,0,0,0-6.07,0Z" transform="translate(-156.105 -180.144)"/></g></g></svg>