<svg xmlns="http://www.w3.org/2000/svg" width="16.355" height="13.667" viewBox="0 0 16.355 13.667"><defs><style>.a{fill:#fff;}</style></defs><g transform="translate(0 -30.608)"><g transform="translate(0 30.608)"><path class="a" d="M16.355,40.814a4.708,4.708,0,0,0-.829-2.672,4.779,4.779,0,0,0-1.474-1.393,3.556,3.556,0,1,0-5.359-4.621,3.534,3.534,0,0,0-1.03,0A3.557,3.557,0,1,0,2.3,36.748,4.778,4.778,0,0,0,.829,38.141,4.709,4.709,0,0,0,0,40.814v1.979H3.43v1.482h9.495V42.793h3.43V40.814Zm-4.747-9.328a2.68,2.68,0,0,1,0,5.36h-.079l.006-.017a3.523,3.523,0,0,0,.115-.4l.007-.029c.008-.037.015-.074.022-.111,0-.018.006-.035.009-.053q.008-.05.015-.1c0-.023.006-.046.009-.07s.007-.059.01-.089,0-.061.007-.091,0-.048,0-.072q0-.078,0-.155s0-.008,0-.011,0,0,0-.006c0-.053,0-.106,0-.158,0-.015,0-.03,0-.046q0-.067-.01-.133l0-.03A3.541,3.541,0,0,0,9.6,32.388,2.688,2.688,0,0,1,11.608,31.486ZM7.25,33.134l.026-.009.081-.027.062-.019.045-.013.082-.021a2.664,2.664,0,0,1,1.265,0l.081.021.046.013L9,33.1l.081.028.025.009a2.688,2.688,0,0,1,1.72,2.1l0,.023c0,.033.009.066.013.1,0,.012,0,.024,0,.037,0,.03.005.061.007.091,0,.013,0,.026,0,.039q0,.059,0,.118s0,.007,0,.01,0,0,0,0c0,.038,0,.076,0,.114,0,.012,0,.024,0,.036q0,.055-.008.109c0,.014,0,.028,0,.042s-.006.047-.009.07-.005.036-.008.054-.009.055-.015.082-.01.048-.015.072l-.01.043q-.013.053-.028.106l-.012.042c-.006.02-.013.04-.019.06l-.016.048-.019.054q-.017.046-.036.09l-.017.04q-.016.037-.034.074l0,.009-.013.026q-.019.04-.04.079l-.016.03v0c-.015.028-.031.055-.047.082l-.019.032q-.026.043-.054.084l-.036.051-.031.043-.041.055-.029.037-.045.055-.029.033-.048.054-.03.031q-.04.042-.081.082l-.049.047-.035.032L9.9,37.7l-.03.025-.073.057-.02.015a2.674,2.674,0,0,1-3.191,0l-.02-.015-.073-.057-.03-.025L6.4,37.652l-.035-.031-.05-.047q-.042-.04-.081-.082l-.029-.031-.048-.054-.029-.033-.045-.055-.029-.037-.041-.054-.031-.043-.035-.051q-.028-.042-.054-.085l-.019-.032c-.016-.027-.032-.055-.048-.083L5.81,36.9c-.014-.026-.027-.052-.04-.079L5.756,36.8l0,0c-.012-.026-.024-.052-.035-.078L5.7,36.676q-.019-.046-.037-.092l-.018-.051-.018-.052-.018-.057q-.013-.043-.024-.086c-.005-.02-.01-.041-.015-.061l-.011-.048c0-.02-.009-.039-.013-.059s-.012-.062-.017-.093-.005-.034-.008-.051-.007-.05-.01-.075,0-.025,0-.037c0-.037-.006-.074-.009-.112,0-.011,0-.022,0-.032,0-.04,0-.08,0-.121s0-.086,0-.129c0-.012,0-.023,0-.035,0-.032,0-.064.007-.1,0-.011,0-.022,0-.033,0-.035.008-.069.013-.1l0-.02A2.688,2.688,0,0,1,7.25,33.134ZM2.067,34.166a2.679,2.679,0,0,1,4.683-1.779,3.541,3.541,0,0,0-2.112,2.889c0,.009,0,.017,0,.026q-.007.069-.01.138c0,.014,0,.028,0,.042,0,.055,0,.11,0,.166s0,.112,0,.168c0,.022,0,.045,0,.067s0,.064.007.1.006.057.009.085.006.049.009.074.009.064.015.1.007.038.01.057c.007.036.013.072.021.107l.008.035a3.516,3.516,0,0,0,.111.387l.008.024H4.747A2.683,2.683,0,0,1,2.067,34.166Zm2.1,5.6-.028.046c-.02.032-.04.065-.059.1l-.032.055L4,40.055l-.031.058-.047.092-.028.058c-.016.033-.031.065-.045.1l-.024.054c-.017.039-.033.079-.049.119l-.014.035q-.03.078-.058.156l-.012.036c-.014.04-.027.081-.04.121l-.017.056c-.01.034-.02.069-.03.1l-.016.062q-.013.05-.025.1l-.015.064c-.008.034-.015.068-.021.1s-.008.041-.012.062c-.007.037-.013.074-.019.112,0,.018-.006.035-.009.053-.008.055-.016.11-.022.165v0q-.008.075-.015.151H.878v-1.1a3.861,3.861,0,0,1,2.219-3.5,3.543,3.543,0,0,0,2.166.369c.027.038.054.076.082.113l.029.037c.028.035.056.071.085.1l.036.042q.041.047.083.092l.045.047L5.7,38.2l.03.03-.113.071-.018.012-.111.075-.038.027-.1.07-.03.023q-.061.046-.121.094l-.026.021-.094.079-.036.031-.092.083-.024.022q-.056.053-.11.107l-.028.029-.082.086-.032.035-.09.1-.014.016q-.05.059-.1.12l-.027.034-.072.094L4.35,39.5c-.031.042-.061.085-.091.128S4.2,39.717,4.166,39.765ZM4.308,43.4V42.3q0-.073,0-.146c0-.016,0-.032,0-.048,0-.032,0-.065.005-.1s0-.039.005-.058,0-.057.008-.085.005-.041.008-.062.007-.054.011-.08.007-.042.011-.063.008-.052.013-.077.009-.043.013-.065.01-.05.016-.074.011-.043.016-.065.012-.048.018-.072.012-.043.018-.065.013-.047.02-.071.014-.043.021-.065.015-.046.023-.069l.023-.064c.008-.023.016-.045.025-.068l.026-.063.027-.066.028-.063.029-.065.03-.062.032-.063.033-.061.034-.062.035-.06.036-.06.037-.059.038-.059.039-.058.04-.057.042-.056.042-.055.044-.055.044-.054.046-.053.046-.053.047-.052.048-.051.049-.05.05-.049.051-.048.052-.048.053-.046.054-.046.055-.045.056-.044.056-.042.058-.042.058-.04.06-.04.059-.038L6.163,39l.06-.036.064-.036.062-.034.066-.034.063-.032.05-.024a3.547,3.547,0,0,0,3.3,0l.05.024.064.032.065.034.063.034.063.036.061.037.061.038.06.039.059.04.058.041.057.042.057.043.055.044.055.045.054.046.053.047.052.047.052.049.05.049.05.05.048.05.048.052.046.052.046.054.044.054.044.055.042.055.042.057.04.057.04.058.038.058.037.059.036.06.035.061.034.061.033.061.032.063.031.062.029.064.028.063.027.066.026.064c.009.022.017.045.025.067s.016.043.023.065.015.046.023.069.014.043.021.065.014.047.02.071.013.043.018.065.012.048.018.072.011.043.016.065.01.05.016.074.009.043.013.065.009.051.013.077S12,41.7,12,41.72s.007.053.011.08.006.041.008.062.005.057.008.085,0,.039.005.058,0,.065.005.1c0,.016,0,.032,0,.048q0,.073,0,.146v1.1H4.308Zm8.6-1.482q-.013-.16-.037-.319c0-.017-.005-.033-.008-.05-.006-.038-.012-.076-.02-.114,0-.02-.008-.04-.012-.06s-.014-.069-.022-.1l-.014-.062q-.012-.051-.025-.1l-.016-.061c-.01-.035-.02-.07-.03-.1l-.017-.055c-.013-.041-.027-.082-.041-.123l-.012-.034q-.028-.079-.058-.156l-.014-.033c-.016-.04-.033-.08-.05-.12l-.024-.053c-.015-.033-.03-.066-.046-.1l-.028-.057-.047-.093-.031-.058-.051-.092-.031-.055c-.019-.033-.039-.066-.059-.1l-.028-.046q-.045-.071-.093-.141c-.03-.043-.06-.086-.091-.128l-.027-.036-.072-.094-.027-.034q-.049-.061-.1-.12l-.013-.015q-.045-.052-.09-.1l-.032-.034-.083-.086-.027-.028q-.054-.055-.11-.107l-.023-.021-.093-.084-.036-.031-.094-.079-.026-.021q-.06-.048-.121-.094L11,38.485l-.1-.07-.038-.027-.11-.074-.019-.013-.113-.071.029-.029.08-.08.044-.046c.029-.031.057-.062.084-.094l.035-.041c.029-.035.058-.07.086-.107l.028-.035c.028-.037.055-.075.082-.113a3.543,3.543,0,0,0,2.166-.369,3.861,3.861,0,0,1,2.219,3.5v1.1Z" transform="translate(0 -30.608)"/></g></g></svg>