<svg xmlns="http://www.w3.org/2000/svg" width="32" height="32" viewBox="0 0 32 32">
  <g id="Group_115428" data-name="Group 115428" transform="translate(-506 -148)">
    <g id="Group_863" data-name="Group 863" transform="translate(506.367 148.047)">
      <g id="Group_521" data-name="Group 521" transform="translate(-0.367 -0.047)">
        <circle id="Ellipse_91" data-name="Ellipse 91" cx="16" cy="16" r="16" fill="#f3f5f8"/>
      </g>
    </g>
    <g id="user" transform="translate(514.286 156.442)">
      <path id="Path_30751" data-name="Path 30751" d="M7.776,15.552a7.775,7.775,0,1,1,5.946-2.764,7.857,7.857,0,0,1-.918.92,7.778,7.778,0,0,1-5.028,1.844Zm0-14.58a6.8,6.8,0,0,0-5.2,11.189,6.884,6.884,0,0,0,.8.805,6.8,6.8,0,0,0,8.8,0,6.883,6.883,0,0,0,.8-.806A6.8,6.8,0,0,0,7.776.972Z" transform="translate(0 0)" fill="#383a65"/>
      <path id="Path_30752" data-name="Path 30752" d="M162.916,69.832a2.916,2.916,0,1,1,2.916-2.916A2.919,2.919,0,0,1,162.916,69.832Zm0-4.86a1.944,1.944,0,1,0,1.944,1.944A1.946,1.946,0,0,0,162.916,64.972Z" transform="translate(-155.14 -62.056)" fill="#383a65"/>
      <path id="Path_30753" data-name="Path 30753" d="M90.06,231.019a.486.486,0,0,1-.472-.6,4.378,4.378,0,0,0-4.178-5.442h-.128a4.378,4.378,0,0,0-4.178,5.442.486.486,0,1,1-.943.237A5.347,5.347,0,0,1,85.27,224h.152a5.35,5.35,0,0,1,5.109,6.651A.486.486,0,0,1,90.06,231.019Z" transform="translate(-77.57 -217.196)" fill="#383a65"/>
    </g>
  </g>
</svg>
